<?xml version="1.0" standalone="no"?>
<!DOCTYPE svg PUBLIC "-//W3C//DTD SVG 1.1//EN" "http://www.w3.org/Graphics/SVG/1.1/DTD/svg11.dtd" >
<svg xmlns="http://www.w3.org/2000/svg" xmlns:xlink="http://www.w3.org/1999/xlink" version="1.1">
<metadata>
Created by FontForge 20161003 at Mon Jan 21 20:00:08 2019
 By www-data
Copyright (c) 2016 by Radomir Tinkov. All rights reserved.
</metadata>
<defs>
<font id="libertynusregularwebfont" horiz-adv-x="636" >
  <font-face 
    font-family="libertynusregularwebfont"
    font-weight="400"
    font-stretch="normal"
    units-per-em="1000"
    panose-1="0 0 5 0 0 0 0 0 0 0"
    ascent="800"
    descent="-200"
    x-height="500"
    cap-height="700"
    bbox="-317 -258 1028 960"
    underline-thickness="50"
    underline-position="-250"
    unicode-range="U+0020-FB02"
  />
<missing-glyph horiz-adv-x="500" 
d="M410 -200h-317v1000h317v-1000zM168 733v-33h65v-37h-66v-33h166v33h-66v37h66v33h-165zM167 604v-104h166v34h-66v70h-100zM233 534h-33v36h33v-36zM167 473v-33h66v-37h-66v-33h100v70h66v33h-166zM300 413v-66h-133v-34h166v100h-33zM233 291v-56h34v23h33v-47h-100
v80h-33v-113h166v113h-100zM167 118v-113h166v113h-166zM300 38h-100v47h100v-47zM167 -18v-33h70l-70 -47v-33h166v33h-102l70 47h32v33h-166z" />
    <glyph glyph-name="fi" unicode="fi" horiz-adv-x="516" 
d="M446 0h-66v436h-204v-436h-66v436h-85v64h85v20q0 192 210 192q42 0 96 -12v-60q-47 8 -96 8q-75 0 -109.5 -29t-34.5 -99v-20h270v-500z" />
    <glyph glyph-name="fl" unicode="fl" horiz-adv-x="516" 
d="M320 712q58 0 126 -12v-700h-66v649q-32 3 -60 3q-74 0 -109 -30.5t-35 -101.5v-20h114v-64h-114v-436h-66v436h-85v64h85v20q0 192 210 192z" />
    <glyph glyph-name="f_f" unicode="ff" horiz-adv-x="590" 
d="M590 658q-73 6 -108.5 -25t-35.5 -103v-30h144v-64h-144v-436h-66v436h-204v-436h-66v436h-85v64h85v20q0 98 54.5 148.5t155.5 43.5v-64q-73 6 -108.5 -25t-35.5 -103v-20h204v30q0 98 54.5 148.5t155.5 43.5v-64z" />
    <glyph glyph-name="f_f_i" unicode="ffi" horiz-adv-x="786" 
d="M716 0h-66v436h-204v-436h-66v436h-204v-436h-66v436h-85v64h85v20q0 98 54.5 148.5t155.5 43.5v-64q-73 6 -108.5 -25t-35.5 -103v-20h204v30q0 192 210 192q42 0 96 -12v-60q-47 8 -96 8q-75 0 -109.5 -29t-34.5 -99v-30h270v-500z" />
    <glyph glyph-name="f_f_l" unicode="ffl" horiz-adv-x="786" 
d="M590 722q58 0 126 -12v-710h-66v659q-31 3 -60 3q-74 0 -109 -30.5t-35 -101.5v-30h114v-64h-114v-436h-66v436h-204v-436h-66v436h-85v64h85v20q0 98 54.5 148.5t155.5 43.5v-64q-73 6 -108.5 -25t-35.5 -103v-20h204v30q0 192 210 192z" />
    <glyph glyph-name=".notdef" horiz-adv-x="500" 
d="M410 -200h-317v1000h317v-1000zM168 733v-33h65v-37h-66v-33h166v33h-66v37h66v33h-165zM167 604v-104h166v34h-66v70h-100zM233 534h-33v36h33v-36zM167 473v-33h66v-37h-66v-33h100v70h66v33h-166zM300 413v-66h-133v-34h166v100h-33zM233 291v-56h34v23h33v-47h-100
v80h-33v-113h166v113h-100zM167 118v-113h166v113h-166zM300 38h-100v47h100v-47zM167 -18v-33h70l-70 -47v-33h166v33h-102l70 47h32v33h-166z" />
    <glyph glyph-name=".null" horiz-adv-x="0" 
 />
    <glyph glyph-name="nonmarkingreturn" horiz-adv-x="333" 
 />
    <glyph glyph-name="space" unicode=" " horiz-adv-x="250" 
 />
    <glyph glyph-name="exclam" unicode="!" horiz-adv-x="230" 
d="M75 500v200h80v-200l-15 -310h-50zM115 -10q-23 0 -39 16t-16 39t16 39t39 16t39 -16t16 -39t-16 -39t-39 -16z" />
    <glyph glyph-name="quotedbl" unicode="&#x22;" horiz-adv-x="310" 
d="M50 700h70l-10 -200h-50zM190 700h70l-10 -200h-50z" />
    <glyph glyph-name="numbersign" unicode="#" horiz-adv-x="599" 
d="M440 410l-20 -120h120l-10 -60h-120l-30 -180h-64l30 180h-132l-30 -180h-64l30 180h-120l10 60h120l20 120h-121l10 60h121l30 180h64l-30 -180h132l30 180h64l-30 -180h119l-10 -60h-119zM376 410h-132l-20 -120h132z" />
    <glyph glyph-name="dollar" unicode="$" horiz-adv-x="550" 
d="M510 182q0 -78 -53 -130.5t-137 -61.5v-90h-60v89q-81 5 -138 43t-82 102l60 35q37 -102 160 -112v276q-45 16 -72.5 29t-56.5 35t-42.5 54t-13.5 75q0 78 52.5 127.5t132.5 57.5v89h60v-90q59 -7 105 -40t70 -89l-59 -33q-32 80 -116 93v-260q44 -15 73 -29t58.5 -37
t44 -56t14.5 -77zM145 526q0 -46 28 -73t87 -50v239q-52 -6 -83.5 -36.5t-31.5 -79.5zM320 58q56 8 88 41t32 83q0 49 -30 77.5t-90 52.5v-254z" />
    <glyph glyph-name="percent" unicode="%" horiz-adv-x="709" 
d="M213 412q-65 0 -109 43.5t-44 106.5t44 106.5t109 43.5t109 -43.5t44 -106.5t-43 -106.5t-110 -43.5zM213 472q39 0 64 26t25 64t-25 64t-64 26t-64 -26t-25 -64t25 -64t64 -26zM564 622l43 -24l-470 -527l-42 24zM496 -12q-65 0 -109 43.5t-44 106.5t44 106.5t109 43.5
t109 -43.5t44 -106.5t-44 -106.5t-109 -43.5zM496 48q39 0 64 26t25 64t-25 64t-64 26t-64 -26t-25 -64t25 -64t64 -26z" />
    <glyph glyph-name="ampersand" unicode="&#x26;" horiz-adv-x="657" 
d="M570 -12l-74 79q-79 -79 -206 -79q-103 0 -166.5 53.5t-63.5 144.5q0 66 34 119t101 84q-52 59 -52 132q0 87 60 139t140 52q67 0 122.5 -37.5t79.5 -101.5l-59 -34q-15 49 -53.5 77t-88.5 28q-54 0 -92.5 -33t-38.5 -86q0 -35 16.5 -63t48.5 -62l211 -225q29 57 38 133
l62 -36q-13 -87 -51 -149l94 -100zM288 56q100 0 160 62l-206 219q-59 -22 -85.5 -62.5t-26.5 -86.5q0 -61 42.5 -96.5t115.5 -35.5z" />
    <glyph glyph-name="quotesingle" unicode="'" horiz-adv-x="170" 
d="M50 700h70l-10 -200h-50z" />
    <glyph glyph-name="parenleft" unicode="(" horiz-adv-x="266" 
d="M170 -100q-110 220 -110 450t110 450h66q-110 -220 -110 -450t110 -450h-66z" />
    <glyph glyph-name="parenright" unicode=")" horiz-adv-x="266" 
d="M30 -100q110 220 110 450t-110 450h66q110 -220 110 -450t-110 -450h-66z" />
    <glyph glyph-name="asterisk" unicode="*" horiz-adv-x="392" 
d="M332 554l-91 3l52 -75l-51 -30l-46 81l-46 -81l-51 30l52 75l-91 -3v56l91 -3l-52 75l51 30l46 -81l46 81l51 -30l-52 -75l91 3v-56z" />
    <glyph glyph-name="plus" unicode="+" horiz-adv-x="540" 
d="M480 318h-178v-178h-64v178h-178v64h178v178h64v-178h178v-64z" />
    <glyph glyph-name="comma" unicode="," horiz-adv-x="240" 
d="M120 -140h-60l40 225h80z" />
    <glyph glyph-name="hyphen" unicode="-" horiz-adv-x="520" 
d="M80 341h360v-64h-360v64z" />
    <glyph glyph-name="period" unicode="." horiz-adv-x="230" 
d="M115 -10q-23 0 -39 16t-16 39t16 39t39 16t39 -16t16 -39t-16 -39t-39 -16z" />
    <glyph glyph-name="slash" unicode="/" horiz-adv-x="530" 
d="M40 -100l400 900h50l-400 -900h-50z" />
    <glyph glyph-name="zero" unicode="0" horiz-adv-x="630" 
d="M315 -12q-126 0 -195.5 98.5t-69.5 263.5t69.5 263.5t195.5 98.5t195.5 -98.5t69.5 -263.5t-69.5 -263.5t-195.5 -98.5zM315 56q92 0 143.5 77t51.5 217t-51.5 217t-143.5 77t-143.5 -77t-51.5 -217t51.5 -217t143.5 -77z" />
    <glyph glyph-name="one" unicode="1" horiz-adv-x="340" 
d="M260 700v-700h-70v623l-157 -47l-18 60l185 64h60z" />
    <glyph glyph-name="two" unicode="2" horiz-adv-x="525" 
d="M40 63l252 254q108 108 108 185q0 67 -41.5 104.5t-99.5 37.5q-108 0 -157 -99l-59 35q33 65 90 98.5t126 33.5q84 0 147.5 -56.5t63.5 -153.5q0 -61 -34 -117t-96 -118l-200 -199h345v-68h-445v63z" />
    <glyph glyph-name="three" unicode="3" horiz-adv-x="530" 
d="M297 409q84 -11 138.5 -64.5t54.5 -141.5q0 -100 -68.5 -157.5t-166.5 -57.5q-78 0 -139 36t-86 103l58 34q17 -52 61 -78.5t106 -26.5q72 0 118.5 38.5t46.5 108.5t-46.5 108.5t-118.5 38.5v1l-1 -1h-19l-30 46l174 238h-329v66h410v-66z" />
    <glyph glyph-name="four" unicode="4" horiz-adv-x="580" 
d="M555 140h-90v-140h-70v140h-370v66l260 494h77l-260 -494h293v214h70v-214h90v-66z" />
    <glyph glyph-name="five" unicode="5" horiz-adv-x="540" 
d="M265 418q98 0 166.5 -57.5t68.5 -157.5t-68.5 -157.5t-166.5 -57.5q-79 0 -141 38.5t-84 110.5l59 34q15 -56 59.5 -85.5t106.5 -29.5q72 0 118.5 38.5t46.5 108.5t-46.5 108.5t-118.5 38.5h-190l25 350h375v-66h-313l-15 -216h118z" />
    <glyph glyph-name="six" unicode="6" horiz-adv-x="530" 
d="M265 450q103 0 169 -64.5t66 -166.5t-66 -166.5t-169 -64.5t-169 64.5t-66 166.5q0 79 43 140l229 341h79l-172 -256q27 6 56 6zM265 56q74 0 119.5 45t45.5 118t-45.5 118t-119.5 45t-119.5 -45t-45.5 -118t45.5 -118t119.5 -45z" />
    <glyph glyph-name="seven" unicode="7" horiz-adv-x="490" 
d="M450 700v-66l-264 -634h-73l264 634h-357v66h430z" />
    <glyph glyph-name="eight" unicode="8" horiz-adv-x="548" 
d="M392 361q53 -25 84.5 -69.5t31.5 -101.5q0 -95 -67 -148.5t-167 -53.5t-167 53.5t-67 148.5q0 57 31.5 101.5t84.5 69.5q-93 53 -93 157q0 94 62.5 144t148.5 50t148.5 -50t62.5 -144q0 -104 -93 -157zM274 644q-60 0 -100.5 -31t-40.5 -95q0 -60 41.5 -93t99.5 -33
t99.5 33t41.5 93q0 64 -40.5 95t-100.5 31zM274 56q74 0 119 34.5t45 99.5t-45 99.5t-119 34.5t-119 -34.5t-45 -99.5t45 -99.5t119 -34.5z" />
    <glyph glyph-name="nine" unicode="9" horiz-adv-x="530" 
d="M500 481q0 -79 -43 -140l-229 -341h-79l172 256q-27 -6 -56 -6q-103 0 -169 64.5t-66 166.5t66 166.5t169 64.5t169 -64.5t66 -166.5zM100 481q0 -73 45.5 -118t119.5 -45t119.5 45t45.5 118t-45.5 118t-119.5 45t-119.5 -45t-45.5 -118z" />
    <glyph glyph-name="colon" unicode=":" horiz-adv-x="230" 
d="M115 400q-23 0 -39 16t-16 39t16 39t39 16t39 -16t16 -39t-16 -39t-39 -16zM115 -10q-23 0 -39 16t-16 39t16 39t39 16t39 -16t16 -39t-16 -39t-39 -16z" />
    <glyph glyph-name="semicolon" unicode=";" horiz-adv-x="245" 
d="M130 400q-23 0 -39 16t-16 39t16 39t39 16t39 -16t16 -39t-16 -39t-39 -16zM120 -140h-60l40 225h80z" />
    <glyph glyph-name="less" unicode="&#x3c;" horiz-adv-x="520" 
d="M460 486l-325 -136l325 -136v-74l-400 175v70l400 175v-74z" />
    <glyph glyph-name="equal" unicode="=" horiz-adv-x="540" 
d="M60 482h420v-64h-420v64zM60 282h420v-64h-420v64z" />
    <glyph glyph-name="greater" unicode="&#x3e;" horiz-adv-x="520" 
d="M460 385v-70l-400 -175v74l325 136l-325 136v74z" />
    <glyph glyph-name="question" unicode="?" horiz-adv-x="532" 
d="M210 190q0 49 20 89.5t48 68.5t56 54t48 57.5t20 67.5q0 58 -39.5 87.5t-101.5 29.5q-123 0 -152 -101l-59 33q23 67 80.5 101.5t130.5 34.5q88 0 149.5 -48.5t61.5 -136.5q0 -43 -20 -80t-48 -64.5t-56 -54.5t-48 -62.5t-20 -75.5h-70zM245 -10q-23 0 -39 16t-16 39
t16 39t39 16t39 -16t16 -39t-16 -39t-39 -16z" />
    <glyph glyph-name="at" unicode="@" horiz-adv-x="794" 
d="M404 612q106 0 188 -51.5t122 -128.5t40 -162q0 -106 -43 -159t-101 -53q-42 0 -72 21.5t-40 64.5q-43 -54 -111 -54q-69 0 -115.5 46t-46.5 114t46.5 114t115.5 46q64 0 106 -48v41h62v-216q0 -96 65 -96q44 0 74 43.5t30 135.5q0 134 -92.5 224t-227.5 90
q-139 0 -236.5 -96t-97.5 -238q0 -145 100 -239.5t252 -94.5q101 0 174 29v-30q-75 -27 -174 -27q-164 0 -273 102.5t-109 259.5q0 151 104.5 256.5t259.5 105.5zM391 150q43 0 72.5 27.5t29.5 72.5t-29.5 72.5t-72.5 27.5t-73.5 -27.5t-30.5 -72.5t30.5 -72.5t73.5 -27.5z
" />
    <glyph glyph-name="A" unicode="A" horiz-adv-x="630" 
d="M481 172h-332l-65 -172h-74l269 700h72l269 -700h-74zM456 238l-141 375l-141 -375h282z" />
    <glyph glyph-name="B" unicode="B" horiz-adv-x="620" 
d="M468 363q51 -22 81.5 -66.5t30.5 -101.5q0 -81 -57 -138t-138 -57h-305v700h282q78 0 133 -55.5t55 -132.5q0 -98 -82 -149zM150 634v-244h212q49 0 83.5 35.5t34.5 86.5q0 50 -34.5 86t-83.5 36h-212zM385 66q52 0 88.5 37.5t36.5 91.5q0 53 -36.5 91t-88.5 38h-235
v-258h235z" />
    <glyph glyph-name="C" unicode="C" horiz-adv-x="745" 
d="M407 -12q-159 0 -263 105t-104 257t104 257t263 105q97 0 178 -46.5t125 -125.5l-62 -36q-33 64 -98 102t-143 38q-131 0 -214 -85t-83 -209t83 -209t214 -85q78 0 143 38t98 102l62 -35q-43 -79 -124.5 -126t-178.5 -47z" />
    <glyph glyph-name="D" unicode="D" horiz-adv-x="720" 
d="M350 700q143 0 236.5 -101.5t93.5 -248.5t-93.5 -248.5t-236.5 -101.5h-270v700h270zM350 66q115 0 188.5 82t73.5 202t-73.5 202t-188.5 82h-200v-568h200z" />
    <glyph glyph-name="E" unicode="E" horiz-adv-x="530" 
d="M490 66v-66h-410v700h405v-66h-335v-248h310v-66h-310v-254h340z" />
    <glyph glyph-name="F" unicode="F" horiz-adv-x="515" 
d="M150 634v-258h310v-66h-310v-310h-70v700h395v-66h-325z" />
    <glyph glyph-name="G" unicode="G" horiz-adv-x="789" 
d="M749 297q0 -130 -93 -219.5t-249 -89.5q-159 0 -263 105t-104 257t104 257t263 105q97 0 178 -47t125 -125l-62 -36q-33 64 -98 102t-143 38q-131 0 -214 -85t-83 -209t83 -209t214 -85q118 0 189 59.5t81 151.5h-278v66h350v-36z" />
    <glyph glyph-name="H" unicode="H" horiz-adv-x="680" 
d="M600 700v-700h-70v327h-380v-327h-70v700h70v-307h380v307h70z" />
    <glyph glyph-name="I" unicode="I" horiz-adv-x="230" 
d="M150 700v-700h-70v700h70z" />
    <glyph glyph-name="J" unicode="J" horiz-adv-x="553" 
d="M253 -12q-73 0 -130.5 30.5t-82.5 89.5l59 35q33 -87 154 -87q73 0 116.5 35t43.5 107v502h70v-502q0 -102 -65.5 -156t-164.5 -54z" />
    <glyph glyph-name="K" unicode="K" horiz-adv-x="580" 
d="M478 0l-328 339v-339h-70v700h70v-320l318 320h92l-336 -340l346 -360h-92z" />
    <glyph glyph-name="L" unicode="L" horiz-adv-x="490" 
d="M470 66v-66h-390v700h70v-634h320z" />
    <glyph glyph-name="M" unicode="M" horiz-adv-x="800" 
d="M720 0h-70v594l-245 -410h-10l-245 410v-594h-70v700h87l233 -390l233 390h87v-700z" />
    <glyph glyph-name="N" unicode="N" horiz-adv-x="680" 
d="M600 700v-700h-60l-390 570v-570h-70v700h60l390 -570v570h70z" />
    <glyph glyph-name="O" unicode="O" horiz-adv-x="804" 
d="M402 -12q-152 0 -257 105.5t-105 256.5t105 256.5t257 105.5t257 -105.5t105 -256.5t-105 -256.5t-257 -105.5zM402 56q124 0 208 85.5t84 208.5t-84 208.5t-208 85.5t-208 -85.5t-84 -208.5t84 -208.5t208 -85.5z" />
    <glyph glyph-name="P" unicode="P" horiz-adv-x="590" 
d="M330 700q94 0 157 -63t63 -157t-63 -157t-157 -63h-180v-260h-70v700h250zM330 326q65 0 107.5 43.5t42.5 110.5t-42.5 110.5t-107.5 43.5h-180v-308h180z" />
    <glyph glyph-name="Q" unicode="Q" horiz-adv-x="809" 
d="M764 350q0 -150 -106 -256l80 -78l-47 -43l-81 80q-94 -65 -208 -65q-150 0 -256 106t-106 256t106 256t256 106t256 -106t106 -256zM402 56q85 0 158 46l-152 150l47 43l155 -152q84 86 84 207q0 122 -85.5 208t-206.5 86t-206.5 -86t-85.5 -208t85.5 -208t206.5 -86z
" />
    <glyph glyph-name="R" unicode="R" horiz-adv-x="610" 
d="M346 280h-196v-280h-70v700h280q87 0 148.5 -61.5t61.5 -148.5q0 -71 -42.5 -126.5t-108.5 -74.5l171 -289h-80zM150 346h210q58 0 99 42.5t41 101.5q0 60 -41 102t-99 42h-210v-288z" />
    <glyph glyph-name="S" unicode="S" horiz-adv-x="576" 
d="M300 -12q-96 0 -164.5 45.5t-95.5 125.5l60 35q19 -65 70 -101.5t131 -36.5q78 0 121.5 34.5t43.5 91.5q0 55 -40 83t-132 58q-109 36 -144 58q-80 48 -80 139q0 89 62 140.5t153 51.5q82 0 142 -42.5t89 -108.5l-59 -33q-48 116 -172 116q-65 0 -105 -32t-40 -89
q0 -52 36 -78t119 -53q38 -13 54.5 -18.5t48 -18t46.5 -22t36.5 -26t31 -33t17 -40t7.5 -50.5q0 -89 -65 -142.5t-171 -53.5z" />
    <glyph glyph-name="T" unicode="T" horiz-adv-x="540" 
d="M520 634h-215v-634h-70v634h-215v66h500v-66z" />
    <glyph glyph-name="U" unicode="U" horiz-adv-x="660" 
d="M330 -12q-116 0 -188 68t-72 182v462h70v-462q0 -84 50 -133t140 -49t140 49t50 133v462h70v-462q0 -114 -72 -182t-188 -68z" />
    <glyph glyph-name="V" unicode="V" horiz-adv-x="608" 
d="M10 700h76l218 -607l218 607h76l-258 -700h-72z" />
    <glyph glyph-name="W" unicode="W" horiz-adv-x="1000" 
d="M30 700h74l173 -605l182 605h82l182 -605l173 605h74l-203 -700h-84l-183 608l-183 -608h-84z" />
    <glyph glyph-name="X" unicode="X" horiz-adv-x="580" 
d="M480 0l-190 299l-190 -299h-80l230 361l-215 339h79l176 -276l176 276h79l-215 -339l230 -361h-80z" />
    <glyph glyph-name="Y" unicode="Y" horiz-adv-x="595" 
d="M332 287v-287h-70v289l-252 411h79l209 -343l208 343h79z" />
    <glyph glyph-name="Z" unicode="Z" horiz-adv-x="520" 
d="M490 66v-66h-450v66l362 568h-352v66h430v-66l-362 -568h372z" />
    <glyph glyph-name="bracketleft" unicode="[" horiz-adv-x="280" 
d="M126 736v-772h134v-64h-200v900h200v-64h-134z" />
    <glyph glyph-name="backslash" unicode="\" horiz-adv-x="530" 
d="M40 800h50l400 -900h-50z" />
    <glyph glyph-name="bracketright" unicode="]" horiz-adv-x="280" 
d="M220 -100h-200v64h134v772h-134v64h200v-900z" />
    <glyph glyph-name="asciicircum" unicode="^" horiz-adv-x="500" 
d="M460 400h-77l-133 227l-133 -227h-77l176 300h68z" />
    <glyph glyph-name="underscore" unicode="_" horiz-adv-x="520" 
d="M40 -77h440v-64h-440v64z" />
    <glyph glyph-name="grave" unicode="`" horiz-adv-x="200" 
d="M100 700h-80l96 -130h64z" />
    <glyph glyph-name="a" unicode="a" 
d="M566 500v-500h-66v98q-69 -110 -202 -110q-107 0 -182.5 76t-75.5 186t75.5 186t182.5 76q133 0 202 -110v98h66zM303 52q83 0 140 57.5t57 140.5t-57 140.5t-140 57.5t-140 -57.5t-57 -140.5t57 -140.5t140 -57.5z" />
    <glyph glyph-name="b" unicode="b" 
d="M338 512q107 0 182.5 -76t75.5 -186t-75.5 -186t-182.5 -76q-133 0 -202 110v-98h-66v700h66v-298q69 110 202 110zM333 52q83 0 140 57.5t57 140.5t-57 140.5t-140 57.5t-140 -57.5t-57 -140.5t57 -140.5t140 -57.5z" />
    <glyph glyph-name="c" unicode="c" horiz-adv-x="552" 
d="M303 -12q-113 0 -188 75.5t-75 186.5t75 186.5t188 75.5q74 0 133 -35.5t86 -95.5l-54 -31q-20 45 -64.5 71.5t-100.5 26.5q-83 0 -140 -57.5t-57 -140.5t57 -140.5t140 -57.5q56 0 100 26.5t69 71.5l55 -32q-31 -60 -91 -95t-133 -35z" />
    <glyph glyph-name="d" unicode="d" 
d="M566 700v-700h-66v98q-69 -110 -202 -110q-107 0 -182.5 76t-75.5 186t75.5 186t182.5 76q133 0 202 -110v298h66zM303 52q83 0 140 57.5t57 140.5t-57 140.5t-140 57.5t-140 -57.5t-57 -140.5t57 -140.5t140 -57.5z" />
    <glyph glyph-name="e" unicode="e" horiz-adv-x="584" 
d="M301 512q111 0 179.5 -78.5t68.5 -185.5q0 -11 -2 -31h-439q10 -76 64.5 -120.5t134.5 -44.5q57 0 98.5 23.5t62.5 61.5l58 -34q-33 -53 -90 -84t-130 -31q-118 0 -192 74t-74 188q0 112 73 187t188 75zM301 448q-78 0 -130.5 -46.5t-62.5 -120.5h373q-10 79 -61 123
t-119 44z" />
    <glyph glyph-name="f" unicode="f" horiz-adv-x="320" 
d="M320 648q-73 6 -108.5 -25t-35.5 -103v-20h144v-64h-144v-436h-66v436h-85v64h85v20q0 98 54.5 148.5t155.5 43.5v-64z" />
    <glyph glyph-name="g" unicode="g" 
d="M566 500v-480q0 -108 -74 -170t-177 -62q-176 0 -237 122l58 33q45 -91 179 -91q86 0 135.5 45.5t49.5 122.5v78q-69 -110 -202 -110q-107 0 -182.5 76t-75.5 186t75.5 186t182.5 76q133 0 202 -110v98h66zM303 52q83 0 140 57.5t57 140.5t-57 140.5t-140 57.5
t-140 -57.5t-57 -140.5t57 -140.5t140 -57.5z" />
    <glyph glyph-name="h" unicode="h" horiz-adv-x="558" 
d="M304 512q91 0 143.5 -55.5t52.5 -149.5v-307h-66v307q0 67 -35.5 104t-100.5 37q-72 0 -117 -45.5t-45 -140.5v-262h-66v700h66v-278q56 90 168 90z" />
    <glyph glyph-name="i" unicode="i" horiz-adv-x="206" 
d="M103 606q-20 0 -34 14t-14 34t14 34t34 14t34 -14t14 -34t-14 -34t-34 -14zM70 500h66v-500h-66v500z" />
    <glyph glyph-name="j" unicode="j" horiz-adv-x="230" 
d="M127 702q20 0 34 -14t14 -34t-14 -34t-34 -14t-34 14t-14 34t14 34t34 14zM94 500h66v-540q0 -90 -47 -135t-133 -37v64q59 -6 86.5 19t27.5 89v540z" />
    <glyph glyph-name="k" unicode="k" horiz-adv-x="494" 
d="M386 0l-250 241v-241h-66v700h66v-421l238 221h90l-258 -240l268 -260h-88z" />
    <glyph glyph-name="l" unicode="l" horiz-adv-x="206" 
d="M70 730h66v-730h-66v730z" />
    <glyph glyph-name="m" unicode="m" horiz-adv-x="848" 
d="M603 512q84 0 135.5 -54t51.5 -146v-312h-66v312q0 65 -33.5 100.5t-88.5 35.5q-62 0 -100.5 -41.5t-38.5 -129.5v-277h-66v312q0 66 -31.5 101t-85.5 35q-60 0 -102 -42t-42 -129v-277h-66v500h66v-73q54 85 153 85q108 0 152 -91q54 91 162 91z" />
    <glyph glyph-name="n" unicode="n" horiz-adv-x="558" 
d="M304 512q91 0 143.5 -55.5t52.5 -149.5v-307h-66v307q0 67 -35.5 104t-100.5 37q-72 0 -117 -45.5t-45 -140.5v-262h-66v500h66v-78q56 90 168 90z" />
    <glyph glyph-name="o" unicode="o" horiz-adv-x="606" 
d="M303 -12q-110 0 -186.5 75.5t-76.5 186.5t76.5 186.5t186.5 75.5t186.5 -75.5t76.5 -186.5t-76.5 -186.5t-186.5 -75.5zM303 52q83 0 140 57.5t57 140.5t-57 140.5t-140 57.5t-140 -57.5t-57 -140.5t57 -140.5t140 -57.5z" />
    <glyph glyph-name="p" unicode="p" 
d="M338 512q107 0 182.5 -76t75.5 -186t-75.5 -186t-182.5 -76q-133 0 -202 110v-298h-66v700h66v-98q69 110 202 110zM333 52q83 0 140 57.5t57 140.5t-57 140.5t-140 57.5t-140 -57.5t-57 -140.5t57 -140.5t140 -57.5z" />
    <glyph glyph-name="q" unicode="q" 
d="M566 500v-700h-66v298q-69 -110 -202 -110q-107 0 -182.5 76t-75.5 186t75.5 186t182.5 76q133 0 202 -110v98h66zM303 52q83 0 140 57.5t57 140.5t-57 140.5t-140 57.5t-140 -57.5t-57 -140.5t57 -140.5t140 -57.5z" />
    <glyph glyph-name="r" unicode="r" horiz-adv-x="314" 
d="M136 417q46 91 158 91v-64q-68 0 -113 -40t-45 -126v-278h-66v500h66v-83z" />
    <glyph glyph-name="s" unicode="s" horiz-adv-x="454" 
d="M122 369q0 -34 30 -54t73 -31t86 -24.5t73 -45t30 -82.5q0 -64 -50.5 -104t-130.5 -40q-72 0 -122.5 32t-70.5 83l56 33q14 -39 50.5 -61.5t86.5 -22.5q49 0 82 19.5t33 60.5q0 34 -30 54t-73 31t-86 24.5t-73 45t-30 82.5q0 61 48.5 102t122.5 41q61 0 107 -27.5
t68 -74.5l-55 -32q-29 70 -120 70q-43 0 -74 -20.5t-31 -58.5z" />
    <glyph glyph-name="t" unicode="t" horiz-adv-x="375" 
d="M191 436v-303q0 -41 16 -58.5t48 -18t80 1.5v-58q-105 -16 -157.5 15t-52.5 118v303h-105v64h105v120l66 20v-140h144v-64h-144z" />
    <glyph glyph-name="u" unicode="u" horiz-adv-x="558" 
d="M488 500v-500h-66v78q-56 -90 -168 -90q-91 0 -143.5 55.5t-52.5 149.5v307h66v-307q0 -67 35.5 -104t100.5 -37q72 0 117 45.5t45 140.5v262h66z" />
    <glyph glyph-name="v" unicode="v" horiz-adv-x="510" 
d="M500 500l-205 -500h-80l-205 500h70l175 -431l175 431h70z" />
    <glyph glyph-name="w" unicode="w" horiz-adv-x="770" 
d="M740 500l-154 -500h-72l-129 403l-129 -403h-72l-154 500h68l123 -415l131 415h66l131 -415l123 415h68z" />
    <glyph glyph-name="x" unicode="x" horiz-adv-x="510" 
d="M411 0l-156 206l-156 -206h-79l196 259l-183 241h79l143 -189l143 189h79l-182 -241l195 -259h-79z" />
    <glyph glyph-name="y" unicode="y" horiz-adv-x="510" 
d="M500 500l-214 -546q-29 -74 -82.5 -116.5t-119.5 -37.5v62q90 -10 137 104l13 31l-224 503h70l188 -419l162 419h70z" />
    <glyph glyph-name="z" unicode="z" horiz-adv-x="470" 
d="M430 64v-64h-380v44l278 392h-268v64h360v-44l-278 -392h288z" />
    <glyph glyph-name="braceleft" unicode="{" horiz-adv-x="354" 
d="M334 -108q-87 -8 -133.5 32.5t-46.5 129.5v167q0 60 -24 79t-80 19v64q56 0 80 19t24 79v167q0 89 46.5 129.5t133.5 32.5v-64q-60 6 -87 -15t-27 -83v-167q0 -107 -78 -130q78 -23 78 -130v-167q0 -62 27 -83t87 -15v-64z" />
    <glyph glyph-name="bar" unicode="|" horiz-adv-x="226" 
d="M80 720h66v-920h-66v920z" />
    <glyph glyph-name="braceright" unicode="}" horiz-adv-x="354" 
d="M20 -44q60 -6 87 15t27 83v167q0 107 78 130q-78 23 -78 130v167q0 62 -27 83t-87 15v64q87 8 133.5 -32.5t46.5 -129.5v-167q0 -60 24 -79t80 -19v-64q-56 0 -80 -19t-24 -79v-167q0 -89 -46.5 -129.5t-133.5 -32.5v64z" />
    <glyph glyph-name="asciitilde" unicode="~" horiz-adv-x="594" 
d="M534 386q-26 -85 -88 -104t-164 40q-77 44 -111.5 33t-50.5 -69l-60 28q26 84 89.5 103t162.5 -39q50 -31 83.5 -34.5t50.5 14t28 56.5z" />
    <glyph glyph-name="exclamdown" unicode="&#xa1;" horiz-adv-x="230" 
d="M115 510q23 0 39 -16t16 -39t-16 -39t-39 -16t-39 16t-16 39t16 39t39 16zM140 310l15 -310v-200h-80v200l15 310h50z" />
    <glyph glyph-name="cent" unicode="&#xa2;" horiz-adv-x="552" 
d="M527 218q-31 -60 -91 -95t-133 -35q-33 0 -68 8l-31 -96h-50l36 112q-69 30 -109.5 94t-40.5 144q0 111 75 186.5t188 75.5q27 0 47 -4l30 92h50l-34 -105q89 -33 126 -114l-54 -31q-28 59 -91 84l-122 -376q23 -6 48 -6q56 0 100 26.5t69 71.5zM106 350q0 -57 28.5 -104
t75.5 -72l120 372q-18 2 -27 2q-83 0 -140 -57.5t-57 -140.5z" />
    <glyph glyph-name="sterling" unicode="&#xa3;" horiz-adv-x="585" 
d="M570 68v-68h-530v68h94v221h-74v62h74v151q0 101 61 155.5t144 54.5q137 0 191 -134l-57 -32q-36 98 -134 98q-57 0 -96 -35.5t-39 -106.5v-151h231v-62h-231v-221h366z" />
    <glyph glyph-name="currency" unicode="&#xa4;" horiz-adv-x="552" 
d="M489 350q0 -78 -47 -134l70 -70l-32 -32l-70 70q-59 -46 -134 -46t-134 46l-70 -70l-32 32l70 70q-47 58 -47 134t47 134l-70 70l32 32l70 -70q59 46 134 46t134 -46l70 70l32 -32l-70 -70q47 -56 47 -134zM129 350q0 -62 42.5 -105t104.5 -43t104.5 43t42.5 105
t-42.5 105t-104.5 43t-104.5 -43t-42.5 -105z" />
    <glyph glyph-name="yen" unicode="&#xa5;" horiz-adv-x="575" 
d="M369 347h134v-58h-170l-1 -2v-58h171v-58h-171v-171h-70v171h-189v58h189v60h-189v58h153l-216 353h79l209 -343l208 343h79z" />
    <glyph glyph-name="brokenbar" unicode="&#xa6;" horiz-adv-x="226" 
d="M80 720h66v-370h-66v370zM80 170h66v-370h-66v370z" />
    <glyph glyph-name="section" unicode="&#xa7;" horiz-adv-x="510" 
d="M406 139q44 -42 44 -103q0 -63 -49.5 -105.5t-130.5 -42.5q-79 0 -132 35t-77 98l56 32q31 -101 153 -101q50 0 82 22t32 62q0 29 -24 53t-51.5 38t-76.5 34l-15 6q-34 14 -58.5 28t-49 34.5t-37 48t-12.5 61.5q0 74 71 125q-41 41 -41 100q0 62 48 105t123 43
q65 0 111.5 -31.5t69.5 -88.5l-54 -31q-34 87 -127 87q-43 0 -74 -22t-31 -62q0 -28 22.5 -51.5t46.5 -36t72 -33.5q11 -5 16 -7q73 -33 115 -72t42 -103q0 -73 -64 -122zM126 339q0 -41 30.5 -67.5t85.5 -47.5q77 -28 113 -49q49 35 49 86q0 42 -31 68.5t-88 49.5
q-70 27 -105 48q-54 -33 -54 -88z" />
    <glyph glyph-name="dieresis" unicode="&#xa8;" horiz-adv-x="320" 
d="M65 575q-19 0 -32 13t-13 32t13 32t32 13t32 -13t13 -32t-13 -32t-32 -13zM255 575q-19 0 -32 13t-13 32t13 32t32 13t32 -13t13 -32t-13 -32t-32 -13z" />
    <glyph glyph-name="copyright" unicode="&#xa9;" horiz-adv-x="804" 
d="M402 -12q-150 0 -256 106t-106 256t106 256t256 106t256 -106t106 -256t-106 -256t-256 -106zM402 16q137 0 234.5 97.5t97.5 236.5t-97.5 236.5t-234.5 97.5t-234.5 -97.5t-97.5 -236.5t97.5 -236.5t234.5 -97.5zM405 158q-82 0 -138 56t-56 136t56 136t138 56
q53 0 96.5 -25t67.5 -68l-55 -32q-14 31 -44 47t-65 16q-58 0 -93.5 -38.5t-35.5 -91.5t35.5 -91.5t93.5 -38.5q36 0 66 16.5t44 47.5l55 -33q-24 -43 -68 -68t-97 -25z" />
    <glyph glyph-name="guillemotleft" unicode="&#xab;" horiz-adv-x="492" 
d="M152 309l110 -180h-82l-110 180l110 180h82zM312 309l110 -180h-82l-110 180l110 180h82z" />
    <glyph glyph-name="logicalnot" unicode="&#xac;" horiz-adv-x="520" 
d="M460 382v-180h-66v116h-334v64h400z" />
    <glyph glyph-name="registered" unicode="&#xae;" horiz-adv-x="804" 
d="M402 712q150 0 256 -106t106 -256t-106 -256t-256 -106t-256 106t-106 256t106 256t256 106zM402 16q137 0 234.5 97.5t97.5 236.5t-97.5 236.5t-234.5 97.5t-234.5 -97.5t-97.5 -236.5t97.5 -236.5t234.5 -97.5zM546 416q0 -80 -68 -107l78 -144h-69l-71 132h-62v-132
h-62v370h114q66 0 103 -34.5t37 -84.5zM354 357h56q35 0 54.5 16t19.5 43t-19.5 43t-54.5 16h-56v-118z" />
    <glyph glyph-name="macron" unicode="&#xaf;" horiz-adv-x="300" 
d="M20 638h260v-58h-260v58z" />
    <glyph glyph-name="degree" unicode="&#xb0;" horiz-adv-x="386" 
d="M193 510q-65 0 -109 43.5t-44 106.5t44 106.5t109 43.5t109 -43.5t44 -106.5t-43 -106.5t-110 -43.5zM193 570q39 0 64 26t25 64t-25 64t-64 26t-64 -26t-25 -64t25 -64t64 -26z" />
    <glyph glyph-name="plusminus" unicode="&#xb1;" horiz-adv-x="540" 
d="M480 447v-64h-178v-163h-64v163h-178v64h178v163h64v-163h178zM60 154h420v-64h-420v64z" />
    <glyph glyph-name="acute" unicode="&#xb4;" horiz-adv-x="200" 
d="M84 570l96 130h-80l-80 -130h64z" />
    <glyph glyph-name="uni00B5" unicode="&#xb5;" horiz-adv-x="606" 
d="M576 64v-64h-47q-38 0 -63 22t-31 59q-55 -93 -169 -93q-85 0 -130 51v-239h-66v700h66v-307q0 -67 35.5 -104t100.5 -37q72 0 117 45.5t45 140.5v262h66v-400q0 -16 10 -26t27 -10h39z" />
    <glyph glyph-name="paragraph" unicode="&#xb6;" horiz-adv-x="580" 
d="M540 638h-60v-838h-64v838h-112v-838h-64v500q-83 0 -141.5 58.5t-58.5 141.5t58.5 141.5t141.5 58.5h300v-62z" />
    <glyph glyph-name="periodcentered" unicode="&#xb7;" horiz-adv-x="230" 
d="M115 295q-23 0 -39 16t-16 39t16 39t39 16t39 -16t16 -39t-16 -39t-39 -16z" />
    <glyph glyph-name="cedilla" unicode="&#xb8;" horiz-adv-x="245" 
d="M132 -45q43 -8 68 -29t25 -52q0 -102 -205 -90v54q147 -12 147 36q0 38 -93 41v85h58v-45z" />
    <glyph glyph-name="guillemotright" unicode="&#xbb;" horiz-adv-x="492" 
d="M262 309l-110 -180h-82l110 180l-110 180h82zM422 309l-110 -180h-82l110 180l-110 180h82z" />
    <glyph glyph-name="onequarter" unicode="&#xbc;" horiz-adv-x="821" 
d="M117 300v332l-91 -27l-16 53l116 42h53v-400h-62zM587 700l-400 -700h-60l400 700h60zM801 75h-51v-75h-62v75h-206v58l149 267h67l-148 -267h138v96h62v-96h51v-58z" />
    <glyph glyph-name="onehalf" unicode="&#xbd;" horiz-adv-x="807" 
d="M117 300v332l-91 -27l-16 53l116 42h53v-400h-62zM587 700l-400 -700h-60l400 700h60zM778 60v-60h-280v51l168 154q42 37 42 85q0 28 -19.5 45t-52.5 17q-62 0 -87 -62l-52 29q38 93 139 93q60 0 97 -35t37 -87q0 -69 -62 -125l-118 -105h188z" />
    <glyph glyph-name="threequarters" unicode="&#xbe;" horiz-adv-x="926" 
d="M313 417q0 -58 -40 -93.5t-106 -35.5q-102 0 -142 84l52 30q25 -54 90 -54q40 0 62 18.5t22 50.5q0 31 -22.5 50t-61.5 19h-4l-31 47l90 107h-184v60h258v-60l-89 -106q50 -10 78 -40.5t28 -76.5zM692 700l-400 -700h-60l400 700h60zM906 75h-51v-75h-62v75h-206v58
l149 267h67l-148 -267h138v96h62v-96h51v-58z" />
    <glyph glyph-name="questiondown" unicode="&#xbf;" horiz-adv-x="532" 
d="M287 510q23 0 39 -16t16 -39t-16 -39t-39 -16t-39 16t-16 39t16 39t39 16zM322 310q0 -49 -20 -89.5t-48 -68.5t-56 -54t-48 -57.5t-20 -67.5q0 -58 39.5 -87.5t101.5 -29.5q123 0 152 101l59 -33q-23 -67 -80.5 -101.5t-130.5 -34.5q-88 0 -149.5 48.5t-61.5 136.5
q0 43 20 80t48 64.5t56 54.5t48 62.5t20 75.5h70z" />
    <glyph glyph-name="Agrave" unicode="&#xc0;" horiz-adv-x="630" 
d="M311 770l-96 130h80l80 -130h-64zM481 172h-332l-65 -172h-74l269 700h72l269 -700h-74zM456 238l-141 375l-141 -375h282z" />
    <glyph glyph-name="Aacute" unicode="&#xc1;" horiz-adv-x="630" 
d="M329 770h-64l80 130h80zM481 172h-332l-65 -172h-74l269 700h72l269 -700h-74zM456 238l-141 375l-141 -375h282z" />
    <glyph glyph-name="Acircumflex" unicode="&#xc2;" horiz-adv-x="630" 
d="M245 770h-75l106 130h78l106 -130h-75l-70 87zM481 172h-332l-65 -172h-74l269 700h72l269 -700h-74zM456 238l-141 375l-141 -375h282z" />
    <glyph glyph-name="Atilde" unicode="&#xc3;" horiz-adv-x="630" 
d="M315 803q-23 17 -35.5 24.5t-24.5 8.5t-17 -13t-5 -43h-58q0 59 21 88t53 27.5t67 -28.5q18 -14 29 -21t22 -11t17 1t9.5 18t3.5 36h58q0 -59 -21 -88t-52.5 -27.5t-66.5 28.5zM481 172h-332l-65 -172h-74l269 700h72l269 -700h-74zM456 238l-141 375l-141 -375h282z" />
    <glyph glyph-name="Adieresis" unicode="&#xc4;" horiz-adv-x="630" 
d="M220 775q-19 0 -32 13t-13 32t13 32t32 13t32 -13t13 -32t-13 -32t-32 -13zM410 775q-19 0 -32 13t-13 32t13 32t32 13t32 -13t13 -32t-13 -32t-32 -13zM481 172h-332l-65 -172h-74l269 700h72l269 -700h-74zM456 238l-141 375l-141 -375h282z" />
    <glyph glyph-name="Aring" unicode="&#xc5;" horiz-adv-x="630" 
d="M481 172h-332l-65 -172h-74l257 669q-58 26 -58 91q0 43 29.5 71.5t76.5 28.5t76.5 -28.5t29.5 -71.5q0 -65 -58 -91l257 -669h-74zM315 809q-24 0 -37.5 -13.5t-13.5 -35.5t13.5 -35.5t37.5 -13.5q25 0 38.5 13.5t13.5 35.5t-13.5 35.5t-38.5 13.5zM456 238l-141 375
l-141 -375h282z" />
    <glyph glyph-name="AE" unicode="&#xc6;" horiz-adv-x="880" 
d="M840 66v-66h-390v172h-265l-105 -172h-80l145 237v1h1l283 462h406v-66h-315v-248h300v-66h-300v-254h320zM450 238v369l-225 -369h225z" />
    <glyph glyph-name="Ccedilla" unicode="&#xc7;" horiz-adv-x="745" 
d="M407 56q78 0 143 38t98 102l62 -35q-40 -73 -113.5 -119t-162.5 -53v-34q43 -8 68 -29t25 -52q0 -102 -205 -90v54q147 -12 147 36q0 38 -93 41v74q-147 11 -241.5 114t-94.5 247q0 152 104 257t263 105q97 0 178 -46.5t125 -125.5l-62 -36q-33 64 -98 102t-143 38
q-131 0 -214 -85t-83 -209t83 -209t214 -85z" />
    <glyph glyph-name="Egrave" unicode="&#xc8;" horiz-adv-x="530" 
d="M279 770l-96 130h80l80 -130h-64zM490 66v-66h-410v700h405v-66h-335v-248h310v-66h-310v-254h340z" />
    <glyph glyph-name="Eacute" unicode="&#xc9;" horiz-adv-x="530" 
d="M297 770h-64l80 130h80zM490 66v-66h-410v700h405v-66h-335v-248h310v-66h-310v-254h340z" />
    <glyph glyph-name="Ecircumflex" unicode="&#xca;" horiz-adv-x="530" 
d="M213 770h-75l106 130h78l106 -130h-75l-70 87zM490 66v-66h-410v700h405v-66h-335v-248h310v-66h-310v-254h340z" />
    <glyph glyph-name="Edieresis" unicode="&#xcb;" horiz-adv-x="530" 
d="M188 775q-19 0 -32 13t-13 32t13 32t32 13t32 -13t13 -32t-13 -32t-32 -13zM378 775q-19 0 -32 13t-13 32t13 32t32 13t32 -13t13 -32t-13 -32t-32 -13zM490 66v-66h-410v700h405v-66h-335v-248h310v-66h-310v-254h340z" />
    <glyph glyph-name="Igrave" unicode="&#xcc;" horiz-adv-x="230" 
d="M95 900h-80l96 -130h64zM150 700v-700h-70v700h70z" />
    <glyph glyph-name="Iacute" unicode="&#xcd;" horiz-adv-x="230" 
d="M129 770l96 130h-80l-80 -130h64zM150 700v-700h-70v700h70z" />
    <glyph glyph-name="Icircumflex" unicode="&#xce;" horiz-adv-x="230" 
d="M260 770h-75l-70 87l-70 -87h-75l106 130h78zM80 700h70v-700h-70v700z" />
    <glyph glyph-name="Idieresis" unicode="&#xcf;" horiz-adv-x="230" 
d="M20 775q-19 0 -32 13t-13 32t13 32t32 13t32 -13t13 -32t-13 -32t-32 -13zM210 775q-19 0 -32 13t-13 32t13 32t32 13t32 -13t13 -32t-13 -32t-32 -13zM150 700v-700h-70v700h70z" />
    <glyph glyph-name="Eth" unicode="&#xd0;" horiz-adv-x="740" 
d="M370 700q143 0 236.5 -101.5t93.5 -248.5t-93.5 -248.5t-236.5 -101.5h-270v318h-70v64h70v318h270zM370 66q115 0 188.5 82t73.5 202t-73.5 202t-188.5 82h-200v-252h220v-64h-220v-252h200z" />
    <glyph glyph-name="Ntilde" unicode="&#xd1;" horiz-adv-x="680" 
d="M200 780q0 59 21 88t53 27.5t67 -28.5q18 -14 29 -21t22 -11t17 1t9.5 18t3.5 36h58q0 -59 -21 -88t-52.5 -27.5t-66.5 28.5q-23 17 -35.5 24.5t-24.5 8.5t-17 -13t-5 -43h-58zM600 700v-700h-60l-390 570v-570h-70v700h60l390 -570v570h70z" />
    <glyph glyph-name="Ograve" unicode="&#xd2;" horiz-adv-x="804" 
d="M382 900h-80l96 -130h64zM402 -12q-152 0 -257 105.5t-105 256.5t105 256.5t257 105.5t257 -105.5t105 -256.5t-105 -256.5t-257 -105.5zM402 56q124 0 208 85.5t84 208.5t-84 208.5t-208 85.5t-208 -85.5t-84 -208.5t84 -208.5t208 -85.5z" />
    <glyph glyph-name="Oacute" unicode="&#xd3;" horiz-adv-x="804" 
d="M416 770l96 130h-80l-80 -130h64zM402 -12q-152 0 -257 105.5t-105 256.5t105 256.5t257 105.5t257 -105.5t105 -256.5t-105 -256.5t-257 -105.5zM402 56q124 0 208 85.5t84 208.5t-84 208.5t-208 85.5t-208 -85.5t-84 -208.5t84 -208.5t208 -85.5z" />
    <glyph glyph-name="Ocircumflex" unicode="&#xd4;" horiz-adv-x="804" 
d="M332 770h-75l106 130h78l106 -130h-75l-70 87zM402 712q152 0 257 -105.5t105 -256.5t-105 -256.5t-257 -105.5t-257 105.5t-105 256.5t105 256.5t257 105.5zM402 56q124 0 208 85.5t84 208.5t-84 208.5t-208 85.5t-208 -85.5t-84 -208.5t84 -208.5t208 -85.5z" />
    <glyph glyph-name="Otilde" unicode="&#xd5;" horiz-adv-x="804" 
d="M262 780q0 59 21 88t53 27.5t67 -28.5q18 -14 29 -21t22 -11t17 1t9.5 18t3.5 36h58q0 -59 -21 -88t-52.5 -27.5t-66.5 28.5q-23 17 -35.5 24.5t-24.5 8.5t-17 -13t-5 -43h-58zM402 -12q-152 0 -257 105.5t-105 256.5t105 256.5t257 105.5t257 -105.5t105 -256.5
t-105 -256.5t-257 -105.5zM402 56q124 0 208 85.5t84 208.5t-84 208.5t-208 85.5t-208 -85.5t-84 -208.5t84 -208.5t208 -85.5z" />
    <glyph glyph-name="Odieresis" unicode="&#xd6;" horiz-adv-x="804" 
d="M307 775q-19 0 -32 13t-13 32t13 32t32 13t32 -13t13 -32t-13 -32t-32 -13zM497 775q-19 0 -32 13t-13 32t13 32t32 13t32 -13t13 -32t-13 -32t-32 -13zM402 -12q-152 0 -257 105.5t-105 256.5t105 256.5t257 105.5t257 -105.5t105 -256.5t-105 -256.5t-257 -105.5z
M402 56q124 0 208 85.5t84 208.5t-84 208.5t-208 85.5t-208 -85.5t-84 -208.5t84 -208.5t208 -85.5z" />
    <glyph glyph-name="multiply" unicode="&#xd7;" horiz-adv-x="471" 
d="M279 350l142 -142l-45 -42l-140 141l-141 -141l-45 42l142 142l-142 142l45 42l141 -140l140 140l45 -42z" />
    <glyph glyph-name="Oslash" unicode="&#xd8;" horiz-adv-x="814" 
d="M668 608q106 -106 106 -258q0 -151 -105 -256.5t-257 -105.5q-119 0 -215 69l-49 -57l-47 27l56 65q-107 105 -107 258q0 151 105 256.5t257 105.5q121 0 216 -70l49 58l47 -27zM120 350q0 -120 81 -206l382 446q-76 54 -171 54q-124 0 -208 -85.5t-84 -208.5zM412 56
q124 0 208 85.5t84 208.5q0 121 -81 205l-381 -446q75 -53 170 -53z" />
    <glyph glyph-name="Ugrave" unicode="&#xd9;" horiz-adv-x="660" 
d="M310 900h-80l96 -130h64zM330 -12q-116 0 -188 68t-72 182v462h70v-462q0 -84 50 -133t140 -49t140 49t50 133v462h70v-462q0 -114 -72 -182t-188 -68z" />
    <glyph glyph-name="Uacute" unicode="&#xda;" horiz-adv-x="660" 
d="M344 770l96 130h-80l-80 -130h64zM330 -12q-116 0 -188 68t-72 182v462h70v-462q0 -84 50 -133t140 -49t140 49t50 133v462h70v-462q0 -114 -72 -182t-188 -68z" />
    <glyph glyph-name="Ucircumflex" unicode="&#xdb;" horiz-adv-x="660" 
d="M260 770h-75l106 130h78l106 -130h-75l-70 87zM590 700v-462q0 -114 -72 -182t-188 -68t-188 68t-72 182v462h70v-462q0 -84 50 -133t140 -49t140 49t50 133v462h70z" />
    <glyph glyph-name="Udieresis" unicode="&#xdc;" horiz-adv-x="660" 
d="M235 775q-19 0 -32 13t-13 32t13 32t32 13t32 -13t13 -32t-13 -32t-32 -13zM425 775q-19 0 -32 13t-13 32t13 32t32 13t32 -13t13 -32t-13 -32t-32 -13zM330 -12q-116 0 -188 68t-72 182v462h70v-462q0 -84 50 -133t140 -49t140 49t50 133v462h70v-462q0 -114 -72 -182
t-188 -68z" />
    <glyph glyph-name="Yacute" unicode="&#xdd;" horiz-adv-x="595" 
d="M308 770h-64l80 130h80zM332 287v-287h-70v289l-252 411h79l209 -343l208 343h79z" />
    <glyph glyph-name="Thorn" unicode="&#xde;" horiz-adv-x="590" 
d="M330 570q94 0 157 -63t63 -157t-63 -157t-157 -63h-180v-130h-70v700h70v-130h180zM330 196q65 0 107.5 43.5t42.5 110.5t-42.5 110.5t-107.5 43.5h-180v-308h180z" />
    <glyph glyph-name="germandbls" unicode="&#xdf;" horiz-adv-x="516" 
d="M289 57q141 -8 141 84q0 32 -22.5 68t-49.5 62.5t-49.5 60t-22.5 62.5q0 25 22 52.5t44 55.5t22 53q0 44 -30 68.5t-79 24.5q-54 0 -91.5 -32t-37.5 -101v-515h-66v515q0 92 54.5 144.5t140.5 52.5q81 0 128 -45t47 -112q0 -33 -22 -64.5t-44 -55.5t-22 -41
q0 -22 22.5 -50.5t49.5 -53.5t49.5 -65.5t22.5 -83.5q0 -71 -54.5 -111t-152.5 -33v60z" />
    <glyph glyph-name="agrave" unicode="&#xe0;" 
d="M301 570l-96 130h80l80 -130h-64zM566 500v-500h-66v98q-69 -110 -202 -110q-107 0 -182.5 76t-75.5 186t75.5 186t182.5 76q133 0 202 -110v98h66zM303 52q83 0 140 57.5t57 140.5t-57 140.5t-140 57.5t-140 -57.5t-57 -140.5t57 -140.5t140 -57.5z" />
    <glyph glyph-name="aacute" unicode="&#xe1;" 
d="M319 570h-64l80 130h80zM566 500v-500h-66v98q-69 -110 -202 -110q-107 0 -182.5 76t-75.5 186t75.5 186t182.5 76q133 0 202 -110v98h66zM303 52q83 0 140 57.5t57 140.5t-57 140.5t-140 57.5t-140 -57.5t-57 -140.5t57 -140.5t140 -57.5z" />
    <glyph glyph-name="acircumflex" unicode="&#xe2;" 
d="M235 570h-75l106 130h78l106 -130h-75l-70 87zM566 500v-500h-66v98q-69 -110 -202 -110q-107 0 -182.5 76t-75.5 186t75.5 186t182.5 76q133 0 202 -110v98h66zM303 52q83 0 140 57.5t57 140.5t-57 140.5t-140 57.5t-140 -57.5t-57 -140.5t57 -140.5t140 -57.5z" />
    <glyph glyph-name="atilde" unicode="&#xe3;" 
d="M305 603q-23 17 -35.5 24.5t-24.5 8.5t-17 -13t-5 -43h-58q0 59 21 88t53 27.5t67 -28.5q18 -14 29 -21t22 -11t17 1t9.5 18t3.5 36h58q0 -59 -21 -88t-52.5 -27.5t-66.5 28.5zM566 500v-500h-66v98q-69 -110 -202 -110q-107 0 -182.5 76t-75.5 186t75.5 186t182.5 76
q133 0 202 -110v98h66zM303 52q83 0 140 57.5t57 140.5t-57 140.5t-140 57.5t-140 -57.5t-57 -140.5t57 -140.5t140 -57.5z" />
    <glyph glyph-name="adieresis" unicode="&#xe4;" 
d="M210 575q-19 0 -32 13t-13 32t13 32t32 13t32 -13t13 -32t-13 -32t-32 -13zM400 575q-19 0 -32 13t-13 32t13 32t32 13t32 -13t13 -32t-13 -32t-32 -13zM566 500v-500h-66v98q-69 -110 -202 -110q-107 0 -182.5 76t-75.5 186t75.5 186t182.5 76q133 0 202 -110v98h66z
M303 52q83 0 140 57.5t57 140.5t-57 140.5t-140 57.5t-140 -57.5t-57 -140.5t57 -140.5t140 -57.5z" />
    <glyph glyph-name="aring" unicode="&#xe5;" 
d="M305 550q-47 0 -76.5 28.5t-29.5 71.5t29.5 71.5t76.5 28.5t76.5 -28.5t29.5 -71.5t-29.5 -71.5t-76.5 -28.5zM305 699q-24 0 -37.5 -13.5t-13.5 -35.5t13.5 -35.5t37.5 -13.5q25 0 38.5 13.5t13.5 35.5t-13.5 35.5t-38.5 13.5zM566 500v-500h-66v98q-69 -110 -202 -110
q-107 0 -182.5 76t-75.5 186t75.5 186t182.5 76q133 0 202 -110v98h66zM303 52q83 0 140 57.5t57 140.5t-57 140.5t-140 57.5t-140 -57.5t-57 -140.5t57 -140.5t140 -57.5z" />
    <glyph glyph-name="ae" unicode="&#xe6;" horiz-adv-x="1042" 
d="M763 512q113 0 178.5 -77.5t65.5 -186.5q0 -11 -2 -31h-437q10 -76 62 -120.5t131 -44.5q117 0 165 85l58 -34q-32 -53 -88.5 -84t-125.5 -31q-141 0 -204 109v-97h-66v98q-69 -110 -202 -110q-107 0 -182.5 76t-75.5 186t75.5 186t182.5 76q133 0 202 -110v98h66v-100
q63 112 197 112zM303 52q83 0 140 57.5t57 140.5t-57 140.5t-140 57.5t-140 -57.5t-57 -140.5t57 -140.5t140 -57.5zM760 448q-80 0 -131.5 -46t-60.5 -121h371q-9 79 -59 123t-120 44z" />
    <glyph glyph-name="ccedilla" unicode="&#xe7;" horiz-adv-x="552" 
d="M527 118q-28 -54 -80.5 -88.5t-117.5 -40.5v-34q43 -8 68 -29t25 -52q0 -102 -205 -90v54q147 -12 147 36q0 38 -93 41v75q-101 11 -166 84t-65 176q0 111 75 186.5t188 75.5q74 0 133 -35.5t86 -95.5l-54 -31q-20 45 -64.5 71.5t-100.5 26.5q-83 0 -140 -57.5
t-57 -140.5t57 -140.5t140 -57.5q56 0 100 26.5t69 71.5z" />
    <glyph glyph-name="egrave" unicode="&#xe8;" horiz-adv-x="584" 
d="M291 570l-96 130h80l80 -130h-64zM301 512q111 0 179.5 -78.5t68.5 -185.5q0 -11 -2 -31h-439q10 -76 64.5 -120.5t134.5 -44.5q57 0 98.5 23.5t62.5 61.5l58 -34q-33 -53 -90 -84t-130 -31q-118 0 -192 74t-74 188q0 112 73 187t188 75zM301 448q-78 0 -130.5 -46.5
t-62.5 -120.5h373q-10 79 -61 123t-119 44z" />
    <glyph glyph-name="eacute" unicode="&#xe9;" horiz-adv-x="584" 
d="M309 570h-64l80 130h80zM301 512q111 0 179.5 -78.5t68.5 -185.5q0 -11 -2 -31h-439q10 -76 64.5 -120.5t134.5 -44.5q57 0 98.5 23.5t62.5 61.5l58 -34q-33 -53 -90 -84t-130 -31q-118 0 -192 74t-74 188q0 112 73 187t188 75zM301 448q-78 0 -130.5 -46.5t-62.5 -120.5
h373q-10 79 -61 123t-119 44z" />
    <glyph glyph-name="ecircumflex" unicode="&#xea;" horiz-adv-x="584" 
d="M225 570h-75l106 130h78l106 -130h-75l-70 87zM301 512q111 0 179.5 -78.5t68.5 -185.5q0 -11 -2 -31h-439q10 -76 64.5 -120.5t134.5 -44.5q57 0 98.5 23.5t62.5 61.5l58 -34q-33 -53 -90 -84t-130 -31q-118 0 -192 74t-74 188q0 112 73 187t188 75zM301 448
q-78 0 -130.5 -46.5t-62.5 -120.5h373q-10 79 -61 123t-119 44z" />
    <glyph glyph-name="edieresis" unicode="&#xeb;" horiz-adv-x="584" 
d="M200 575q-19 0 -32 13t-13 32t13 32t32 13t32 -13t13 -32t-13 -32t-32 -13zM390 575q-19 0 -32 13t-13 32t13 32t32 13t32 -13t13 -32t-13 -32t-32 -13zM301 512q111 0 179.5 -78.5t68.5 -185.5q0 -11 -2 -31h-439q10 -76 64.5 -120.5t134.5 -44.5q57 0 98.5 23.5
t62.5 61.5l58 -34q-33 -53 -90 -84t-130 -31q-118 0 -192 74t-74 188q0 112 73 187t188 75zM301 448q-78 0 -130.5 -46.5t-62.5 -120.5h373q-10 79 -61 123t-119 44z" />
    <glyph glyph-name="igrave" unicode="&#xec;" horiz-adv-x="206" 
d="M84 700h-80l66 -130h64zM70 0v500h66v-500h-66z" />
    <glyph glyph-name="iacute" unicode="&#xed;" horiz-adv-x="206" 
d="M137 570l66 130h-80l-50 -130h64zM70 500h66v-500h-66v500z" />
    <glyph glyph-name="icircumflex" unicode="&#xee;" horiz-adv-x="206" 
d="M228 570h-75l-50 76l-50 -76h-75l86 130h78zM70 500h66v-500h-66v500z" />
    <glyph glyph-name="idieresis" unicode="&#xef;" horiz-adv-x="206" 
d="M33 575q-19 0 -32 13t-13 32t13 32t32 13t32 -13t13 -32t-13 -32t-32 -13zM173 575q-19 0 -32 13t-13 32t13 32t32 13t32 -13t13 -32t-13 -32t-32 -13zM70 500h66v-500h-66v500z" />
    <glyph glyph-name="eth" unicode="&#xf0;" horiz-adv-x="586" 
d="M500 370q46 -62 46 -140q0 -108 -74.5 -175t-178.5 -67t-178.5 67t-74.5 175q0 104 72.5 170t170.5 66q43 0 80 -16l-89 119l-112 -69v60l82 50l-67 90h77l43 -57l112 69v-60l-82 -50zM293 52q77 0 132 49t55 129q0 63 -30 103q-53 71 -155 71q-82 0 -135.5 -48
t-53.5 -126q0 -80 55 -129t132 -49z" />
    <glyph glyph-name="ntilde" unicode="&#xf1;" horiz-adv-x="558" 
d="M290 603q-23 17 -35.5 24.5t-24.5 8.5t-17 -13t-5 -43h-58q0 59 21 88t53 27.5t67 -28.5q18 -14 29 -21t22 -11t17 1t9.5 18t3.5 36h58q0 -59 -21 -88t-52.5 -27.5t-66.5 28.5zM304 512q91 0 143.5 -55.5t52.5 -149.5v-307h-66v307q0 67 -35.5 104t-100.5 37
q-72 0 -117 -45.5t-45 -140.5v-262h-66v500h66v-78q56 90 168 90z" />
    <glyph glyph-name="ograve" unicode="&#xf2;" horiz-adv-x="606" 
d="M283 700h-80l96 -130h64zM303 -12q-110 0 -186.5 75.5t-76.5 186.5t76.5 186.5t186.5 75.5t186.5 -75.5t76.5 -186.5t-76.5 -186.5t-186.5 -75.5zM303 52q83 0 140 57.5t57 140.5t-57 140.5t-140 57.5t-140 -57.5t-57 -140.5t57 -140.5t140 -57.5z" />
    <glyph glyph-name="oacute" unicode="&#xf3;" horiz-adv-x="606" 
d="M317 570l96 130h-80l-80 -130h64zM303 -12q-110 0 -186.5 75.5t-76.5 186.5t76.5 186.5t186.5 75.5t186.5 -75.5t76.5 -186.5t-76.5 -186.5t-186.5 -75.5zM303 52q83 0 140 57.5t57 140.5t-57 140.5t-140 57.5t-140 -57.5t-57 -140.5t57 -140.5t140 -57.5z" />
    <glyph glyph-name="ocircumflex" unicode="&#xf4;" horiz-adv-x="606" 
d="M233 570h-75l106 130h78l106 -130h-75l-70 87zM303 512q110 0 186.5 -75.5t76.5 -186.5t-76.5 -186.5t-186.5 -75.5t-186.5 75.5t-76.5 186.5t76.5 186.5t186.5 75.5zM303 52q83 0 140 57.5t57 140.5t-57 140.5t-140 57.5t-140 -57.5t-57 -140.5t57 -140.5t140 -57.5z
" />
    <glyph glyph-name="otilde" unicode="&#xf5;" horiz-adv-x="606" 
d="M163 580q0 59 21 88t53 27.5t67 -28.5q18 -14 29 -21t22 -11t17 1t9.5 18t3.5 36h58q0 -59 -21 -88t-52.5 -27.5t-66.5 28.5q-23 17 -35.5 24.5t-24.5 8.5t-17 -13t-5 -43h-58zM303 -12q-110 0 -186.5 75.5t-76.5 186.5t76.5 186.5t186.5 75.5t186.5 -75.5t76.5 -186.5
t-76.5 -186.5t-186.5 -75.5zM303 52q83 0 140 57.5t57 140.5t-57 140.5t-140 57.5t-140 -57.5t-57 -140.5t57 -140.5t140 -57.5z" />
    <glyph glyph-name="odieresis" unicode="&#xf6;" horiz-adv-x="606" 
d="M208 575q-19 0 -32 13t-13 32t13 32t32 13t32 -13t13 -32t-13 -32t-32 -13zM398 575q-19 0 -32 13t-13 32t13 32t32 13t32 -13t13 -32t-13 -32t-32 -13zM303 -12q-110 0 -186.5 75.5t-76.5 186.5t76.5 186.5t186.5 75.5t186.5 -75.5t76.5 -186.5t-76.5 -186.5
t-186.5 -75.5zM303 52q83 0 140 57.5t57 140.5t-57 140.5t-140 57.5t-140 -57.5t-57 -140.5t57 -140.5t140 -57.5z" />
    <glyph glyph-name="divide" unicode="&#xf7;" horiz-adv-x="580" 
d="M290 482q-23 0 -39 16t-16 39t16 39t39 16t39 -16t16 -39t-16 -39t-39 -16zM60 382h460v-64h-460v64zM290 108q-23 0 -39 16t-16 39t16 39t39 16t39 -16t16 -39t-16 -39t-39 -16z" />
    <glyph glyph-name="oslash" unicode="&#xf8;" horiz-adv-x="606" 
d="M495 431q71 -76 71 -181q0 -111 -76.5 -186.5t-186.5 -75.5q-88 0 -158 51l-39 -44l-40 23l45 51q-71 76 -71 181q0 111 76.5 186.5t186.5 75.5q88 0 158 -51l39 44l40 -23zM106 250q0 -77 49 -132l262 294q-50 36 -114 36q-83 0 -140 -57.5t-57 -140.5zM303 52
q83 0 140 57.5t57 140.5q0 77 -49 132l-262 -294q50 -36 114 -36z" />
    <glyph glyph-name="ugrave" unicode="&#xf9;" horiz-adv-x="558" 
d="M267 570l-96 130h80l80 -130h-64zM488 500v-500h-66v78q-56 -90 -168 -90q-91 0 -143.5 55.5t-52.5 149.5v307h66v-307q0 -67 35.5 -104t100.5 -37q72 0 117 45.5t45 140.5v262h66z" />
    <glyph glyph-name="uacute" unicode="&#xfa;" horiz-adv-x="558" 
d="M285 570h-64l80 130h80zM488 500v-500h-66v78q-56 -90 -168 -90q-91 0 -143.5 55.5t-52.5 149.5v307h66v-307q0 -67 35.5 -104t100.5 -37q72 0 117 45.5t45 140.5v262h66z" />
    <glyph glyph-name="ucircumflex" unicode="&#xfb;" horiz-adv-x="558" 
d="M201 570h-75l106 130h78l106 -130h-75l-70 87zM488 500v-500h-66v78q-56 -90 -168 -90q-91 0 -143.5 55.5t-52.5 149.5v307h66v-307q0 -67 35.5 -104t100.5 -37q72 0 117 45.5t45 140.5v262h66z" />
    <glyph glyph-name="udieresis" unicode="&#xfc;" horiz-adv-x="558" 
d="M176 575q-19 0 -32 13t-13 32t13 32t32 13t32 -13t13 -32t-13 -32t-32 -13zM366 575q-19 0 -32 13t-13 32t13 32t32 13t32 -13t13 -32t-13 -32t-32 -13zM488 500v-500h-66v78q-56 -90 -168 -90q-91 0 -143.5 55.5t-52.5 149.5v307h66v-307q0 -67 35.5 -104t100.5 -37
q72 0 117 45.5t45 140.5v262h66z" />
    <glyph glyph-name="yacute" unicode="&#xfd;" horiz-adv-x="510" 
d="M267 570h-64l80 130h80zM500 500l-214 -546q-29 -74 -82.5 -116.5t-119.5 -37.5v62q90 -10 137 104l13 31l-224 503h70l188 -419l162 419h70z" />
    <glyph glyph-name="thorn" unicode="&#xfe;" 
d="M338 512q107 0 182.5 -76t75.5 -186t-75.5 -186t-182.5 -76q-133 0 -202 110v-298h-66v900h66v-298q69 110 202 110zM333 52q83 0 140 57.5t57 140.5t-57 140.5t-140 57.5t-140 -57.5t-57 -140.5t57 -140.5t140 -57.5z" />
    <glyph glyph-name="ydieresis" unicode="&#xff;" horiz-adv-x="510" 
d="M158 575q-19 0 -32 13t-13 32t13 32t32 13t32 -13t13 -32t-13 -32t-32 -13zM348 575q-19 0 -32 13t-13 32t13 32t32 13t32 -13t13 -32t-13 -32t-32 -13zM500 500l-214 -546q-29 -74 -82.5 -116.5t-119.5 -37.5v62q90 -10 137 104l13 31l-224 503h70l188 -419l162 419h70z
" />
    <glyph glyph-name="Amacron" unicode="&#x100;" horiz-adv-x="630" 
d="M445 780h-260v58h260v-58zM481 172h-332l-65 -172h-74l269 700h72l269 -700h-74zM456 238l-141 375l-141 -375h282z" />
    <glyph glyph-name="amacron" unicode="&#x101;" 
d="M435 580h-260v58h260v-58zM566 500v-500h-66v98q-69 -110 -202 -110q-107 0 -182.5 76t-75.5 186t75.5 186t182.5 76q133 0 202 -110v98h66zM303 52q83 0 140 57.5t57 140.5t-57 140.5t-140 57.5t-140 -57.5t-57 -140.5t57 -140.5t140 -57.5z" />
    <glyph glyph-name="Abreve" unicode="&#x102;" horiz-adv-x="630" 
d="M315 762q-64 0 -102 34.5t-38 95.5h64q0 -72 76 -72t76 72h64q0 -62 -37.5 -96t-102.5 -34zM481 172h-332l-65 -172h-74l269 700h72l269 -700h-74zM456 238l-141 375l-141 -375h282z" />
    <glyph glyph-name="abreve" unicode="&#x103;" 
d="M305 562q-64 0 -102 34.5t-38 95.5h64q0 -72 76 -72t76 72h64q0 -62 -37.5 -96t-102.5 -34zM566 500v-500h-66v98q-69 -110 -202 -110q-107 0 -182.5 76t-75.5 186t75.5 186t182.5 76q133 0 202 -110v98h66zM303 52q83 0 140 57.5t57 140.5t-57 140.5t-140 57.5
t-140 -57.5t-57 -140.5t57 -140.5t140 -57.5z" />
    <glyph glyph-name="Aogonek" unicode="&#x104;" horiz-adv-x="630" 
d="M544 -124q0 -31 34 -31q21 0 42 9v-55q-27 -11 -59 -11q-39 0 -60.5 21t-21.5 55q0 66 72 136h-5l-65 172h-332l-65 -172h-74l269 700h72l269 -700q-34 -31 -55 -65t-21 -59zM456 238l-141 375l-141 -375h282z" />
    <glyph glyph-name="aogonek" unicode="&#x105;" 
d="M566 0q-34 -31 -55 -65t-21 -59q0 -31 34 -31q21 0 42 9v-55q-27 -11 -59 -11q-39 0 -60.5 21t-21.5 55q0 64 75 148v86q-69 -110 -202 -110q-107 0 -182.5 76t-75.5 186t75.5 186t182.5 76q133 0 202 -110v98h66v-500zM303 52q83 0 140 57.5t57 140.5t-57 140.5
t-140 57.5t-140 -57.5t-57 -140.5t57 -140.5t140 -57.5z" />
    <glyph glyph-name="Cacute" unicode="&#x106;" horiz-adv-x="745" 
d="M421 770l96 130h-80l-80 -130h64zM407 -12q-159 0 -263 105t-104 257t104 257t263 105q97 0 178 -46.5t125 -125.5l-62 -36q-33 64 -98 102t-143 38q-131 0 -214 -85t-83 -209t83 -209t214 -85q78 0 143 38t98 102l62 -35q-43 -79 -124.5 -126t-178.5 -47z" />
    <glyph glyph-name="cacute" unicode="&#x107;" horiz-adv-x="552" 
d="M306 570l96 130h-80l-80 -130h64zM303 -12q-113 0 -188 75.5t-75 186.5t75 186.5t188 75.5q74 0 133 -35.5t86 -95.5l-54 -31q-20 45 -64.5 71.5t-100.5 26.5q-83 0 -140 -57.5t-57 -140.5t57 -140.5t140 -57.5q56 0 100 26.5t69 71.5l55 -32q-31 -60 -91 -95t-133 -35z
" />
    <glyph glyph-name="Cdotaccent" unicode="&#x10a;" horiz-adv-x="745" 
d="M407 770q-23 0 -39 16t-16 39t16 39t39 16t39 -16t16 -39t-16 -39t-39 -16zM407 -12q-159 0 -263 105t-104 257t104 257t263 105q97 0 178 -46.5t125 -125.5l-62 -36q-33 64 -98 102t-143 38q-131 0 -214 -85t-83 -209t83 -209t214 -85q78 0 143 38t98 102l62 -35
q-43 -79 -124.5 -126t-178.5 -47z" />
    <glyph glyph-name="cdotaccent" unicode="&#x10b;" horiz-adv-x="552" 
d="M292 570q-23 0 -39 16t-16 39t16 39t39 16t39 -16t16 -39t-16 -39t-39 -16zM303 -12q-113 0 -188 75.5t-75 186.5t75 186.5t188 75.5q74 0 133 -35.5t86 -95.5l-54 -31q-20 45 -64.5 71.5t-100.5 26.5q-83 0 -140 -57.5t-57 -140.5t57 -140.5t140 -57.5q56 0 100 26.5
t69 71.5l55 -32q-31 -60 -91 -95t-133 -35z" />
    <glyph glyph-name="Ccaron" unicode="&#x10c;" horiz-adv-x="745" 
d="M262 900h75l70 -87l70 87h75l-106 -130h-78zM407 56q78 0 143 38t98 102l62 -35q-43 -79 -124.5 -126t-178.5 -47q-159 0 -263 105t-104 257t104 257t263 105q97 0 178 -46.5t125 -125.5l-62 -36q-33 64 -98 102t-143 38q-131 0 -214 -85t-83 -209t83 -209t214 -85z" />
    <glyph glyph-name="ccaron" unicode="&#x10d;" horiz-adv-x="552" 
d="M147 700h75l70 -87l70 87h75l-106 -130h-78zM527 118q-31 -60 -91 -95t-133 -35q-113 0 -188 75.5t-75 186.5t75 186.5t188 75.5q74 0 133 -35.5t86 -95.5l-54 -31q-20 45 -64.5 71.5t-100.5 26.5q-83 0 -140 -57.5t-57 -140.5t57 -140.5t140 -57.5q56 0 100 26.5
t69 71.5z" />
    <glyph glyph-name="Dcaron" unicode="&#x10e;" horiz-adv-x="720" 
d="M205 900h75l70 -87l70 87h75l-106 -130h-78zM350 700q143 0 236.5 -101.5t93.5 -248.5t-93.5 -248.5t-236.5 -101.5h-270v700h270zM350 66q115 0 188.5 82t73.5 202t-73.5 202t-188.5 82h-200v-568h200z" />
    <glyph glyph-name="dcaron" unicode="&#x10f;" horiz-adv-x="702" 
d="M500 700h66v-700h-66v98q-69 -110 -202 -110q-107 0 -182.5 76t-75.5 186t75.5 186t182.5 76q133 0 202 -110v298zM712 700l-30 -170h-46l10 170h66zM303 52q83 0 140 57.5t57 140.5t-57 140.5t-140 57.5t-140 -57.5t-57 -140.5t57 -140.5t140 -57.5z" />
    <glyph glyph-name="Dcroat" unicode="&#x110;" horiz-adv-x="740" 
d="M370 700q143 0 236.5 -101.5t93.5 -248.5t-93.5 -248.5t-236.5 -101.5h-270v318h-70v64h70v318h270zM370 66q115 0 188.5 82t73.5 202t-73.5 202t-188.5 82h-200v-252h220v-64h-220v-252h200z" />
    <glyph glyph-name="dcroat" unicode="&#x111;" horiz-adv-x="646" 
d="M636 576h-70v-576h-66v98q-69 -110 -202 -110q-107 0 -182.5 76t-75.5 186t75.5 186t182.5 76q133 0 202 -110v174h-184v54h184v70h66v-70h70v-54zM303 52q83 0 140 57.5t57 140.5t-57 140.5t-140 57.5t-140 -57.5t-57 -140.5t57 -140.5t140 -57.5z" />
    <glyph glyph-name="Emacron" unicode="&#x112;" horiz-adv-x="530" 
d="M413 780h-260v58h260v-58zM490 66v-66h-410v700h405v-66h-335v-248h310v-66h-310v-254h340z" />
    <glyph glyph-name="emacron" unicode="&#x113;" horiz-adv-x="584" 
d="M425 580h-260v58h260v-58zM301 512q111 0 179.5 -78.5t68.5 -185.5q0 -11 -2 -31h-439q10 -76 64.5 -120.5t134.5 -44.5q57 0 98.5 23.5t62.5 61.5l58 -34q-33 -53 -90 -84t-130 -31q-118 0 -192 74t-74 188q0 112 73 187t188 75zM301 448q-78 0 -130.5 -46.5
t-62.5 -120.5h373q-10 79 -61 123t-119 44z" />
    <glyph glyph-name="Edotaccent" unicode="&#x116;" horiz-adv-x="530" 
d="M283 770q-23 0 -39 16t-16 39t16 39t39 16t39 -16t16 -39t-16 -39t-39 -16zM490 66v-66h-410v700h405v-66h-335v-248h310v-66h-310v-254h340z" />
    <glyph glyph-name="edotaccent" unicode="&#x117;" horiz-adv-x="584" 
d="M295 570q-23 0 -39 16t-16 39t16 39t39 16t39 -16t16 -39t-16 -39t-39 -16zM301 512q111 0 179.5 -78.5t68.5 -185.5q0 -11 -2 -31h-439q10 -76 64.5 -120.5t134.5 -44.5q57 0 98.5 23.5t62.5 61.5l58 -34q-33 -53 -90 -84t-130 -31q-118 0 -192 74t-74 188q0 112 73 187
t188 75zM301 448q-78 0 -130.5 -46.5t-62.5 -120.5h373q-10 79 -61 123t-119 44z" />
    <glyph glyph-name="Eogonek" unicode="&#x118;" horiz-adv-x="530" 
d="M490 0q-34 -31 -55 -65t-21 -59q0 -31 34 -31q21 0 42 9v-55q-27 -11 -59 -11q-39 0 -60.5 21t-21.5 55q0 66 72 136h-341v700h405v-66h-335v-248h310v-66h-310v-254h340v-66z" />
    <glyph glyph-name="eogonek" unicode="&#x119;" horiz-adv-x="584" 
d="M301 512q111 0 179.5 -78.5t68.5 -185.5q0 -11 -2 -31h-439q10 -76 64.5 -120.5t134.5 -44.5q57 0 98.5 23.5t62.5 61.5l58 -34q-14 -23 -40 -49q-115 -124 -115 -178q0 -31 34 -31q21 0 42 9v-55q-27 -11 -59 -11q-39 0 -60.5 21t-21.5 55q0 65 65 131q-28 -7 -65 -7
q-118 0 -192 74t-74 188q0 112 73 187t188 75zM301 448q-78 0 -130.5 -46.5t-62.5 -120.5h373q-10 79 -61 123t-119 44z" />
    <glyph glyph-name="Ecaron" unicode="&#x11a;" horiz-adv-x="530" 
d="M138 900h75l70 -87l70 87h75l-106 -130h-78zM490 66v-66h-410v700h405v-66h-335v-248h310v-66h-310v-254h340z" />
    <glyph glyph-name="ecaron" unicode="&#x11b;" horiz-adv-x="584" 
d="M150 700h75l70 -87l70 87h75l-106 -130h-78zM301 512q111 0 179.5 -78.5t68.5 -185.5q0 -11 -2 -31h-439q10 -76 64.5 -120.5t134.5 -44.5q57 0 98.5 23.5t62.5 61.5l58 -34q-33 -53 -90 -84t-130 -31q-118 0 -192 74t-74 188q0 112 73 187t188 75zM301 448
q-78 0 -130.5 -46.5t-62.5 -120.5h373q-10 79 -61 123t-119 44z" />
    <glyph glyph-name="Gbreve" unicode="&#x11e;" horiz-adv-x="789" 
d="M392 762q-64 0 -102 34.5t-38 95.5h64q0 -72 76 -72t76 72h64q0 -62 -37.5 -96t-102.5 -34zM749 297q0 -130 -93 -219.5t-249 -89.5q-159 0 -263 105t-104 257t104 257t263 105q97 0 178 -47t125 -125l-62 -36q-33 64 -98 102t-143 38q-131 0 -214 -85t-83 -209t83 -209
t214 -85q118 0 189 59.5t81 151.5h-278v66h350v-36z" />
    <glyph glyph-name="gbreve" unicode="&#x11f;" 
d="M308 562q-64 0 -102 34.5t-38 95.5h64q0 -72 76 -72t76 72h64q0 -62 -37.5 -96t-102.5 -34zM566 500v-480q0 -108 -74 -170t-177 -62q-176 0 -237 122l58 33q45 -91 179 -91q86 0 135.5 45.5t49.5 122.5v78q-69 -110 -202 -110q-107 0 -182.5 76t-75.5 186t75.5 186
t182.5 76q133 0 202 -110v98h66zM303 52q83 0 140 57.5t57 140.5t-57 140.5t-140 57.5t-140 -57.5t-57 -140.5t57 -140.5t140 -57.5z" />
    <glyph glyph-name="Gdotaccent" unicode="&#x120;" horiz-adv-x="789" 
d="M392 770q-23 0 -39 16t-16 39t16 39t39 16t39 -16t16 -39t-16 -39t-39 -16zM749 297q0 -130 -93 -219.5t-249 -89.5q-159 0 -263 105t-104 257t104 257t263 105q97 0 178 -47t125 -125l-62 -36q-33 64 -98 102t-143 38q-131 0 -214 -85t-83 -209t83 -209t214 -85
q118 0 189 59.5t81 151.5h-278v66h350v-36z" />
    <glyph glyph-name="gdotaccent" unicode="&#x121;" 
d="M308 570q-23 0 -39 16t-16 39t16 39t39 16t39 -16t16 -39t-16 -39t-39 -16zM566 500v-480q0 -108 -74 -170t-177 -62q-176 0 -237 122l58 33q45 -91 179 -91q86 0 135.5 45.5t49.5 122.5v78q-69 -110 -202 -110q-107 0 -182.5 76t-75.5 186t75.5 186t182.5 76
q133 0 202 -110v98h66zM303 52q83 0 140 57.5t57 140.5t-57 140.5t-140 57.5t-140 -57.5t-57 -140.5t57 -140.5t140 -57.5z" />
    <glyph glyph-name="uni0122" unicode="&#x122;" horiz-adv-x="789" 
d="M749 297q0 -130 -93 -219.5t-249 -89.5q-159 0 -263 105t-104 257t104 257t263 105q97 0 178 -47t125 -125l-62 -36q-33 64 -98 102t-143 38q-131 0 -214 -85t-83 -209t83 -209t214 -85q118 0 189 59.5t81 151.5h-278v66h350v-36zM395 -70h66l-30 -170h-46z" />
    <glyph glyph-name="uni0123" unicode="&#x123;" 
d="M335 590h-66l30 170h46zM566 500v-480q0 -108 -74 -170t-177 -62q-176 0 -237 122l58 33q45 -91 179 -91q86 0 135.5 45.5t49.5 122.5v78q-69 -110 -202 -110q-107 0 -182.5 76t-75.5 186t75.5 186t182.5 76q133 0 202 -110v98h66zM303 52q83 0 140 57.5t57 140.5
t-57 140.5t-140 57.5t-140 -57.5t-57 -140.5t57 -140.5t140 -57.5z" />
    <glyph glyph-name="Hbar" unicode="&#x126;" horiz-adv-x="730" 
d="M690 512h-65v-512h-70v327h-380v-327h-70v512h-65v56h65v132h70v-132h380v132h70v-132h65v-56zM555 512h-380v-119h380v119z" />
    <glyph glyph-name="hbar" unicode="&#x127;" horiz-adv-x="568" 
d="M314 512q91 0 143.5 -55.5t52.5 -149.5v-307h-66v307q0 67 -35.5 104t-100.5 37q-72 0 -117 -45.5t-45 -140.5v-262h-66v576h-70v54h70v70h66v-70h144v-54h-144v-154q56 90 168 90z" />
    <glyph glyph-name="Imacron" unicode="&#x12a;" horiz-adv-x="230" 
d="M-15 838h260v-58h-260v58zM150 700v-700h-70v700h70z" />
    <glyph glyph-name="imacron" unicode="&#x12b;" horiz-adv-x="206" 
d="M3 638h200v-58h-200v58zM70 500h66v-500h-66v500z" />
    <glyph glyph-name="Iogonek" unicode="&#x12e;" horiz-adv-x="230" 
d="M139 -155q21 0 42 9v-55q-27 -11 -59 -11q-39 0 -60.5 21t-21.5 55q0 61 40 137v699h70v-700q-17 -31 -24 -44.5t-14 -36.5t-7 -43q0 -31 34 -31z" />
    <glyph glyph-name="iogonek" unicode="&#x12f;" horiz-adv-x="206" 
d="M103 606q-20 0 -34 14t-14 34t14 34t34 14t34 -14t14 -34t-14 -34t-34 -14zM129 -155q21 0 42 9v-55q-27 -11 -59 -11q-38 0 -60 25.5t-22 60.5q0 56 40 131v495h66v-500q-41 -66 -41 -114q0 -17 9.5 -29t24.5 -12z" />
    <glyph glyph-name="Idotaccent" unicode="&#x130;" horiz-adv-x="230" 
d="M115 770q-23 0 -39 16t-16 39t16 39t39 16t39 -16t16 -39t-16 -39t-39 -16zM150 700v-700h-70v700h70z" />
    <glyph glyph-name="dotlessi" unicode="&#x131;" horiz-adv-x="206" 
d="M70 500h66v-500h-66v500z" />
    <glyph glyph-name="uni0136" unicode="&#x136;" horiz-adv-x="580" 
d="M570 0h-92l-328 339v-339h-70v700h70v-320l318 320h92l-336 -340zM275 -70h66l-30 -170h-46z" />
    <glyph glyph-name="uni0137" unicode="&#x137;" horiz-adv-x="494" 
d="M474 0h-88l-250 241v-241h-66v700h66v-421l238 221h90l-258 -240zM233 -70h66l-30 -170h-46z" />
    <glyph glyph-name="Lacute" unicode="&#x139;" horiz-adv-x="490" 
d="M146 770h-64l80 130h80zM470 66v-66h-390v700h70v-634h320z" />
    <glyph glyph-name="lacute" unicode="&#x13a;" horiz-adv-x="206" 
d="M134 770l96 130h-80l-80 -130h64zM70 730h66v-730h-66v730z" />
    <glyph glyph-name="uni013B" unicode="&#x13b;" horiz-adv-x="490" 
d="M470 66v-66h-390v700h70v-634h320zM253 -70h66l-30 -170h-46z" />
    <glyph glyph-name="uni013C" unicode="&#x13c;" horiz-adv-x="206" 
d="M70 730h66v-730h-66v730zM137 -70h-66l-10 -170h46z" />
    <glyph glyph-name="Lcaron" unicode="&#x13d;" horiz-adv-x="490" 
d="M470 66v-66h-390v700h70v-634h320zM302 530h-46l10 170h66z" />
    <glyph glyph-name="lcaron" unicode="&#x13e;" horiz-adv-x="272" 
d="M70 730h66v-730h-66v730zM282 730h-66l-10 -170h46z" />
    <glyph glyph-name="Lslash" unicode="&#x141;" horiz-adv-x="510" 
d="M490 66v-66h-390v244l-60 -35v63l60 35v393h70v-351l170 100v-63l-170 -100v-220h320z" />
    <glyph glyph-name="lslash" unicode="&#x142;" horiz-adv-x="240" 
d="M220 397l-67 -46v-351h-66v306l-67 -46v63l67 46v361h66v-316l67 46v-63z" />
    <glyph glyph-name="Nacute" unicode="&#x143;" horiz-adv-x="680" 
d="M354 770l96 130h-80l-80 -130h64zM600 700v-700h-60l-390 570v-570h-70v700h60l390 -570v570h70z" />
    <glyph glyph-name="nacute" unicode="&#x144;" horiz-adv-x="558" 
d="M304 570h-64l80 130h80zM304 512q91 0 143.5 -55.5t52.5 -149.5v-307h-66v307q0 67 -35.5 104t-100.5 37q-72 0 -117 -45.5t-45 -140.5v-262h-66v500h66v-78q56 90 168 90z" />
    <glyph glyph-name="uni0145" unicode="&#x145;" horiz-adv-x="680" 
d="M600 700v-700h-60l-390 570v-570h-70v700h60l390 -570v570h70zM374 -70h-66l-10 -170h46z" />
    <glyph glyph-name="uni0146" unicode="&#x146;" horiz-adv-x="558" 
d="M304 512q91 0 143.5 -55.5t52.5 -149.5v-307h-66v307q0 67 -35.5 104t-100.5 37q-72 0 -117 -45.5t-45 -140.5v-262h-66v500h66v-78q56 90 168 90zM261 -70h66l-30 -170h-46z" />
    <glyph glyph-name="Ncaron" unicode="&#x147;" horiz-adv-x="680" 
d="M195 900h75l70 -87l70 87h75l-106 -130h-78zM600 700v-700h-60l-390 570v-570h-70v700h60l390 -570v570h70z" />
    <glyph glyph-name="ncaron" unicode="&#x148;" horiz-adv-x="558" 
d="M145 700h75l70 -87l70 87h75l-106 -130h-78zM304 512q91 0 143.5 -55.5t52.5 -149.5v-307h-66v307q0 67 -35.5 104t-100.5 37q-72 0 -117 -45.5t-45 -140.5v-262h-66v500h66v-78q56 90 168 90z" />
    <glyph glyph-name="Eng" unicode="&#x14a;" horiz-adv-x="680" 
d="M600 700v-700q0 -200 -210 -200v68q69 0 104.5 27t35.5 105v15l-380 555v-570h-70v700h60l390 -570v570h70z" />
    <glyph glyph-name="eng" unicode="&#x14b;" horiz-adv-x="558" 
d="M304 512q91 0 143.5 -55.5t52.5 -149.5v-347q0 -90 -47 -135t-133 -37v64q59 -6 86.5 19t27.5 89v347q0 67 -35.5 104t-100.5 37q-72 0 -117 -45.5t-45 -140.5v-262h-66v500h66v-78q56 90 168 90z" />
    <glyph glyph-name="Omacron" unicode="&#x14c;" horiz-adv-x="804" 
d="M272 838h260v-58h-260v58zM402 -12q-152 0 -257 105.5t-105 256.5t105 256.5t257 105.5t257 -105.5t105 -256.5t-105 -256.5t-257 -105.5zM402 56q124 0 208 85.5t84 208.5t-84 208.5t-208 85.5t-208 -85.5t-84 -208.5t84 -208.5t208 -85.5z" />
    <glyph glyph-name="omacron" unicode="&#x14d;" horiz-adv-x="606" 
d="M173 638h260v-58h-260v58zM303 -12q-110 0 -186.5 75.5t-76.5 186.5t76.5 186.5t186.5 75.5t186.5 -75.5t76.5 -186.5t-76.5 -186.5t-186.5 -75.5zM303 52q83 0 140 57.5t57 140.5t-57 140.5t-140 57.5t-140 -57.5t-57 -140.5t57 -140.5t140 -57.5z" />
    <glyph glyph-name="Ohungarumlaut" unicode="&#x150;" horiz-adv-x="804" 
d="M340 770l76 130h-74l-70 -130h68zM483 770l86 130h-74l-80 -130h68zM402 -12q-152 0 -257 105.5t-105 256.5t105 256.5t257 105.5t257 -105.5t105 -256.5t-105 -256.5t-257 -105.5zM402 56q124 0 208 85.5t84 208.5t-84 208.5t-208 85.5t-208 -85.5t-84 -208.5t84 -208.5
t208 -85.5z" />
    <glyph glyph-name="ohungarumlaut" unicode="&#x151;" horiz-adv-x="606" 
d="M241 570l76 130h-74l-70 -130h68zM384 570l86 130h-74l-80 -130h68zM303 -12q-110 0 -186.5 75.5t-76.5 186.5t76.5 186.5t186.5 75.5t186.5 -75.5t76.5 -186.5t-76.5 -186.5t-186.5 -75.5zM303 52q83 0 140 57.5t57 140.5t-57 140.5t-140 57.5t-140 -57.5t-57 -140.5
t57 -140.5t140 -57.5z" />
    <glyph glyph-name="OE" unicode="&#x152;" horiz-adv-x="915" 
d="M875 66v-66h-390q-43 -12 -93 -12q-151 0 -251.5 105t-100.5 257t100.5 257t251.5 105q50 0 93 -12h385v-66h-315v-248h300v-66h-300v-254h320zM485 629q-43 15 -93 15q-123 0 -202.5 -85t-79.5 -209t79.5 -209t202.5 -85q50 0 93 15v558z" />
    <glyph glyph-name="oe" unicode="&#x153;" horiz-adv-x="1044" 
d="M763 512q109 0 177.5 -78.5t68.5 -185.5q0 -11 -2 -31h-439q10 -76 64.5 -120.5t134.5 -44.5q57 0 98.5 23.5t62.5 61.5l58 -34q-33 -53 -89.5 -84t-128.5 -31q-83 0 -145 39.5t-91 107.5q-30 -67 -90.5 -107t-138.5 -40q-113 0 -188 75t-75 187t75 187t188 75
q78 0 138.5 -40t91.5 -108q28 68 88.5 108t141.5 40zM303 52q83 0 140 57.5t57 140.5t-57 140.5t-140 57.5q-87 0 -142 -57t-55 -141t55 -141t142 -57zM761 448q-78 0 -130.5 -46.5t-62.5 -120.5h373q-10 79 -61 123t-119 44z" />
    <glyph glyph-name="Racute" unicode="&#x154;" horiz-adv-x="610" 
d="M324 770h-64l80 130h80zM346 280h-196v-280h-70v700h280q87 0 148.5 -61.5t61.5 -148.5q0 -71 -42.5 -126.5t-108.5 -74.5l171 -289h-80zM150 346h210q58 0 99 42.5t41 101.5q0 60 -41 102t-99 42h-210v-288z" />
    <glyph glyph-name="racute" unicode="&#x155;" horiz-adv-x="314" 
d="M196 570h-64l80 130h80zM136 417q46 91 158 91v-64q-68 0 -113 -40t-45 -126v-278h-66v500h66v-83z" />
    <glyph glyph-name="uni0156" unicode="&#x156;" horiz-adv-x="610" 
d="M590 0h-80l-164 280h-196v-280h-70v700h280q87 0 148.5 -61.5t61.5 -148.5q0 -71 -42.5 -126.5t-108.5 -74.5zM150 346h210q58 0 99 42.5t41 101.5q0 60 -41 102t-99 42h-210v-288zM298 -70h66l-30 -170h-46z" />
    <glyph glyph-name="uni0157" unicode="&#x157;" horiz-adv-x="314" 
d="M136 417q46 91 158 91v-64q-68 0 -113 -40t-45 -126v-278h-66v500h66v-83zM71 -70h66l-30 -170h-46z" />
    <glyph glyph-name="Rcaron" unicode="&#x158;" horiz-adv-x="610" 
d="M165 900h75l70 -87l70 87h75l-106 -130h-78zM346 280h-196v-280h-70v700h280q87 0 148.5 -61.5t61.5 -148.5q0 -71 -42.5 -126.5t-108.5 -74.5l171 -289h-80zM150 346h210q58 0 99 42.5t41 101.5q0 60 -41 102t-99 42h-210v-288z" />
    <glyph glyph-name="rcaron" unicode="&#x159;" horiz-adv-x="314" 
d="M37 700h75l70 -87l70 87h75l-106 -130h-78zM136 417q46 91 158 91v-64q-68 0 -113 -40t-45 -126v-278h-66v500h66v-83z" />
    <glyph glyph-name="Sacute" unicode="&#x15a;" horiz-adv-x="576" 
d="M296 770l96 130h-80l-80 -130h64zM300 -12q-96 0 -164.5 45.5t-95.5 125.5l60 35q19 -65 70 -101.5t131 -36.5q78 0 121.5 34.5t43.5 91.5q0 55 -40 83t-132 58q-109 36 -144 58q-80 48 -80 139q0 89 62 140.5t153 51.5q82 0 142 -42.5t89 -108.5l-59 -33
q-48 116 -172 116q-65 0 -105 -32t-40 -89q0 -52 36 -78t119 -53q38 -13 54.5 -18.5t48 -18t46.5 -22t36.5 -26t31 -33t17 -40t7.5 -50.5q0 -89 -65 -142.5t-171 -53.5z" />
    <glyph glyph-name="sacute" unicode="&#x15b;" horiz-adv-x="454" 
d="M243 570h-64l80 130h80zM122 369q0 -34 30 -54t73 -31t86 -24.5t73 -45t30 -82.5q0 -64 -50.5 -104t-130.5 -40q-72 0 -122.5 32t-70.5 83l56 33q14 -39 50.5 -61.5t86.5 -22.5q49 0 82 19.5t33 60.5q0 34 -30 54t-73 31t-86 24.5t-73 45t-30 82.5q0 61 48.5 102
t122.5 41q61 0 107 -27.5t68 -74.5l-55 -32q-29 70 -120 70q-43 0 -74 -20.5t-31 -58.5z" />
    <glyph glyph-name="Scedilla" unicode="&#x15e;" horiz-adv-x="576" 
d="M536 184q0 -86 -60 -138.5t-159 -57.5v-33q43 -8 68 -29t25 -52q0 -102 -205 -90v54q147 -12 147 36q0 38 -93 41v75q-81 10 -138 54t-81 115l60 35q19 -65 70 -101.5t131 -36.5q78 0 121.5 34.5t43.5 91.5q0 55 -40 83t-132 58q-109 36 -144 58q-80 48 -80 139
q0 89 62 140.5t153 51.5q82 0 142 -42.5t89 -108.5l-59 -33q-48 116 -172 116q-65 0 -105 -32t-40 -89q0 -52 36 -78t119 -53q38 -13 54.5 -18.5t48 -18t46.5 -22t36.5 -26t31 -33t17 -40t7.5 -50.5z" />
    <glyph glyph-name="scedilla" unicode="&#x15f;" horiz-adv-x="454" 
d="M414 132q0 -58 -43 -97t-113 -46v-34q43 -8 68 -29t25 -52q0 -102 -205 -90v54q147 -12 147 36q0 38 -93 41v75q-60 7 -101.5 38t-58.5 75l56 33q14 -39 50.5 -61.5t86.5 -22.5q49 0 82 19.5t33 60.5q0 34 -30 54t-73 31t-86 24.5t-73 45t-30 82.5q0 61 48.5 102
t122.5 41q61 0 107 -27.5t68 -74.5l-55 -32q-29 70 -120 70q-43 0 -74 -20.5t-31 -58.5q0 -34 30 -54t73 -31t86 -24.5t73 -45t30 -82.5z" />
    <glyph glyph-name="Scaron" unicode="&#x160;" horiz-adv-x="576" 
d="M137 900h75l70 -87l70 87h75l-106 -130h-78zM295 392q38 -13 54.5 -18.5t48 -18t46.5 -22t36.5 -26t31 -33t17 -40t7.5 -50.5q0 -89 -65 -142.5t-171 -53.5q-96 0 -164.5 45.5t-95.5 125.5l60 35q19 -65 70 -101.5t131 -36.5q78 0 121.5 34.5t43.5 91.5q0 55 -40 83
t-132 58q-109 36 -144 58q-80 48 -80 139q0 89 62 140.5t153 51.5q82 0 142 -42.5t89 -108.5l-59 -33q-48 116 -172 116q-65 0 -105 -32t-40 -89q0 -52 36 -78t119 -53z" />
    <glyph glyph-name="scaron" unicode="&#x161;" horiz-adv-x="454" 
d="M84 700h75l70 -87l70 87h75l-106 -130h-78zM122 369q0 -34 30 -54t73 -31t86 -24.5t73 -45t30 -82.5q0 -64 -50.5 -104t-130.5 -40q-72 0 -122.5 32t-70.5 83l56 33q14 -39 50.5 -61.5t86.5 -22.5q49 0 82 19.5t33 60.5q0 34 -30 54t-73 31t-86 24.5t-73 45t-30 82.5
q0 61 48.5 102t122.5 41q61 0 107 -27.5t68 -74.5l-55 -32q-29 70 -120 70q-43 0 -74 -20.5t-31 -58.5z" />
    <glyph glyph-name="uni0162" unicode="&#x162;" horiz-adv-x="540" 
d="M520 634h-215v-634h-70v634h-215v66h500v-66zM238 -70h66l-30 -170h-46z" />
    <glyph glyph-name="uni0163" unicode="&#x163;" horiz-adv-x="375" 
d="M191 436v-303q0 -41 16 -58.5t48 -18t80 1.5v-58q-105 -16 -157.5 15t-52.5 118v303h-105v64h105v120l66 20v-140h144v-64h-144zM204 -70h66l-30 -170h-46z" />
    <glyph glyph-name="Tcaron" unicode="&#x164;" horiz-adv-x="540" 
d="M125 900h75l70 -87l70 87h75l-106 -130h-78zM520 634h-215v-634h-70v634h-215v66h500v-66z" />
    <glyph glyph-name="tcaron" unicode="&#x165;" horiz-adv-x="375" 
d="M292 555h-46l10 160h66zM191 436v-303q0 -41 16 -58.5t48 -18t80 1.5v-58q-105 -16 -157.5 15t-52.5 118v303h-105v64h105v120l66 20v-140h144v-64h-144z" />
    <glyph glyph-name="Tbar" unicode="&#x166;" horiz-adv-x="540" 
d="M305 634v-252h145v-64h-145v-318h-70v318h-145v64h145v252h-215v66h500v-66h-215z" />
    <glyph glyph-name="tbar" unicode="&#x167;" horiz-adv-x="375" 
d="M191 436v-149h97v-54h-97v-100q0 -41 16 -58.5t48 -18t80 1.5v-58q-105 -16 -157.5 15t-52.5 118v100h-67v54h67v149h-105v64h105v120l66 20v-140h144v-64h-144z" />
    <glyph glyph-name="Umacron" unicode="&#x16a;" horiz-adv-x="660" 
d="M200 838h260v-58h-260v58zM330 -12q-116 0 -188 68t-72 182v462h70v-462q0 -84 50 -133t140 -49t140 49t50 133v462h70v-462q0 -114 -72 -182t-188 -68z" />
    <glyph glyph-name="umacron" unicode="&#x16b;" horiz-adv-x="558" 
d="M401 580h-260v58h260v-58zM488 500v-500h-66v78q-56 -90 -168 -90q-91 0 -143.5 55.5t-52.5 149.5v307h66v-307q0 -67 35.5 -104t100.5 -37q72 0 117 45.5t45 140.5v262h66z" />
    <glyph glyph-name="Uring" unicode="&#x16e;" horiz-adv-x="660" 
d="M330 720q-47 0 -76.5 28.5t-29.5 71.5t29.5 71.5t76.5 28.5t76.5 -28.5t29.5 -71.5t-29.5 -71.5t-76.5 -28.5zM330 771q25 0 38.5 13.5t13.5 35.5t-13.5 35.5t-38.5 13.5q-24 0 -37.5 -13.5t-13.5 -35.5t13.5 -35.5t37.5 -13.5zM330 -12q-116 0 -188 68t-72 182v462h70
v-462q0 -84 50 -133t140 -49t140 49t50 133v462h70v-462q0 -114 -72 -182t-188 -68z" />
    <glyph glyph-name="uring" unicode="&#x16f;" horiz-adv-x="558" 
d="M271 550q-47 0 -76.5 28.5t-29.5 71.5t29.5 71.5t76.5 28.5t76.5 -28.5t29.5 -71.5t-29.5 -71.5t-76.5 -28.5zM271 699q-24 0 -37.5 -13.5t-13.5 -35.5t13.5 -35.5t37.5 -13.5q25 0 38.5 13.5t13.5 35.5t-13.5 35.5t-38.5 13.5zM488 500v-500h-66v78q-56 -90 -168 -90
q-91 0 -143.5 55.5t-52.5 149.5v307h66v-307q0 -67 35.5 -104t100.5 -37q72 0 117 45.5t45 140.5v262h66z" />
    <glyph glyph-name="Uhungarumlaut" unicode="&#x170;" horiz-adv-x="660" 
d="M268 770l76 130h-74l-70 -130h68zM411 770l86 130h-74l-80 -130h68zM330 -12q-116 0 -188 68t-72 182v462h70v-462q0 -84 50 -133t140 -49t140 49t50 133v462h70v-462q0 -114 -72 -182t-188 -68z" />
    <glyph glyph-name="uhungarumlaut" unicode="&#x171;" horiz-adv-x="558" 
d="M209 570h-68l70 130h74zM284 570l80 130h74l-86 -130h-68zM488 500v-500h-66v78q-56 -90 -168 -90q-91 0 -143.5 55.5t-52.5 149.5v307h66v-307q0 -67 35.5 -104t100.5 -37q72 0 117 45.5t45 140.5v262h66z" />
    <glyph glyph-name="Uogonek" unicode="&#x172;" horiz-adv-x="660" 
d="M590 700v-462q0 -130 -92 -198q-65 -61 -91.5 -96.5t-26.5 -67.5q0 -31 34 -31q21 0 42 9v-55q-27 -11 -59 -11q-39 0 -60.5 21t-21.5 55q0 61 64 127q-24 -3 -49 -3q-116 0 -188 68t-72 182v462h70v-462q0 -84 50 -133t140 -49t140 49t50 133v462h70z" />
    <glyph glyph-name="uogonek" unicode="&#x173;" horiz-adv-x="558" 
d="M488 0q-34 -31 -55 -65t-21 -59q0 -31 34 -31q21 0 42 9v-55q-27 -11 -59 -11q-39 0 -60.5 21t-21.5 55q0 60 75 147v67q-56 -90 -168 -90q-91 0 -143.5 55.5t-52.5 149.5v307h66v-307q0 -67 35.5 -104t100.5 -37q72 0 117 45.5t45 140.5v262h66v-500z" />
    <glyph glyph-name="Wcircumflex" unicode="&#x174;" horiz-adv-x="1000" 
d="M430 770h-75l106 130h78l106 -130h-75l-70 87zM970 700l-203 -700h-84l-183 608l-183 -608h-84l-203 700h74l173 -605l182 605h82l182 -605l173 605h74z" />
    <glyph glyph-name="wcircumflex" unicode="&#x175;" horiz-adv-x="770" 
d="M315 570h-75l106 130h78l106 -130h-75l-70 87zM740 500l-154 -500h-72l-129 403l-129 -403h-72l-154 500h68l123 -415l131 415h66l131 -415l123 415h68z" />
    <glyph glyph-name="Ycircumflex" unicode="&#x176;" horiz-adv-x="595" 
d="M224 770h-75l106 130h78l106 -130h-75l-70 87zM332 287v-287h-70v289l-252 411h79l209 -343l208 343h79z" />
    <glyph glyph-name="ycircumflex" unicode="&#x177;" horiz-adv-x="510" 
d="M183 570h-75l106 130h78l106 -130h-75l-70 87zM500 500l-214 -546q-29 -74 -82.5 -116.5t-119.5 -37.5v62q90 -10 137 104l13 31l-224 503h70l188 -419l162 419h70z" />
    <glyph glyph-name="Ydieresis" unicode="&#x178;" horiz-adv-x="595" 
d="M199 775q-19 0 -32 13t-13 32t13 32t32 13t32 -13t13 -32t-13 -32t-32 -13zM389 775q-19 0 -32 13t-13 32t13 32t32 13t32 -13t13 -32t-13 -32t-32 -13zM332 287v-287h-70v289l-252 411h79l209 -343l208 343h79z" />
    <glyph glyph-name="Zacute" unicode="&#x179;" horiz-adv-x="520" 
d="M279 770h-64l80 130h80zM490 66v-66h-450v66l362 568h-352v66h430v-66l-362 -568h372z" />
    <glyph glyph-name="zacute" unicode="&#x17a;" horiz-adv-x="470" 
d="M256 570h-64l80 130h80zM430 64v-64h-380v44l278 392h-268v64h360v-44l-278 -392h288z" />
    <glyph glyph-name="Zdotaccent" unicode="&#x17b;" horiz-adv-x="520" 
d="M265 770q-23 0 -39 16t-16 39t16 39t39 16t39 -16t16 -39t-16 -39t-39 -16zM490 66v-66h-450v66l362 568h-352v66h430v-66l-362 -568h372z" />
    <glyph glyph-name="zdotaccent" unicode="&#x17c;" horiz-adv-x="470" 
d="M242 570q-23 0 -39 16t-16 39t16 39t39 16t39 -16t16 -39t-16 -39t-39 -16zM430 64v-64h-380v44l278 392h-268v64h360v-44l-278 -392h288z" />
    <glyph glyph-name="Zcaron" unicode="&#x17d;" horiz-adv-x="520" 
d="M120 900h75l70 -87l70 87h75l-106 -130h-78zM490 66v-66h-450v66l362 568h-352v66h430v-66l-362 -568h372z" />
    <glyph glyph-name="zcaron" unicode="&#x17e;" horiz-adv-x="470" 
d="M97 700h75l70 -87l70 87h75l-106 -130h-78zM430 64v-64h-380v44l278 392h-268v64h360v-44l-278 -392h288z" />
    <glyph glyph-name="florin" unicode="&#x192;" horiz-adv-x="439" 
d="M439 639q-54 20 -89 1t-43 -69l-32 -188h115v-64h-126l-66 -388q-15 -88 -68.5 -121.5t-129.5 -10.5v64q54 -20 89 -1t43 69l66 388h-109v64h120l32 188q15 88 68.5 121.5t129.5 10.5v-64z" />
    <glyph glyph-name="uni0218" unicode="&#x218;" horiz-adv-x="576" 
d="M300 -12q-96 0 -164.5 45.5t-95.5 125.5l60 35q19 -65 70 -101.5t131 -36.5q78 0 121.5 34.5t43.5 91.5q0 55 -40 83t-132 58q-109 36 -144 58q-80 48 -80 139q0 89 62 140.5t153 51.5q82 0 142 -42.5t89 -108.5l-59 -33q-48 116 -172 116q-65 0 -105 -32t-40 -89
q0 -52 36 -78t119 -53q38 -13 54.5 -18.5t48 -18t46.5 -22t36.5 -26t31 -33t17 -40t7.5 -50.5q0 -89 -65 -142.5t-171 -53.5zM339 -70h-66l-10 -170h46z" />
    <glyph glyph-name="uni0219" unicode="&#x219;" horiz-adv-x="454" 
d="M122 369q0 -34 30 -54t73 -31t86 -24.5t73 -45t30 -82.5q0 -64 -50.5 -104t-130.5 -40q-72 0 -122.5 32t-70.5 83l56 33q14 -39 50.5 -61.5t86.5 -22.5q49 0 82 19.5t33 60.5q0 34 -30 54t-73 31t-86 24.5t-73 45t-30 82.5q0 61 48.5 102t122.5 41q61 0 107 -27.5
t68 -74.5l-55 -32q-29 70 -120 70q-43 0 -74 -20.5t-31 -58.5zM214 -70h66l-30 -170h-46z" />
    <glyph glyph-name="uni021A" unicode="&#x21a;" horiz-adv-x="540" 
d="M520 634h-215v-634h-70v634h-215v66h500v-66zM238 -70h66l-30 -170h-46z" />
    <glyph glyph-name="uni021B" unicode="&#x21b;" horiz-adv-x="375" 
d="M191 436v-303q0 -41 16 -58.5t48 -18t80 1.5v-58q-105 -16 -157.5 15t-52.5 118v303h-105v64h105v120l66 20v-140h144v-64h-144zM204 -70h66l-30 -170h-46z" />
    <glyph glyph-name="circumflex" unicode="&#x2c6;" horiz-adv-x="330" 
d="M235 570l-70 87l-70 -87h-75l106 130h78l106 -130h-75z" />
    <glyph glyph-name="caron" unicode="&#x2c7;" horiz-adv-x="330" 
d="M310 700l-106 -130h-78l-106 130h75l70 -87l70 87h75z" />
    <glyph glyph-name="breve" unicode="&#x2d8;" horiz-adv-x="320" 
d="M160 562q-64 0 -102 34.5t-38 95.5h64q0 -72 76 -72t76 72h64q0 -62 -37.5 -96t-102.5 -34z" />
    <glyph glyph-name="dotaccent" unicode="&#x2d9;" horiz-adv-x="150" 
d="M75 570q-23 0 -39 16t-16 39t16 39t39 16t39 -16t16 -39t-16 -39t-39 -16z" />
    <glyph glyph-name="ring" unicode="&#x2da;" horiz-adv-x="252" 
d="M126 550q-47 0 -76.5 28.5t-29.5 71.5t29.5 71.5t76.5 28.5t76.5 -28.5t29.5 -71.5t-29.5 -71.5t-76.5 -28.5zM126 601q25 0 38.5 13.5t13.5 35.5t-13.5 35.5t-38.5 13.5q-24 0 -37.5 -13.5t-13.5 -35.5t13.5 -35.5t37.5 -13.5z" />
    <glyph glyph-name="ogonek" unicode="&#x2db;" horiz-adv-x="181" 
d="M102 -212q-39 0 -60.5 21t-21.5 55q0 66 72 136h69q-34 -31 -55 -65t-21 -59q0 -31 34 -31q21 0 42 9v-55q-27 -11 -59 -11z" />
    <glyph glyph-name="tilde" unicode="&#x2dc;" horiz-adv-x="320" 
d="M20 580q0 59 21 88t53 27.5t67 -28.5q18 -14 29 -21t22 -11t17 1t9.5 18t3.5 36h58q0 -59 -21 -88t-52.5 -27.5t-66.5 28.5q-23 17 -35.5 24.5t-24.5 8.5t-17 -13t-5 -43h-58z" />
    <glyph glyph-name="hungarumlaut" unicode="&#x2dd;" horiz-adv-x="337" 
d="M88 570l76 130h-74l-70 -130h68zM231 570l86 130h-74l-80 -130h68z" />
    <glyph glyph-name="gravecomb" unicode="&#x300;" horiz-adv-x="0" 
d="M-100 700h-80l96 -130h64z" />
    <glyph glyph-name="acutecomb" unicode="&#x301;" horiz-adv-x="0" 
d="M-116 570l96 130h-80l-80 -130h64z" />
    <glyph glyph-name="uni0302" unicode="&#x302;" horiz-adv-x="0" 
d="M-95 570l-70 87l-70 -87h-75l106 130h78l106 -130h-75z" />
    <glyph glyph-name="tildecomb" unicode="&#x303;" horiz-adv-x="0" 
d="M-300 580q0 59 21 88t53 27.5t67 -28.5q18 -14 29 -21t22 -11t17 1t9.5 18t3.5 36h58q0 -59 -21 -88t-52.5 -27.5t-66.5 28.5q-23 17 -35.5 24.5t-24.5 8.5t-17 -13t-5 -43h-58z" />
    <glyph glyph-name="uni0304" unicode="&#x304;" horiz-adv-x="0" 
d="M-280 638h260v-58h-260v58z" />
    <glyph glyph-name="uni0306" unicode="&#x306;" horiz-adv-x="0" 
d="M-160 562q-64 0 -102 34.5t-38 95.5h64q0 -72 76 -72t76 72h64q0 -62 -37.5 -96t-102.5 -34z" />
    <glyph glyph-name="uni0307" unicode="&#x307;" horiz-adv-x="0" 
d="M-75 570q-23 0 -39 16t-16 39t16 39t39 16t39 -16t16 -39t-16 -39t-39 -16z" />
    <glyph glyph-name="uni0308" unicode="&#x308;" horiz-adv-x="0" 
d="M-255 575q-19 0 -32 13t-13 32t13 32t32 13t32 -13t13 -32t-13 -32t-32 -13zM-65 575q-19 0 -32 13t-13 32t13 32t32 13t32 -13t13 -32t-13 -32t-32 -13z" />
    <glyph glyph-name="uni030A" unicode="&#x30a;" horiz-adv-x="0" 
d="M-126 550q-47 0 -76.5 28.5t-29.5 71.5t29.5 71.5t76.5 28.5t76.5 -28.5t29.5 -71.5t-29.5 -71.5t-76.5 -28.5zM-126 601q25 0 38.5 13.5t13.5 35.5t-13.5 35.5t-38.5 13.5q-24 0 -37.5 -13.5t-13.5 -35.5t13.5 -35.5t37.5 -13.5z" />
    <glyph glyph-name="uni030B" unicode="&#x30b;" horiz-adv-x="0" 
d="M-249 570l76 130h-74l-70 -130h68zM-106 570l86 130h-74l-80 -130h68z" />
    <glyph glyph-name="uni030C" unicode="&#x30c;" horiz-adv-x="0" 
d="M-20 700l-106 -130h-78l-106 130h75l70 -87l70 87h75z" />
    <glyph glyph-name="uni0312" unicode="&#x312;" horiz-adv-x="0" 
d="M-96 790h66l10 170h-46z" />
    <glyph glyph-name="uni0326" unicode="&#x326;" horiz-adv-x="0" 
d="M-20 -70h-66l-10 -170h46z" />
    <glyph glyph-name="uni0327" unicode="&#x327;" horiz-adv-x="0" 
d="M-113 -45q43 -8 68 -29t25 -52q0 -102 -205 -90v54q147 -12 147 36q0 38 -93 41v85h58v-45z" />
    <glyph glyph-name="uni0328" unicode="&#x328;" horiz-adv-x="0" 
d="M-79 -212q-39 0 -60.5 21t-21.5 55q0 66 72 136h69q-34 -31 -55 -65t-21 -59q0 -31 34 -31q21 0 42 9v-55q-27 -11 -59 -11z" />
    <glyph glyph-name="uni0394" unicode="&#x394;" horiz-adv-x="630" 
d="M620 0h-610l269 700h72zM521 66l-206 547l-206 -547h412z" />
    <glyph glyph-name="uni03A9" unicode="&#x3a9;" horiz-adv-x="804" 
d="M764 350q0 -90 -40.5 -164.5t-110.5 -119.5h139v-66h-273v66q95 25 155 103.5t60 180.5q0 123 -84 208.5t-208 85.5t-208 -85.5t-84 -208.5q0 -102 59.5 -180.5t155.5 -103.5v-66h-273v66h139q-71 45 -111 119.5t-40 164.5q0 151 105 256.5t257 105.5t257 -105.5
t105 -256.5z" />
    <glyph glyph-name="pi" unicode="&#x3c0;" horiz-adv-x="650" 
d="M620 436h-83v-436h-66v436h-288v-436h-66v436h-87v64h590v-64z" />
    <glyph glyph-name="uni0401" unicode="&#x401;" horiz-adv-x="530" 
d="M188 775q-19 0 -32 13t-13 32t13 32t32 13t32 -13t13 -32t-13 -32t-32 -13zM378 775q-19 0 -32 13t-13 32t13 32t32 13t32 -13t13 -32t-13 -32t-32 -13zM490 66v-66h-410v700h405v-66h-335v-248h310v-66h-310v-254h340z" />
    <glyph glyph-name="uni0402" unicode="&#x402;" horiz-adv-x="698" 
d="M444 472q84 0 136.5 -49t52.5 -141v-118q0 -90 -47 -135t-133 -37v64q58 -6 84 19t26 89v118q0 126 -118 126q-83 0 -160 -33v-375h-70v634h-195v66h490v-66h-225v-196q71 34 159 34z" />
    <glyph glyph-name="uni0403" unicode="&#x403;" horiz-adv-x="490" 
d="M290 769h-64l80 130h80zM470 634h-320v-634h-70v700h390v-66z" />
    <glyph glyph-name="uni0404" unicode="&#x404;" horiz-adv-x="740" 
d="M402 56q78 0 143 38t98 102l62 -35q-43 -79 -124.5 -126t-178.5 -47q-159 0 -260.5 104.5t-101.5 257.5t101.5 257.5t260.5 104.5q97 0 178 -46.5t125 -125.5l-62 -36q-33 64 -98 102t-143 38q-121 0 -200 -74t-90 -187h383v-66h-383q11 -113 90 -187t200 -74z" />
    <glyph glyph-name="uni0405" unicode="&#x405;" horiz-adv-x="576" 
d="M300 -12q-96 0 -164.5 45.5t-95.5 125.5l60 35q19 -65 70 -101.5t131 -36.5q78 0 121.5 34.5t43.5 91.5q0 55 -40 83t-132 58q-109 36 -144 58q-80 48 -80 139q0 89 62 140.5t153 51.5q82 0 142 -42.5t89 -108.5l-59 -33q-48 116 -172 116q-65 0 -105 -32t-40 -89
q0 -52 36 -78t119 -53q38 -13 54.5 -18.5t48 -18t46.5 -22t36.5 -26t31 -33t17 -40t7.5 -50.5q0 -89 -65 -142.5t-171 -53.5z" />
    <glyph glyph-name="uni0406" unicode="&#x406;" horiz-adv-x="230" 
d="M150 700v-700h-70v700h70z" />
    <glyph glyph-name="uni0407" unicode="&#x407;" horiz-adv-x="230" 
d="M20 775q-19 0 -32 13t-13 32t13 32t32 13t32 -13t13 -32t-13 -32t-32 -13zM210 775q-19 0 -32 13t-13 32t13 32t32 13t32 -13t13 -32t-13 -32t-32 -13zM150 700v-700h-70v700h70z" />
    <glyph glyph-name="uni0408" unicode="&#x408;" horiz-adv-x="553" 
d="M253 -12q-73 0 -130.5 30.5t-82.5 89.5l59 35q33 -87 154 -87q73 0 116.5 35t43.5 107v502h70v-502q0 -102 -65.5 -156t-164.5 -54z" />
    <glyph glyph-name="uni0409" unicode="&#x409;" horiz-adv-x="995" 
d="M745 400q88 0 149 -57.5t61 -142.5q0 -86 -61 -143t-149 -57h-230v634h-284v-325q0 -184 -54.5 -251.5t-161.5 -58.5v62q73 -10 109.5 46t36.5 204v389h424v-300h160zM745 66q59 0 99.5 37.5t40.5 96.5q0 58 -40.5 96t-99.5 38h-160v-268h160z" />
    <glyph glyph-name="uni040A" unicode="&#x40a;" horiz-adv-x="980" 
d="M730 400q88 0 149 -57.5t61 -142.5q0 -86 -61 -143t-149 -57h-230v334h-350v-334h-70v700h70v-300h350v300h70v-300h160zM730 66q59 0 99.5 37.5t40.5 96.5q0 58 -40.5 96t-99.5 38h-160v-268h160z" />
    <glyph glyph-name="uni040B" unicode="&#x40b;" horiz-adv-x="703" 
d="M444 472q84 0 136.5 -49t52.5 -141v-282h-70v282q0 126 -118 126q-83 0 -160 -33v-375h-70v634h-195v66h490v-66h-225v-196q71 34 159 34z" />
    <glyph glyph-name="uni040C" unicode="&#x40c;" horiz-adv-x="580" 
d="M300 769h-64l80 130h80zM478 0l-328 339v-339h-70v700h70v-320l318 320h92l-336 -340l346 -360h-92z" />
    <glyph glyph-name="uni040E" unicode="&#x40e;" horiz-adv-x="570" 
d="M421 779h-260v58h260v-58zM560 700l-233 -547q-35 -84 -89 -121t-134 -32v64q56 -6 92.5 16.5t60.5 78.5l14 33l-241 508h72l202 -430l184 430h72z" />
    <glyph glyph-name="uni040F" unicode="&#x40f;" horiz-adv-x="660" 
d="M580 700v-700h-215v-134h-70v134h-215v700h70v-634h360v634h70z" />
    <glyph glyph-name="uni0410" unicode="&#x410;" horiz-adv-x="630" 
d="M481 172h-332l-65 -172h-74l269 700h72l269 -700h-74zM456 238l-141 375l-141 -375h282z" />
    <glyph glyph-name="uni0411" unicode="&#x411;" horiz-adv-x="585" 
d="M340 420q87 0 148.5 -62t61.5 -148q0 -87 -61.5 -148.5t-148.5 -61.5h-260v700h410v-66h-340v-214h190zM340 66q58 0 99 42t41 102q0 59 -41 101.5t-99 42.5h-190v-288h190z" />
    <glyph glyph-name="uni0412" unicode="&#x412;" horiz-adv-x="620" 
d="M468 363q51 -22 81.5 -66.5t30.5 -101.5q0 -81 -57 -138t-138 -57h-305v700h282q78 0 133 -55.5t55 -132.5q0 -98 -82 -149zM150 634v-244h212q49 0 83.5 35.5t34.5 86.5q0 50 -34.5 86t-83.5 36h-212zM385 66q52 0 88.5 37.5t36.5 91.5q0 53 -36.5 91t-88.5 38h-235
v-258h235z" />
    <glyph glyph-name="uni0413" unicode="&#x413;" horiz-adv-x="490" 
d="M470 634h-320v-634h-70v700h390v-66z" />
    <glyph glyph-name="uni0414" unicode="&#x414;" horiz-adv-x="690" 
d="M655 66v-200h-70v134h-500v-134h-70v200h57q69 81 69 250v384h439v-634h75zM510 66v568h-299v-320q0 -166 -56 -248h355z" />
    <glyph glyph-name="uni0415" unicode="&#x415;" horiz-adv-x="530" 
d="M490 66v-66h-410v700h405v-66h-335v-248h310v-66h-310v-254h340z" />
    <glyph glyph-name="uni0416" unicode="&#x416;" horiz-adv-x="850" 
d="M748 0l-288 342v-342h-70v342l-288 -342h-82l301 360l-291 340h82l278 -323v323h70v-323l278 323h82l-291 -340l301 -360h-82z" />
    <glyph glyph-name="uni0417" unicode="&#x417;" horiz-adv-x="565" 
d="M403 362q58 -22 90 -67t32 -106q0 -88 -65.5 -144.5t-176.5 -56.5q-100 0 -160 45t-83 113l60 34q13 -53 56.5 -89.5t126.5 -36.5q82 0 127 37.5t45 97.5t-41.5 97.5t-114.5 37.5h-80v66h55q71 0 113 36t42 93q0 56 -40.5 91.5t-110.5 35.5q-129 0 -170 -110l-58 34
q26 64 82.5 103t145.5 39q99 0 160 -55.5t61 -138.5q0 -105 -96 -156z" />
    <glyph glyph-name="uni0418" unicode="&#x418;" horiz-adv-x="680" 
d="M530 570l-390 -570h-60v700h70v-570l390 570h60v-700h-70v570z" />
    <glyph glyph-name="uni0419" unicode="&#x419;" horiz-adv-x="680" 
d="M210 838h260v-58h-260v58zM530 570l-390 -570h-60v700h70v-570l390 570h60v-700h-70v570z" />
    <glyph glyph-name="uni041A" unicode="&#x41a;" horiz-adv-x="580" 
d="M478 0l-328 339v-339h-70v700h70v-320l318 320h92l-336 -340l346 -360h-92z" />
    <glyph glyph-name="uni041B" unicode="&#x41b;" horiz-adv-x="695" 
d="M15 62q73 -10 109.5 45.5t36.5 203.5v389h454v-700h-70v634h-314v-325q0 -95 -15 -159t-44.5 -97.5t-67 -45t-89.5 -7.5v62z" />
    <glyph glyph-name="uni041C" unicode="&#x41c;" horiz-adv-x="800" 
d="M720 0h-70v594l-245 -410h-10l-245 410v-594h-70v700h87l233 -390l233 390h87v-700z" />
    <glyph glyph-name="uni041D" unicode="&#x41d;" horiz-adv-x="680" 
d="M600 700v-700h-70v327h-380v-327h-70v700h70v-307h380v307h70z" />
    <glyph glyph-name="uni041E" unicode="&#x41e;" horiz-adv-x="804" 
d="M402 -12q-152 0 -257 105.5t-105 256.5t105 256.5t257 105.5t257 -105.5t105 -256.5t-105 -256.5t-257 -105.5zM402 56q124 0 208 85.5t84 208.5t-84 208.5t-208 85.5t-208 -85.5t-84 -208.5t84 -208.5t208 -85.5z" />
    <glyph glyph-name="uni041F" unicode="&#x41f;" horiz-adv-x="660" 
d="M580 0h-70v634h-360v-634h-70v700h500v-700z" />
    <glyph glyph-name="uni0420" unicode="&#x420;" horiz-adv-x="590" 
d="M330 700q94 0 157 -63t63 -157t-63 -157t-157 -63h-180v-260h-70v700h250zM330 326q65 0 107.5 43.5t42.5 110.5t-42.5 110.5t-107.5 43.5h-180v-308h180z" />
    <glyph glyph-name="uni0421" unicode="&#x421;" horiz-adv-x="745" 
d="M407 -12q-159 0 -263 105t-104 257t104 257t263 105q97 0 178 -46.5t125 -125.5l-62 -36q-33 64 -98 102t-143 38q-131 0 -214 -85t-83 -209t83 -209t214 -85q78 0 143 38t98 102l62 -35q-43 -79 -124.5 -126t-178.5 -47z" />
    <glyph glyph-name="uni0422" unicode="&#x422;" horiz-adv-x="540" 
d="M520 634h-215v-634h-70v634h-215v66h500v-66z" />
    <glyph glyph-name="uni0423" unicode="&#x423;" horiz-adv-x="570" 
d="M560 700l-233 -547q-35 -84 -89 -121t-134 -32v64q56 -6 92.5 16.5t60.5 78.5l14 33l-241 508h72l202 -430l184 430h72z" />
    <glyph glyph-name="uni0424" unicode="&#x424;" horiz-adv-x="804" 
d="M774 350q0 -124 -92.5 -194t-244.5 -77v-79h-70v79q-152 7 -244.5 77t-92.5 194t92.5 194t244.5 77v79h70v-79q152 -7 244.5 -77t92.5 -194zM100 350q0 -96 72 -148.5t195 -58.5v414q-123 -6 -195 -58.5t-72 -148.5zM437 143q123 6 195 58.5t72 148.5t-72 148.5
t-195 58.5v-414z" />
    <glyph glyph-name="uni0425" unicode="&#x425;" horiz-adv-x="580" 
d="M480 0l-190 299l-190 -299h-80l230 361l-215 339h79l176 -276l176 276h79l-215 -339l230 -361h-80z" />
    <glyph glyph-name="uni0426" unicode="&#x426;" horiz-adv-x="690" 
d="M655 66v-200h-70v134h-505v700h70v-634h360v634h70v-634h75z" />
    <glyph glyph-name="uni0427" unicode="&#x427;" horiz-adv-x="625" 
d="M545 700v-700h-70v295q-91 -45 -190 -45q-100 0 -160 56t-60 144v250h70v-250q0 -61 39.5 -97.5t110.5 -36.5q99 0 190 45v339h70z" />
    <glyph glyph-name="uni0428" unicode="&#x428;" horiz-adv-x="950" 
d="M870 700v-700h-790v700h70v-634h290v634h70v-634h290v634h70z" />
    <glyph glyph-name="uni0429" unicode="&#x429;" horiz-adv-x="980" 
d="M945 66v-200h-70v134h-795v700h70v-634h290v634h70v-634h290v634h70v-634h75z" />
    <glyph glyph-name="uni042A" unicode="&#x42a;" horiz-adv-x="700" 
d="M190 634h-190v66h260v-260h180q94 0 157 -63t63 -157t-63 -157t-157 -63h-250v634zM440 66q65 0 107.5 43.5t42.5 110.5t-42.5 110.5t-107.5 43.5h-180v-308h180z" />
    <glyph glyph-name="uni042B" unicode="&#x42b;" horiz-adv-x="775" 
d="M80 700h70v-260h180q94 0 157 -63t63 -157t-63 -157t-157 -63h-250v700zM625 700h70v-700h-70v700zM330 66q65 0 107.5 43.5t42.5 110.5t-42.5 110.5t-107.5 43.5h-180v-308h180z" />
    <glyph glyph-name="uni042C" unicode="&#x42c;" horiz-adv-x="590" 
d="M330 440q94 0 157 -63t63 -157t-63 -157t-157 -63h-250v700h70v-260h180zM330 66q65 0 107.5 43.5t42.5 110.5t-42.5 110.5t-107.5 43.5h-180v-308h180z" />
    <glyph glyph-name="uni042D" unicode="&#x42d;" horiz-adv-x="740" 
d="M338 712q159 0 260.5 -104.5t101.5 -257.5t-101.5 -257.5t-260.5 -104.5q-97 0 -178.5 47t-124.5 126l62 35q33 -64 98 -102t143 -38q121 0 200 74t90 187h-383v66h383q-11 113 -90 187t-200 74q-78 0 -143 -38t-98 -102l-62 36q44 79 125 125.5t178 46.5z" />
    <glyph glyph-name="uni042E" unicode="&#x42e;" horiz-adv-x="1040" 
d="M638 712q152 0 257 -105.5t105 -256.5t-105 -256.5t-257 -105.5q-146 0 -247.5 98t-109.5 241h-131v-327h-70v700h70v-307h132q16 137 116 228t240 91zM638 56q124 0 208 85.5t84 208.5t-84 208.5t-208 85.5t-208 -85.5t-84 -208.5t84 -208.5t208 -85.5z" />
    <glyph glyph-name="uni042F" unicode="&#x42f;" horiz-adv-x="620" 
d="M540 0h-70v280h-168l-192 -280h-80l195 283q-75 13 -125 71.5t-50 135.5q0 87 61.5 148.5t148.5 61.5h280v-700zM470 346v288h-210q-58 0 -99 -42t-41 -102q0 -59 41 -101.5t99 -42.5h210z" />
    <glyph glyph-name="uni0430" unicode="&#x430;" 
d="M566 500v-500h-66v98q-69 -110 -202 -110q-107 0 -182.5 76t-75.5 186t75.5 186t182.5 76q133 0 202 -110v98h66zM303 52q83 0 140 57.5t57 140.5t-57 140.5t-140 57.5t-140 -57.5t-57 -140.5t57 -140.5t140 -57.5z" />
    <glyph glyph-name="uni0431" unicode="&#x431;" horiz-adv-x="567" 
d="M292 -12q-108 0 -180 71.5t-72 185.5q0 128 38 196.5t154 124.5q22 11 58.5 26t55 24t40.5 23.5t33 32.5t14 43l52 -30q-4 -24 -16 -45t-24.5 -34t-39 -28.5t-41 -22t-50 -21.5t-47.5 -20q-70 -30 -103 -62.5t-47 -84.5q34 45 86.5 66.5t102.5 21.5q100 0 165.5 -65.5
t65.5 -167.5q0 -101 -69.5 -167.5t-175.5 -66.5zM292 54q78 0 128.5 47.5t50.5 120.5q0 74 -47.5 121.5t-126.5 47.5q-71 0 -129 -44.5t-58 -118.5q0 -76 52.5 -125t129.5 -49z" />
    <glyph glyph-name="uni0432" unicode="&#x432;" horiz-adv-x="500" 
d="M388 257q82 -30 82 -117q0 -61 -40.5 -100.5t-116.5 -39.5h-243v500h223q73 0 113 -37.5t40 -96.5q0 -75 -58 -109zM136 436v-152h157q87 0 87 78q0 35 -22.5 54.5t-64.5 19.5h-157zM313 64q44 0 67.5 21t23.5 59q0 35 -23.5 55.5t-67.5 20.5h-177v-156h177z" />
    <glyph glyph-name="uni0433" unicode="&#x433;" horiz-adv-x="400" 
d="M390 436h-254v-436h-66v500h320v-64z" />
    <glyph glyph-name="uni0434" unicode="&#x434;" horiz-adv-x="590" 
d="M560 64v-198h-66v134h-408v-134h-66v198h61q51 67 51 189v247h358v-436h70zM424 64v372h-226v-183q0 -115 -37 -189h263z" />
    <glyph glyph-name="uni0435" unicode="&#x435;" horiz-adv-x="584" 
d="M301 512q111 0 179.5 -78.5t68.5 -185.5q0 -11 -2 -31h-439q10 -76 64.5 -120.5t134.5 -44.5q57 0 98.5 23.5t62.5 61.5l58 -34q-33 -53 -90 -84t-130 -31q-118 0 -192 74t-74 188q0 112 73 187t188 75zM301 448q-78 0 -130.5 -46.5t-62.5 -120.5h373q-10 79 -61 123
t-119 44z" />
    <glyph glyph-name="uni0436" unicode="&#x436;" horiz-adv-x="674" 
d="M574 0l-204 241v-241h-66v241l-204 -241h-80l224 260l-214 240h80l194 -222v222h66v-222l194 222h80l-214 -240l224 -260h-80z" />
    <glyph glyph-name="uni0437" unicode="&#x437;" horiz-adv-x="445" 
d="M328 257q87 -33 87 -120q0 -62 -48.5 -105.5t-138.5 -43.5q-151 0 -198 120l56 33q31 -89 142 -89q58 0 89.5 25t31.5 64q0 35 -26 57t-70 22h-73v64h53q43 0 67.5 21.5t24.5 59.5q0 36 -29 59.5t-78 23.5q-94 0 -125 -75l-55 32q50 107 180 107q79 0 126 -41.5
t47 -101.5q0 -77 -63 -112z" />
    <glyph glyph-name="uni0438" unicode="&#x438;" horiz-adv-x="560" 
d="M490 500v-500h-66v385l-298 -385h-56v500h66v-385l298 385h56z" />
    <glyph glyph-name="uni0439" unicode="&#x439;" horiz-adv-x="560" 
d="M150 638h260v-58h-260v58zM490 500v-500h-66v385l-298 -385h-56v500h66v-385l298 385h56z" />
    <glyph glyph-name="uni043A" unicode="&#x43a;" horiz-adv-x="494" 
d="M386 0l-250 241v-241h-66v500h66v-221l238 221h90l-258 -240l268 -260h-88z" />
    <glyph glyph-name="uni043B" unicode="&#x43b;" horiz-adv-x="550" 
d="M480 0h-66v436h-226v-223q0 -125 -47.5 -172t-130.5 -41v62q57 -6 84.5 27t27.5 124v287h358v-500z" />
    <glyph glyph-name="uni043C" unicode="&#x43c;" horiz-adv-x="630" 
d="M560 0h-66v399l-175 -284h-8l-175 284v-399h-66v500h76l169 -274l169 274h76v-500z" />
    <glyph glyph-name="uni043D" unicode="&#x43d;" horiz-adv-x="560" 
d="M490 500v-500h-66v218h-288v-218h-66v500h66v-218h288v218h66z" />
    <glyph glyph-name="uni043E" unicode="&#x43e;" horiz-adv-x="606" 
d="M303 -12q-110 0 -186.5 75.5t-76.5 186.5t76.5 186.5t186.5 75.5t186.5 -75.5t76.5 -186.5t-76.5 -186.5t-186.5 -75.5zM303 52q83 0 140 57.5t57 140.5t-57 140.5t-140 57.5t-140 -57.5t-57 -140.5t57 -140.5t140 -57.5z" />
    <glyph glyph-name="uni043F" unicode="&#x43f;" horiz-adv-x="560" 
d="M490 0h-66v436h-288v-436h-66v500h420v-500z" />
    <glyph glyph-name="uni0440" unicode="&#x440;" 
d="M338 512q107 0 182.5 -76t75.5 -186t-75.5 -186t-182.5 -76q-133 0 -202 110v-298h-66v700h66v-98q69 110 202 110zM333 52q83 0 140 57.5t57 140.5t-57 140.5t-140 57.5t-140 -57.5t-57 -140.5t57 -140.5t140 -57.5z" />
    <glyph glyph-name="uni0441" unicode="&#x441;" horiz-adv-x="552" 
d="M303 -12q-113 0 -188 75.5t-75 186.5t75 186.5t188 75.5q74 0 133 -35.5t86 -95.5l-54 -31q-20 45 -64.5 71.5t-100.5 26.5q-83 0 -140 -57.5t-57 -140.5t57 -140.5t140 -57.5q56 0 100 26.5t69 71.5l55 -32q-31 -60 -91 -95t-133 -35z" />
    <glyph glyph-name="uni0442" unicode="&#x442;" horiz-adv-x="440" 
d="M430 436h-177v-436h-66v436h-177v64h420v-64z" />
    <glyph glyph-name="uni0443" unicode="&#x443;" horiz-adv-x="510" 
d="M500 500l-214 -546q-29 -74 -82.5 -116.5t-119.5 -37.5v62q90 -10 137 104l13 31l-224 503h70l188 -419l162 419h70z" />
    <glyph glyph-name="uni0444" unicode="&#x444;" horiz-adv-x="670" 
d="M630 250q0 -105 -72 -178t-190 -83v-189h-66v189q-118 10 -190 83t-72 178t72 178t190 83v189h66v-189q118 -10 190 -83t72 -178zM106 250q0 -78 53 -132.5t143 -63.5v392q-90 -9 -143 -63.5t-53 -132.5zM368 54q90 9 143 63.5t53 132.5t-53 132.5t-143 63.5v-392z" />
    <glyph glyph-name="uni0445" unicode="&#x445;" horiz-adv-x="510" 
d="M411 0l-156 206l-156 -206h-79l196 259l-183 241h79l143 -189l143 189h79l-182 -241l195 -259h-79z" />
    <glyph glyph-name="uni0446" unicode="&#x446;" horiz-adv-x="590" 
d="M560 64v-198h-66v134h-424v500h66v-436h278v436h66v-436h80z" />
    <glyph glyph-name="uni0447" unicode="&#x447;" horiz-adv-x="530" 
d="M460 500v-500h-66v190q-58 -30 -143 -30q-98 0 -149.5 45.5t-51.5 134.5v160h66v-160q0 -63 33 -90.5t100 -27.5q78 0 145 29v249h66z" />
    <glyph glyph-name="uni0448" unicode="&#x448;" horiz-adv-x="810" 
d="M740 500v-500h-670v500h66v-436h236v436h66v-436h236v436h66z" />
    <glyph glyph-name="uni0449" unicode="&#x449;" horiz-adv-x="840" 
d="M810 64v-198h-66v134h-674v500h66v-436h236v436h66v-436h236v436h66v-436h70z" />
    <glyph glyph-name="uni044A" unicode="&#x44a;" horiz-adv-x="540" 
d="M343 310q70 0 118.5 -43.5t48.5 -111.5t-48.5 -111.5t-118.5 -43.5h-203v436h-140v64h206v-190h137zM343 64q42 0 71.5 25t29.5 66t-29.5 66t-71.5 25h-137v-182h137z" />
    <glyph glyph-name="uni044B" unicode="&#x44b;" horiz-adv-x="646" 
d="M273 310q70 0 118.5 -43.5t48.5 -111.5t-48.5 -111.5t-118.5 -43.5h-203v500h66v-190h137zM576 500v-500h-66v500h66zM273 64q42 0 71.5 25t29.5 66t-29.5 66t-71.5 25h-137v-182h137z" />
    <glyph glyph-name="uni044C" unicode="&#x44c;" horiz-adv-x="470" 
d="M273 310q70 0 118.5 -43.5t48.5 -111.5t-48.5 -111.5t-118.5 -43.5h-203v500h66v-190h137zM273 64q42 0 71.5 25t29.5 66t-29.5 66t-71.5 25h-137v-182h137z" />
    <glyph glyph-name="uni044D" unicode="&#x44d;" horiz-adv-x="539" 
d="M248 512q113 0 182 -74.5t69 -187.5t-69.5 -187.5t-183.5 -74.5q-81 0 -140.5 35.5t-85.5 96.5l57 33q17 -46 61 -73.5t108 -27.5q75 0 125 46.5t60 119.5h-249v64h249q-9 73 -58.5 119.5t-124.5 46.5q-57 0 -101 -27t-65 -73l-58 33q30 61 89.5 96t134.5 35z" />
    <glyph glyph-name="uni044E" unicode="&#x44e;" horiz-adv-x="800" 
d="M497 512q110 0 186.5 -75.5t76.5 -186.5t-76.5 -186.5t-186.5 -75.5q-101 0 -173.5 65.5t-83.5 164.5h-104v-218h-66v500h66v-218h104q11 99 83.5 164.5t173.5 65.5zM497 52q83 0 140 57.5t57 140.5t-57 140.5t-140 57.5t-140 -57.5t-57 -140.5t57 -140.5t140 -57.5z" />
    <glyph glyph-name="uni044F" unicode="&#x44f;" horiz-adv-x="500" 
d="M430 0h-66v192h-86l-154 -192h-84l158 194q-60 9 -99 50t-39 101q0 68 48.5 111.5t118.5 43.5h203v-500zM364 254v182h-137q-42 0 -71.5 -25t-29.5 -66t29.5 -66t71.5 -25h137z" />
    <glyph glyph-name="uni0451" unicode="&#x451;" horiz-adv-x="584" 
d="M200 575q-19 0 -32 13t-13 32t13 32t32 13t32 -13t13 -32t-13 -32t-32 -13zM390 575q-19 0 -32 13t-13 32t13 32t32 13t32 -13t13 -32t-13 -32t-32 -13zM301 512q111 0 179.5 -78.5t68.5 -185.5q0 -11 -2 -31h-439q10 -76 64.5 -120.5t134.5 -44.5q57 0 98.5 23.5
t62.5 61.5l58 -34q-33 -53 -90 -84t-130 -31q-118 0 -192 74t-74 188q0 112 73 187t188 75zM301 448q-78 0 -130.5 -46.5t-62.5 -120.5h373q-10 79 -61 123t-119 44z" />
    <glyph glyph-name="uni0452" unicode="&#x452;" horiz-adv-x="568" 
d="M314 512q91 0 143.5 -55.5t52.5 -149.5v-347q0 -90 -47 -135t-133 -37v64q59 -6 86.5 19t27.5 89v347q0 67 -35.5 104t-100.5 37q-72 0 -117 -45.5t-45 -140.5v-262h-66v576h-70v54h70v70h66v-70h144v-54h-144v-154q56 90 168 90z" />
    <glyph glyph-name="uni0453" unicode="&#x453;" horiz-adv-x="400" 
d="M220 570h-64l80 130h80zM390 436h-254v-436h-66v500h320v-64z" />
    <glyph glyph-name="uni0454" unicode="&#x454;" horiz-adv-x="539" 
d="M519 120q-26 -61 -85.5 -96.5t-140.5 -35.5q-114 0 -183.5 74.5t-69.5 187.5t69 187.5t182 74.5q75 0 134.5 -35t89.5 -96l-58 -33q-21 46 -65 73t-101 27q-75 0 -124.5 -46.5t-58.5 -119.5h249v-64h-249q10 -73 60 -119.5t125 -46.5q64 0 108 27.5t61 73.5z" />
    <glyph glyph-name="uni0455" unicode="&#x455;" horiz-adv-x="454" 
d="M122 369q0 -34 30 -54t73 -31t86 -24.5t73 -45t30 -82.5q0 -64 -50.5 -104t-130.5 -40q-72 0 -122.5 32t-70.5 83l56 33q14 -39 50.5 -61.5t86.5 -22.5q49 0 82 19.5t33 60.5q0 34 -30 54t-73 31t-86 24.5t-73 45t-30 82.5q0 61 48.5 102t122.5 41q61 0 107 -27.5
t68 -74.5l-55 -32q-29 70 -120 70q-43 0 -74 -20.5t-31 -58.5z" />
    <glyph glyph-name="uni0456" unicode="&#x456;" horiz-adv-x="206" 
d="M103 606q-20 0 -34 14t-14 34t14 34t34 14t34 -14t14 -34t-14 -34t-34 -14zM70 500h66v-500h-66v500z" />
    <glyph glyph-name="uni0457" unicode="&#x457;" horiz-adv-x="206" 
d="M8 575q-19 0 -32 13t-13 32t13 32t32 13t32 -13t13 -32t-13 -32t-32 -13zM198 575q-19 0 -32 13t-13 32t13 32t32 13t32 -13t13 -32t-13 -32t-32 -13zM70 500h66v-500h-66v500z" />
    <glyph glyph-name="uni0458" unicode="&#x458;" horiz-adv-x="230" 
d="M127 702q20 0 34 -14t14 -34t-14 -34t-34 -14t-34 14t-14 34t14 34t34 14zM94 500h66v-540q0 -90 -47 -135t-133 -37v64q59 -6 86.5 19t27.5 89v540z" />
    <glyph glyph-name="uni0459" unicode="&#x459;" horiz-adv-x="789" 
d="M602 290q67 0 112 -39t45 -106t-45 -106t-112 -39h-198v436h-216v-223q0 -125 -47.5 -172t-130.5 -41v62q57 -6 84.5 27t27.5 124v287h348v-210h132zM602 64q40 0 65.5 20.5t25.5 60.5t-25.5 60.5t-65.5 20.5h-132v-162h132z" />
    <glyph glyph-name="uni045A" unicode="&#x45a;" horiz-adv-x="789" 
d="M602 290q67 0 112 -39t45 -106t-45 -106t-112 -39h-198v226h-268v-226h-66v500h66v-210h268v210h66v-210h132zM602 64q40 0 65.5 20.5t25.5 60.5t-25.5 60.5t-65.5 20.5h-132v-162h132z" />
    <glyph glyph-name="uni045B" unicode="&#x45b;" horiz-adv-x="568" 
d="M314 512q91 0 143.5 -55.5t52.5 -149.5v-307h-66v307q0 67 -35.5 104t-100.5 37q-72 0 -117 -45.5t-45 -140.5v-262h-66v576h-70v54h70v70h66v-70h144v-54h-144v-154q56 90 168 90z" />
    <glyph glyph-name="uni045C" unicode="&#x45c;" horiz-adv-x="494" 
d="M260 570h-64l80 130h80zM386 0l-250 241v-241h-66v500h66v-221l238 221h90l-258 -240l268 -260h-88z" />
    <glyph glyph-name="uni045E" unicode="&#x45e;" horiz-adv-x="510" 
d="M383 580h-260v58h260v-58zM500 500l-214 -546q-29 -74 -82.5 -116.5t-119.5 -37.5v62q90 -10 137 104l13 31l-224 503h70l188 -419l162 419h70z" />
    <glyph glyph-name="uni045F" unicode="&#x45f;" horiz-adv-x="560" 
d="M490 500v-500h-177v-134h-66v134h-177v500h66v-436h288v436h66z" />
    <glyph glyph-name="uni0490" unicode="&#x490;" horiz-adv-x="490" 
d="M470 820v-186h-320v-634h-70v700h320v120h70z" />
    <glyph glyph-name="uni0491" unicode="&#x491;" horiz-adv-x="400" 
d="M390 604v-168h-254v-436h-66v500h254v104h66z" />
    <glyph glyph-name="uni10D0" unicode="&#x10d0;" horiz-adv-x="507" 
d="M253 -12q-91 0 -152 56t-61 140q0 18 5 37.5t9 29.5l5 10l58 -20q-11 -21 -11 -57q0 -51 40 -91.5t107 -40.5q68 0 108 40.5t40 94.5q0 39 -26.5 69t-88.5 69q-55 35 -73 60t-18 55v13h66v-13q0 -25 65 -69q4 -3 30 -20t34 -23.5t27.5 -24.5t27 -32t15 -36.5t7.5 -47.5
q0 -88 -61 -143.5t-153 -55.5z" />
    <glyph glyph-name="uni10D1" unicode="&#x10d1;" horiz-adv-x="566" 
d="M328 469q85 -16 141.5 -82.5t56.5 -155.5q0 -101 -71 -172t-172 -71t-172 71t-71 172q0 95 64.5 164t158.5 77v74q0 21 -14 28q-26 12 -42 21q-13 8 -19.5 13t-13.5 18t-7 31v43h66v-34q0 -11 10 -16q1 -1 11.5 -6t24 -12.5t20.5 -11.5q29 -16 29 -50v-101zM283 52
q74 0 126 52.5t52 126.5q0 73 -52.5 125.5t-125.5 52.5t-125.5 -52.5t-52.5 -125.5q0 -74 52 -126.5t126 -52.5z" />
    <glyph glyph-name="uni10D2" unicode="&#x10d2;" horiz-adv-x="554" 
d="M277 -258q-103 0 -172.5 72t-69.5 168q0 108 75 174t167 66q51 0 83 27t32 61q0 36 -29 63t-86 27t-86.5 -27t-29.5 -64v-19h-64v19q0 61 47.5 108.5t132.5 47.5q86 0 133 -46t47 -109q0 -23 -7 -43t-16.5 -33t-19.5 -22.5t-17 -13.5l-7 -4q5 -2 14 -7t31 -23t39 -40
t31 -60.5t14 -81.5q0 -95 -69.5 -167.5t-172.5 -72.5zM277 -196q74 0 126 51.5t52 126.5q0 73 -53 124.5t-125 51.5t-125 -51t-53 -125q0 -75 51.5 -126.5t126.5 -51.5z" />
    <glyph glyph-name="uni10D3" unicode="&#x10d3;" horiz-adv-x="836" 
d="M564 -11q-102 0 -167 69t-65 169q0 71 36 129q-53 45 -114 45q-68 0 -108.5 -55t-40.5 -151q0 -92 63 -173.5t172 -123.5l252 -97l-25 -59q-98 46 -201 78q-65 21 -114 9q-25 -6 -50 -18t-38 -21l-12 -9l-30 45q7 6 19 14t42 21.5t52 12.5q-82 49 -138.5 131t-56.5 192
q0 123 56.5 195.5t157.5 72.5q89 0 156 -58q64 58 154 58q99 0 165.5 -69.5t66.5 -168.5q0 -100 -65 -169t-167 -69zM564 401q-71 0 -118.5 -51t-47.5 -123t48 -123t118 -51q71 0 119 51t48 123t-48 123t-119 51z" />
    <glyph glyph-name="uni10D4" unicode="&#x10d4;" horiz-adv-x="555" 
d="M265 -258q-102 0 -168.5 63t-66.5 152q0 26 3 46.5t7 27.5l3 7l60 -10q-8 -25 -8 -57q0 -68 45 -116.5t124 -48.5t122.5 54t43.5 133v248q0 70 -38 115t-106 45q-67 0 -104 -37.5t-37 -91.5l4 -35l-64 -7q-5 27 -5 45q0 84 56.5 137t148.5 53t151 -62t59 -162v-242
q0 -114 -63.5 -185.5t-166.5 -71.5z" />
    <glyph glyph-name="uni10D5" unicode="&#x10d5;" horiz-adv-x="554" 
d="M265 -258q-114 0 -175.5 68.5t-61.5 160.5q0 29 6 55l65 -8q-5 -19 -5 -47q0 -74 48 -120t123 -46q72 0 117.5 43.5t45.5 101.5q0 59 -39 102t-109 43h-92v64h75q72 0 108.5 35t36.5 90q0 53 -42 85.5t-110 32.5q-69 0 -109.5 -41t-40.5 -111q0 -7 2 -23l-65 -7
q-2 11 -2 30q0 99 60 157t155 58t156 -48t61 -132q0 -34 -9.5 -62t-23.5 -44.5t-27.5 -28t-22.5 -15.5l-10 -4q5 -1 12.5 -4.5t27 -17.5t34.5 -32t27.5 -52t12.5 -75q0 -33 -13.5 -68t-39.5 -67t-72 -52.5t-104 -20.5z" />
    <glyph glyph-name="uni10D6" unicode="&#x10d6;" horiz-adv-x="632" 
d="M373 414q89 0 154 -60t65 -153q0 -92 -65.5 -152.5t-153.5 -60.5q-89 0 -154 59.5t-65 153.5v6q0 84 62 200q-20 -2 -31 -2q-73 0 -119 45.5t-46 107.5q0 63 46 108.5t119 45.5q75 0 120 -44t45 -110q0 -59 -37 -101q-24 -25 -48 -69q49 26 108 26zM86 558
q0 -40 28 -66.5t71 -26.5t71.5 26.5t28.5 66.5q0 41 -27 67.5t-73 26.5q-45 0 -72 -26.5t-27 -67.5zM373 53q65 0 109.5 43t44.5 105q0 63 -44.5 106t-109.5 43t-109.5 -43t-44.5 -106q0 -62 44.5 -105t109.5 -43z" />
    <glyph glyph-name="uni10D7" unicode="&#x10d7;" horiz-adv-x="869" 
d="M264 -12q-40 0 -77.5 13.5t-71.5 40.5t-54.5 75t-20.5 110q0 119 68 178.5t156 59.5q39 0 72.5 -10.5t54 -25t35.5 -29t21 -24.5l6 -11l5.5 11t18.5 24t33 30t49.5 24t67.5 11q93 0 147.5 -64t54.5 -188q0 -120 -48 -213h-70q53 95 53 210q0 95 -38 143t-99 48
q-60 0 -99 -45t-39 -129q0 -62 -20.5 -110t-54.5 -75t-72 -40.5t-78 -13.5zM264 51q75 0 117.5 49.5t42.5 126.5t-43 126t-117 49t-116.5 -49.5t-42.5 -125.5q0 -77 42.5 -126.5t116.5 -49.5z" />
    <glyph glyph-name="uni10D8" unicode="&#x10d8;" horiz-adv-x="546" 
d="M80 0q-40 102 -40 205q0 115 60 187.5t173 72.5t173 -72t60 -188q0 -46 -10 -97t-20 -80l-9 -28h-66q40 113 40 205q0 90 -45 143t-123 53q-77 0 -122 -53t-45 -143q0 -41 10 -92t20 -82l10 -31h-66z" />
    <glyph glyph-name="uni10D9" unicode="&#x10d9;" horiz-adv-x="551" 
d="M262 -258q-25 0 -53 5.5t-61.5 21t-60 39.5t-44.5 66t-18 95q0 31 6 57l65 -8q-5 -19 -5 -49q0 -77 49.5 -120.5t121.5 -43.5q70 0 117 45t47 118q0 75 -39.5 119t-109.5 44h-96v63h79q73 0 109 37.5t36 90.5q0 28 -14.5 52.5t-28.5 35.5l-14 10l48 47q3 -2 8 -5.5
t18 -17t22.5 -29t17.5 -40.5t8 -53q0 -32 -8 -60.5t-20 -45t-24 -28.5t-20 -17l-8 -5q4 -1 11 -4.5t24.5 -18t30.5 -34.5t24 -57.5t11 -83.5q0 -60 -22.5 -106t-58.5 -71t-73.5 -37t-74.5 -12z" />
    <glyph glyph-name="uni10DA" unicode="&#x10da;" horiz-adv-x="1068" 
d="M648 -256q-180 82 -283 114q-65 21 -114 9q-24 -6 -49 -18t-38 -21l-12 -9l-34 47q7 6 19 14t42 21.5t52 12.5q-82 48 -136.5 127t-54.5 173q0 99 48.5 175t137.5 76q36 0 65 -9.5t45 -23.5t27 -28t15 -24l3 -9q1 4 3.5 10t14 22.5t26.5 29t43.5 22.5t62.5 10t62.5 -10.5
t44.5 -25t27 -29t15 -24.5l4 -11q1 4 4 11t15.5 24t28.5 30t45 24t63 11q89 0 138.5 -67t49.5 -177q0 -45 -11.5 -85t-28 -65t-33 -44t-27.5 -27l-12 -9l-40 45q3 2 9 7t21 22t26 37t20.5 52.5t9.5 68.5q0 87 -31.5 132.5t-90.5 45.5q-58 0 -90.5 -52t-32.5 -138v-96h-65v96
q0 88 -30.5 139t-90.5 51t-90.5 -51t-30.5 -139v-96h-65q0 82 1 96q0 87 -30.5 138.5t-90.5 51.5q-58 0 -89 -53t-31 -130q0 -81 66.5 -162t170.5 -121q56 -21 139 -55t137 -57l55 -23z" />
    <glyph glyph-name="uni10DB" unicode="&#x10db;" horiz-adv-x="586" 
d="M287 712q109 0 174 -67t65 -174v-241q0 -95 -67 -168.5t-176 -73.5t-176 74.5t-67 167.5q0 92 66.5 163.5t171.5 71.5q38 0 70.5 -9.5t52 -23.5t34 -27.5t19.5 -22.5l6 -10v95q0 74 -44 128t-129 54q-84 0 -126 -45.5t-42 -105.5v-15h-66v15q0 93 63 153.5t171 60.5z
M283 51q75 0 126 51.5t51 127.5q0 75 -51.5 123t-125.5 48q-73 0 -125 -48.5t-52 -122.5q0 -75 51.5 -127t125.5 -52z" />
    <glyph glyph-name="uni10DC" unicode="&#x10dc;" horiz-adv-x="585" 
d="M302 -12q-109 0 -175.5 73.5t-66.5 168.5v265q0 217 220 217h230v-63h-230q-79 0 -116.5 -37.5t-37.5 -116.5v-123q2 4 6 10t19.5 22t34 28.5t51 22.5t70.5 10q105 0 171.5 -71.5t66.5 -163.5q0 -93 -67 -167.5t-176 -74.5zM302 51q74 0 126 52t52 127q0 74 -52.5 122.5
t-125.5 48.5q-74 0 -125 -48t-51 -123q0 -76 51 -127.5t125 -51.5z" />
    <glyph glyph-name="uni10DD" unicode="&#x10dd;" horiz-adv-x="825" 
d="M90 0q-6 9 -14 26.5t-22 74.5t-14 117q0 125 56 186t146 61q37 0 68 -9.5t49 -22.5t30.5 -26.5t17.5 -22.5l5 -10l5 10t17 21.5t31.5 27.5t48.5 22t68 10q90 0 146.5 -61t56.5 -186q0 -60 -12.5 -114.5t-25.5 -79.5l-13 -24h-70q6 12 15.5 32.5t25 77.5t15.5 105
q0 92 -37 139t-101 47q-63 0 -100.5 -44.5t-37.5 -129.5v-108h-64v108q0 85 -37.5 129.5t-100.5 44.5t-100 -47t-37 -139q0 -48 13.5 -102t27.5 -83l14 -30h-70z" />
    <glyph glyph-name="uni10DE" unicode="&#x10de;" horiz-adv-x="565" 
d="M276 -12q-108 0 -172 66t-64 163q0 22 3 43t6 31l3 10l62 -15q-9 -38 -9 -69q0 -72 47.5 -119t123.5 -47q73 0 118.5 47t45.5 100q0 69 -42 108.5t-120 39.5h-83v63h83q72 0 105.5 32t33.5 79q0 40 -42 67.5t-100 28.5q-65 1 -102 11.5t-40 39.5l-1 33h62q1 -7 1.5 -10
t4 -6t11.5 -4q4 0 15 -1.5t25.5 -2.5t30.5 -2q53 -3 95 -17t73.5 -49.5t31.5 -89.5q0 -33 -8 -60t-20 -41.5t-23.5 -24t-19.5 -12.5l-8 -3q4 -1 11 -4.5t24.5 -17t31 -31.5t24.5 -51t11 -72q0 -85 -62 -149t-167 -64z" />
    <glyph glyph-name="uni10DF" unicode="&#x10df;" horiz-adv-x="555" 
d="M265 -258q-61 0 -108.5 22t-74.5 56.5t-40.5 73.5t-13.5 77q0 41 12 81l1 3l63 -15q-11 -33 -11 -69q0 -78 50 -122t122 -44t118.5 50.5t46.5 143.5v397l-208 -50q58 -32 58 -107q0 -64 -41.5 -103t-104.5 -39q-40 0 -73 19l19 57q35 -11 54 -11q31 0 55.5 20t24.5 59
q0 38 -27.5 53.5t-74.5 21.5v67l337 82h46v-466q0 -35 -7.5 -69.5t-25 -68.5t-43 -60t-65.5 -42.5t-89 -16.5z" />
    <glyph glyph-name="uni10E0" unicode="&#x10e0;" horiz-adv-x="825" 
d="M91 0q-6 9 -14.5 25.5t-22.5 73.5t-14 119q0 83 24 154t64.5 119t86.5 79.5t96 46.5l308 96l19 -59q-175 -45 -301 -92q-50 -18 -93.5 -49.5t-62.5 -53.5l-19 -22q36 28 81 28q36 0 67 -9.5t49 -22.5t31 -26.5t18 -22.5l5 -10l5 10t17 21.5t31.5 27.5t48.5 22t68 10
q90 0 146 -61t56 -186q0 -60 -12.5 -114.5t-25.5 -79.5l-13 -24h-69q6 12 15 32.5t24.5 77.5t15.5 105q0 92 -37 139t-100 47q-64 0 -101 -44.5t-37 -129.5v-108h-64v108q0 85 -37.5 129.5t-100.5 44.5q-64 0 -101 -47t-37 -139q0 -48 14 -102t28 -83l14 -30h-70z" />
    <glyph glyph-name="uni10E1" unicode="&#x10e1;" horiz-adv-x="585" 
d="M303 -12q-99 0 -170.5 66.5t-71.5 177.5v468h65v-475q0 -75 51 -124.5t126 -49.5t126.5 50.5t51.5 125.5q0 61 -29 108t-79 68l34 55q138 -63 138 -231q0 -105 -72.5 -172t-169.5 -67z" />
    <glyph glyph-name="uni10E2" unicode="&#x10e2;" horiz-adv-x="721" 
d="M393 463q88 -8 152 -63t92.5 -132t28.5 -165q0 -93 -32 -173t-103 -134t-170 -54q-75 0 -135 31t-96.5 82.5t-55.5 115t-19 132.5q0 88 28.5 164.5t92.5 131.5t152 64v84h65v-84zM361 -195q109 0 174.5 85t65.5 213q0 118 -56 200.5t-152 95.5v-261h-65v261
q-96 -13 -152 -95.5t-56 -200.5q0 -128 65.5 -213t175.5 -85z" />
    <glyph glyph-name="uni10E3" unicode="&#x10e3;" horiz-adv-x="556" 
d="M340 465q71 0 113.5 -53t42.5 -156v-257q0 -35 -7.5 -69.5t-25 -68.5t-43.5 -60t-66 -42.5t-89 -16.5q-61 0 -108.5 22t-74 56.5t-40 73t-13.5 77.5q0 19 3 40t6 33l3 11l64 -15q-11 -33 -11 -69q0 -78 49.5 -122t121.5 -44t118.5 50.5t46.5 143.5l1 257q0 77 -27 111.5
t-66 34.5q-38 0 -63.5 -30t-25.5 -92v-132h-65v132q0 122 -132 122h-23v63h23q36 0 65.5 -7t46.5 -17t29 -20t17 -17l4 -7q1 3 4 7.5t14 16t24 20.5t36 16.5t48 7.5z" />
    <glyph glyph-name="uni10E4" unicode="&#x10e4;" horiz-adv-x="889" 
d="M514 -258q-297 0 -322 194h67q11 -63 76 -97t179 -34q120 0 185 35.5t65 106.5q0 70 -42 109t-107 39h-81v64h64q67 0 106 35.5t39 92.5q0 54 -36 84t-91 30q-57 0 -92 -42t-35 -132q0 -113 -65 -176t-160 -63t-159.5 62t-64.5 177q0 116 63.5 177t160.5 61
q41 0 76 -12.5t55 -30t34 -34.5t19 -30l5 -12q1 5 3.5 13t14 28.5t28 36t47.5 28.5t70 13q88 0 140.5 -51.5t52.5 -126.5q0 -33 -9 -61t-21.5 -44.5t-25.5 -29t-22 -16.5l-9 -5q4 -1 11.5 -4.5t26 -17.5t32.5 -32.5t25.5 -53t11.5 -76.5q0 -40 -16 -74.5t-51 -65t-98.5 -48
t-149.5 -17.5zM264 51q73 0 117 47.5t44 127.5q0 79 -44 127t-117 48q-72 0 -114.5 -47.5t-42.5 -127.5t42.5 -127.5t114.5 -47.5z" />
    <glyph glyph-name="uni10E5" unicode="&#x10e5;" horiz-adv-x="557" 
d="M267 -258q-116 0 -176.5 67t-60.5 158q0 24 4.5 48t9.5 35l4 12l60 -24q-12 -30 -12 -68q0 -68 41.5 -116.5t129.5 -48.5q45 0 79 17t51.5 46t26 60.5t8.5 66.5v216q0 80 -42.5 135t-123.5 55q-67 0 -103.5 -42t-36.5 -100q0 -31 11 -53l-58 -27q-18 35 -18 80
q0 100 61.5 152.5t142.5 52.5q36 0 66.5 -9.5t48 -23.5t30 -28t17.5 -23l5 -10v330h65v-709q0 -46 -13 -88.5t-39.5 -79.5t-72 -59t-105.5 -22z" />
    <glyph glyph-name="uni10E6" unicode="&#x10e6;" horiz-adv-x="825" 
d="M567 -257q-100 40 -202 78q-57 22 -113 9q-25 -6 -50 -18t-38 -21l-12 -9l-30 45q7 6 19 14t42 21.5t52 12.5q-80 48 -137.5 135t-57.5 198q0 127 56.5 192.5t145.5 65.5q37 0 68 -9.5t49 -23t30.5 -26.5t17.5 -23l5 -9q2 4 5.5 10t18 21.5t33 27.5t50 22t67.5 10
q90 0 141 -67.5t51 -176.5q0 -45 -11.5 -85t-28 -65t-32.5 -44t-28 -28l-11 -8l-40 45q3 2 9 7t21 22t26 37t20.5 52.5t9.5 68.5q0 86 -33.5 132t-93.5 46q-63 0 -102.5 -44.5t-39.5 -129.5v-108h-64v108q0 85 -37.5 129.5t-100.5 44.5q-62 0 -99.5 -51.5t-37.5 -144.5
t63.5 -179t171.5 -128l250 -101z" />
    <glyph glyph-name="uni10E7" unicode="&#x10e7;" horiz-adv-x="567" 
d="M277 -258q-106 0 -171.5 66t-65.5 163q0 20 3 41l64 -13q-2 -18 -2 -28q0 -70 46 -118t126 -48q79 0 122 55t43 139v75q-2 -3 -5 -9t-16.5 -21t-30.5 -26t-48 -20.5t-68 -9.5q-103 0 -168 67t-65 192q0 46 10.5 97.5t20.5 79.5l11 29h63q-40 -122 -40 -207q0 -93 47 -144
t121 -51t121 51t47 146v205h65v-454q0 -112 -62 -184.5t-168 -72.5z" />
    <glyph glyph-name="uni10E8" unicode="&#x10e8;" horiz-adv-x="586" 
d="M283 -10q-109 0 -176 74.5t-67 167.5q0 91 66.5 162.5t171.5 71.5q38 0 70.5 -9.5t52 -23t34 -27t19.5 -22.5l6 -10v130q0 66 -24 105.5t-69 39.5q-44 0 -66.5 -35t-22.5 -87v-7h-65v7q0 122 -131 122h-24v63h24q35 0 64.5 -7t47 -17t29.5 -19.5t17 -16.5l4 -7q1 3 4 7.5
t14 16t24 20.5t35.5 16t47.5 7q74 0 115.5 -54t41.5 -154v-272q0 -95 -67 -168.5t-176 -73.5zM283 53q74 0 125 51.5t51 127.5q0 74 -51.5 122.5t-124.5 48.5t-125.5 -48.5t-52.5 -122.5q0 -76 51.5 -127.5t126.5 -51.5z" />
    <glyph glyph-name="uni10E9" unicode="&#x10e9;" horiz-adv-x="586" 
d="M61 0v469q0 124 52.5 183t144.5 59q91 0 143.5 -38t52.5 -117q0 -29 -8 -53t-20 -36.5t-24 -21t-20 -11.5l-8 -2q6 -1 16.5 -4t37 -19t46.5 -38.5t36.5 -67.5t16.5 -102q0 -52 -10.5 -102.5t-20.5 -74.5l-11 -24h-67q43 92 43 201q0 101 -56.5 147.5t-140.5 37.5
q-23 -3 -55 -7.5t-56 -8t-27 -3.5v-367h-65zM126 431q72 10 111 16q84 13 118 39.5t34 69.5q0 92 -131 92q-71 0 -101.5 -45.5t-30.5 -133.5v-38z" />
    <glyph glyph-name="uni10EA" unicode="&#x10ea;" horiz-adv-x="670" 
d="M354 -258q-141 0 -220 100.5t-79 263.5q0 100 22.5 187t44.5 123l22 37h69q-4 -5 -10 -14t-22 -41.5t-28.5 -70t-22.5 -97.5t-10 -124q0 -153 64.5 -227t169.5 -74q93 0 142 44.5t49 111.5q0 136 -162 136h-41v63h41q64 0 102 24t38 63q0 30 -14.5 53t-60.5 46
q-48 24 -65.5 44t-17.5 47l1 16h65v-11q0 -6 2 -10t16.5 -14t44.5 -27q49 -28 71.5 -60.5t22.5 -83.5q0 -26 -9 -47.5t-21 -33.5t-24.5 -20.5t-21.5 -11.5l-9 -3q4 -1 11.5 -3.5t26 -15t32.5 -29.5t25.5 -49.5t11.5 -72.5q0 -38 -13.5 -74.5t-41.5 -70t-80 -54t-121 -20.5z
" />
    <glyph glyph-name="uni10EB" unicode="&#x10eb;" horiz-adv-x="571" 
d="M273 -10q-109 0 -176 74.5t-67 167.5q0 91 66.5 162.5t171.5 71.5q38 0 70.5 -9.5t52 -23t34 -27t19.5 -22.5l6 -10v326h66v-468q0 -95 -67 -168.5t-176 -73.5zM273 53q74 0 125.5 51.5t51.5 127.5q0 74 -51.5 122.5t-125.5 48.5q-73 0 -125.5 -48.5t-52.5 -122.5
q0 -76 51.5 -127.5t126.5 -51.5z" />
    <glyph glyph-name="uni10EC" unicode="&#x10ec;" horiz-adv-x="586" 
d="M303 -10q-109 0 -176 73.5t-67 168.5v272q0 100 41.5 154t115.5 54q40 0 71.5 -17t42.5 -33l11 -17l5 7.5t16 16t29.5 20.5t46.5 16t65 7h24v-63h-24q-131 0 -131 -122v-7h-65v7q0 52 -22.5 87t-66.5 35q-45 0 -69 -39.5t-24 -105.5v-130q2 4 6 10t19.5 22t34.5 28
t51.5 22t70.5 10q105 0 171.5 -71.5t66.5 -162.5q0 -93 -67 -167.5t-176 -74.5zM303 53q75 0 126.5 51.5t51.5 127.5q0 74 -52.5 122.5t-125.5 48.5t-124.5 -48.5t-51.5 -122.5q0 -76 51 -127.5t125 -51.5z" />
    <glyph glyph-name="uni10ED" unicode="&#x10ed;" horiz-adv-x="637" 
d="M495 389h122v-60h-122v-330q0 -114 -63.5 -185.5t-166.5 -71.5q-102 0 -168.5 63t-66.5 152q0 26 3 46.5t7 27.5l3 7l60 -10q-8 -25 -8 -57q0 -68 45.5 -116.5t124.5 -48.5t122 54.5t43 132.5v177q-53 -80 -147 -80q-74 0 -115 42.5t-41 106.5q0 66 43 108t134 42h126
v235h65v-235zM430 270v60h-119q-63 0 -92 -22t-29 -69q0 -90 102 -90q58 0 95.5 37.5t42.5 83.5z" />
    <glyph glyph-name="uni10EE" unicode="&#x10ee;" horiz-adv-x="571" 
d="M298 -10q-109 0 -176 73.5t-67 168.5v468h66v-325q2 4 6 10t19.5 22t34 28t51.5 22t71 10q105 0 171.5 -71.5t66.5 -163.5q0 -93 -67 -167.5t-176 -74.5zM298 53q74 0 126 52t52 127q0 74 -52.5 122.5t-125.5 48.5q-74 0 -125.5 -48t-51.5 -123t51.5 -127t125.5 -52z" />
    <glyph glyph-name="uni10EF" unicode="&#x10ef;" horiz-adv-x="550" 
d="M262 -258q-110 0 -171 67t-61 158q0 21 3 42t6 31l3 11l61 -14q-8 -32 -8 -70q0 -69 45 -115.5t122 -46.5t122.5 42.5t45.5 102.5q0 64 -41.5 104.5t-107.5 40.5h-69v181l-132 20l8 66l124 -20v111h65v-122q39 -7 65 -7q17 0 35.5 4t28.5 8l10 3v-64q-27 -16 -72 -16
q-29 0 -67 6v-106q103 0 160.5 -59.5t57.5 -149.5q0 -83 -63.5 -145.5t-169.5 -62.5z" />
    <glyph glyph-name="uni10F0" unicode="&#x10f0;" horiz-adv-x="533" 
d="M261 -11q-99 0 -166.5 60.5t-67.5 157.5h62q0 -70 48.5 -112.5t123.5 -42.5q60 0 105 30.5t45 76.5q0 42 -46 70t-102 28h-82v61h82q138 0 138 61q0 59 -138 59h-82v61h82q56 0 97 15t41 45q0 49 -111 58q-155 12 -155 74v9h63v-9q0 -5 25 -10q17 -4 83 -10
q68 -7 113.5 -34t45.5 -77q0 -27 -18.5 -53t-50.5 -38l7.5 -2.5t16.5 -8.5t21 -16t16.5 -26t7.5 -37q0 -32 -17.5 -56t-35.5 -32l-17 -8q3 -1 8.5 -4t19.5 -13.5t24.5 -23.5t19.5 -35t9 -47q0 -75 -65 -123t-150 -48z" />
    <glyph glyph-name="Wgrave" unicode="&#x1e80;" horiz-adv-x="1000" 
d="M480 900h-80l96 -130h64zM30 700h74l173 -605l182 605h82l182 -605l173 605h74l-203 -700h-84l-183 608l-183 -608h-84z" />
    <glyph glyph-name="wgrave" unicode="&#x1e81;" horiz-adv-x="770" 
d="M381 570l-96 130h80l80 -130h-64zM740 500l-154 -500h-72l-129 403l-129 -403h-72l-154 500h68l123 -415l131 415h66l131 -415l123 415h68z" />
    <glyph glyph-name="Wacute" unicode="&#x1e82;" horiz-adv-x="1000" 
d="M514 770l96 130h-80l-80 -130h64zM30 700h74l173 -605l182 605h82l182 -605l173 605h74l-203 -700h-84l-183 608l-183 -608h-84z" />
    <glyph glyph-name="wacute" unicode="&#x1e83;" horiz-adv-x="770" 
d="M399 570h-64l80 130h80zM740 500l-154 -500h-72l-129 403l-129 -403h-72l-154 500h68l123 -415l131 415h66l131 -415l123 415h68z" />
    <glyph glyph-name="Wdieresis" unicode="&#x1e84;" horiz-adv-x="1000" 
d="M405 775q-19 0 -32 13t-13 32t13 32t32 13t32 -13t13 -32t-13 -32t-32 -13zM595 775q-19 0 -32 13t-13 32t13 32t32 13t32 -13t13 -32t-13 -32t-32 -13zM30 700h74l173 -605l182 605h82l182 -605l173 605h74l-203 -700h-84l-183 608l-183 -608h-84z" />
    <glyph glyph-name="wdieresis" unicode="&#x1e85;" horiz-adv-x="770" 
d="M290 575q-19 0 -32 13t-13 32t13 32t32 13t32 -13t13 -32t-13 -32t-32 -13zM480 575q-19 0 -32 13t-13 32t13 32t32 13t32 -13t13 -32t-13 -32t-32 -13zM740 500l-154 -500h-72l-129 403l-129 -403h-72l-154 500h68l123 -415l131 415h66l131 -415l123 415h68z" />
    <glyph glyph-name="Ygrave" unicode="&#x1ef2;" horiz-adv-x="595" 
d="M290 770l-96 130h80l80 -130h-64zM332 287v-287h-70v289l-252 411h79l209 -343l208 343h79z" />
    <glyph glyph-name="ygrave" unicode="&#x1ef3;" horiz-adv-x="510" 
d="M249 570l-96 130h80l80 -130h-64zM500 500l-214 -546q-29 -74 -82.5 -116.5t-119.5 -37.5v62q90 -10 137 104l13 31l-224 503h70l188 -419l162 419h70z" />
    <glyph glyph-name="endash" unicode="&#x2013;" horiz-adv-x="660" 
d="M80 341h500v-64h-500v64z" />
    <glyph glyph-name="emdash" unicode="&#x2014;" horiz-adv-x="760" 
d="M80 341h600v-64h-600v64z" />
    <glyph glyph-name="quoteleft" unicode="&#x2018;" horiz-adv-x="240" 
d="M120 700h60l-40 -225h-80z" />
    <glyph glyph-name="quoteright" unicode="&#x2019;" horiz-adv-x="240" 
d="M120 475h-60l40 225h80z" />
    <glyph glyph-name="quotesinglbase" unicode="&#x201a;" horiz-adv-x="240" 
d="M120 -140h-60l40 225h80z" />
    <glyph glyph-name="quotedblleft" unicode="&#x201c;" horiz-adv-x="380" 
d="M120 700h60l-40 -225h-80zM260 700h60l-40 -225h-80z" />
    <glyph glyph-name="quotedblright" unicode="&#x201d;" horiz-adv-x="380" 
d="M120 475h-60l40 225h80zM260 475h-60l40 225h80z" />
    <glyph glyph-name="quotedblbase" unicode="&#x201e;" horiz-adv-x="380" 
d="M120 -140h-60l40 225h80zM260 -140h-60l40 225h80z" />
    <glyph glyph-name="dagger" unicode="&#x2020;" horiz-adv-x="480" 
d="M420 471h-147v-471h-66v471h-147v64h147v165h66v-165h147v-64z" />
    <glyph glyph-name="daggerdbl" unicode="&#x2021;" horiz-adv-x="480" 
d="M273 471v-242h147v-64h-147v-165h-66v165h-147v64h147v242h-147v64h147v165h66v-165h147v-64h-147z" />
    <glyph glyph-name="bullet" unicode="&#x2022;" horiz-adv-x="300" 
d="M151 250q-42 0 -71.5 29.5t-29.5 71.5q0 41 29.5 70t71.5 29q41 0 70 -29t29 -70q0 -42 -29 -71.5t-70 -29.5z" />
    <glyph glyph-name="ellipsis" unicode="&#x2026;" horiz-adv-x="610" 
d="M115 -10q-23 0 -39 16t-16 39t16 39t39 16t39 -16t16 -39t-16 -39t-39 -16zM305 -10q-23 0 -39 16t-16 39t16 39t39 16t39 -16t16 -39t-16 -39t-39 -16zM495 -10q-23 0 -39 16t-16 39t16 39t39 16t39 -16t16 -39t-16 -39t-39 -16z" />
    <glyph glyph-name="perthousand" unicode="&#x2030;" horiz-adv-x="1064" 
d="M213 412q-65 0 -109 43.5t-44 106.5t44 106.5t109 43.5t109 -43.5t44 -106.5t-43 -106.5t-110 -43.5zM213 472q39 0 64 26t25 64t-25 64t-64 26t-64 -26t-25 -64t25 -64t64 -26zM564 622l43 -24l-470 -527l-42 24zM496 -12q-65 0 -109 43.5t-44 106.5t44 106.5t109 43.5
t109 -43.5t44 -106.5t-44 -106.5t-109 -43.5zM851 -12q-65 0 -109 43.5t-44 106.5t44 106.5t109 43.5t109 -43.5t44 -106.5t-44 -106.5t-109 -43.5zM496 48q39 0 64 26t25 64t-25 64t-64 26t-64 -26t-25 -64t25 -64t64 -26zM851 48q39 0 64 26t25 64t-25 64t-64 26t-64 -26
t-25 -64t25 -64t64 -26z" />
    <glyph glyph-name="guilsinglleft" unicode="&#x2039;" horiz-adv-x="332" 
d="M152 309l110 -180h-82l-110 180l110 180h82z" />
    <glyph glyph-name="guilsinglright" unicode="&#x203a;" horiz-adv-x="332" 
d="M262 309l-110 -180h-82l110 180l-110 180h82z" />
    <glyph glyph-name="fraction" unicode="&#x2044;" horiz-adv-x="220" 
d="M-120 0l400 700h60l-400 -700h-60z" />
    <glyph glyph-name="Euro" unicode="&#x20ac;" horiz-adv-x="594" 
d="M360 56q53 0 92.5 26t58.5 75l58 -33q-26 -65 -80.5 -100.5t-128.5 -35.5q-109 0 -178 74.5t-87 203.5h-75v58h70v26q0 23 1 34h-71v58h77q18 125 87 197.5t176 72.5q74 0 128.5 -35.5t80.5 -99.5l-58 -33q-42 100 -151 100q-76 0 -126.5 -52.5t-66.5 -149.5h253v-58
h-259q-1 -11 -1 -34q0 -18 1 -26h259v-58h-254q15 -101 65.5 -155.5t128.5 -54.5z" />
    <glyph glyph-name="uni20BD" unicode="&#x20bd;" horiz-adv-x="590" 
d="M180 280v-94h260v-58h-260v-128h-70v128h-90v58h90v94h-90v66h90v354h250q87 0 148.5 -61.5t61.5 -148.5q0 -86 -61.5 -148t-148.5 -62h-180zM180 346h180q58 0 99 42.5t41 101.5q0 60 -41 102t-99 42h-180v-288z" />
    <glyph glyph-name="uni20BE" unicode="&#x20be;" horiz-adv-x="804" 
d="M59 0v65h149q-80 43 -124 120t-44 171q0 119 72.5 213.5t184.5 127.5v103h60v-91q23 3 45 3t45 -3v91h60v-103q114 -34 185.5 -129.5t71.5 -217.5h-70q0 94 -51.5 168.5t-135.5 106.5v-275h-60v291q-23 3 -45 3t-45 -3v-291h-60v275q-84 -31 -135.5 -104t-51.5 -165
q0 -118 85 -203t207 -85h325v-68h-668z" />
    <glyph glyph-name="uni2116" unicode="&#x2116;" horiz-adv-x="1016" 
d="M823 412q-65 0 -109 43.5t-44 106.5t44 106.5t109 43.5t109 -43.5t44 -106.5t-43 -106.5t-110 -43.5zM600 700v-700h-60l-390 570v-570h-70v700h60l390 -570v570h70zM823 472q39 0 64 26t25 64t-25 64t-64 26t-64 -26t-25 -64t25 -64t64 -26zM682 342h282v-64h-282v64z
" />
    <glyph glyph-name="trademark" unicode="&#x2122;" horiz-adv-x="465" 
d="M195 663h-57v-163h-40v163h-58v37h155v-37zM425 700v-200h-40v133l-61 -97h-4l-61 97v-133h-40v200h40l63 -100l63 100h40z" />
    <glyph glyph-name="estimated" unicode="&#x212e;" horiz-adv-x="820" 
d="M410 710q163 0 266.5 -104t103.5 -256q0 -15 -15 -15h-560q-15 0 -15 -15v-192q0 -11 7 -19q84 -89 233 -89q145 0 231 97q7 9 18 9h37q10 0 13 -6t-4 -13q-109 -117 -295 -117q-176 0 -283 103.5t-107 256.5q0 152 103.5 256t266.5 104zM630 572q0 11 -7 19
q-84 89 -213 89t-213 -89q-7 -8 -7 -19v-192q0 -15 15 -15h410q15 0 15 15v192z" />
    <glyph glyph-name="oneeighth" unicode="&#x215b;" horiz-adv-x="802" 
d="M117 300v332l-91 -27l-16 53l116 42h53v-400h-62zM587 700l-400 -700h-60l400 700h60zM712 211q66 -35 66 -105q0 -54 -39.5 -86t-103.5 -32t-104 32t-40 86q0 71 66 104q-53 32 -53 88q0 53 37.5 83.5t93.5 30.5q55 0 92.5 -30.5t37.5 -83.5q0 -56 -53 -87zM635 354
q-33 0 -51 -15t-18 -41q0 -27 18 -43t51 -16q32 0 50 16t18 43q0 26 -17.5 41t-50.5 15zM635 48q38 0 59.5 18t21.5 48t-22 47.5t-59 17.5q-40 0 -61 -17t-21 -48q0 -30 21.5 -48t60.5 -18z" />
    <glyph glyph-name="threeeighths" unicode="&#x215c;" horiz-adv-x="907" 
d="M313 417q0 -58 -40 -93.5t-106 -35.5q-102 0 -142 84l52 30q25 -54 90 -54q40 0 62 18.5t22 50.5q0 31 -22.5 50t-61.5 19h-4l-31 47l90 107h-184v60h258v-60l-89 -106q50 -10 78 -40.5t28 -76.5zM692 700l-400 -700h-60l400 700h60zM817 211q66 -35 66 -105
q0 -54 -39.5 -86t-103.5 -32t-104 32t-40 86q0 71 66 104q-53 32 -53 88q0 53 37.5 83.5t93.5 30.5q55 0 92.5 -30.5t37.5 -83.5q0 -56 -53 -87zM740 354q-33 0 -51 -15t-18 -41q0 -27 18 -43t51 -16q32 0 50 16t18 43q0 26 -17.5 41t-50.5 15zM740 48q38 0 59.5 18t21.5 48
t-22 47.5t-59 17.5q-40 0 -61 -17t-21 -48q0 -30 21.5 -48t60.5 -18z" />
    <glyph glyph-name="fiveeighths" unicode="&#x215d;" horiz-adv-x="896" 
d="M303 417q0 -59 -38 -94t-105 -35q-102 0 -140 85l53 29q25 -54 87 -54q38 0 59.5 19t21.5 50q0 34 -21.5 53.5t-59.5 19.5h-122l15 210h234v-58h-181l-6 -92h62q63 0 102 -36.5t39 -96.5zM681 700l-400 -700h-60l400 700h60zM806 211q66 -35 66 -105q0 -54 -39.5 -86
t-103.5 -32t-104 32t-40 86q0 71 66 104q-53 32 -53 88q0 53 37.5 83.5t93.5 30.5q55 0 92.5 -30.5t37.5 -83.5q0 -56 -53 -87zM729 354q-33 0 -51 -15t-18 -41q0 -27 18 -43t51 -16q32 0 50 16t18 43q0 26 -17.5 41t-50.5 15zM729 48q38 0 59.5 18t21.5 48t-22 47.5
t-59 17.5q-40 0 -61 -17t-21 -48q0 -30 21.5 -48t60.5 -18z" />
    <glyph glyph-name="seveneighths" unicode="&#x215e;" horiz-adv-x="851" 
d="M276 650l-148 -350h-66l146 340h-198v60h266v-50zM636 700l-400 -700h-60l400 700h60zM761 211q66 -35 66 -105q0 -54 -39.5 -86t-103.5 -32t-104 32t-40 86q0 71 66 104q-53 32 -53 88q0 53 37.5 83.5t93.5 30.5q55 0 92.5 -30.5t37.5 -83.5q0 -56 -53 -87zM684 354
q-33 0 -51 -15t-18 -41q0 -27 18 -43t51 -16q32 0 50 16t18 43q0 26 -17.5 41t-50.5 15zM684 48q38 0 59.5 18t21.5 48t-22 47.5t-59 17.5q-40 0 -61 -17t-21 -48q0 -30 21.5 -48t60.5 -18z" />
    <glyph glyph-name="arrowleft" unicode="&#x2190;" horiz-adv-x="820" 
d="M760 318h-578l268 -268h-90l-300 300l300 300h90l-268 -268h578v-64z" />
    <glyph glyph-name="arrowup" unicode="&#x2191;" horiz-adv-x="720" 
d="M660 310l-267 267v-577h-66v577l-267 -267v90l300 300l300 -300v-90z" />
    <glyph glyph-name="arrowright" unicode="&#x2192;" horiz-adv-x="820" 
d="M760 350l-300 -300h-90l268 268h-578v64h578l-268 268h90z" />
    <glyph glyph-name="arrowdown" unicode="&#x2193;" horiz-adv-x="720" 
d="M660 390v-90l-300 -300l-300 300v90l267 -267v577h66v-577z" />
    <glyph glyph-name="arrowboth" unicode="&#x2194;" horiz-adv-x="1040" 
d="M980 350l-249 -250h-90l217 218h-676l217 -218h-90l-249 250l249 250h90l-217 -218h676l-217 218h90z" />
    <glyph glyph-name="arrowupdn" unicode="&#x2195;" horiz-adv-x="620" 
d="M343 687v-674l217 216v-90l-250 -249l-250 249v90l217 -216v674l-217 -216v90l250 249l250 -249v-90z" />
    <glyph glyph-name="uni2196" unicode="&#x2196;" horiz-adv-x="638" 
d="M531 69l-408 408v-377l-63 63v424h424l63 -63h-377l408 -408z" />
    <glyph glyph-name="uni2197" unicode="&#x2197;" horiz-adv-x="638" 
d="M578 587v-424l-63 -63v377l-408 -408l-47 47l408 408h-377l63 63h424z" />
    <glyph glyph-name="uni2198" unicode="&#x2198;" horiz-adv-x="638" 
d="M578 513v-424h-424l-63 63h377l-408 408l47 47l408 -408v377z" />
    <glyph glyph-name="uni2199" unicode="&#x2199;" horiz-adv-x="638" 
d="M170 152h377l-63 -63h-424v424l63 63v-377l408 408l47 -47z" />
    <glyph glyph-name="partialdiff" unicode="&#x2202;" horiz-adv-x="576" 
d="M232 712q121 0 202.5 -100t81.5 -262q0 -170 -73 -266t-186 -96q-96 0 -151.5 60t-55.5 152q0 103 61 166.5t168 63.5q93 0 170 -53q-6 114 -63 192t-154 78q-72 0 -131 -35v64q56 36 131 36zM257 52q81 0 133 68.5t59 189.5q-72 56 -170 56q-75 0 -119 -43t-44 -123
q0 -65 36 -106.5t105 -41.5z" />
    <glyph glyph-name="emptyset" unicode="&#x2205;" horiz-adv-x="804" 
d="M653 611q111 -106 111 -261q0 -150 -106 -256t-256 -106q-116 0 -210 67l-62 -75h-70l91 109q-111 106 -111 261q0 150 106 256t256 106q116 0 210 -67l62 75h70zM100 350q0 -126 88 -216l387 466q-78 54 -173 54q-126 0 -214 -88.5t-88 -215.5zM402 46q126 0 214 88.5
t88 215.5q0 126 -88 216l-387 -466q78 -54 173 -54z" />
    <glyph glyph-name="product" unicode="&#x220f;" horiz-adv-x="640" 
d="M80 700h480v-900h-66v836h-348v-836h-66v900z" />
    <glyph glyph-name="summation" unicode="&#x2211;" horiz-adv-x="540" 
d="M50 -135l240 395l-225 374v66h430v-64h-355l227 -376l-241 -396h384v-64h-460v65z" />
    <glyph glyph-name="minus" unicode="&#x2212;" horiz-adv-x="540" 
d="M60 382h420v-64h-420v64z" />
    <glyph glyph-name="radical" unicode="&#x221a;" horiz-adv-x="644" 
d="M148 236h-88v64h126l127 -220l241 720h70l-269 -800h-70z" />
    <glyph glyph-name="infinity" unicode="&#x221e;" horiz-adv-x="800" 
d="M584 510q69 0 115 -46t46 -114t-46 -114t-115 -46q-97 0 -184 110q-87 -110 -184 -110q-69 0 -115 46t-46 114t46 114t115 46q97 0 184 -110q87 110 184 110zM217 250q73 0 145 100q-72 100 -145 100q-43 0 -70 -28t-27 -72t27 -72t70 -28zM584 250q43 0 70 28t27 72
t-27 72t-70 28q-73 0 -145 -100q72 -100 145 -100z" />
    <glyph glyph-name="integral" unicode="&#x222b;" horiz-adv-x="439" 
d="M0 -138q54 -20 86 -1.5t40 69.5l109 640q15 89 67.5 122t136.5 10v-64q-120 40 -138 -68l-109 -640q-15 -88 -66 -121.5t-126 -10.5v64z" />
    <glyph glyph-name="approxequal" unicode="&#x2248;" horiz-adv-x="594" 
d="M282 402q-77 44 -111.5 33t-50.5 -69l-60 28q26 84 89.5 103t162.5 -39q50 -31 83.5 -34.5t50.5 14t28 56.5l60 -28q-26 -85 -88 -104t-164 40zM60 234q26 84 89.5 103t162.5 -39q50 -31 83.5 -34.5t50.5 14t28 56.5l60 -28q-26 -85 -88 -104t-164 40q-77 44 -111.5 33
t-50.5 -69z" />
    <glyph glyph-name="notequal" unicode="&#x2260;" horiz-adv-x="540" 
d="M325 418l-60 -136h215v-64h-244l-66 -148h-50l66 148h-126v64h155l60 136h-215v64h244l66 148h50l-66 -148h126v-64h-155z" />
    <glyph glyph-name="lessequal" unicode="&#x2264;" horiz-adv-x="520" 
d="M460 526l-317 -115l317 -115v-74l-400 156v66l400 156v-74zM60 164h400v-64h-400v64z" />
    <glyph glyph-name="greaterequal" unicode="&#x2265;" horiz-adv-x="520" 
d="M460 444v-66l-400 -156v74l317 115l-317 115v74zM60 164h400v-64h-400v64z" />
    <glyph glyph-name="lozenge" unicode="&#x25ca;" horiz-adv-x="540" 
d="M50 350l186 350h68l186 -350l-186 -350h-68zM419 350l-149 279l-149 -279l149 -279z" />
    <glyph glyph-name="i.loclTRK" horiz-adv-x="206" 
d="M103 570q-23 0 -39 16t-16 39t16 39t39 16t39 -16t16 -39t-16 -39t-39 -16zM70 500h66v-500h-66v500z" />
    <glyph glyph-name="f_f_j" horiz-adv-x="786" 
d="M716 -40q0 -90 -47 -135t-133 -37v64q59 -6 86.5 19t27.5 89v476h-204v-436h-66v436h-204v-436h-66v436h-85v64h85v20q0 98 54.5 148.5t155.5 43.5v-64q-73 6 -108.5 -25t-35.5 -103v-20h204v30q0 192 210 192q42 0 96 -12v-60q-47 8 -96 8q-75 0 -109.5 -29t-34.5 -99
v-30h270v-540z" />
    <glyph glyph-name="f_j" horiz-adv-x="516" 
d="M446 -40q0 -90 -47 -135t-133 -37v64q59 -6 86.5 19t27.5 89v476h-204v-436h-66v436h-85v64h85v20q0 192 210 192q42 0 96 -12v-60q-47 8 -96 8q-75 0 -109.5 -29t-34.5 -99v-20h270v-540z" />
    <glyph glyph-name="uni0414.loclBGR" horiz-adv-x="700" 
d="M675 66v-200h-70v134h-510v-134h-70v200h64l225 634h72l225 -634h64zM537 66l-187 547l-187 -547h374z" />
    <glyph glyph-name="uni041B.loclBGR" horiz-adv-x="608" 
d="M340 700l258 -700h-76l-218 607l-218 -607h-76l258 700h72z" />
    <glyph glyph-name="uni0424.loclBGR" horiz-adv-x="844" 
d="M804 350q0 -154 -96 -252t-251 -109v-89h-70v89q-155 11 -251 109t-96 252t96 252t251 109v89h70v-89q155 -11 251 -109t96 -252zM110 350q0 -127 75.5 -206.5t201.5 -90.5v594q-126 -11 -201.5 -90.5t-75.5 -206.5zM457 53q126 11 201.5 90.5t75.5 206.5t-75.5 206.5
t-201.5 90.5v-594z" />
    <glyph glyph-name="uni0414.ss01" horiz-adv-x="690" 
d="M655 66v-66h-640v66h57q69 81 69 250v384h439v-634h75zM510 66v568h-299v-320q0 -166 -56 -248h355z" />
    <glyph glyph-name="uni0426.ss01" horiz-adv-x="690" 
d="M655 66v-66h-575v700h70v-634h360v634h70v-634h75z" />
    <glyph glyph-name="uni0429.ss01" horiz-adv-x="980" 
d="M945 66v-66h-865v700h70v-634h290v634h70v-634h290v634h70v-634h75z" />
    <glyph glyph-name="uni0414.loclBGR.ss01" horiz-adv-x="700" 
d="M675 66v-66h-650v66h64l225 634h72l225 -634h64zM537 66l-187 547l-187 -547h374z" />
    <glyph glyph-name="uni0432.loclBGR" horiz-adv-x="570" 
d="M399 400q62 -20 96.5 -72t34.5 -128q0 -100 -60.5 -156t-169.5 -56t-169.5 64t-60.5 178v235q0 114 58 180.5t160 66.5q84 0 133 -46.5t49 -121.5q0 -79 -71 -144zM288 648q-71 0 -111.5 -49.5t-40.5 -133.5v-81l103 21q39 8 82 8q83 60 83 131q0 45 -31 74.5t-85 29.5z
M300 52q77 0 120.5 39t43.5 109q0 84 -62 123t-163 18l-103 -21v-90q0 -84 43.5 -131t120.5 -47z" />
    <glyph glyph-name="uni0433.loclBGR" horiz-adv-x="454" 
d="M419 108q-20 -51 -71 -85.5t-122 -34.5q-80 0 -130.5 40t-50.5 104q0 51 29.5 82.5t71.5 45t84.5 24.5t72 31t29.5 54q0 38 -30.5 58.5t-69.5 20.5q-42 0 -76 -19t-49 -56l-55 32q23 48 70 77.5t110 29.5q71 0 118.5 -41.5t47.5 -101.5q0 -51 -29.5 -82.5t-71.5 -45
t-84.5 -24.5t-72 -31t-29.5 -54q0 -41 33 -60.5t82 -19.5t86 25t51 64z" />
    <glyph glyph-name="uni0434.loclBGR" 
d="M566 500v-480q0 -108 -74 -170t-177 -62q-176 0 -237 122l58 33q45 -91 179 -91q86 0 135.5 45.5t49.5 122.5v78q-69 -110 -202 -110q-107 0 -182.5 76t-75.5 186t75.5 186t182.5 76q133 0 202 -110v98h66zM303 52q83 0 140 57.5t57 140.5t-57 140.5t-140 57.5
t-140 -57.5t-57 -140.5t57 -140.5t140 -57.5z" />
    <glyph glyph-name="uni0436.loclBGR" horiz-adv-x="674" 
d="M574 0l-204 241v-241h-66v241l-204 -241h-80l224 260l-214 240h80l194 -222v422h66v-422l194 222h80l-214 -240l224 -260h-80z" />
    <glyph glyph-name="uni0438.loclBGR" horiz-adv-x="558" 
d="M488 500v-500h-66v78q-56 -90 -168 -90q-91 0 -143.5 55.5t-52.5 149.5v307h66v-307q0 -67 35.5 -104t100.5 -37q72 0 117 45.5t45 140.5v262h66z" />
    <glyph glyph-name="uni0439.loclBGR" horiz-adv-x="558" 
d="M401 580h-260v58h260v-58zM488 500v-500h-66v78q-56 -90 -168 -90q-91 0 -143.5 55.5t-52.5 149.5v307h66v-307q0 -67 35.5 -104t100.5 -37q72 0 117 45.5t45 140.5v262h66z" />
    <glyph glyph-name="uni043A.loclBGR" horiz-adv-x="494" 
d="M386 0l-250 241v-241h-66v700h66v-421l238 221h90l-258 -240l268 -260h-88z" />
    <glyph glyph-name="uni043B.loclBGR" horiz-adv-x="510" 
d="M430 0l-175 431l-175 -431h-70l205 500h80l205 -500h-70z" />
    <glyph glyph-name="uni043F.loclBGR" horiz-adv-x="558" 
d="M304 512q91 0 143.5 -55.5t52.5 -149.5v-307h-66v307q0 67 -35.5 104t-100.5 37q-72 0 -117 -45.5t-45 -140.5v-262h-66v500h66v-78q56 90 168 90z" />
    <glyph glyph-name="uni0442.loclBGR" horiz-adv-x="848" 
d="M603 512q84 0 135.5 -54t51.5 -146v-312h-66v312q0 65 -33.5 100.5t-88.5 35.5q-62 0 -100.5 -41.5t-38.5 -129.5v-277h-66v312q0 66 -31.5 101t-85.5 35q-60 0 -102 -42t-42 -129v-277h-66v500h66v-73q54 85 153 85q108 0 152 -91q54 91 162 91z" />
    <glyph glyph-name="uni0446.loclBGR" horiz-adv-x="594" 
d="M564 64v-198h-66v136q-30 5 -50 26t-25 53q-55 -93 -169 -93q-91 0 -143.5 55.5t-52.5 149.5v307h66v-307q0 -67 35.5 -104t100.5 -37q72 0 117 45.5t45 140.5v262h66v-400q0 -16 10 -26t27 -10h39z" />
    <glyph glyph-name="uni0448.loclBGR" horiz-adv-x="848" 
d="M778 500v-500h-66v73q-54 -85 -153 -85q-108 0 -152 91q-54 -91 -162 -91q-84 0 -135.5 54t-51.5 146v312h66v-312q0 -65 33.5 -100.5t88.5 -35.5q62 0 100.5 41.5t38.5 129.5v277h66v-312q0 -66 31.5 -101t85.5 -35q60 0 102 42t42 129v277h66z" />
    <glyph glyph-name="uni0449.loclBGR" horiz-adv-x="884" 
d="M854 64v-198h-66v136q-29 4 -48.5 24t-25.5 50q-54 -88 -155 -88q-108 0 -152 91q-54 -91 -162 -91q-84 0 -135.5 54t-51.5 146v312h66v-312q0 -65 33.5 -100.5t88.5 -35.5q62 0 100.5 41.5t38.5 129.5v277h66v-312q0 -66 31.5 -101t85.5 -35q60 0 102 42t42 129v277h66
v-400q0 -16 10 -26t27 -10h39z" />
    <glyph glyph-name="uni044C.loclBGR" horiz-adv-x="478" 
d="M253 338q92 0 143.5 -45t51.5 -125q0 -74 -54.5 -127t-140.5 -53q-90 0 -142.5 51t-52.5 129v332h66v-162h129zM253 52q56 0 92.5 35t36.5 81q0 50 -34 78t-95 28h-129v-106q0 -47 35.5 -81.5t93.5 -34.5z" />
    <glyph glyph-name="uni044A.loclBGR" horiz-adv-x="562" 
d="M335 338q92 0 143.5 -45t51.5 -125q0 -74 -54.5 -127t-140.5 -53q-90 0 -142.5 51t-52.5 129v268h-140v64h206v-162h129zM335 52q56 0 92.5 35t36.5 81q0 50 -34 78t-95 28h-129v-106q0 -47 35.5 -81.5t93.5 -34.5z" />
    <glyph glyph-name="uni044E.loclBGR" horiz-adv-x="800" 
d="M497 512q110 0 186.5 -75.5t76.5 -186.5t-76.5 -186.5t-186.5 -75.5q-101 0 -173.5 65.5t-83.5 164.5h-104v-218h-66v700h66v-418h104q11 99 83.5 164.5t173.5 65.5zM497 52q83 0 140 57.5t57 140.5t-57 140.5t-140 57.5t-140 -57.5t-57 -140.5t57 -140.5t140 -57.5z" />
    <glyph glyph-name="zero.sinf" horiz-adv-x="410" 
d="M205 -172q-82 0 -128.5 58t-46.5 154t46.5 154t128.5 58t128.5 -58t46.5 -154t-46.5 -154t-128.5 -58zM205 -112q53 0 83 39t30 113t-30 113t-83 39t-83 -39t-30 -113t30 -113t83 -39z" />
    <glyph glyph-name="one.sinf" horiz-adv-x="239" 
d="M179 240v-400h-62v332l-91 -27l-16 53l116 42h53z" />
    <glyph glyph-name="two.sinf" horiz-adv-x="341" 
d="M31 -109l168 154q42 37 42 85q0 28 -19.5 45t-52.5 17q-62 0 -87 -62l-52 29q38 93 139 93q60 0 97 -35t37 -87q0 -69 -62 -125l-118 -105h188v-60h-280v51z" />
    <glyph glyph-name="three.sinf" horiz-adv-x="348" 
d="M207 74q50 -10 78 -40.5t28 -76.5q0 -58 -40 -93.5t-106 -35.5q-102 0 -142 84l52 30q25 -54 90 -54q40 0 62 18.5t22 50.5q0 31 -22.5 50t-61.5 19h-4l-31 47l90 107h-184v60h258v-60z" />
    <glyph glyph-name="four.sinf" horiz-adv-x="354" 
d="M334 -85h-51v-75h-62v75h-206v58l149 267h67l-148 -267h138v96h62v-96h51v-58z" />
    <glyph glyph-name="five.sinf" horiz-adv-x="328" 
d="M167 90q63 0 102 -36.5t39 -96.5q0 -59 -38 -94t-105 -35q-102 0 -140 85l53 29q25 -54 87 -54q38 0 59.5 19t21.5 50q0 34 -21.5 53.5t-59.5 19.5h-122l15 210h234v-58h-181l-6 -92h62z" />
    <glyph glyph-name="six.sinf" horiz-adv-x="335" 
d="M167 107q63 0 105.5 -40t42.5 -99t-42.5 -99.5t-105.5 -40.5t-105 40.5t-42 99.5q0 38 19 70v1l3 3l1 2l125 196h75l-92 -134q5 1 16 1zM167 -112q39 0 62.5 22.5t23.5 57.5t-23.5 57t-62.5 22t-62 -22t-23 -57t23.5 -57.5t61.5 -22.5z" />
    <glyph glyph-name="seven.sinf" horiz-adv-x="296" 
d="M276 240v-50l-148 -350h-66l146 340h-198v60h266z" />
    <glyph glyph-name="eight.sinf" horiz-adv-x="335" 
d="M245 51q66 -35 66 -105q0 -54 -39.5 -86t-103.5 -32t-104 32t-40 86q0 71 66 104q-53 32 -53 88q0 53 37.5 83.5t93.5 30.5q55 0 92.5 -30.5t37.5 -83.5q0 -56 -53 -87zM168 194q-33 0 -51 -15t-18 -41q0 -27 18 -43t51 -16q32 0 50 16t18 43q0 26 -17.5 41t-50.5 15z
M168 -112q38 0 59.5 18t21.5 48t-22 47.5t-59 17.5q-40 0 -61 -17t-21 -48q0 -30 21.5 -48t60.5 -18z" />
    <glyph glyph-name="nine.sinf" horiz-adv-x="335" 
d="M296 41q-1 -1 -2 -3l-2 -2l-125 -196h-75l92 134q-5 -1 -16 -1q-63 0 -105.5 40t-42.5 99t42.5 99.5t105.5 40.5t105 -40.5t42 -99.5q0 -38 -19 -70v-1zM82 112q0 -35 23.5 -57t62.5 -22t62 22t23 57t-23.5 57.5t-61.5 22.5q-39 0 -62.5 -22.5t-23.5 -57.5z" />
    <glyph glyph-name="zero.tf" horiz-adv-x="570" 
d="M285 -12q-126 0 -195.5 98.5t-69.5 263.5t69.5 263.5t195.5 98.5t195.5 -98.5t69.5 -263.5t-69.5 -263.5t-195.5 -98.5zM285 56q92 0 143.5 77t51.5 217t-51.5 217t-143.5 77t-143.5 -77t-51.5 -217t51.5 -217t143.5 -77z" />
    <glyph glyph-name="one.tf" horiz-adv-x="570" 
d="M540 66v-66h-500v66h225v557l-157 -47l-18 60l185 64h60v-634h205z" />
    <glyph glyph-name="two.tf" horiz-adv-x="570" 
d="M45 63l253 218q73 62 110 110.5t37 100.5q0 71 -44 111.5t-117 40.5q-58 0 -103.5 -31t-69.5 -87l-58 34q32 72 93.5 112t137.5 40q99 0 165 -60t66 -160q0 -69 -44 -131.5t-125 -128.5l-201 -164h385v-68h-485v63z" />
    <glyph glyph-name="three.tf" horiz-adv-x="570" 
d="M321 409q94 -10 151.5 -63t57.5 -143q0 -101 -72 -158t-183 -57q-88 0 -156.5 42.5t-92.5 115.5l59 34q15 -57 66.5 -90.5t123.5 -33.5q85 0 135 38t50 109t-50 109t-135 38v1l-1 -1h-18l-31 46l191 238h-366v66h450v-66z" />
    <glyph glyph-name="four.tf" horiz-adv-x="570" 
d="M550 140h-90v-140h-70v140h-370v66l260 494h76l-260 -494h294v194h70v-194h90v-66z" />
    <glyph glyph-name="five.tf" horiz-adv-x="570" 
d="M285 418q104 0 174.5 -57.5t70.5 -157.5t-70.5 -157.5t-174.5 -57.5q-88 0 -156.5 42.5t-92.5 115.5l59 34q15 -57 66.5 -90.5t123.5 -33.5q78 0 126.5 38t48.5 109t-48.5 109t-126.5 38h-210l25 350h405v-66h-341l-15 -216h136z" />
    <glyph glyph-name="six.tf" horiz-adv-x="570" 
d="M275 450q116 0 185.5 -63.5t69.5 -167.5t-69.5 -167.5t-185.5 -63.5t-185.5 63.5t-69.5 167.5q0 81 44 139l244 342h83l-182 -256q30 6 66 6zM275 56q88 0 136.5 44t48.5 119t-48.5 119t-136.5 44t-136.5 -44t-48.5 -119t48.5 -119t136.5 -44z" />
    <glyph glyph-name="seven.tf" horiz-adv-x="570" 
d="M530 700v-66l-285 -634h-72l284 634h-417v66h490z" />
    <glyph glyph-name="eight.tf" horiz-adv-x="570" 
d="M418 361q55 -25 86 -69.5t31 -101.5q0 -96 -68.5 -149t-181.5 -53t-181.5 53t-68.5 149q0 57 31 101.5t86 69.5q-93 55 -93 157q0 93 64 143.5t162 50.5t162 -50.5t64 -143.5q0 -102 -93 -157zM285 644q-73 0 -114.5 -31.5t-41.5 -94.5q0 -60 42.5 -93t113.5 -33
t113.5 33t42.5 93q0 63 -41.5 94.5t-114.5 31.5zM285 56q87 0 133.5 35t46.5 99t-46.5 99t-133.5 35t-133.5 -35t-46.5 -99t46.5 -99t133.5 -35z" />
    <glyph glyph-name="nine.tf" horiz-adv-x="570" 
d="M550 481q0 -81 -44 -139l-244 -342h-83l182 256q-30 -6 -66 -6q-116 0 -185.5 63.5t-69.5 167.5t69.5 167.5t185.5 63.5t185.5 -63.5t69.5 -167.5zM110 481q0 -75 48.5 -119t136.5 -44t136.5 44t48.5 119t-48.5 119t-136.5 44t-136.5 -44t-48.5 -119z" />
    <glyph glyph-name="zero.dnom" horiz-adv-x="410" 
d="M205 -12q-82 0 -128.5 58t-46.5 154t46.5 154t128.5 58t128.5 -58t46.5 -154t-46.5 -154t-128.5 -58zM205 48q53 0 83 39t30 113t-30 113t-83 39t-83 -39t-30 -113t30 -113t83 -39z" />
    <glyph glyph-name="one.dnom" horiz-adv-x="247" 
d="M179 400v-400h-62v332l-91 -27l-16 53l116 42h53z" />
    <glyph glyph-name="two.dnom" horiz-adv-x="340" 
d="M31 51l168 154q42 37 42 85q0 28 -19.5 45t-52.5 17q-62 0 -87 -62l-52 29q38 93 139 93q60 0 97 -35t37 -87q0 -69 -62 -125l-118 -105h188v-60h-280v51z" />
    <glyph glyph-name="three.dnom" horiz-adv-x="352" 
d="M207 234q50 -10 78 -40.5t28 -76.5q0 -58 -40 -93.5t-106 -35.5q-102 0 -142 84l52 30q25 -54 90 -54q40 0 62 18.5t22 50.5q0 31 -22.5 50t-61.5 19h-4l-31 47l90 107h-184v60h258v-60z" />
    <glyph glyph-name="four.dnom" horiz-adv-x="354" 
d="M334 75h-51v-75h-62v75h-206v58l149 267h67l-148 -267h138v96h62v-96h51v-58z" />
    <glyph glyph-name="five.dnom" horiz-adv-x="341" 
d="M162 250q63 0 102 -36.5t39 -96.5q0 -59 -38 -94t-105 -35q-102 0 -140 85l53 29q25 -54 87 -54q38 0 59.5 19t21.5 50q0 34 -21.5 53.5t-59.5 19.5h-122l15 210h234v-58h-181l-6 -92h62z" />
    <glyph glyph-name="six.dnom" horiz-adv-x="335" 
d="M167 267q63 0 105.5 -40t42.5 -99t-42.5 -99.5t-105.5 -40.5t-105 40.5t-42 99.5q0 38 19 70v1l3 3l1 2l125 196h75l-92 -134q5 1 16 1zM167 48q39 0 62.5 22.5t23.5 57.5t-23.5 57t-62.5 22t-62 -22t-23 -57t23.5 -57.5t61.5 -22.5z" />
    <glyph glyph-name="seven.dnom" horiz-adv-x="296" 
d="M276 400v-50l-148 -350h-66l146 340h-198v60h266z" />
    <glyph glyph-name="eight.dnom" horiz-adv-x="335" 
d="M245 211q66 -35 66 -105q0 -54 -39.5 -86t-103.5 -32t-104 32t-40 86q0 71 66 104q-53 32 -53 88q0 53 37.5 83.5t93.5 30.5q55 0 92.5 -30.5t37.5 -83.5q0 -56 -53 -87zM168 354q-33 0 -51 -15t-18 -41q0 -27 18 -43t51 -16q32 0 50 16t18 43q0 26 -17.5 41t-50.5 15z
M168 48q38 0 59.5 18t21.5 48t-22 47.5t-59 17.5q-40 0 -61 -17t-21 -48q0 -30 21.5 -48t60.5 -18z" />
    <glyph glyph-name="nine.dnom" horiz-adv-x="335" 
d="M296 201q-1 -1 -2 -3l-2 -2l-125 -196h-75l92 134q-5 -1 -16 -1q-63 0 -105.5 40t-42.5 99t42.5 99.5t105.5 40.5t105 -40.5t42 -99.5q0 -38 -19 -70v-1zM82 272q0 -35 23.5 -57t62.5 -22t62 22t23 57t-23.5 57.5t-61.5 22.5q-39 0 -62.5 -22.5t-23.5 -57.5z" />
    <glyph glyph-name="zero.numr" horiz-adv-x="410" 
d="M205 288q-82 0 -128.5 58t-46.5 154t46.5 154t128.5 58t128.5 -58t46.5 -154t-46.5 -154t-128.5 -58zM205 348q53 0 83 39t30 113t-30 113t-83 39t-83 -39t-30 -113t30 -113t83 -39z" />
    <glyph glyph-name="one.numr" horiz-adv-x="247" 
d="M179 700v-400h-62v332l-91 -27l-16 53l116 42h53z" />
    <glyph glyph-name="two.numr" horiz-adv-x="340" 
d="M31 351l168 154q42 37 42 85q0 28 -19.5 45t-52.5 17q-62 0 -87 -62l-52 29q38 93 139 93q60 0 97 -35t37 -87q0 -69 -62 -125l-118 -105h188v-60h-280v51z" />
    <glyph glyph-name="three.numr" horiz-adv-x="352" 
d="M207 534q50 -10 78 -40.5t28 -76.5q0 -58 -40 -93.5t-106 -35.5q-102 0 -142 84l52 30q25 -54 90 -54q40 0 62 18.5t22 50.5q0 31 -22.5 50t-61.5 19h-4l-31 47l90 107h-184v60h258v-60z" />
    <glyph glyph-name="four.numr" horiz-adv-x="354" 
d="M334 375h-51v-75h-62v75h-206v58l149 267h67l-148 -267h138v96h62v-96h51v-58z" />
    <glyph glyph-name="five.numr" horiz-adv-x="341" 
d="M162 550q63 0 102 -36.5t39 -96.5q0 -59 -38 -94t-105 -35q-102 0 -140 85l53 29q25 -54 87 -54q38 0 59.5 19t21.5 50q0 34 -21.5 53.5t-59.5 19.5h-122l15 210h234v-58h-181l-6 -92h62z" />
    <glyph glyph-name="six.numr" horiz-adv-x="335" 
d="M167 567q63 0 105.5 -40t42.5 -99t-42.5 -99.5t-105.5 -40.5t-105 40.5t-42 99.5q0 38 19 70v1l3 3l1 2l125 196h75l-92 -134q5 1 16 1zM167 348q39 0 62.5 22.5t23.5 57.5t-23.5 57t-62.5 22t-62 -22t-23 -57t23.5 -57.5t61.5 -22.5z" />
    <glyph glyph-name="seven.numr" horiz-adv-x="296" 
d="M276 700v-50l-148 -350h-66l146 340h-198v60h266z" />
    <glyph glyph-name="eight.numr" horiz-adv-x="335" 
d="M245 511q66 -35 66 -105q0 -54 -39.5 -86t-103.5 -32t-104 32t-40 86q0 71 66 104q-53 32 -53 88q0 53 37.5 83.5t93.5 30.5q55 0 92.5 -30.5t37.5 -83.5q0 -56 -53 -87zM168 654q-33 0 -51 -15t-18 -41q0 -27 18 -43t51 -16q32 0 50 16t18 43q0 26 -17.5 41t-50.5 15z
M168 348q38 0 59.5 18t21.5 48t-22 47.5t-59 17.5q-40 0 -61 -17t-21 -48q0 -30 21.5 -48t60.5 -18z" />
    <glyph glyph-name="nine.numr" horiz-adv-x="335" 
d="M296 501q-1 -1 -2 -3l-2 -2l-125 -196h-75l92 134q-5 -1 -16 -1q-63 0 -105.5 40t-42.5 99t42.5 99.5t105.5 40.5t105 -40.5t42 -99.5q0 -38 -19 -70v-1zM82 572q0 -35 23.5 -57t62.5 -22t62 22t23 57t-23.5 57.5t-61.5 22.5q-39 0 -62.5 -22.5t-23.5 -57.5z" />
    <glyph glyph-name="zero.sups" horiz-adv-x="410" 
d="M205 448q-82 0 -128.5 58t-46.5 154t46.5 154t128.5 58t128.5 -58t46.5 -154t-46.5 -154t-128.5 -58zM205 508q53 0 83 39t30 113t-30 113t-83 39t-83 -39t-30 -113t30 -113t83 -39z" />
    <glyph glyph-name="one.sups" horiz-adv-x="247" 
d="M179 860v-400h-62v332l-91 -27l-16 53l116 42h53z" />
    <glyph glyph-name="two.sups" horiz-adv-x="340" 
d="M31 511l168 154q42 37 42 85q0 28 -19.5 45t-52.5 17q-62 0 -87 -62l-52 29q38 93 139 93q60 0 97 -35t37 -87q0 -69 -62 -125l-118 -105h188v-60h-280v51z" />
    <glyph glyph-name="three.sups" horiz-adv-x="352" 
d="M207 694q50 -10 78 -40.5t28 -76.5q0 -58 -40 -93.5t-106 -35.5q-102 0 -142 84l52 30q25 -54 90 -54q40 0 62 18.5t22 50.5q0 31 -22.5 50t-61.5 19h-4l-31 47l90 107h-184v60h258v-60z" />
    <glyph glyph-name="four.sups" horiz-adv-x="354" 
d="M334 535h-51v-75h-62v75h-206v58l149 267h67l-148 -267h138v96h62v-96h51v-58z" />
    <glyph glyph-name="five.sups" horiz-adv-x="341" 
d="M162 710q63 0 102 -36.5t39 -96.5q0 -59 -38 -94t-105 -35q-102 0 -140 85l53 29q25 -54 87 -54q38 0 59.5 19t21.5 50q0 34 -21.5 53.5t-59.5 19.5h-122l15 210h234v-58h-181l-6 -92h62z" />
    <glyph glyph-name="six.sups" horiz-adv-x="335" 
d="M167 727q63 0 105.5 -40t42.5 -99t-42.5 -99.5t-105.5 -40.5t-105 40.5t-42 99.5q0 38 19 70v1l3 3l1 2l125 196h75l-92 -134q5 1 16 1zM167 508q39 0 62.5 22.5t23.5 57.5t-23.5 57t-62.5 22t-62 -22t-23 -57t23.5 -57.5t61.5 -22.5z" />
    <glyph glyph-name="seven.sups" horiz-adv-x="296" 
d="M276 860v-50l-148 -350h-66l146 340h-198v60h266z" />
    <glyph glyph-name="eight.sups" horiz-adv-x="335" 
d="M245 671q66 -35 66 -105q0 -54 -39.5 -86t-103.5 -32t-104 32t-40 86q0 71 66 104q-53 32 -53 88q0 53 37.5 83.5t93.5 30.5q55 0 92.5 -30.5t37.5 -83.5q0 -56 -53 -87zM168 814q-33 0 -51 -15t-18 -41q0 -27 18 -43t51 -16q32 0 50 16t18 43q0 26 -17.5 41t-50.5 15z
M168 508q38 0 59.5 18t21.5 48t-22 47.5t-59 17.5q-40 0 -61 -17t-21 -48q0 -30 21.5 -48t60.5 -18z" />
    <glyph glyph-name="nine.sups" horiz-adv-x="335" 
d="M296 661q-1 -1 -2 -3l-2 -2l-125 -196h-75l92 134q-5 -1 -16 -1q-63 0 -105.5 40t-42.5 99t42.5 99.5t105.5 40.5t105 -40.5t42 -99.5q0 -38 -19 -70v-1zM82 732q0 -35 23.5 -57t62.5 -22t62 22t23 57t-23.5 57.5t-61.5 22.5q-39 0 -62.5 -22.5t-23.5 -57.5z" />
    <glyph glyph-name="cent.tf" horiz-adv-x="570" 
d="M535 218q-31 -60 -91 -95t-133 -35q-33 0 -68 8l-31 -96h-50l36 112q-69 30 -109.5 94t-40.5 144q0 111 75 186.5t188 75.5q27 0 47 -4l30 92h50l-34 -105q89 -33 126 -114l-54 -31q-28 59 -91 84l-122 -376q23 -6 48 -6q56 0 100 26.5t69 71.5zM114 350q0 -57 28.5 -104
t75.5 -72l120 372q-18 2 -27 2q-83 0 -140 -57.5t-57 -140.5z" />
    <glyph glyph-name="dollar.tf" horiz-adv-x="570" 
d="M530 182q0 -80 -55 -132t-145 -60v-90h-60v89q-172 11 -230 155l60 35q36 -113 170 -122v275q-47 14 -77.5 27.5t-60 35.5t-43.5 54.5t-14 76.5q0 78 54.5 127.5t140.5 57.5v89h60v-90q136 -13 185 -139l-59 -33q-32 92 -126 104v-259q96 -29 148 -73t52 -128zM145 526
q0 -48 30 -76t95 -49v242q-58 -6 -91.5 -37t-33.5 -80zM330 58q62 7 96 40.5t34 83.5q0 51 -32 80.5t-98 50.5v-255z" />
    <glyph glyph-name="Euro.tf" horiz-adv-x="570" 
d="M542 140q-23 -74 -76 -113t-126 -39q-103 0 -168 74.5t-82 203.5h-65v58h60v26q0 23 1 34h-61v58h66q18 125 83 197.5t166 72.5q71 0 122.5 -36.5t75.5 -106.5l-58 -33q-17 53 -54 80.5t-86 27.5q-70 0 -116.5 -52.5t-61.5 -149.5h243v-58h-249q-1 -11 -1 -34v-26h250
v-58h-245q14 -101 61 -155.5t119 -54.5q50 0 88.5 29.5t56.5 86.5z" />
    <glyph glyph-name="florin.tf" horiz-adv-x="570" 
d="M540 639q-117 40 -143 -68l-47 -188h150v-64h-166l-96 -388q-44 -177 -208 -132v64q116 -40 142 68l96 388h-149v64h165l47 188q44 178 209 132v-64z" />
    <glyph glyph-name="uni20BD.tf" horiz-adv-x="570" 
d="M170 280v-94h240v-58h-240v-128h-70v128h-90v58h90v94h-90v66h90v354h230q87 0 148.5 -61.5t61.5 -148.5q0 -86 -61.5 -148t-148.5 -62h-160zM170 346h160q58 0 99 42.5t41 101.5q0 60 -41 102t-99 42h-160v-288z" />
    <glyph glyph-name="sterling.tf" horiz-adv-x="570" 
d="M560 68v-68h-530v68h94v221h-74v62h74v151q0 101 61 155.5t144 54.5q137 0 191 -134l-57 -32q-36 98 -134 98q-57 0 -96 -35.5t-39 -106.5v-151h231v-62h-231v-221h366z" />
    <glyph glyph-name="yen.tf" horiz-adv-x="570" 
d="M334 347h167v-58h-181v-60h181v-58h-181v-171h-70v171h-179v58h179v60h-179v58h166l-229 353h77l201 -309l200 309h77z" />
    <glyph glyph-name="brevecy" horiz-adv-x="300" 
d="M20 638h260v-58h-260v58z" />
    </font>
</defs>
</svg>
