<?xml version="1.0" standalone="no"?>
<!DOCTYPE svg PUBLIC "-//W3C//DTD SVG 1.1//EN" "http://www.w3.org/Graphics/SVG/1.1/DTD/svg11.dtd" >
<svg xmlns="http://www.w3.org/2000/svg" xmlns:xlink="http://www.w3.org/1999/xlink" version="1.1">
<metadata>
Created by FontForge 20161003 at Mon Jan 21 19:55:43 2019
 By www-data
Copyright (c) 2016 by Radomir Tinkov. All rights reserved.
</metadata>
<defs>
<font id="libertymtboldwebfont" horiz-adv-x="626" >
  <font-face 
    font-family="libertymtboldwebfont"
    font-weight="400"
    font-stretch="normal"
    units-per-em="1000"
    panose-1="0 0 5 0 0 0 0 0 0 0"
    ascent="800"
    descent="-200"
    x-height="500"
    cap-height="700"
    bbox="-415 -263 1098 975"
    underline-thickness="50"
    underline-position="-250"
    unicode-range="U+0020-FB02"
  />
<missing-glyph horiz-adv-x="500" 
d="M410 -200h-317v1000h317v-1000zM168 733v-33h65v-37h-66v-33h166v33h-66v37h66v33h-165zM167 604v-104h166v34h-66v70h-100zM233 534h-33v36h33v-36zM167 473v-33h66v-37h-66v-33h100v70h66v33h-166zM300 413v-66h-133v-34h166v100h-33zM233 291v-56h34v23h33v-47h-100
v80h-33v-113h166v113h-100zM167 118v-113h166v113h-166zM300 38h-100v47h100v-47zM167 -18v-33h70l-70 -47v-33h166v33h-102l70 47h32v33h-166z" />
    <glyph glyph-name="fi" unicode="fi" horiz-adv-x="557" 
d="M498 0h-129v376h-147v-376h-129v376h-72v124h72v5q0 209 235 209q53 0 117 -14v-118q-67 8 -117 8q-54 0 -80 -18.5t-26 -66.5v-5h276v-500z" />
    <glyph glyph-name="fl" unicode="fl" horiz-adv-x="557" 
d="M328 714q65 0 170 -21v-693h-129v600q-14 1 -41 1q-106 0 -106 -96v-5h83v-124h-83v-376h-129v376h-72v124h72v5q0 209 235 209z" />
    <glyph glyph-name="f_f" unicode="ff" horiz-adv-x="605" 
d="M605 600q-106 8 -106 -85v-15h106v-124h-106v-376h-129v376h-148v-376h-129v376h-72v124h72v5q0 106 59 161t176 48v-124q-106 8 -106 -85v-5h148v15q0 106 59.5 161t175.5 48v-124z" />
    <glyph glyph-name="f_f_i" unicode="ffi" horiz-adv-x="834" 
d="M775 0h-129v376h-147v-376h-129v376h-148v-376h-129v376h-72v124h72v5q0 106 59 161t176 48v-124q-106 8 -106 -85v-5h148v15q0 209 235 209q54 0 118 -14v-118q-69 8 -118 8q-53 0 -79.5 -18.5t-26.5 -66.5v-15h276v-500z" />
    <glyph glyph-name="f_f_l" unicode="ffl" horiz-adv-x="834" 
d="M605 724q67 0 170 -21v-703h-129v610q-14 1 -41 1q-106 0 -106 -96v-15h84v-124h-84v-376h-129v376h-148v-376h-129v376h-72v124h72v5q0 106 59 161t176 48v-124q-106 8 -106 -85v-5h148v15q0 209 235 209z" />
    <glyph glyph-name=".notdef" horiz-adv-x="500" 
d="M410 -200h-317v1000h317v-1000zM168 733v-33h65v-37h-66v-33h166v33h-66v37h66v33h-165zM167 604v-104h166v34h-66v70h-100zM233 534h-33v36h33v-36zM167 473v-33h66v-37h-66v-33h100v70h66v33h-166zM300 413v-66h-133v-34h166v100h-33zM233 291v-56h34v23h33v-47h-100
v80h-33v-113h166v113h-100zM167 118v-113h166v113h-166zM300 38h-100v47h100v-47zM167 -18v-33h70l-70 -47v-33h166v33h-102l70 47h32v33h-166z" />
    <glyph glyph-name=".null" horiz-adv-x="0" 
 />
    <glyph glyph-name="nonmarkingreturn" horiz-adv-x="333" 
 />
    <glyph glyph-name="space" unicode=" " horiz-adv-x="250" 
 />
    <glyph glyph-name="exclam" unicode="!" horiz-adv-x="268" 
d="M56 500v200h155v-200l-26 -265h-102zM134 -13q-35 0 -60 25t-25 60t25 60t60 25t60 -25t25 -60t-25 -60t-60 -25z" />
    <glyph glyph-name="quotedbl" unicode="&#x22;" horiz-adv-x="378" 
d="M43 700h122l-17 -230h-88zM213 700h122l-17 -230h-88z" />
    <glyph glyph-name="numbersign" unicode="#" horiz-adv-x="616" 
d="M469 395l-15 -90h109l-16 -97h-110l-26 -158h-102l26 158h-102l-26 -158h-101l26 158h-109l16 97h110l15 90h-111l16 98h111l26 157h101l-26 -157h102l26 157h102l-26 -157h108l-16 -98h-108zM367 395h-102l-15 -90h102z" />
    <glyph glyph-name="dollar" unicode="$" horiz-adv-x="549" 
d="M524 196q0 -88 -56 -142.5t-146 -65.5v-88h-67v87q-84 6 -144 47t-86 111l119 69q32 -80 111 -91v173h-1l-2 1q-35 13 -57 23t-51.5 29t-46 39.5t-29 52.5t-12.5 70q0 88 57.5 141t141.5 61v87h67v-89q136 -16 192 -141l-116 -68q-24 60 -76 73v-167q93 -37 125 -59
q77 -55 77 -153zM193 510q0 -22 14 -38.5t48 -33.5v140q-30 -6 -46 -24t-16 -44zM322 125q64 14 64 70q0 25 -15.5 42t-48.5 32v-144z" />
    <glyph glyph-name="percent" unicode="%" horiz-adv-x="765" 
d="M214 384q-72 0 -120.5 48t-48.5 117t48.5 117t120.5 48t120 -47.5t48 -117.5t-48 -117.5t-120 -47.5zM572 613l61 -34l-457 -508l-60 35zM213 485q27 0 45 18.5t18 45.5t-18 45t-45 18t-44.5 -18t-17.5 -45t17.5 -45.5t44.5 -18.5zM552 -12q-72 0 -120 48t-48 117t48 117
t120 48t120 -48t48 -117t-48 -117t-120 -48zM552 89q27 0 44.5 19t17.5 45q0 27 -17.5 45.5t-44.5 18.5t-44.5 -18.5t-17.5 -45.5t17.5 -45.5t44.5 -18.5z" />
    <glyph glyph-name="ampersand" unicode="&#x26;" horiz-adv-x="673" 
d="M542 -23l-64 69q-81 -60 -188 -60q-108 0 -176.5 56.5t-68.5 151.5q0 62 30 115t87 86q-34 54 -34 117q0 89 62 145.5t157 56.5q75 0 134.5 -38.5t88.5 -111.5l-118 -68q-29 84 -103 84q-36 0 -59.5 -21t-23.5 -53q0 -28 13.5 -51t43.5 -55l150 -164q22 47 34 116
l116 -66q-19 -81 -61 -147l90 -99zM299 113q52 0 93 25l-151 164q-2 2 -2 3q-55 -34 -55 -97q0 -43 29.5 -69t85.5 -26z" />
    <glyph glyph-name="quotesingle" unicode="'" horiz-adv-x="208" 
d="M43 700h122l-17 -230h-88z" />
    <glyph glyph-name="parenleft" unicode="(" horiz-adv-x="307" 
d="M163 -100q-110 220 -110 450t110 450h129q-110 -220 -110 -450t110 -450h-129z" />
    <glyph glyph-name="parenright" unicode=")" horiz-adv-x="307" 
d="M15 -100q110 220 110 450t-110 450h129q110 -220 110 -450t-110 -450h-129z" />
    <glyph glyph-name="asterisk" unicode="*" horiz-adv-x="398" 
d="M346 529l-91 7l55 -70l-68 -42l-43 84l-43 -84l-67 42l54 70l-90 -7v80l90 -8l-54 71l67 42l43 -84l43 84l68 -42l-55 -71l91 8v-80z" />
    <glyph glyph-name="plus" unicode="+" horiz-adv-x="555" 
d="M503 290h-165v-165h-121v165h-164v121h164v164h121v-164h165v-121z" />
    <glyph glyph-name="comma" unicode="," horiz-adv-x="278" 
d="M154 -140h-105l40 278h140z" />
    <glyph glyph-name="hyphen" unicode="-" horiz-adv-x="505" 
d="M65 364h375v-124h-375v124z" />
    <glyph glyph-name="period" unicode="." horiz-adv-x="268" 
d="M134 -13q-35 0 -60 25t-25 60t25 60t60 25t60 -25t25 -60t-25 -60t-60 -25z" />
    <glyph glyph-name="slash" unicode="/" horiz-adv-x="523" 
d="M33 -100l400 900h57l-400 -900h-57z" />
    <glyph glyph-name="zero" unicode="0" horiz-adv-x="630" 
d="M315 -14q-131 0 -205.5 99.5t-74.5 264.5t74.5 264.5t205.5 99.5q132 0 206 -99.5t74 -264.5t-74 -264.5t-206 -99.5zM315 121q70 0 106.5 59t36.5 170q0 112 -36.5 171t-106.5 59t-106 -59t-36 -171t36 -170.5t106 -58.5z" />
    <glyph glyph-name="one" unicode="1" horiz-adv-x="387" 
d="M315 700v-700h-138v554l-132 -37l-34 118l184 65h120z" />
    <glyph glyph-name="two" unicode="2" horiz-adv-x="531" 
d="M27 103l239 246q80 84 80 140q0 41 -25.5 66t-65.5 25q-79 0 -117 -82l-116 68q33 72 95 110t136 38q95 0 163 -59.5t68 -160.5q0 -109 -115 -224l-137 -137h263v-133h-468v103z" />
    <glyph glyph-name="three" unicode="3" horiz-adv-x="545" 
d="M353 416q71 -21 115.5 -73.5t44.5 -126.5q0 -108 -72.5 -169t-177.5 -61q-82 0 -146.5 37.5t-93.5 110.5l118 68q26 -81 122 -81q53 0 82.5 25.5t29.5 69.5q0 43 -29.5 69t-82.5 26h-30l-53 80l138 180h-274v129h440v-114z" />
    <glyph glyph-name="four" unicode="4" horiz-adv-x="580" 
d="M566 119h-75v-119h-139v119h-331v128l233 453h148l-232 -453h182v166h139v-166h75v-128z" />
    <glyph glyph-name="five" unicode="5" horiz-adv-x="548" 
d="M280 445q101 0 170 -60.5t69 -168.5t-72.5 -169t-177.5 -61q-85 0 -150 38t-94 112l118 69q26 -84 126 -84q53 0 82.5 25.5t29.5 69.5q0 43 -29 69t-79 26h-212l28 389h397v-129h-269l-9 -126h72z" />
    <glyph glyph-name="six" unicode="6" horiz-adv-x="553" 
d="M285 473q109 -3 177 -70.5t68 -172.5q0 -107 -71 -175.5t-183 -68.5t-182.5 68t-70.5 176q0 80 41 141l218 329h158zM276 116q50 0 83.5 31t33.5 83q0 51 -33.5 82t-83.5 31t-83 -30.5t-33 -82.5t33 -83t83 -31z" />
    <glyph glyph-name="seven" unicode="7" horiz-adv-x="490" 
d="M465 700v-117l-237 -583h-146l230 568h-299v132h452z" />
    <glyph glyph-name="eight" unicode="8" horiz-adv-x="568" 
d="M438 364q97 -58 97 -169q0 -97 -67.5 -153t-183.5 -56q-117 0 -184 56t-67 153q0 111 96 169q-73 53 -73 145q0 97 65.5 151t162.5 54t162 -54t65 -151q0 -93 -73 -145zM284 584q-40 0 -65 -22t-25 -60t25 -60.5t65 -22.5t65 22.5t25 60.5t-25 60t-65 22zM284 116
q51 0 82.5 25.5t31.5 71.5q0 45 -31.5 70.5t-82.5 25.5t-82.5 -25.5t-31.5 -70.5q0 -46 31.5 -71.5t82.5 -25.5z" />
    <glyph glyph-name="nine" unicode="9" horiz-adv-x="553" 
d="M530 471q0 -81 -42 -142h1l-218 -329h-158l156 228q-109 2 -177.5 69.5t-68.5 173.5q0 107 70.5 175t182.5 68q113 0 183.5 -67.5t70.5 -175.5zM160 471q0 -52 33.5 -83t82.5 -31q51 0 84 31t33 83t-33 82.5t-84 30.5q-49 0 -82.5 -31t-33.5 -82z" />
    <glyph glyph-name="colon" unicode=":" horiz-adv-x="268" 
d="M134 345q-35 0 -60 25t-25 60t25 60t60 25t60 -25t25 -60t-25 -60t-60 -25zM134 -13q-35 0 -60 25t-25 60t25 60t60 25t60 -25t25 -60t-25 -60t-60 -25z" />
    <glyph glyph-name="semicolon" unicode=";" horiz-adv-x="279" 
d="M145 345q-35 0 -60 25t-25 60t25 60t60 25t60 -25t25 -60t-25 -60t-60 -25zM154 -140h-105l40 278h140z" />
    <glyph glyph-name="less" unicode="&#x3c;" horiz-adv-x="528" 
d="M483 464l-291 -114l291 -113v-134l-438 190v115l438 190v-134z" />
    <glyph glyph-name="equal" unicode="=" horiz-adv-x="525" 
d="M45 514h435v-121h-435v121zM45 307h435v-121h-435v121z" />
    <glyph glyph-name="greater" unicode="&#x3e;" horiz-adv-x="528" 
d="M483 408v-115l-438 -190v134l291 113l-291 114v134z" />
    <glyph glyph-name="question" unicode="?" horiz-adv-x="553" 
d="M195 235q0 44 26.5 84t57.5 64.5t57.5 57.5t26.5 66q0 35 -24 54t-67 19q-84 0 -119 -89l-118 68q30 74 95.5 114.5t146.5 40.5q91 0 157.5 -52.5t66.5 -144.5q0 -42 -17.5 -78t-42 -61.5t-49 -48t-42 -46.5t-17.5 -48h-138zM264 -13q-35 0 -60 25t-25 60t25 60t60 25
t60 -25t25 -60t-25 -60t-60 -25z" />
    <glyph glyph-name="at" unicode="@" horiz-adv-x="779" 
d="M397 612q106 0 188 -51.5t122 -128.5t40 -162q0 -104 -45 -160.5t-114 -56.5q-101 0 -132 79q-38 -46 -99 -46q-64 0 -105.5 46.5t-41.5 117.5t41.5 117.5t105.5 46.5q54 0 91 -37v26h107v-231q0 -73 58 -73q43 0 69.5 43t26.5 128q0 130 -90 219t-222 89
q-138 0 -232.5 -94.5t-94.5 -233.5q0 -142 98 -235t247 -93q94 0 162 25v-36q-67 -23 -162 -23q-164 0 -273 102.5t-109 259.5q0 151 104.5 256.5t259.5 105.5zM384 182q28 0 45.5 19t17.5 49q0 31 -17.5 49.5t-45.5 18.5q-29 0 -47 -18.5t-18 -49.5q0 -30 18 -49t47 -19z
" />
    <glyph glyph-name="A" unicode="A" horiz-adv-x="668" 
d="M473 126h-279l-42 -126h-149l245 700h171l246 -700h-150zM430 255l-96 286l-96 -286h192z" />
    <glyph glyph-name="B" unicode="B" horiz-adv-x="605" 
d="M488 363q92 -53 92 -160q0 -89 -63 -146t-155 -57h-297v700h276q90 0 151.5 -55.5t61.5 -141.5q0 -87 -66 -140zM203 571v-154h138q32 0 53.5 22t21.5 55t-21 55t-54 22h-138zM362 129q35 0 58 23.5t23 59.5q0 35 -23 58.5t-58 23.5h-159v-165h159z" />
    <glyph glyph-name="C" unicode="C" horiz-adv-x="726" 
d="M397 -14q-158 0 -261 105t-103 259q0 155 103 259.5t261 104.5q95 0 175.5 -44.5t125.5 -120.5l-119 -69q-26 47 -74 73.5t-108 26.5q-102 0 -164.5 -64t-62.5 -166q0 -101 62.5 -165t164.5 -64q60 0 108.5 26.5t73.5 72.5l119 -69q-45 -76 -125 -120.5t-176 -44.5z" />
    <glyph glyph-name="D" unicode="D" horiz-adv-x="713" 
d="M343 700q144 0 240.5 -101t96.5 -249t-96.5 -249t-240.5 -101h-278v700h278zM343 132q91 0 148 60.5t57 157.5t-57 157.5t-148 60.5h-140v-436h140z" />
    <glyph glyph-name="E" unicode="E" horiz-adv-x="530" 
d="M498 132v-132h-433v700h428v-132h-290v-149h265v-130h-265v-157h295z" />
    <glyph glyph-name="F" unicode="F" horiz-adv-x="519" 
d="M203 568v-166h272v-132h-272v-270h-138v700h418v-132h-280z" />
    <glyph glyph-name="G" unicode="G" horiz-adv-x="785" 
d="M752 322q0 -150 -96 -243t-248 -93q-162 0 -268.5 105.5t-106.5 257.5q0 153 105.5 259t261.5 106q98 0 179 -44.5t126 -118.5l-118 -68q-25 43 -75.5 70t-112.5 27q-100 0 -164.5 -65.5t-64.5 -165.5q0 -99 65.5 -163.5t173.5 -64.5q80 0 132.5 35.5t71.5 97.5h-212v122
h351v-54z" />
    <glyph glyph-name="H" unicode="H" horiz-adv-x="665" 
d="M600 700v-700h-137v290h-260v-290h-138v700h138v-278h260v278h137z" />
    <glyph glyph-name="I" unicode="I" horiz-adv-x="268" 
d="M203 700v-700h-138v700h138z" />
    <glyph glyph-name="J" unicode="J" horiz-adv-x="569" 
d="M264 -14q-165 0 -231 133l119 68q33 -66 112 -66q55 0 82 26t27 71v482h137v-482q0 -110 -69 -171t-177 -61z" />
    <glyph glyph-name="K" unicode="K" horiz-adv-x="615" 
d="M453 0l-250 328v-328h-138v700h138v-309l240 309h159l-259 -340l269 -360h-159z" />
    <glyph glyph-name="L" unicode="L" horiz-adv-x="483" 
d="M470 132v-132h-405v700h138v-568h267z" />
    <glyph glyph-name="M" unicode="M" horiz-adv-x="815" 
d="M750 0h-137v454l-197 -325h-16l-197 324v-453h-138v700h142l201 -331l200 331h142v-700z" />
    <glyph glyph-name="N" unicode="N" horiz-adv-x="673" 
d="M608 700v-700h-105l-300 428v-428h-138v700h105l300 -427v427h138z" />
    <glyph glyph-name="O" unicode="O" horiz-adv-x="792" 
d="M396 -14q-152 0 -257.5 105.5t-105.5 258.5t105.5 258.5t257.5 105.5t258 -105.5t106 -258.5t-106 -258.5t-258 -105.5zM396 121q96 0 161 64.5t65 164.5t-65 165t-161 65t-161 -65t-65 -165t65 -164.5t161 -64.5z" />
    <glyph glyph-name="P" unicode="P" horiz-adv-x="590" 
d="M326 700q101 0 170 -68t69 -167t-69 -167t-170 -68h-123v-230h-138v700h261zM326 359q44 0 73 30.5t29 75.5q0 46 -29 76t-73 30h-123v-212h123z" />
    <glyph glyph-name="Q" unicode="Q" horiz-adv-x="797" 
d="M760 350q0 -136 -86 -236l72 -75l-98 -87l-76 79q-81 -45 -176 -45q-151 0 -257 105.5t-106 258.5t106 258.5t257 105.5t257.5 -105.5t106.5 -258.5zM396 121q39 0 78 13l-115 120l98 87l123 -128q42 60 42 137q0 100 -65 165t-161 65t-161 -65t-65 -165q0 -99 65 -164
t161 -65z" />
    <glyph glyph-name="R" unicode="R" horiz-adv-x="614" 
d="M308 243h-105v-243h-138v700h280q97 0 165 -68t68 -164q0 -65 -37 -120.5t-98 -83.5l155 -264h-149zM203 364h142q39 0 67 30.5t28 73.5t-28 73t-67 30h-142v-207z" />
    <glyph glyph-name="S" unicode="S" horiz-adv-x="583" 
d="M304 -14q-104 0 -175 46.5t-100 126.5l118 69q41 -107 161 -107q58 0 85 21t27 53q0 37 -33 57.5t-118 44.5q-47 14 -79.5 28t-65 37.5t-49.5 59.5t-17 84q0 95 67.5 151.5t162.5 56.5q85 0 149.5 -41.5t100.5 -115.5l-116 -67q-42 90 -134 90q-43 0 -67.5 -19.5
t-24.5 -50.5q0 -33 27.5 -53.5t105.5 -44.5q32 -10 48.5 -15.5t45 -17t44 -21.5t35.5 -27t30.5 -35t18 -43.5t7.5 -55.5q0 -97 -70.5 -154t-183.5 -57z" />
    <glyph glyph-name="T" unicode="T" horiz-adv-x="540" 
d="M528 568h-189v-568h-138v568h-188v132h515v-132z" />
    <glyph glyph-name="U" unicode="U" horiz-adv-x="653" 
d="M326 -14q-117 0 -192 66t-75 177v471h137v-460q0 -55 31.5 -87t98.5 -32t98.5 32t31.5 87v460h138v-471q0 -111 -75 -177t-193 -66z" />
    <glyph glyph-name="V" unicode="V" horiz-adv-x="647" 
d="M3 700h150l171 -538l170 538h151l-236 -700h-171z" />
    <glyph glyph-name="W" unicode="W" horiz-adv-x="999" 
d="M15 700h145l134 -519l146 519h118l147 -519l134 519h145l-196 -700h-157l-132 462l-131 -462h-157z" />
    <glyph glyph-name="X" unicode="X" horiz-adv-x="610" 
d="M441 0l-136 228l-136 -228h-156l214 359l-203 341h156l125 -210l125 210h156l-203 -340l215 -360h-157z" />
    <glyph glyph-name="Y" unicode="Y" horiz-adv-x="621" 
d="M379 273v-273h-137v273l-239 427h156l152 -292l152 292h156z" />
    <glyph glyph-name="Z" unicode="Z" horiz-adv-x="535" 
d="M509 132v-132h-473v110l291 458h-284v132h460v-109l-291 -459h297z" />
    <glyph glyph-name="bracketleft" unicode="[" horiz-adv-x="310" 
d="M182 676v-652h108v-124h-237v900h237v-124h-108z" />
    <glyph glyph-name="backslash" unicode="\" horiz-adv-x="523" 
d="M33 800h57l400 -900h-57z" />
    <glyph glyph-name="bracketright" unicode="]" horiz-adv-x="310" 
d="M257 -100h-237v124h108v652h-108v124h237v-900z" />
    <glyph glyph-name="asciicircum" unicode="^" horiz-adv-x="560" 
d="M520 370h-139l-101 182l-101 -182h-139l191 330h98z" />
    <glyph glyph-name="underscore" unicode="_" horiz-adv-x="520" 
d="M33 -47h455v-124h-455v124z" />
    <glyph glyph-name="grave" unicode="`" horiz-adv-x="275" 
d="M175 700h-155l111 -137h124z" />
    <glyph glyph-name="a" unicode="a" 
d="M568 500v-500h-129v59q-58 -73 -163 -73q-100 0 -171.5 76.5t-71.5 187.5t71.5 187.5t171.5 76.5q105 0 163 -73v59h129zM300 109q60 0 99.5 39.5t39.5 101.5t-39.5 101.5t-99.5 39.5t-99 -39.5t-39 -101.5t39 -101.5t99 -39.5z" />
    <glyph glyph-name="b" unicode="b" 
d="M350 514q101 0 172.5 -76.5t71.5 -187.5t-71.5 -187.5t-172.5 -76.5q-105 0 -162 73v-59h-129v700h129v-259q57 73 162 73zM326 109q60 0 99.5 39.5t39.5 101.5t-39.5 101.5t-99.5 39.5t-99 -39.5t-39 -101.5t39 -101.5t99 -39.5z" />
    <glyph glyph-name="c" unicode="c" horiz-adv-x="536" 
d="M297 -14q-113 0 -188.5 76t-75.5 188t75.5 188t188.5 76q73 0 133 -35t91 -94l-111 -65q-15 31 -45.5 49t-68.5 18q-58 0 -96 -38.5t-38 -98.5q0 -59 38 -97.5t96 -38.5q39 0 69.5 17.5t45.5 48.5l112 -64q-33 -59 -93 -94.5t-133 -35.5z" />
    <glyph glyph-name="d" unicode="d" 
d="M567 700v-700h-129v59q-57 -73 -162 -73q-101 0 -172.5 76.5t-71.5 187.5t71.5 187.5t172.5 76.5q105 0 162 -73v259h129zM300 109q60 0 99 39.5t39 101.5t-39 101.5t-99 39.5t-99.5 -39.5t-39.5 -101.5t39.5 -101.5t99.5 -39.5z" />
    <glyph glyph-name="e" unicode="e" horiz-adv-x="581" 
d="M168 197q26 -94 141 -94q74 0 112 50l104 -60q-74 -107 -218 -107q-124 0 -199 75t-75 189q0 113 74 188.5t190 75.5q110 0 181.5 -76t71.5 -188q0 -25 -5 -53h-377zM421 297q-11 51 -45.5 76t-78.5 25q-52 0 -86 -26.5t-45 -74.5h255z" />
    <glyph glyph-name="f" unicode="f" horiz-adv-x="328" 
d="M328 590q-106 8 -106 -85v-5h106v-124h-106v-376h-129v376h-72v124h72v5q0 106 59 161t176 48v-124z" />
    <glyph glyph-name="g" unicode="g" 
d="M568 500v-476q0 -116 -76.5 -177t-184.5 -61q-81 0 -142.5 31t-94.5 91l110 63q38 -70 131 -70q61 0 96 32t35 91v54q-57 -76 -160 -76q-106 0 -177.5 74.5t-71.5 181.5q0 106 72 181t177 75q103 0 160 -76v62h126zM302 121q61 0 100.5 38.5t39.5 98.5q0 59 -39.5 97.5
t-100.5 38.5t-100.5 -38.5t-39.5 -97.5q0 -60 39.5 -98.5t100.5 -38.5z" />
    <glyph glyph-name="h" unicode="h" horiz-adv-x="577" 
d="M337 514q82 0 135.5 -55t53.5 -152v-307h-129v291q0 50 -27 76.5t-72 26.5q-50 0 -80 -31t-30 -93v-270h-129v700h129v-256q47 70 149 70z" />
    <glyph glyph-name="i" unicode="i" horiz-adv-x="247" 
d="M123 560q-32 0 -55.5 23.5t-23.5 55.5t23.5 56t55.5 24q33 0 56.5 -24t23.5 -56t-23.5 -55.5t-56.5 -23.5zM59 500h129v-500h-129v500z" />
    <glyph glyph-name="j" unicode="j" horiz-adv-x="264" 
d="M141 560q-33 0 -56.5 23.5t-23.5 55.5t23.5 56t56.5 24q32 0 55.5 -24t23.5 -56t-23.5 -55.5t-55.5 -23.5zM76 500h129v-510q0 -110 -53.5 -160.5t-164.5 -43.5v124q46 -3 67.5 16t21.5 64v510z" />
    <glyph glyph-name="k" unicode="k" horiz-adv-x="525" 
d="M370 0l-182 227v-227h-129v700h129v-420l172 220h154l-201 -247l207 -253h-150z" />
    <glyph glyph-name="l" unicode="l" horiz-adv-x="247" 
d="M59 730h129v-730h-129v730z" />
    <glyph glyph-name="m" unicode="m" horiz-adv-x="852" 
d="M612 514q86 0 137.5 -56t51.5 -150v-308h-129v299q0 45 -22 70t-62 25q-44 0 -68.5 -29t-24.5 -84v-281h-129v299q0 45 -22 70t-62 25q-43 0 -68.5 -29t-25.5 -84v-281h-129v500h129v-53q45 67 139 67q92 0 136 -72q50 72 149 72z" />
    <glyph glyph-name="n" unicode="n" horiz-adv-x="577" 
d="M337 514q82 0 135.5 -55t53.5 -152v-307h-129v291q0 50 -27 76.5t-72 26.5q-50 0 -80 -31t-30 -93v-270h-129v500h129v-56q47 70 149 70z" />
    <glyph glyph-name="o" unicode="o" horiz-adv-x="594" 
d="M297 -14q-111 0 -187.5 76.5t-76.5 187.5t76.5 187.5t187.5 76.5t188 -76.5t77 -187.5t-77 -187.5t-188 -76.5zM297 112q58 0 97 39t39 99t-39 99t-97 39t-96.5 -39t-38.5 -99t38.5 -99t96.5 -39z" />
    <glyph glyph-name="p" unicode="p" 
d="M350 514q101 0 172.5 -76.5t71.5 -187.5t-71.5 -187.5t-172.5 -76.5q-105 0 -162 73v-259h-129v700h129v-59q57 73 162 73zM326 109q60 0 99.5 39.5t39.5 101.5t-39.5 101.5t-99.5 39.5t-99 -39.5t-39 -101.5t39 -101.5t99 -39.5z" />
    <glyph glyph-name="q" unicode="q" 
d="M567 500v-700h-129v259q-57 -73 -162 -73q-101 0 -172.5 76.5t-71.5 187.5t71.5 187.5t172.5 76.5q105 0 162 -73v59h129zM300 109q60 0 99 39.5t39 101.5t-39 101.5t-99 39.5t-99.5 -39.5t-39.5 -101.5t39.5 -101.5t99.5 -39.5z" />
    <glyph glyph-name="r" unicode="r" horiz-adv-x="356" 
d="M188 414q18 48 59.5 72t92.5 24v-144q-59 7 -105.5 -24t-46.5 -103v-239h-129v500h129v-86z" />
    <glyph glyph-name="s" unicode="s" horiz-adv-x="465" 
d="M178 358q0 -20 26.5 -32.5t64.5 -22t76 -24t64.5 -48.5t26.5 -85q0 -77 -57.5 -118.5t-143.5 -41.5q-154 0 -210 119l112 63q22 -65 98 -65q69 0 69 43q0 20 -26.5 32.5t-64.5 22.5t-76 25t-64.5 47.5t-26.5 81.5q0 74 54.5 116.5t135.5 42.5q61 0 111 -27.5t79 -78.5
l-110 -60q-24 51 -80 51q-25 0 -41.5 -11t-16.5 -30z" />
    <glyph glyph-name="t" unicode="t" horiz-adv-x="385" 
d="M232 376v-208q0 -26 13 -38t38 -13.5t62 0.5v-117q-133 -15 -187.5 25t-54.5 143v208h-87v124h87v101l129 39v-140h113v-124h-113z" />
    <glyph glyph-name="u" unicode="u" horiz-adv-x="577" 
d="M518 500v-500h-129v56q-47 -70 -149 -70q-82 0 -135.5 55t-53.5 152v307h129v-291q0 -50 27 -76.5t72 -26.5q50 0 80 31t30 93v270h129z" />
    <glyph glyph-name="v" unicode="v" horiz-adv-x="533" 
d="M530 500l-190 -500h-147l-190 500h142l121 -350l122 350h142z" />
    <glyph glyph-name="w" unicode="w" horiz-adv-x="770" 
d="M759 500l-159 -500h-123l-92 303l-92 -303h-123l-159 500h137l85 -307l91 307h122l91 -308l85 308h137z" />
    <glyph glyph-name="x" unicode="x" horiz-adv-x="525" 
d="M371 0l-108 152l-109 -152h-149l183 255l-175 245h149l101 -141l101 141h148l-175 -244l183 -256h-149z" />
    <glyph glyph-name="y" unicode="y" horiz-adv-x="525" 
d="M523 500l-182 -500q-39 -108 -103.5 -156.5t-160.5 -43.5v120q52 -1 82.5 22t48.5 74l-205 484h141l130 -336l111 336h138z" />
    <glyph glyph-name="z" unicode="z" horiz-adv-x="474" 
d="M438 121v-121h-395v86l211 293h-201v121h375v-86l-212 -293h222z" />
    <glyph glyph-name="braceleft" unicode="{" horiz-adv-x="359" 
d="M339 -107q-210 -15 -210 186v148q0 41 -19 53t-60 9v125q41 -3 60 9t19 53v148q0 201 210 186v-124q-42 5 -61.5 -8t-19.5 -54v-148q0 -91 -60 -124q60 -34 60 -125v-148q0 -41 19.5 -54t61.5 -8v-124z" />
    <glyph glyph-name="bar" unicode="|" horiz-adv-x="259" 
d="M65 720h129v-920h-129v920z" />
    <glyph glyph-name="braceright" unicode="}" horiz-adv-x="359" 
d="M20 17q42 -5 61.5 8t19.5 54v148q0 91 60 125q-60 33 -60 124v148q0 41 -19.5 54t-61.5 8v124q210 15 210 -186v-148q0 -41 19 -53t60 -9v-125q-41 3 -60 -9t-19 -53v-148q0 -201 -210 -186v124z" />
    <glyph glyph-name="asciitilde" unicode="~" horiz-adv-x="599" 
d="M554 392q-26 -99 -95 -128t-155 15q-40 19 -63.5 26.5t-42 5.5t-28.5 -15.5t-20 -40.5l-105 50q26 98 95 127.5t155 -13.5q53 -25 80 -31t44 6.5t30 48.5z" />
    <glyph glyph-name="exclamdown" unicode="&#xa1;" horiz-adv-x="268" 
d="M134 513q35 0 60 -25t25 -60t-25 -60t-60 -25t-60 25t-25 60t25 60t60 25zM185 265l26 -265v-200h-155v200l27 265h102z" />
    <glyph glyph-name="cent" unicode="&#xa2;" horiz-adv-x="536" 
d="M523 216q-33 -59 -93 -94.5t-133 -35.5q-34 0 -61 7l-30 -93h-58l35 110q-69 31 -109.5 95t-40.5 145q0 112 75.5 188t188.5 76q27 0 48 -4l29 90h58l-34 -106q83 -33 123 -109l-111 -65q-17 35 -52 52l-82 -257q6 -1 20 -1q39 0 69.5 17.5t45.5 48.5zM162 350
q0 -78 61 -116l82 253h-9q-58 0 -96 -38.5t-38 -98.5z" />
    <glyph glyph-name="sterling" unicode="&#xa3;" horiz-adv-x="581" 
d="M570 133v-133h-537v133h73v141h-61v121h61v100q0 106 65.5 162.5t154.5 56.5q76 0 132.5 -38.5t84.5 -107.5l-119 -68q-26 80 -95 80q-37 0 -61.5 -23t-24.5 -67v-95h203v-121h-203v-141h327z" />
    <glyph glyph-name="currency" unicode="&#xa4;" horiz-adv-x="543" 
d="M486 350q0 -75 -45 -131l70 -70l-38 -38l-71 71q-54 -42 -130 -42q-74 0 -131 41l-70 -70l-38 38l69 70q-45 56 -45 131q0 74 45 132l-69 69l38 38l70 -70q58 42 131 42q72 0 130 -42l71 70l38 -38l-70 -70q45 -58 45 -131zM272 262q38 0 62.5 25t24.5 63
q0 39 -24.5 63.5t-62.5 24.5q-39 0 -63 -24.5t-24 -63.5t24 -63.5t63 -24.5z" />
    <glyph glyph-name="yen" unicode="&#xa5;" horiz-adv-x="601" 
d="M429 362h102v-80h-147l-5 -9v-36h152v-81h-152v-156h-137v156h-171v81h171v36l-5 9h-166v80h121l-189 338h156l152 -292l152 292h156z" />
    <glyph glyph-name="brokenbar" unicode="&#xa6;" horiz-adv-x="259" 
d="M65 720h129v-370h-129v370zM65 170h129v-370h-129v370z" />
    <glyph glyph-name="section" unicode="&#xa7;" horiz-adv-x="542" 
d="M505 284q0 -77 -59 -128q33 -41 33 -100q0 -80 -57 -124t-144 -44q-168 0 -221 126l115 66q27 -78 106 -78q72 0 72 54q0 9 -4 17t-12.5 15.5t-17.5 13.5t-24.5 12.5t-27 11.5t-31 12.5t-31.5 12.5q-70 30 -111.5 69t-41.5 105q0 78 62 125q-30 39 -30 99q0 77 55.5 121
t135.5 44q66 0 119.5 -32t80.5 -94l-106 -58q-32 70 -94 70q-28 0 -45 -13.5t-17 -37.5q0 -19 18.5 -36t37.5 -25.5t61 -25.5q13 -5 20 -8q34 -14 58 -27t49 -33t38 -48t13 -62zM178 332q0 -47 81 -78q5 -2 40 -14.5t54 -20.5q23 20 23 50q0 29 -22 46.5t-67 35.5
q-73 27 -85 32q-24 -18 -24 -51z" />
    <glyph glyph-name="dieresis" unicode="&#xa8;" horiz-adv-x="365" 
d="M88 549q-28 0 -48 19.5t-20 47.5t20 48t48 20t47.5 -20t19.5 -48t-19.5 -47.5t-47.5 -19.5zM278 549q-28 0 -48 19.5t-20 47.5t20 48t48 20t47.5 -20t19.5 -48t-19.5 -47.5t-47.5 -19.5z" />
    <glyph glyph-name="copyright" unicode="&#xa9;" horiz-adv-x="789" 
d="M395 -12q-150 0 -256 106t-106 256t106 256t256 106t256 -106t106 -256t-106 -256t-256 -106zM395 22q134 0 229 96t95 232t-95 232t-229 96q-135 0 -230 -96t-95 -232t95 -232t230 -96zM398 154q-82 0 -140 58t-58 138t58 138t140 58q52 0 97 -25.5t70 -70.5l-96 -56
q-21 41 -74 41q-38 0 -61 -25t-23 -60t23 -60t61 -25q52 0 74 42l97 -57q-25 -44 -70.5 -70t-97.5 -26z" />
    <glyph glyph-name="guillemotleft" unicode="&#xab;" horiz-adv-x="545" 
d="M182 309l110 -187h-119l-110 187l110 188h119zM372 309l110 -187h-119l-110 187l110 188h119z" />
    <glyph glyph-name="logicalnot" unicode="&#xac;" horiz-adv-x="550" 
d="M505 411v-240h-129v119h-331v121h460z" />
    <glyph glyph-name="registered" unicode="&#xae;" horiz-adv-x="789" 
d="M395 712q150 0 256 -106t106 -256t-106 -256t-256 -106t-256 106t-106 256t106 256t256 106zM395 22q134 0 229 96t95 232t-95 232t-229 96q-135 0 -230 -96t-95 -232t95 -232t230 -96zM550 412q0 -72 -55 -111l76 -136h-115l-53 110h-38v-110h-107v370h149
q61 0 102 -34.5t41 -88.5zM365 365h33q21 0 33 10t12 26q0 37 -45 37h-33v-73z" />
    <glyph glyph-name="macron" unicode="&#xaf;" horiz-adv-x="330" 
d="M20 669h290v-105h-290v105z" />
    <glyph glyph-name="degree" unicode="&#xb0;" horiz-adv-x="401" 
d="M201 480q-72 0 -120 48.5t-48 116.5q0 69 48 117t120 48t120 -48t48 -117t-47.5 -117t-120.5 -48zM201 585q26 0 42.5 17t16.5 43t-16.5 43t-42.5 17t-42.5 -17t-16.5 -43t16.5 -43t42.5 -17z" />
    <glyph glyph-name="plusminus" unicode="&#xb1;" horiz-adv-x="555" 
d="M503 502v-121h-165v-146h-121v146h-164v121h164v146h121v-146h165zM53 174h450v-121h-450v121z" />
    <glyph glyph-name="acute" unicode="&#xb4;" horiz-adv-x="275" 
d="M144 563l111 137h-155l-80 -137h124z" />
    <glyph glyph-name="uni00B5" unicode="&#xb5;" horiz-adv-x="617" 
d="M594 121v-121h-60q-75 0 -111 50q-47 -64 -145 -64q-52 0 -90 22v-208h-129v700h129v-290q0 -50 27 -77t72 -27q50 0 80 31t30 93v270h129v-347q0 -32 32 -32h36z" />
    <glyph glyph-name="paragraph" unicode="&#xb6;" horiz-adv-x="669" 
d="M623 587h-62v-787h-121v787h-79v-787h-121v470q-89 0 -152 63t-63 152t63 152t152 63h383v-113z" />
    <glyph glyph-name="periodcentered" unicode="&#xb7;" horiz-adv-x="268" 
d="M134 262q-35 0 -60 25t-25 60t25 60t60 25t60 -25t25 -60t-25 -60t-60 -25z" />
    <glyph glyph-name="cedilla" unicode="&#xb8;" horiz-adv-x="260" 
d="M170 -46q29 -7 49.5 -26.5t20.5 -51.5q0 -105 -220 -92v91q108 -7 108 20q0 20 -63 25v80h105v-46z" />
    <glyph glyph-name="guillemotright" unicode="&#xbb;" horiz-adv-x="545" 
d="M292 309l-110 -187h-119l110 187l-110 188h119zM482 309l-110 -187h-119l110 187l-110 188h119z" />
    <glyph glyph-name="onequarter" unicode="&#xbc;" horiz-adv-x="814" 
d="M110 300v292l-82 -23l-25 88l120 43h94v-400h-107zM607 700l-400 -700h-90l400 700h90zM798 64h-41v-64h-102v64h-187v98l129 238h114l-123 -238h67v69h102v-69h41v-98z" />
    <glyph glyph-name="onehalf" unicode="&#xbd;" horiz-adv-x="813" 
d="M110 300v292l-82 -23l-25 88l120 43h94v-400h-107zM607 700l-400 -700h-90l400 700h90zM780 97v-97h-299v70l150 149q35 33 35 61q0 16 -11 26t-30 10q-41 0 -62 -51l-87 50q42 99 150 99q64 0 106 -35.5t42 -90.5q0 -61 -68 -129l-65 -62h139z" />
    <glyph glyph-name="threequarters" unicode="&#xbe;" horiz-adv-x="895" 
d="M321 421q0 -65 -41 -100t-114 -35q-116 0 -156 89l90 52q17 -47 66 -47q48 0 48 41q0 18 -14 29t-37 11h-19l-40 58l69 84h-145v97h275v-79l-72 -86q43 -12 66.5 -41.5t23.5 -72.5zM688 700l-400 -700h-90l400 700h90zM879 64h-41v-64h-102v64h-187v98l129 238h114
l-123 -238h67v69h102v-69h41v-98z" />
    <glyph glyph-name="questiondown" unicode="&#xbf;" horiz-adv-x="553" 
d="M289 513q35 0 60 -25t25 -60t-25 -60t-60 -25t-60 25t-25 60t25 60t60 25zM358 265q0 -36 -17.5 -68.5t-42 -56.5t-49 -46t-42 -48t-17.5 -53q0 -35 24 -54t67 -19q84 0 119 89l118 -68q-30 -74 -95.5 -114.5t-146.5 -40.5q-91 0 -157.5 52.5t-66.5 144.5q0 42 17.5 78
t42 61.5t49 48t42 46.5t17.5 48h138z" />
    <glyph glyph-name="Agrave" unicode="&#xc0;" horiz-adv-x="668" 
d="M292 763l-111 137h155l80 -137h-124zM473 126h-279l-42 -126h-149l245 700h171l246 -700h-150zM430 255l-96 286l-96 -286h192z" />
    <glyph glyph-name="Aacute" unicode="&#xc1;" horiz-adv-x="668" 
d="M378 763h-124l80 137h155zM473 126h-279l-42 -126h-149l245 700h171l246 -700h-150zM430 255l-96 286l-96 -286h192z" />
    <glyph glyph-name="Acircumflex" unicode="&#xc2;" horiz-adv-x="668" 
d="M287 755h-128l106 145h131l106 -145h-128l-43 65zM473 126h-279l-42 -126h-149l245 700h171l246 -700h-150zM430 255l-96 286l-96 -286h192z" />
    <glyph glyph-name="Atilde" unicode="&#xc3;" horiz-adv-x="668" 
d="M321 784q-29 20 -41 16t-12 -40h-104q0 46 10.5 78.5t28.5 48.5t41.5 20.5t49.5 -2.5t52 -24q29 -20 40.5 -16t11.5 40h105q0 -57 -16.5 -93.5t-43 -48t-58 -6t-64.5 26.5zM473 126h-279l-42 -126h-149l245 700h171l246 -700h-150zM430 255l-96 286l-96 -286h192z" />
    <glyph glyph-name="Adieresis" unicode="&#xc4;" horiz-adv-x="668" 
d="M239 749q-28 0 -48 19.5t-20 47.5t20 48t48 20t47.5 -20t19.5 -48t-19.5 -47.5t-47.5 -19.5zM429 749q-28 0 -48 19.5t-20 47.5t20 48t48 20t47.5 -20t19.5 -48t-19.5 -47.5t-47.5 -19.5zM473 126h-279l-42 -126h-149l245 700h171l246 -700h-150zM430 255l-96 286
l-96 -286h192z" />
    <glyph glyph-name="Aring" unicode="&#xc5;" horiz-adv-x="668" 
d="M473 126h-279l-42 -126h-149l239 684q-34 34 -34 84q0 51 35.5 84.5t90.5 33.5q56 0 91 -33.5t35 -84.5q0 -52 -35 -85l240 -683h-150zM334 805q-18 0 -28.5 -10.5t-10.5 -26.5q0 -17 10.5 -27.5t28.5 -10.5q40 0 40 38q0 37 -40 37zM430 255l-96 286l-96 -286h192z" />
    <glyph glyph-name="AE" unicode="&#xc6;" horiz-adv-x="880" 
d="M848 132v-132h-398v126h-221l-74 -126h-155l414 700h429v-132h-259v-149h236v-130h-236v-157h264zM450 255v246l-145 -246h145z" />
    <glyph glyph-name="Ccedilla" unicode="&#xc7;" horiz-adv-x="726" 
d="M397 121q60 0 108.5 26.5t73.5 72.5l119 -69q-38 -64 -101.5 -106t-141.5 -55v-36q29 -7 49.5 -26.5t20.5 -51.5q0 -105 -220 -92v91q108 -7 108 20q0 20 -63 25v69q-140 16 -228.5 117.5t-88.5 243.5q0 155 103 259.5t261 104.5q95 0 175.5 -44.5t125.5 -120.5l-119 -69
q-26 47 -74 73.5t-108 26.5q-102 0 -164.5 -64t-62.5 -166q0 -101 62.5 -165t164.5 -64z" />
    <glyph glyph-name="Egrave" unicode="&#xc8;" horiz-adv-x="530" 
d="M237 763l-111 137h155l80 -137h-124zM498 132v-132h-433v700h428v-132h-290v-149h265v-130h-265v-157h295z" />
    <glyph glyph-name="Eacute" unicode="&#xc9;" horiz-adv-x="530" 
d="M323 763h-124l80 137h155zM498 132v-132h-433v700h428v-132h-290v-149h265v-130h-265v-157h295z" />
    <glyph glyph-name="Ecircumflex" unicode="&#xca;" horiz-adv-x="530" 
d="M232 755h-128l106 145h131l106 -145h-128l-43 65zM498 132v-132h-433v700h428v-132h-290v-149h265v-130h-265v-157h295z" />
    <glyph glyph-name="Edieresis" unicode="&#xcb;" horiz-adv-x="530" 
d="M184 749q-28 0 -48 19.5t-20 47.5t20 48t48 20t47.5 -20t19.5 -48t-19.5 -47.5t-47.5 -19.5zM374 749q-28 0 -48 19.5t-20 47.5t20 48t48 20t47.5 -20t19.5 -48t-19.5 -47.5t-47.5 -19.5zM498 132v-132h-433v700h428v-132h-290v-149h265v-130h-265v-157h295z" />
    <glyph glyph-name="Igrave" unicode="&#xcc;" horiz-adv-x="268" 
d="M136 900h-155l111 -137h124zM203 700v-700h-138v700h138z" />
    <glyph glyph-name="Iacute" unicode="&#xcd;" horiz-adv-x="268" 
d="M178 763l111 137h-155l-80 -137h124zM203 700v-700h-138v700h138z" />
    <glyph glyph-name="Icircumflex" unicode="&#xce;" horiz-adv-x="268" 
d="M87 755h-128l106 145h131l106 -145h-128l-43 65zM65 700h138v-700h-138v700z" />
    <glyph glyph-name="Idieresis" unicode="&#xcf;" horiz-adv-x="268" 
d="M39 749q-28 0 -48 19.5t-20 47.5t20 48t48 20t47.5 -20t19.5 -48t-19.5 -47.5t-47.5 -19.5zM229 749q-28 0 -48 19.5t-20 47.5t20 48t48 20t47.5 -20t19.5 -48t-19.5 -47.5t-47.5 -19.5zM203 700v-700h-138v700h138z" />
    <glyph glyph-name="Eth" unicode="&#xd0;" horiz-adv-x="748" 
d="M378 700q144 0 240.5 -101t96.5 -249t-96.5 -249t-240.5 -101h-278v281h-78v124h78v295h278zM378 132q91 0 148 60.5t57 157.5t-57 157.5t-148 60.5h-140v-163h159v-124h-159v-149h140z" />
    <glyph glyph-name="Ntilde" unicode="&#xd1;" horiz-adv-x="673" 
d="M159 760q0 46 10.5 78.5t28.5 48.5t41.5 20.5t49.5 -2.5t52 -24q29 -20 40.5 -16t11.5 40h105q0 -57 -16.5 -93.5t-43 -48t-58 -6t-64.5 26.5q-29 20 -41 16t-12 -40h-104zM608 700v-700h-105l-300 428v-428h-138v700h105l300 -427v427h138z" />
    <glyph glyph-name="Ograve" unicode="&#xd2;" horiz-adv-x="792" 
d="M398 908h-155l111 -137h124zM396 -14q-152 0 -257.5 105.5t-105.5 258.5t105.5 258.5t257.5 105.5t258 -105.5t106 -258.5t-106 -258.5t-258 -105.5zM396 121q96 0 161 64.5t65 164.5t-65 165t-161 65t-161 -65t-65 -165t65 -164.5t161 -64.5z" />
    <glyph glyph-name="Oacute" unicode="&#xd3;" horiz-adv-x="792" 
d="M440 771l111 137h-155l-80 -137h124zM396 -14q-152 0 -257.5 105.5t-105.5 258.5t105.5 258.5t257.5 105.5t258 -105.5t106 -258.5t-106 -258.5t-258 -105.5zM396 121q96 0 161 64.5t65 164.5t-65 165t-161 65t-161 -65t-65 -165t65 -164.5t161 -64.5z" />
    <glyph glyph-name="Ocircumflex" unicode="&#xd4;" horiz-adv-x="792" 
d="M349 763h-128l106 145h131l106 -145h-128l-43 65zM396 714q152 0 258 -105.5t106 -258.5t-106 -258.5t-258 -105.5t-257.5 105.5t-105.5 258.5t105.5 258.5t257.5 105.5zM396 121q96 0 161 64.5t65 164.5t-65 165t-161 65t-161 -65t-65 -165t65 -164.5t161 -64.5z" />
    <glyph glyph-name="Otilde" unicode="&#xd5;" horiz-adv-x="792" 
d="M226 768q0 46 10.5 78.5t28.5 48.5t41.5 20.5t49.5 -2.5t52 -24q29 -20 40.5 -16t11.5 40h105q0 -57 -16.5 -93.5t-43 -48t-58 -6t-64.5 26.5q-29 20 -41 16t-12 -40h-104zM396 -14q-152 0 -257.5 105.5t-105.5 258.5t105.5 258.5t257.5 105.5t258 -105.5t106 -258.5
t-106 -258.5t-258 -105.5zM396 121q96 0 161 64.5t65 164.5t-65 165t-161 65t-161 -65t-65 -165t65 -164.5t161 -64.5z" />
    <glyph glyph-name="Odieresis" unicode="&#xd6;" horiz-adv-x="792" 
d="M301 757q-28 0 -48 19.5t-20 47.5t20 48t48 20t47.5 -20t19.5 -48t-19.5 -47.5t-47.5 -19.5zM491 757q-28 0 -48 19.5t-20 47.5t20 48t48 20t47.5 -20t19.5 -48t-19.5 -47.5t-47.5 -19.5zM396 -14q-152 0 -257.5 105.5t-105.5 258.5t105.5 258.5t257.5 105.5t258 -105.5
t106 -258.5t-106 -258.5t-258 -105.5zM396 121q96 0 161 64.5t65 164.5t-65 165t-161 65t-161 -65t-65 -165t65 -164.5t161 -64.5z" />
    <glyph glyph-name="multiply" unicode="&#xd7;" horiz-adv-x="512" 
d="M341 350l121 -121l-86 -84l-120 120l-120 -120l-86 84l121 121l-121 121l86 84l120 -120l120 120l86 -84z" />
    <glyph glyph-name="Oslash" unicode="&#xd8;" horiz-adv-x="798" 
d="M664 605q102 -105 102 -255q0 -153 -106 -258.5t-258 -105.5q-111 0 -201 60l-47 -57l-68 40l55 66q-102 107 -102 255q0 153 105.5 258.5t257.5 105.5q110 0 202 -60l47 57l68 -39zM176 350q0 -89 52 -150l290 350q-54 30 -116 30q-96 0 -161 -65t-65 -165zM402 121
q96 0 161 64.5t65 164.5q0 88 -51 150l-290 -350q52 -29 115 -29z" />
    <glyph glyph-name="Ugrave" unicode="&#xd9;" horiz-adv-x="653" 
d="M328 900h-155l111 -137h124zM326 -14q-117 0 -192 66t-75 177v471h137v-460q0 -55 31.5 -87t98.5 -32t98.5 32t31.5 87v460h138v-471q0 -111 -75 -177t-193 -66z" />
    <glyph glyph-name="Uacute" unicode="&#xda;" horiz-adv-x="653" 
d="M370 763l111 137h-155l-80 -137h124zM326 -14q-117 0 -192 66t-75 177v471h137v-460q0 -55 31.5 -87t98.5 -32t98.5 32t31.5 87v460h138v-471q0 -111 -75 -177t-193 -66z" />
    <glyph glyph-name="Ucircumflex" unicode="&#xdb;" horiz-adv-x="653" 
d="M279 755h-128l106 145h131l106 -145h-128l-43 65zM594 700v-471q0 -111 -75 -177t-193 -66q-117 0 -192 66t-75 177v471h137v-460q0 -55 31.5 -87t98.5 -32t98.5 32t31.5 87v460h138z" />
    <glyph glyph-name="Udieresis" unicode="&#xdc;" horiz-adv-x="653" 
d="M231 749q-28 0 -48 19.5t-20 47.5t20 48t48 20t47.5 -20t19.5 -48t-19.5 -47.5t-47.5 -19.5zM421 749q-28 0 -48 19.5t-20 47.5t20 48t48 20t47.5 -20t19.5 -48t-19.5 -47.5t-47.5 -19.5zM326 -14q-117 0 -192 66t-75 177v471h137v-460q0 -55 31.5 -87t98.5 -32t98.5 32
t31.5 87v460h138v-471q0 -111 -75 -177t-193 -66z" />
    <glyph glyph-name="Yacute" unicode="&#xdd;" horiz-adv-x="621" 
d="M354 763h-124l80 137h155zM379 273v-273h-137v273l-239 427h156l152 -292l152 292h156z" />
    <glyph glyph-name="Thorn" unicode="&#xde;" horiz-adv-x="590" 
d="M330 585q98 0 166.5 -68.5t68.5 -166.5t-68.5 -166.5t-166.5 -68.5h-127v-115h-138v700h138v-115h127zM330 244q41 0 69.5 30.5t28.5 75.5t-28.5 75.5t-69.5 30.5h-127v-212h127z" />
    <glyph glyph-name="germandbls" unicode="&#xdf;" horiz-adv-x="537" 
d="M279 108q113 -11 113 59q0 28 -30 69.5t-59.5 83t-29.5 70.5q0 27 31.5 70t31.5 72q0 27 -18.5 45.5t-49.5 18.5q-35 0 -57.5 -22t-22.5 -65v-509h-129v508q0 94 58 150t156 56q88 0 140 -47.5t52 -114.5q0 -36 -15 -65.5t-30 -51t-15 -37.5q0 -19 18 -48t40 -56t40 -68
t18 -81q0 -77 -56.5 -120t-185.5 -31v114z" />
    <glyph glyph-name="agrave" unicode="&#xe0;" 
d="M267 563l-111 137h155l80 -137h-124zM568 500v-500h-129v59q-58 -73 -163 -73q-100 0 -171.5 76.5t-71.5 187.5t71.5 187.5t171.5 76.5q105 0 163 -73v59h129zM300 109q60 0 99.5 39.5t39.5 101.5t-39.5 101.5t-99.5 39.5t-99 -39.5t-39 -101.5t39 -101.5t99 -39.5z" />
    <glyph glyph-name="aacute" unicode="&#xe1;" 
d="M353 563h-124l80 137h155zM568 500v-500h-129v59q-58 -73 -163 -73q-100 0 -171.5 76.5t-71.5 187.5t71.5 187.5t171.5 76.5q105 0 163 -73v59h129zM300 109q60 0 99.5 39.5t39.5 101.5t-39.5 101.5t-99.5 39.5t-99 -39.5t-39 -101.5t39 -101.5t99 -39.5z" />
    <glyph glyph-name="acircumflex" unicode="&#xe2;" 
d="M262 555h-128l106 145h131l106 -145h-128l-43 65zM568 500v-500h-129v59q-58 -73 -163 -73q-100 0 -171.5 76.5t-71.5 187.5t71.5 187.5t171.5 76.5q105 0 163 -73v59h129zM300 109q60 0 99.5 39.5t39.5 101.5t-39.5 101.5t-99.5 39.5t-99 -39.5t-39 -101.5t39 -101.5
t99 -39.5z" />
    <glyph glyph-name="atilde" unicode="&#xe3;" 
d="M296 584q-29 20 -41 16t-12 -40h-104q0 46 10.5 78.5t28.5 48.5t41.5 20.5t49.5 -2.5t52 -24q29 -20 40.5 -16t11.5 40h105q0 -57 -16.5 -93.5t-43 -48t-58 -6t-64.5 26.5zM568 500v-500h-129v59q-58 -73 -163 -73q-100 0 -171.5 76.5t-71.5 187.5t71.5 187.5t171.5 76.5
q105 0 163 -73v59h129zM300 109q60 0 99.5 39.5t39.5 101.5t-39.5 101.5t-99.5 39.5t-99 -39.5t-39 -101.5t39 -101.5t99 -39.5z" />
    <glyph glyph-name="adieresis" unicode="&#xe4;" 
d="M214 549q-28 0 -48 19.5t-20 47.5t20 48t48 20t47.5 -20t19.5 -48t-19.5 -47.5t-47.5 -19.5zM404 549q-28 0 -48 19.5t-20 47.5t20 48t48 20t47.5 -20t19.5 -48t-19.5 -47.5t-47.5 -19.5zM568 500v-500h-129v59q-58 -73 -163 -73q-100 0 -171.5 76.5t-71.5 187.5
t71.5 187.5t171.5 76.5q105 0 163 -73v59h129zM300 109q60 0 99.5 39.5t39.5 101.5t-39.5 101.5t-99.5 39.5t-99 -39.5t-39 -101.5t39 -101.5t99 -39.5z" />
    <glyph glyph-name="aring" unicode="&#xe5;" 
d="M309 539q-55 0 -90.5 34t-35.5 85t35.5 84.5t90.5 33.5q56 0 91 -33.5t35 -84.5q0 -52 -35 -85.5t-91 -33.5zM309 695q-18 0 -28.5 -10.5t-10.5 -26.5q0 -17 10.5 -27.5t28.5 -10.5q40 0 40 38q0 37 -40 37zM568 500v-500h-129v59q-58 -73 -163 -73q-100 0 -171.5 76.5
t-71.5 187.5t71.5 187.5t171.5 76.5q105 0 163 -73v59h129zM300 109q60 0 99.5 39.5t39.5 101.5t-39.5 101.5t-99.5 39.5t-99 -39.5t-39 -101.5t39 -101.5t99 -39.5z" />
    <glyph glyph-name="ae" unicode="&#xe6;" horiz-adv-x="988" 
d="M575 197q14 -47 51 -70.5t89 -23.5q75 0 113 50l104 -60q-74 -107 -202 -107q-106 0 -170 77v-63h-121v59q-58 -73 -163 -73q-100 0 -171.5 76.5t-71.5 187.5t71.5 187.5t171.5 76.5q105 0 163 -73v59h121v-62q63 76 166 76q108 0 169.5 -75t61.5 -189q0 -25 -5 -53h-377
zM828 298q-11 51 -44.5 75.5t-78.5 24.5q-51 0 -85.5 -26t-46.5 -74h255zM300 109q60 0 99.5 39.5t39.5 101.5t-39.5 101.5t-99.5 39.5t-99 -39.5t-39 -101.5t39 -101.5t99 -39.5z" />
    <glyph glyph-name="ccedilla" unicode="&#xe7;" horiz-adv-x="536" 
d="M523 116q-26 -47 -70 -79.5t-98 -44.5v-38q29 -7 49.5 -26.5t20.5 -51.5q0 -105 -220 -92v91q108 -7 108 20q0 20 -63 25v70q-96 16 -156.5 88t-60.5 172q0 112 75.5 188t188.5 76q73 0 133 -35t91 -94l-111 -65q-15 31 -45.5 49t-68.5 18q-58 0 -96 -38.5t-38 -98.5
q0 -59 38 -97.5t96 -38.5q39 0 69.5 17.5t45.5 48.5z" />
    <glyph glyph-name="egrave" unicode="&#xe8;" horiz-adv-x="581" 
d="M249 567l-111 137h155l80 -137h-124zM168 197q26 -94 141 -94q74 0 112 50l104 -60q-74 -107 -218 -107q-124 0 -199 75t-75 189q0 113 74 188.5t190 75.5q110 0 181.5 -76t71.5 -188q0 -25 -5 -53h-377zM421 297q-11 51 -45.5 76t-78.5 25q-52 0 -86 -26.5t-45 -74.5
h255z" />
    <glyph glyph-name="eacute" unicode="&#xe9;" horiz-adv-x="581" 
d="M335 567h-124l80 137h155zM168 197q26 -94 141 -94q74 0 112 50l104 -60q-74 -107 -218 -107q-124 0 -199 75t-75 189q0 113 74 188.5t190 75.5q110 0 181.5 -76t71.5 -188q0 -25 -5 -53h-377zM421 297q-11 51 -45.5 76t-78.5 25q-52 0 -86 -26.5t-45 -74.5h255z" />
    <glyph glyph-name="ecircumflex" unicode="&#xea;" horiz-adv-x="581" 
d="M244 559h-128l106 145h131l106 -145h-128l-43 65zM168 197q26 -94 141 -94q74 0 112 50l104 -60q-74 -107 -218 -107q-124 0 -199 75t-75 189q0 113 74 188.5t190 75.5q110 0 181.5 -76t71.5 -188q0 -25 -5 -53h-377zM421 297q-11 51 -45.5 76t-78.5 25q-52 0 -86 -26.5
t-45 -74.5h255z" />
    <glyph glyph-name="edieresis" unicode="&#xeb;" horiz-adv-x="581" 
d="M196 553q-28 0 -48 19.5t-20 47.5t20 48t48 20t47.5 -20t19.5 -48t-19.5 -47.5t-47.5 -19.5zM386 553q-28 0 -48 19.5t-20 47.5t20 48t48 20t47.5 -20t19.5 -48t-19.5 -47.5t-47.5 -19.5zM168 197q26 -94 141 -94q74 0 112 50l104 -60q-74 -107 -218 -107q-124 0 -199 75
t-75 189q0 113 74 188.5t190 75.5q110 0 181.5 -76t71.5 -188q0 -25 -5 -53h-377zM421 297q-11 51 -45.5 76t-78.5 25q-52 0 -86 -26.5t-45 -74.5h255z" />
    <glyph glyph-name="igrave" unicode="&#xec;" horiz-adv-x="247" 
d="M141 700h-148l67 -145h124zM59 0v500h129v-500h-129z" />
    <glyph glyph-name="iacute" unicode="&#xed;" horiz-adv-x="247" 
d="M184 555l66 145h-148l-42 -145h124zM59 500h129v-500h-129v500z" />
    <glyph glyph-name="icircumflex" unicode="&#xee;" horiz-adv-x="247" 
d="M92 555h-128l94 145h131l93 -145h-127l-31 54zM59 500h129v-500h-129v500z" />
    <glyph glyph-name="idieresis" unicode="&#xef;" horiz-adv-x="247" 
d="M38 553q-28 0 -47.5 19.5t-19.5 47.5t19.5 48t47.5 20t48 -20t20 -48t-20 -47.5t-48 -19.5zM208 553q-28 0 -47.5 19.5t-19.5 47.5t19.5 48t47.5 20t48 -20t20 -48t-20 -47.5t-48 -19.5zM59 500h129v-500h-129v500z" />
    <glyph glyph-name="eth" unicode="&#xf0;" horiz-adv-x="571" 
d="M493 370q46 -63 46 -140q0 -110 -74 -176t-179 -66t-179 66t-74 176q0 99 71.5 165.5t171.5 59.5l-58 80l-127 -63v90l79 39l-72 99h149l33 -44l118 58v-90l-69 -34zM286 109q54 0 89 32.5t35 88.5q0 40 -21 70q-37 47 -103 47q-55 0 -89.5 -32t-34.5 -85
q0 -56 34.5 -88.5t89.5 -32.5z" />
    <glyph glyph-name="ntilde" unicode="&#xf1;" horiz-adv-x="577" 
d="M285 592q-29 20 -41 16t-12 -40h-104q0 46 10.5 78.5t28.5 48.5t41.5 20.5t49.5 -2.5t52 -24q29 -20 40.5 -16t11.5 40h105q0 -57 -16.5 -93.5t-43 -48t-58 -6t-64.5 26.5zM337 514q82 0 135.5 -55t53.5 -152v-307h-129v291q0 50 -27 76.5t-72 26.5q-50 0 -80 -31
t-30 -93v-270h-129v500h129v-56q47 70 149 70z" />
    <glyph glyph-name="ograve" unicode="&#xf2;" horiz-adv-x="594" 
d="M299 708h-155l111 -137h124zM297 -14q-111 0 -187.5 76.5t-76.5 187.5t76.5 187.5t187.5 76.5t188 -76.5t77 -187.5t-77 -187.5t-188 -76.5zM297 112q58 0 97 39t39 99t-39 99t-97 39t-96.5 -39t-38.5 -99t38.5 -99t96.5 -39z" />
    <glyph glyph-name="oacute" unicode="&#xf3;" horiz-adv-x="594" 
d="M341 571l111 137h-155l-80 -137h124zM297 -14q-111 0 -187.5 76.5t-76.5 187.5t76.5 187.5t187.5 76.5t188 -76.5t77 -187.5t-77 -187.5t-188 -76.5zM297 112q58 0 97 39t39 99t-39 99t-97 39t-96.5 -39t-38.5 -99t38.5 -99t96.5 -39z" />
    <glyph glyph-name="ocircumflex" unicode="&#xf4;" horiz-adv-x="594" 
d="M250 563h-128l106 145h131l106 -145h-128l-43 65zM297 514q111 0 188 -76.5t77 -187.5t-77 -187.5t-188 -76.5t-187.5 76.5t-76.5 187.5t76.5 187.5t187.5 76.5zM297 112q58 0 97 39t39 99t-39 99t-97 39t-96.5 -39t-38.5 -99t38.5 -99t96.5 -39z" />
    <glyph glyph-name="otilde" unicode="&#xf5;" horiz-adv-x="594" 
d="M127 568q0 46 10.5 78.5t28.5 48.5t41.5 20.5t49.5 -2.5t52 -24q29 -20 40.5 -16t11.5 40h105q0 -57 -16.5 -93.5t-43 -48t-58 -6t-64.5 26.5q-29 20 -41 16t-12 -40h-104zM297 -14q-111 0 -187.5 76.5t-76.5 187.5t76.5 187.5t187.5 76.5t188 -76.5t77 -187.5
t-77 -187.5t-188 -76.5zM297 112q58 0 97 39t39 99t-39 99t-97 39t-96.5 -39t-38.5 -99t38.5 -99t96.5 -39z" />
    <glyph glyph-name="odieresis" unicode="&#xf6;" horiz-adv-x="594" 
d="M202 557q-28 0 -48 19.5t-20 47.5t20 48t48 20t47.5 -20t19.5 -48t-19.5 -47.5t-47.5 -19.5zM392 557q-28 0 -48 19.5t-20 47.5t20 48t48 20t47.5 -20t19.5 -48t-19.5 -47.5t-47.5 -19.5zM297 -14q-111 0 -187.5 76.5t-76.5 187.5t76.5 187.5t187.5 76.5t188 -76.5
t77 -187.5t-77 -187.5t-188 -76.5zM297 112q58 0 97 39t39 99t-39 99t-97 39t-96.5 -39t-38.5 -99t38.5 -99t96.5 -39z" />
    <glyph glyph-name="divide" unicode="&#xf7;" horiz-adv-x="565" 
d="M283 463q-35 0 -58.5 23.5t-23.5 58.5q0 34 23.5 57.5t58.5 23.5t58 -23t23 -58t-23.5 -58.5t-57.5 -23.5zM45 411h475v-121h-475v121zM283 74q-35 0 -58.5 24t-23.5 58t23.5 57.5t58.5 23.5t58 -23.5t23 -57.5q0 -35 -23.5 -58.5t-57.5 -23.5z" />
    <glyph glyph-name="oslash" unicode="&#xf8;" horiz-adv-x="594" 
d="M491 431q71 -76 71 -181q0 -111 -77 -187.5t-188 -76.5q-81 0 -145 42l-32 -37l-55 32l39 46q-71 74 -71 181q0 111 76.5 187.5t187.5 76.5q79 0 146 -43l32 38l55 -32zM162 250q0 -47 25 -83l174 206q-29 15 -64 15q-58 0 -96.5 -39t-38.5 -99zM297 112q58 0 97 39
t39 99q0 48 -25 82l-174 -205q28 -15 63 -15z" />
    <glyph glyph-name="ugrave" unicode="&#xf9;" horiz-adv-x="577" 
d="M242 563l-111 137h155l80 -137h-124zM518 500v-500h-129v56q-47 -70 -149 -70q-82 0 -135.5 55t-53.5 152v307h129v-291q0 -50 27 -76.5t72 -26.5q50 0 80 31t30 93v270h129z" />
    <glyph glyph-name="uacute" unicode="&#xfa;" horiz-adv-x="577" 
d="M328 563h-124l80 137h155zM518 500v-500h-129v56q-47 -70 -149 -70q-82 0 -135.5 55t-53.5 152v307h129v-291q0 -50 27 -76.5t72 -26.5q50 0 80 31t30 93v270h129z" />
    <glyph glyph-name="ucircumflex" unicode="&#xfb;" horiz-adv-x="577" 
d="M237 555h-128l106 145h131l106 -145h-128l-43 65zM518 500v-500h-129v56q-47 -70 -149 -70q-82 0 -135.5 55t-53.5 152v307h129v-291q0 -50 27 -76.5t72 -26.5q50 0 80 31t30 93v270h129z" />
    <glyph glyph-name="udieresis" unicode="&#xfc;" horiz-adv-x="577" 
d="M189 549q-28 0 -48 19.5t-20 47.5t20 48t48 20t47.5 -20t19.5 -48t-19.5 -47.5t-47.5 -19.5zM379 549q-28 0 -48 19.5t-20 47.5t20 48t48 20t47.5 -20t19.5 -48t-19.5 -47.5t-47.5 -19.5zM518 500v-500h-129v56q-47 -70 -149 -70q-82 0 -135.5 55t-53.5 152v307h129v-291
q0 -50 27 -76.5t72 -26.5q50 0 80 31t30 93v270h129z" />
    <glyph glyph-name="yacute" unicode="&#xfd;" horiz-adv-x="525" 
d="M307 563h-124l80 137h155zM523 500l-182 -500q-39 -108 -103.5 -156.5t-160.5 -43.5v120q52 -1 82.5 22t48.5 74l-205 484h141l130 -336l111 336h138z" />
    <glyph glyph-name="thorn" unicode="&#xfe;" 
d="M350 514q101 0 172.5 -76.5t71.5 -187.5t-71.5 -187.5t-172.5 -76.5q-105 0 -162 73v-259h-129v900h129v-259q57 73 162 73zM326 109q60 0 99.5 39.5t39.5 101.5t-39.5 101.5t-99.5 39.5t-99 -39.5t-39 -101.5t39 -101.5t99 -39.5z" />
    <glyph glyph-name="ydieresis" unicode="&#xff;" horiz-adv-x="525" 
d="M168 549q-28 0 -48 19.5t-20 47.5t20 48t48 20t47.5 -20t19.5 -48t-19.5 -47.5t-47.5 -19.5zM358 549q-28 0 -48 19.5t-20 47.5t20 48t48 20t47.5 -20t19.5 -48t-19.5 -47.5t-47.5 -19.5zM523 500l-182 -500q-39 -108 -103.5 -156.5t-160.5 -43.5v120q52 -1 82.5 22
t48.5 74l-205 484h141l130 -336l111 336h138z" />
    <glyph glyph-name="Amacron" unicode="&#x100;" horiz-adv-x="668" 
d="M479 764h-290v105h290v-105zM473 126h-279l-42 -126h-149l245 700h171l246 -700h-150zM430 255l-96 286l-96 -286h192z" />
    <glyph glyph-name="amacron" unicode="&#x101;" 
d="M454 564h-290v105h290v-105zM568 500v-500h-129v59q-58 -73 -163 -73q-100 0 -171.5 76.5t-71.5 187.5t71.5 187.5t171.5 76.5q105 0 163 -73v59h129zM300 109q60 0 99.5 39.5t39.5 101.5t-39.5 101.5t-99.5 39.5t-99 -39.5t-39 -101.5t39 -101.5t99 -39.5z" />
    <glyph glyph-name="Abreve" unicode="&#x102;" horiz-adv-x="668" 
d="M334 747q-79 0 -122.5 38t-43.5 107h115q0 -52 51 -52q52 0 52 52h115q0 -69 -43.5 -107t-123.5 -38zM473 126h-279l-42 -126h-149l245 700h171l246 -700h-150zM430 255l-96 286l-96 -286h192z" />
    <glyph glyph-name="abreve" unicode="&#x103;" 
d="M309 547q-79 0 -122.5 38t-43.5 107h115q0 -52 51 -52q52 0 52 52h115q0 -69 -43.5 -107t-123.5 -38zM568 500v-500h-129v59q-58 -73 -163 -73q-100 0 -171.5 76.5t-71.5 187.5t71.5 187.5t171.5 76.5q105 0 163 -73v59h129zM300 109q60 0 99.5 39.5t39.5 101.5
t-39.5 101.5t-99.5 39.5t-99 -39.5t-39 -101.5t39 -101.5t99 -39.5z" />
    <glyph glyph-name="Aogonek" unicode="&#x104;" horiz-adv-x="668" 
d="M637 -122q12 -1 28 5v-81q-38 -16 -81 -16q-42 0 -68.5 22.5t-26.5 65.5q0 57 66 126h-40l-42 126h-279l-42 -126h-149l245 700h171l246 -700q-53 -56 -53 -95q0 -27 25 -27zM430 255l-96 286l-96 -286h192z" />
    <glyph glyph-name="aogonek" unicode="&#x105;" 
d="M568 0q-53 -55 -53 -95q-2 -27 25 -27q11 -1 28 5v-81q-40 -16 -81 -16q-43 0 -69.5 22.5t-26.5 65.5q0 56 64 126h-16v59q-58 -73 -163 -73q-100 0 -171.5 76.5t-71.5 187.5t71.5 187.5t171.5 76.5q105 0 163 -73v59h129v-500zM300 109q60 0 99.5 39.5t39.5 101.5
t-39.5 101.5t-99.5 39.5t-99 -39.5t-39 -101.5t39 -101.5t99 -39.5z" />
    <glyph glyph-name="Cacute" unicode="&#x106;" horiz-adv-x="726" 
d="M441 771l111 137h-155l-80 -137h124zM397 -14q-158 0 -261 105t-103 259q0 155 103 259.5t261 104.5q95 0 175.5 -44.5t125.5 -120.5l-119 -69q-26 47 -74 73.5t-108 26.5q-102 0 -164.5 -64t-62.5 -166q0 -101 62.5 -165t164.5 -64q60 0 108.5 26.5t73.5 72.5l119 -69
q-45 -76 -125 -120.5t-176 -44.5z" />
    <glyph glyph-name="cacute" unicode="&#x107;" horiz-adv-x="536" 
d="M340 563l111 137h-155l-80 -137h124zM297 -14q-113 0 -188.5 76t-75.5 188t75.5 188t188.5 76q73 0 133 -35t91 -94l-111 -65q-15 31 -45.5 49t-68.5 18q-58 0 -96 -38.5t-38 -98.5q0 -59 38 -97.5t96 -38.5q39 0 69.5 17.5t45.5 48.5l112 -64q-33 -59 -93 -94.5
t-133 -35.5z" />
    <glyph glyph-name="Cdotaccent" unicode="&#x10a;" horiz-adv-x="726" 
d="M397 759q-32 0 -55 23t-23 55t23 54.5t55 22.5q31 0 54 -23t23 -54q0 -32 -23 -55t-54 -23zM397 -14q-158 0 -261 105t-103 259q0 155 103 259.5t261 104.5q95 0 175.5 -44.5t125.5 -120.5l-119 -69q-26 47 -74 73.5t-108 26.5q-102 0 -164.5 -64t-62.5 -166
q0 -101 62.5 -165t164.5 -64q60 0 108.5 26.5t73.5 72.5l119 -69q-45 -76 -125 -120.5t-176 -44.5z" />
    <glyph glyph-name="cdotaccent" unicode="&#x10b;" horiz-adv-x="536" 
d="M296 551q-32 0 -55 23t-23 55t23 54.5t55 22.5t54.5 -23t22.5 -54q0 -32 -23 -55t-54 -23zM297 -14q-113 0 -188.5 76t-75.5 188t75.5 188t188.5 76q73 0 133 -35t91 -94l-111 -65q-15 31 -45.5 49t-68.5 18q-58 0 -96 -38.5t-38 -98.5q0 -59 38 -97.5t96 -38.5
q39 0 69.5 17.5t45.5 48.5l112 -64q-33 -59 -93 -94.5t-133 -35.5z" />
    <glyph glyph-name="Ccaron" unicode="&#x10c;" horiz-adv-x="726" 
d="M222 908h128l44 -65l43 65h128l-106 -145h-131zM397 121q60 0 108.5 26.5t73.5 72.5l119 -69q-45 -76 -125 -120.5t-176 -44.5q-158 0 -261 105t-103 259q0 155 103 259.5t261 104.5q95 0 175.5 -44.5t125.5 -120.5l-119 -69q-26 47 -74 73.5t-108 26.5
q-102 0 -164.5 -64t-62.5 -166q0 -101 62.5 -165t164.5 -64z" />
    <glyph glyph-name="ccaron" unicode="&#x10d;" horiz-adv-x="536" 
d="M121 700h128l44 -65l43 65h128l-106 -145h-131zM523 116q-33 -59 -93 -94.5t-133 -35.5q-113 0 -188.5 76t-75.5 188t75.5 188t188.5 76q73 0 133 -35t91 -94l-111 -65q-15 31 -45.5 49t-68.5 18q-58 0 -96 -38.5t-38 -98.5q0 -59 38 -97.5t96 -38.5q39 0 69.5 17.5
t45.5 48.5z" />
    <glyph glyph-name="Dcaron" unicode="&#x10e;" horiz-adv-x="713" 
d="M160 900h128l44 -65l43 65h128l-106 -145h-131zM343 700q144 0 240.5 -101t96.5 -249t-96.5 -249t-240.5 -101h-278v700h278zM343 132q91 0 148 60.5t57 157.5t-57 157.5t-148 60.5h-140v-436h140z" />
    <glyph glyph-name="dcaron" unicode="&#x10f;" horiz-adv-x="735" 
d="M438 700h129v-700h-129v59q-57 -73 -162 -73q-101 0 -172.5 76.5t-71.5 187.5t71.5 187.5t172.5 76.5q105 0 162 -73v259zM745 700l-30 -200h-101l10 200h121zM300 109q60 0 99 39.5t39 101.5t-39 101.5t-99 39.5t-99.5 -39.5t-39.5 -101.5t39.5 -101.5t99.5 -39.5z" />
    <glyph glyph-name="Dcroat" unicode="&#x110;" horiz-adv-x="748" 
d="M378 700q144 0 240.5 -101t96.5 -249t-96.5 -249t-240.5 -101h-278v281h-78v124h78v295h278zM378 132q91 0 148 60.5t57 157.5t-57 157.5t-148 60.5h-140v-163h159v-124h-159v-149h140z" />
    <glyph glyph-name="dcroat" unicode="&#x111;" horiz-adv-x="633" 
d="M630 554h-62v-554h-129v59q-58 -73 -163 -73q-100 0 -171.5 76.5t-71.5 187.5t71.5 187.5t171.5 76.5q105 0 163 -73v113h-151v84h151v62h129v-62h62v-84zM300 109q60 0 99.5 39.5t39.5 101.5t-39.5 101.5t-99.5 39.5t-99 -39.5t-39 -101.5t39 -101.5t99 -39.5z" />
    <glyph glyph-name="Emacron" unicode="&#x112;" horiz-adv-x="530" 
d="M424 764h-290v105h290v-105zM498 132v-132h-433v700h428v-132h-290v-149h265v-130h-265v-157h295z" />
    <glyph glyph-name="emacron" unicode="&#x113;" horiz-adv-x="581" 
d="M436 568h-290v105h290v-105zM168 197q26 -94 141 -94q74 0 112 50l104 -60q-74 -107 -218 -107q-124 0 -199 75t-75 189q0 113 74 188.5t190 75.5q110 0 181.5 -76t71.5 -188q0 -25 -5 -53h-377zM421 297q-11 51 -45.5 76t-78.5 25q-52 0 -86 -26.5t-45 -74.5h255z" />
    <glyph glyph-name="Edotaccent" unicode="&#x116;" horiz-adv-x="530" 
d="M279 751q-32 0 -55 23t-23 55t23 54.5t55 22.5q31 0 54 -23t23 -54q0 -32 -23 -55t-54 -23zM498 132v-132h-433v700h428v-132h-290v-149h265v-130h-265v-157h295z" />
    <glyph glyph-name="edotaccent" unicode="&#x117;" horiz-adv-x="581" 
d="M291 555q-32 0 -55 23t-23 55t23 54.5t55 22.5q31 0 54 -23t23 -54q0 -32 -23 -55t-54 -23zM168 197q26 -94 141 -94q74 0 112 50l104 -60q-74 -107 -218 -107q-124 0 -199 75t-75 189q0 113 74 188.5t190 75.5q110 0 181.5 -76t71.5 -188q0 -25 -5 -53h-377zM421 297
q-11 51 -45.5 76t-78.5 25q-52 0 -86 -26.5t-45 -74.5h255z" />
    <glyph glyph-name="Eogonek" unicode="&#x118;" horiz-adv-x="530" 
d="M498 132v-132h-1q-52 -55 -52 -95q-2 -27 25 -27q11 -1 27 5v-81q-38 -16 -80 -16q-43 0 -69.5 22.5t-26.5 65.5q0 57 66 126h-322v700h428v-132h-290v-149h265v-130h-265v-157h295z" />
    <glyph glyph-name="eogonek" unicode="&#x119;" horiz-adv-x="581" 
d="M168 197q26 -94 141 -94q74 0 112 50l104 -60q-13 -19 -37 -43q-84 -90 -84 -145q0 -27 25 -27q12 -1 28 5v-81q-40 -16 -81 -16q-43 0 -69 22.5t-26 65.5q0 59 65 114q-26 -2 -39 -2q-124 0 -199 75t-75 189q0 113 74 188.5t190 75.5q110 0 181.5 -76t71.5 -188
q0 -25 -5 -53h-377zM421 297q-11 51 -45.5 76t-78.5 25q-52 0 -86 -26.5t-45 -74.5h255z" />
    <glyph glyph-name="Ecaron" unicode="&#x11a;" horiz-adv-x="530" 
d="M104 900h128l44 -65l43 65h128l-106 -145h-131zM498 132v-132h-433v700h428v-132h-290v-149h265v-130h-265v-157h295z" />
    <glyph glyph-name="ecaron" unicode="&#x11b;" horiz-adv-x="581" 
d="M116 704h128l44 -65l43 65h128l-106 -145h-131zM168 197q26 -94 141 -94q74 0 112 50l104 -60q-74 -107 -218 -107q-124 0 -199 75t-75 189q0 113 74 188.5t190 75.5q110 0 181.5 -76t71.5 -188q0 -25 -5 -53h-377zM421 297q-11 51 -45.5 76t-78.5 25q-52 0 -86 -26.5
t-45 -74.5h255z" />
    <glyph glyph-name="Gbreve" unicode="&#x11e;" horiz-adv-x="785" 
d="M397 755q-79 0 -122.5 38t-43.5 107h115q0 -52 51 -52q52 0 52 52h115q0 -69 -43.5 -107t-123.5 -38zM752 322q0 -150 -96 -243t-248 -93q-162 0 -268.5 105.5t-106.5 257.5q0 153 105.5 259t261.5 106q98 0 179 -44.5t126 -118.5l-118 -68q-25 43 -75.5 70t-112.5 27
q-100 0 -164.5 -65.5t-64.5 -165.5q0 -99 65.5 -163.5t173.5 -64.5q80 0 132.5 35.5t71.5 97.5h-212v122h351v-54z" />
    <glyph glyph-name="gbreve" unicode="&#x11f;" 
d="M297 555q-79 0 -122.5 38t-43.5 107h115q0 -52 51 -52q52 0 52 52h115q0 -69 -43.5 -107t-123.5 -38zM568 500v-476q0 -116 -76.5 -177t-184.5 -61q-81 0 -142.5 31t-94.5 91l110 63q38 -70 131 -70q61 0 96 32t35 91v54q-57 -76 -160 -76q-106 0 -177.5 74.5
t-71.5 181.5q0 106 72 181t177 75q103 0 160 -76v62h126zM302 121q61 0 100.5 38.5t39.5 98.5q0 59 -39.5 97.5t-100.5 38.5t-100.5 -38.5t-39.5 -97.5q0 -60 39.5 -98.5t100.5 -38.5z" />
    <glyph glyph-name="Gdotaccent" unicode="&#x120;" horiz-adv-x="785" 
d="M397 759q-32 0 -55 23t-23 55t23 54.5t55 22.5q31 0 54 -23t23 -54q0 -32 -23 -55t-54 -23zM752 322q0 -150 -96 -243t-248 -93q-162 0 -268.5 105.5t-106.5 257.5q0 153 105.5 259t261.5 106q98 0 179 -44.5t126 -118.5l-118 -68q-25 43 -75.5 70t-112.5 27
q-100 0 -164.5 -65.5t-64.5 -165.5q0 -99 65.5 -163.5t173.5 -64.5q80 0 132.5 35.5t71.5 97.5h-212v122h351v-54z" />
    <glyph glyph-name="gdotaccent" unicode="&#x121;" 
d="M297 559q-32 0 -55 23t-23 55t23 54.5t55 22.5q31 0 54 -23t23 -54q0 -32 -23 -55t-54 -23zM568 500v-476q0 -116 -76.5 -177t-184.5 -61q-81 0 -142.5 31t-94.5 91l110 63q38 -70 131 -70q61 0 96 32t35 91v54q-57 -76 -160 -76q-106 0 -177.5 74.5t-71.5 181.5
q0 106 72 181t177 75q103 0 160 -76v62h126zM302 121q61 0 100.5 38.5t39.5 98.5q0 59 -39.5 97.5t-100.5 38.5t-100.5 -38.5t-39.5 -97.5q0 -60 39.5 -98.5t100.5 -38.5z" />
    <glyph glyph-name="uni0122" unicode="&#x122;" horiz-adv-x="785" 
d="M752 322q0 -150 -96 -243t-248 -93q-162 0 -268.5 105.5t-106.5 257.5q0 153 105.5 259t261.5 106q98 0 179 -44.5t126 -118.5l-118 -68q-25 43 -75.5 70t-112.5 27q-100 0 -164.5 -65.5t-64.5 -165.5q0 -99 65.5 -163.5t173.5 -64.5q80 0 132.5 35.5t71.5 97.5h-212v122
h351v-54zM351 -63h122l-30 -200h-102z" />
    <glyph glyph-name="uni0123" unicode="&#x123;" 
d="M351 583h-122l30 200h102zM568 500v-476q0 -116 -76.5 -177t-184.5 -61q-81 0 -142.5 31t-94.5 91l110 63q38 -70 131 -70q61 0 96 32t35 91v54q-57 -76 -160 -76q-106 0 -177.5 74.5t-71.5 181.5q0 106 72 181t177 75q103 0 160 -76v62h126zM302 121q61 0 100.5 38.5
t39.5 98.5q0 59 -39.5 97.5t-100.5 38.5t-100.5 -38.5t-39.5 -97.5q0 -60 39.5 -98.5t100.5 -38.5z" />
    <glyph glyph-name="Hbar" unicode="&#x126;" horiz-adv-x="708" 
d="M683 501h-62v-501h-137v272h-260v-272h-138v501h-61v101h61v98h138v-98h260v98h137v-98h62v-101zM484 501h-260v-97h260v97z" />
    <glyph glyph-name="hbar" unicode="&#x127;" horiz-adv-x="583" 
d="M343 514q83 0 136.5 -55t53.5 -152v-307h-129v291q0 50 -27.5 76.5t-72.5 26.5q-50 0 -80 -31t-30 -93v-270h-129v554h-62v84h62v62h129v-62h141v-84h-141v-111q46 71 149 71z" />
    <glyph glyph-name="Imacron" unicode="&#x12a;" horiz-adv-x="268" 
d="M-11 869h290v-105h-290v105zM203 700v-700h-138v700h138z" />
    <glyph glyph-name="imacron" unicode="&#x12b;" horiz-adv-x="247" 
d="M8 676h230v-112h-230v112zM59 500h129v-500h-129v500z" />
    <glyph glyph-name="Iogonek" unicode="&#x12e;" horiz-adv-x="268" 
d="M194 -122q11 -1 28 5v-81q-40 -16 -81 -16q-43 0 -69.5 22.5t-26.5 65.5q0 56 46 126h-26v700h138v-700q-34 -56 -34 -95q-2 -27 25 -27z" />
    <glyph glyph-name="iogonek" unicode="&#x12f;" horiz-adv-x="247" 
d="M123 560q-32 0 -55.5 23.5t-23.5 55.5t23.5 56t55.5 24q33 0 56.5 -24t23.5 -56t-23.5 -55.5t-56.5 -23.5zM179 -122q11 -1 27 5v-81q-38 -16 -80 -16q-43 0 -69.5 24t-26.5 66q0 53 43 124h-14v500h129v-500q-34 -55 -34 -92q-2 -30 25 -30z" />
    <glyph glyph-name="Idotaccent" unicode="&#x130;" horiz-adv-x="268" 
d="M134 751q-32 0 -55 23t-23 55t23 54.5t55 22.5t54.5 -23t22.5 -54q0 -32 -23 -55t-54 -23zM203 700v-700h-138v700h138z" />
    <glyph glyph-name="dotlessi" unicode="&#x131;" horiz-adv-x="247" 
d="M59 500h129v-500h-129v500z" />
    <glyph glyph-name="uni0136" unicode="&#x136;" horiz-adv-x="615" 
d="M612 0h-159l-250 328v-328h-138v700h138v-309l240 309h159l-259 -340zM252 -63h122l-30 -200h-102z" />
    <glyph glyph-name="uni0137" unicode="&#x137;" horiz-adv-x="525" 
d="M520 0h-150l-182 227v-227h-129v700h129v-420l172 220h154l-201 -247zM225 -63h122l-30 -200h-102z" />
    <glyph glyph-name="Lacute" unicode="&#x139;" horiz-adv-x="483" 
d="M191 763h-124l80 137h155zM470 132v-132h-405v700h138v-568h267z" />
    <glyph glyph-name="lacute" unicode="&#x13a;" horiz-adv-x="247" 
d="M181 763l111 137h-155l-80 -137h124zM59 730h129v-730h-129v730z" />
    <glyph glyph-name="uni013B" unicode="&#x13b;" horiz-adv-x="483" 
d="M470 132v-132h-405v700h138v-568h267zM219 -63h122l-30 -200h-102z" />
    <glyph glyph-name="uni013C" unicode="&#x13c;" horiz-adv-x="247" 
d="M59 730h129v-730h-129v730zM187 -63h-122l-10 -200h102z" />
    <glyph glyph-name="Lcaron" unicode="&#x13d;" horiz-adv-x="483" 
d="M470 132v-132h-405v700h138v-568h267zM376 515h-109l10 185h129z" />
    <glyph glyph-name="lcaron" unicode="&#x13e;" horiz-adv-x="354" 
d="M59 730h129v-730h-129v730zM364 730h-122l-10 -200h102z" />
    <glyph glyph-name="Lslash" unicode="&#x141;" horiz-adv-x="503" 
d="M490 132v-132h-405v211l-60 -36v138l60 36v351h138v-269l132 78v-138l-132 -78v-161h267z" />
    <glyph glyph-name="lslash" unicode="&#x142;" horiz-adv-x="263" 
d="M250 367l-54 -37v-330h-129v242l-54 -37v123l54 37v365h129v-277l54 37v-123z" />
    <glyph glyph-name="Nacute" unicode="&#x143;" horiz-adv-x="673" 
d="M373 763l111 137h-155l-80 -137h124zM608 700v-700h-105l-300 428v-428h-138v700h105l300 -427v427h138z" />
    <glyph glyph-name="nacute" unicode="&#x144;" horiz-adv-x="577" 
d="M342 571h-124l80 137h155zM337 514q82 0 135.5 -55t53.5 -152v-307h-129v291q0 50 -27 76.5t-72 26.5q-50 0 -80 -31t-30 -93v-270h-129v500h129v-56q47 70 149 70z" />
    <glyph glyph-name="uni0145" unicode="&#x145;" horiz-adv-x="673" 
d="M608 700v-700h-105l-300 428v-428h-138v700h105l300 -427v427h138zM403 -63h-122l-10 -200h102z" />
    <glyph glyph-name="uni0146" unicode="&#x146;" horiz-adv-x="577" 
d="M337 514q82 0 135.5 -55t53.5 -152v-307h-129v291q0 50 -27 76.5t-72 26.5q-50 0 -80 -31t-30 -93v-270h-129v500h129v-56q47 70 149 70zM238 -63h122l-30 -200h-102z" />
    <glyph glyph-name="Ncaron" unicode="&#x147;" horiz-adv-x="673" 
d="M154 900h128l44 -65l43 65h128l-106 -145h-131zM608 700v-700h-105l-300 428v-428h-138v700h105l300 -427v427h138z" />
    <glyph glyph-name="ncaron" unicode="&#x148;" horiz-adv-x="577" 
d="M123 708h128l44 -65l43 65h128l-106 -145h-131zM337 514q82 0 135.5 -55t53.5 -152v-307h-129v291q0 50 -27 76.5t-72 26.5q-50 0 -80 -31t-30 -93v-270h-129v500h129v-56q47 70 149 70z" />
    <glyph glyph-name="Eng" unicode="&#x14a;" horiz-adv-x="673" 
d="M608 700v-700q0 -102 -61 -154t-172 -46v126q48 0 71.5 17.5t23.5 64.5v39l-267 381v-428h-138v700h105l300 -427v427h138z" />
    <glyph glyph-name="eng" unicode="&#x14b;" horiz-adv-x="577" 
d="M337 514q82 0 135.5 -55t53.5 -152v-317q0 -104 -52.5 -157.5t-157.5 -46.5v124q41 -4 61 14.5t20 65.5v301q0 50 -27 76.5t-72 26.5q-50 0 -80 -31t-30 -93v-270h-129v500h129v-56q47 70 149 70z" />
    <glyph glyph-name="Omacron" unicode="&#x14c;" horiz-adv-x="792" 
d="M251 877h290v-105h-290v105zM396 -14q-152 0 -257.5 105.5t-105.5 258.5t105.5 258.5t257.5 105.5t258 -105.5t106 -258.5t-106 -258.5t-258 -105.5zM396 121q96 0 161 64.5t65 164.5t-65 165t-161 65t-161 -65t-65 -165t65 -164.5t161 -64.5z" />
    <glyph glyph-name="omacron" unicode="&#x14d;" horiz-adv-x="594" 
d="M152 677h290v-105h-290v105zM297 -14q-111 0 -187.5 76.5t-76.5 187.5t76.5 187.5t187.5 76.5t188 -76.5t77 -187.5t-77 -187.5t-188 -76.5zM297 112q58 0 97 39t39 99t-39 99t-97 39t-96.5 -39t-38.5 -99t38.5 -99t96.5 -39z" />
    <glyph glyph-name="Ohungarumlaut" unicode="&#x150;" horiz-adv-x="792" 
d="M349 763l84 138h-134l-78 -138h128zM522 763l94 138h-134l-88 -138h128zM396 -14q-152 0 -257.5 105.5t-105.5 258.5t105.5 258.5t257.5 105.5t258 -105.5t106 -258.5t-106 -258.5t-258 -105.5zM396 121q96 0 161 64.5t65 164.5t-65 165t-161 65t-161 -65t-65 -165
t65 -164.5t161 -64.5z" />
    <glyph glyph-name="ohungarumlaut" unicode="&#x151;" horiz-adv-x="594" 
d="M250 563l84 138h-134l-78 -138h128zM423 563l94 138h-134l-88 -138h128zM297 -14q-111 0 -187.5 76.5t-76.5 187.5t76.5 187.5t187.5 76.5t188 -76.5t77 -187.5t-77 -187.5t-188 -76.5zM297 112q58 0 97 39t39 99t-39 99t-97 39t-96.5 -39t-38.5 -99t38.5 -99t96.5 -39z
" />
    <glyph glyph-name="OE" unicode="&#x152;" horiz-adv-x="916" 
d="M883 132v-132h-397q-48 -14 -100 -14q-151 0 -252 105t-101 259t101 259t252 105q52 0 100 -14h392v-132h-255v-149h233v-130h-233v-157h260zM486 565q-45 15 -100 15q-95 0 -155.5 -64.5t-60.5 -165.5t60.5 -165t155.5 -64q59 0 100 15v429z" />
    <glyph glyph-name="oe" unicode="&#x153;" horiz-adv-x="981" 
d="M568 197q14 -48 51.5 -71t85.5 -23q78 0 116 50l104 -60q-74 -107 -218 -107t-210 112q-69 -112 -204 -112q-111 0 -185.5 76t-74.5 188t74.5 188t185.5 76q66 0 119 -29.5t84 -81.5q65 111 207 111q109 0 178 -76t69 -188q0 -25 -5 -53h-377zM821 298q-11 51 -45 75.5
t-78 24.5q-51 0 -85.5 -26.5t-46.5 -73.5h255zM297 112q58 0 97 39t39 99t-39 99t-97 39q-59 0 -97 -38.5t-38 -99.5t38 -99.5t97 -38.5z" />
    <glyph glyph-name="Racute" unicode="&#x154;" horiz-adv-x="614" 
d="M339 763h-124l80 137h155zM308 243h-105v-243h-138v700h280q97 0 165 -68t68 -164q0 -65 -37 -120.5t-98 -83.5l155 -264h-149zM203 364h142q39 0 67 30.5t28 73.5t-28 73t-67 30h-142v-207z" />
    <glyph glyph-name="racute" unicode="&#x155;" horiz-adv-x="356" 
d="M237 563h-124l80 137h155zM188 414q18 48 59.5 72t92.5 24v-144q-59 7 -105.5 -24t-46.5 -103v-239h-129v500h129v-86z" />
    <glyph glyph-name="uni0156" unicode="&#x156;" horiz-adv-x="614" 
d="M598 0h-149l-141 243h-105v-243h-138v700h280q97 0 165 -68t68 -164q0 -65 -37 -120.5t-98 -83.5zM203 364h142q39 0 67 30.5t28 73.5t-28 73t-67 30h-142v-207zM268 -63h122l-30 -200h-102z" />
    <glyph glyph-name="uni0157" unicode="&#x157;" horiz-adv-x="356" 
d="M188 414q18 48 59.5 72t92.5 24v-144q-59 7 -105.5 -24t-46.5 -103v-239h-129v500h129v-86zM65 -63h122l-30 -200h-102z" />
    <glyph glyph-name="Rcaron" unicode="&#x158;" horiz-adv-x="614" 
d="M120 900h128l44 -65l43 65h128l-106 -145h-131zM308 243h-105v-243h-138v700h280q97 0 165 -68t68 -164q0 -65 -37 -120.5t-98 -83.5l155 -264h-149zM203 364h142q39 0 67 30.5t28 73.5t-28 73t-67 30h-142v-207z" />
    <glyph glyph-name="rcaron" unicode="&#x159;" horiz-adv-x="356" 
d="M18 700h128l44 -65l43 65h128l-106 -145h-131zM188 414q18 48 59.5 72t92.5 24v-144q-59 7 -105.5 -24t-46.5 -103v-239h-129v500h129v-86z" />
    <glyph glyph-name="Sacute" unicode="&#x15a;" horiz-adv-x="583" 
d="M337 771l111 137h-155l-80 -137h124zM304 -14q-104 0 -175 46.5t-100 126.5l118 69q41 -107 161 -107q58 0 85 21t27 53q0 37 -33 57.5t-118 44.5q-47 14 -79.5 28t-65 37.5t-49.5 59.5t-17 84q0 95 67.5 151.5t162.5 56.5q85 0 149.5 -41.5t100.5 -115.5l-116 -67
q-42 90 -134 90q-43 0 -67.5 -19.5t-24.5 -50.5q0 -33 27.5 -53.5t105.5 -44.5q32 -10 48.5 -15.5t45 -17t44 -21.5t35.5 -27t30.5 -35t18 -43.5t7.5 -55.5q0 -97 -70.5 -154t-183.5 -57z" />
    <glyph glyph-name="sacute" unicode="&#x15b;" horiz-adv-x="465" 
d="M275 571h-124l80 137h155zM178 358q0 -20 26.5 -32.5t64.5 -22t76 -24t64.5 -48.5t26.5 -85q0 -77 -57.5 -118.5t-143.5 -41.5q-154 0 -210 119l112 63q22 -65 98 -65q69 0 69 43q0 20 -26.5 32.5t-64.5 22.5t-76 25t-64.5 47.5t-26.5 81.5q0 74 54.5 116.5t135.5 42.5
q61 0 111 -27.5t79 -78.5l-110 -60q-24 51 -80 51q-25 0 -41.5 -11t-16.5 -30z" />
    <glyph glyph-name="Scedilla" unicode="&#x15e;" horiz-adv-x="583" 
d="M558 197q0 -85 -54 -139.5t-146 -67.5v-36q29 -7 49.5 -26.5t20.5 -51.5q0 -105 -220 -92v91q108 -7 108 20q0 20 -63 25v69q-84 11 -141.5 55.5t-82.5 114.5l118 69q41 -107 161 -107q58 0 85 21t27 53q0 37 -33 57.5t-118 44.5q-47 14 -79.5 28t-65 37.5t-49.5 59.5
t-17 84q0 95 67.5 151.5t162.5 56.5q85 0 149.5 -41.5t100.5 -115.5l-116 -67q-42 90 -134 90q-43 0 -67.5 -19.5t-24.5 -50.5q0 -33 27.5 -53.5t105.5 -44.5q32 -10 48.5 -15.5t45 -17t44 -21.5t35.5 -27t30.5 -35t18 -43.5t7.5 -55.5z" />
    <glyph glyph-name="scedilla" unicode="&#x15f;" horiz-adv-x="465" 
d="M436 146q0 -62 -38 -101.5t-101 -52.5v-38q29 -7 49.5 -26.5t20.5 -51.5q0 -105 -220 -92v91q108 -7 108 20q0 20 -63 25v69q-120 15 -167 116l112 63q22 -65 98 -65q69 0 69 43q0 20 -26.5 32.5t-64.5 22.5t-76 25t-64.5 47.5t-26.5 81.5q0 74 54.5 116.5t135.5 42.5
q61 0 111 -27.5t79 -78.5l-110 -60q-24 51 -80 51q-25 0 -41.5 -11t-16.5 -30q0 -20 26.5 -32.5t64.5 -22t76 -24t64.5 -48.5t26.5 -85z" />
    <glyph glyph-name="Scaron" unicode="&#x160;" horiz-adv-x="583" 
d="M118 908h128l44 -65l43 65h128l-106 -145h-131zM329 412q32 -10 48.5 -15.5t45 -17t44 -21.5t35.5 -27t30.5 -35t18 -43.5t7.5 -55.5q0 -97 -70.5 -154t-183.5 -57q-104 0 -175 46.5t-100 126.5l118 69q41 -107 161 -107q58 0 85 21t27 53q0 37 -33 57.5t-118 44.5
q-47 14 -79.5 28t-65 37.5t-49.5 59.5t-17 84q0 95 67.5 151.5t162.5 56.5q85 0 149.5 -41.5t100.5 -115.5l-116 -67q-42 90 -134 90q-43 0 -67.5 -19.5t-24.5 -50.5q0 -33 27.5 -53.5t105.5 -44.5z" />
    <glyph glyph-name="scaron" unicode="&#x161;" horiz-adv-x="465" 
d="M56 708h128l44 -65l43 65h128l-106 -145h-131zM178 358q0 -20 26.5 -32.5t64.5 -22t76 -24t64.5 -48.5t26.5 -85q0 -77 -57.5 -118.5t-143.5 -41.5q-154 0 -210 119l112 63q22 -65 98 -65q69 0 69 43q0 20 -26.5 32.5t-64.5 22.5t-76 25t-64.5 47.5t-26.5 81.5
q0 74 54.5 116.5t135.5 42.5q61 0 111 -27.5t79 -78.5l-110 -60q-24 51 -80 51q-25 0 -41.5 -11t-16.5 -30z" />
    <glyph glyph-name="uni0162" unicode="&#x162;" horiz-adv-x="540" 
d="M528 568h-189v-568h-138v568h-188v132h515v-132zM215 -63h122l-30 -200h-102z" />
    <glyph glyph-name="uni0163" unicode="&#x163;" horiz-adv-x="385" 
d="M232 376v-208q0 -26 13 -38t38 -13.5t62 0.5v-117q-133 -15 -187.5 25t-54.5 143v208h-87v124h87v101l129 39v-140h113v-124h-113zM172 -63h122l-30 -200h-102z" />
    <glyph glyph-name="Tcaron" unicode="&#x164;" horiz-adv-x="540" 
d="M95 900h128l44 -65l43 65h128l-106 -145h-131zM528 568h-189v-568h-138v568h-188v132h515v-132z" />
    <glyph glyph-name="tcaron" unicode="&#x165;" horiz-adv-x="406" 
d="M408 726l-30 -182h-102l10 182h122zM232 500h113v-124h-113v-208q0 -26 13 -38t38 -13.5t62 0.5v-117q-133 -15 -187.5 25t-54.5 143v208h-87v124h87v101l129 39v-140z" />
    <glyph glyph-name="Tbar" unicode="&#x166;" horiz-adv-x="540" 
d="M339 568v-163h119v-124h-119v-281h-138v281h-118v124h118v163h-188v132h515v-132h-189z" />
    <glyph glyph-name="tbar" unicode="&#x167;" horiz-adv-x="385" 
d="M232 376v-73h80v-104h-80v-31q0 -26 13 -38t38 -13.5t62 0.5v-117q-133 -15 -187.5 25t-54.5 143v31h-58v104h58v73h-87v124h87v101l129 39v-140h113v-124h-113z" />
    <glyph glyph-name="Umacron" unicode="&#x16a;" horiz-adv-x="653" 
d="M181 869h290v-105h-290v105zM326 -14q-117 0 -192 66t-75 177v471h137v-460q0 -55 31.5 -87t98.5 -32t98.5 32t31.5 87v460h138v-471q0 -111 -75 -177t-193 -66z" />
    <glyph glyph-name="umacron" unicode="&#x16b;" horiz-adv-x="577" 
d="M429 564h-290v105h290v-105zM518 500v-500h-129v56q-47 -70 -149 -70q-82 0 -135.5 55t-53.5 152v307h129v-291q0 -50 27 -76.5t72 -26.5q50 0 80 31t30 93v270h129z" />
    <glyph glyph-name="Uring" unicode="&#x16e;" horiz-adv-x="653" 
d="M326 709q-55 0 -90.5 34t-35.5 85t35.5 84.5t90.5 33.5q56 0 91 -33.5t35 -84.5q0 -52 -35 -85.5t-91 -33.5zM326 790q40 0 40 38q0 37 -40 37q-18 0 -28.5 -10.5t-10.5 -26.5q0 -17 10.5 -27.5t28.5 -10.5zM326 -14q-117 0 -192 66t-75 177v471h137v-460q0 -55 31.5 -87
t98.5 -32t98.5 32t31.5 87v460h138v-471q0 -111 -75 -177t-193 -66z" />
    <glyph glyph-name="uring" unicode="&#x16f;" horiz-adv-x="577" 
d="M284 539q-55 0 -90.5 34t-35.5 85t35.5 84.5t90.5 33.5q56 0 91 -33.5t35 -84.5q0 -52 -35 -85.5t-91 -33.5zM284 695q-18 0 -28.5 -10.5t-10.5 -26.5q0 -17 10.5 -27.5t28.5 -10.5q40 0 40 38q0 37 -40 37zM518 500v-500h-129v56q-47 -70 -149 -70q-82 0 -135.5 55
t-53.5 152v307h129v-291q0 -50 27 -76.5t72 -26.5q50 0 80 31t30 93v270h129z" />
    <glyph glyph-name="Uhungarumlaut" unicode="&#x170;" horiz-adv-x="653" 
d="M279 755l84 138h-134l-78 -138h128zM452 755l94 138h-134l-88 -138h128zM326 -14q-117 0 -192 66t-75 177v471h137v-460q0 -55 31.5 -87t98.5 -32t98.5 32t31.5 87v460h138v-471q0 -111 -75 -177t-193 -66z" />
    <glyph glyph-name="uhungarumlaut" unicode="&#x171;" horiz-adv-x="577" 
d="M237 555h-128l78 138h134zM282 555l88 138h134l-94 -138h-128zM518 500v-500h-129v56q-47 -70 -149 -70q-82 0 -135.5 55t-53.5 152v307h129v-291q0 -50 27 -76.5t72 -26.5q50 0 80 31t30 93v270h129z" />
    <glyph glyph-name="Uogonek" unicode="&#x172;" horiz-adv-x="653" 
d="M594 700v-471q0 -122 -90 -189q-51 -48 -71 -77t-21 -58q-1 -25 25 -27q11 -1 27 5v-81q-38 -16 -80 -16q-43 0 -69.5 22.5t-26.5 65.5q0 50 54 112h-16q-117 0 -192 66t-75 177v471h137v-460q0 -55 31.5 -87t98.5 -32t98.5 32t31.5 87v460h138z" />
    <glyph glyph-name="uogonek" unicode="&#x173;" horiz-adv-x="577" 
d="M518 0q-53 -56 -53 -95q0 -27 25 -27q12 -1 28 5v-81q-38 -16 -81 -16q-42 0 -68.5 22.5t-26.5 65.5q0 52 64 126h-17v56q-47 -70 -149 -70q-82 0 -135.5 55t-53.5 152v307h129v-291q0 -50 27 -76.5t72 -26.5q50 0 80 31t30 93v270h129v-500z" />
    <glyph glyph-name="Wcircumflex" unicode="&#x174;" horiz-adv-x="999" 
d="M482 755h-128l106 145h131l106 -145h-128l-43 65zM984 700l-196 -700h-157l-132 462l-131 -462h-157l-196 700h145l134 -519l146 519h118l147 -519l134 519h145z" />
    <glyph glyph-name="wcircumflex" unicode="&#x175;" horiz-adv-x="770" 
d="M338 555h-128l106 145h131l106 -145h-128l-43 65zM759 500l-159 -500h-123l-92 303l-92 -303h-123l-159 500h137l85 -307l91 307h122l91 -308l85 308h137z" />
    <glyph glyph-name="Ycircumflex" unicode="&#x176;" horiz-adv-x="621" 
d="M263 755h-128l106 145h131l106 -145h-128l-43 65zM379 273v-273h-137v273l-239 427h156l152 -292l152 292h156z" />
    <glyph glyph-name="ycircumflex" unicode="&#x177;" horiz-adv-x="525" 
d="M216 555h-128l106 145h131l106 -145h-128l-43 65zM523 500l-182 -500q-39 -108 -103.5 -156.5t-160.5 -43.5v120q52 -1 82.5 22t48.5 74l-205 484h141l130 -336l111 336h138z" />
    <glyph glyph-name="Ydieresis" unicode="&#x178;" horiz-adv-x="621" 
d="M215 749q-28 0 -48 19.5t-20 47.5t20 48t48 20t47.5 -20t19.5 -48t-19.5 -47.5t-47.5 -19.5zM405 749q-28 0 -48 19.5t-20 47.5t20 48t48 20t47.5 -20t19.5 -48t-19.5 -47.5t-47.5 -19.5zM379 273v-273h-137v273l-239 427h156l152 -292l152 292h156z" />
    <glyph glyph-name="Zacute" unicode="&#x179;" horiz-adv-x="535" 
d="M317 763h-124l80 137h155zM509 132v-132h-473v110l291 458h-284v132h460v-109l-291 -459h297z" />
    <glyph glyph-name="zacute" unicode="&#x17a;" horiz-adv-x="474" 
d="M285 563h-124l80 137h155zM438 121v-121h-395v86l211 293h-201v121h375v-86l-212 -293h222z" />
    <glyph glyph-name="Zdotaccent" unicode="&#x17b;" horiz-adv-x="535" 
d="M273 751q-32 0 -55 23t-23 55t23 54.5t55 22.5q31 0 54 -23t23 -54q0 -32 -23 -55t-54 -23zM509 132v-132h-473v110l291 458h-284v132h460v-109l-291 -459h297z" />
    <glyph glyph-name="zdotaccent" unicode="&#x17c;" horiz-adv-x="474" 
d="M241 551q-32 0 -55 23t-23 55t23 54.5t55 22.5q31 0 54 -23t23 -54q0 -32 -23 -55t-54 -23zM438 121v-121h-395v86l211 293h-201v121h375v-86l-212 -293h222z" />
    <glyph glyph-name="Zcaron" unicode="&#x17d;" horiz-adv-x="535" 
d="M98 900h128l44 -65l43 65h128l-106 -145h-131zM509 132v-132h-473v110l291 458h-284v132h460v-109l-291 -459h297z" />
    <glyph glyph-name="zcaron" unicode="&#x17e;" horiz-adv-x="474" 
d="M66 700h128l44 -65l43 65h128l-106 -145h-131zM438 121v-121h-395v86l211 293h-201v121h375v-86l-212 -293h222z" />
    <glyph glyph-name="florin" unicode="&#x192;" horiz-adv-x="441" 
d="M441 576q-32 18 -66 3t-42 -59l-18 -106h91v-124h-112l-56 -331q-18 -106 -82.5 -145t-155.5 -15v128q33 -18 67 -3t41 59l52 307h-84v124h106l22 131q18 106 82.5 145t154.5 15v-129z" />
    <glyph glyph-name="uni0218" unicode="&#x218;" horiz-adv-x="583" 
d="M304 -14q-104 0 -175 46.5t-100 126.5l118 69q41 -107 161 -107q58 0 85 21t27 53q0 37 -33 57.5t-118 44.5q-47 14 -79.5 28t-65 37.5t-49.5 59.5t-17 84q0 95 67.5 151.5t162.5 56.5q85 0 149.5 -41.5t100.5 -115.5l-116 -67q-42 90 -134 90q-43 0 -67.5 -19.5
t-24.5 -50.5q0 -33 27.5 -53.5t105.5 -44.5q32 -10 48.5 -15.5t45 -17t44 -21.5t35.5 -27t30.5 -35t18 -43.5t7.5 -55.5q0 -97 -70.5 -154t-183.5 -57zM371 -63h-122l-10 -200h102z" />
    <glyph glyph-name="uni0219" unicode="&#x219;" horiz-adv-x="465" 
d="M178 358q0 -20 26.5 -32.5t64.5 -22t76 -24t64.5 -48.5t26.5 -85q0 -77 -57.5 -118.5t-143.5 -41.5q-154 0 -210 119l112 63q22 -65 98 -65q69 0 69 43q0 20 -26.5 32.5t-64.5 22.5t-76 25t-64.5 47.5t-26.5 81.5q0 74 54.5 116.5t135.5 42.5q61 0 111 -27.5t79 -78.5
l-110 -60q-24 51 -80 51q-25 0 -41.5 -11t-16.5 -30zM188 -63h122l-30 -200h-102z" />
    <glyph glyph-name="uni021A" unicode="&#x21a;" horiz-adv-x="540" 
d="M528 568h-189v-568h-138v568h-188v132h515v-132zM215 -63h122l-30 -200h-102z" />
    <glyph glyph-name="uni021B" unicode="&#x21b;" horiz-adv-x="385" 
d="M232 376v-208q0 -26 13 -38t38 -13.5t62 0.5v-117q-133 -15 -187.5 25t-54.5 143v208h-87v124h87v101l129 39v-140h113v-124h-113zM172 -63h122l-30 -200h-102z" />
    <glyph glyph-name="circumflex" unicode="&#x2c6;" horiz-adv-x="383" 
d="M235 555l-43 65l-44 -65h-128l106 145h131l106 -145h-128z" />
    <glyph glyph-name="caron" unicode="&#x2c7;" horiz-adv-x="383" 
d="M363 700l-106 -145h-131l-106 145h128l44 -65l43 65h128z" />
    <glyph glyph-name="breve" unicode="&#x2d8;" horiz-adv-x="373" 
d="M186 547q-79 0 -122.5 38t-43.5 107h115q0 -52 51 -52q52 0 52 52h115q0 -69 -43.5 -107t-123.5 -38z" />
    <glyph glyph-name="dotaccent" unicode="&#x2d9;" horiz-adv-x="203" 
d="M98 551q-32 0 -55 23t-23 55t23 54.5t55 22.5t54.5 -23t22.5 -54q0 -32 -23 -55t-54 -23z" />
    <glyph glyph-name="ring" unicode="&#x2da;" horiz-adv-x="293" 
d="M146 539q-55 0 -90.5 34t-35.5 85t35.5 84.5t90.5 33.5q56 0 91 -33.5t35 -84.5q0 -52 -35 -85.5t-91 -33.5zM146 620q40 0 40 38q0 37 -40 37q-18 0 -28.5 -10.5t-10.5 -26.5q0 -17 10.5 -27.5t28.5 -10.5z" />
    <glyph glyph-name="ogonek" unicode="&#x2db;" horiz-adv-x="216" 
d="M116 -214q-43 0 -69.5 22.5t-26.5 65.5q0 57 66 126h110q-52 -55 -52 -95q-2 -27 25 -27q11 -1 27 5v-81q-38 -16 -80 -16z" />
    <glyph glyph-name="tilde" unicode="&#x2dc;" horiz-adv-x="379" 
d="M21 560q0 46 10.5 78.5t28.5 48.5t41.5 20.5t49.5 -2.5t52 -24q29 -20 40.5 -16t11.5 40h105q0 -57 -16.5 -93.5t-43 -48t-58 -6t-64.5 26.5q-29 20 -41 16t-12 -40h-104z" />
    <glyph glyph-name="hungarumlaut" unicode="&#x2dd;" horiz-adv-x="435" 
d="M148 555l84 138h-134l-78 -138h128zM321 555l94 138h-134l-88 -138h128z" />
    <glyph glyph-name="gravecomb" unicode="&#x300;" horiz-adv-x="0" 
d="M-100 700h-155l111 -137h124z" />
    <glyph glyph-name="acutecomb" unicode="&#x301;" horiz-adv-x="0" 
d="M-131 563l111 137h-155l-80 -137h124z" />
    <glyph glyph-name="uni0302" unicode="&#x302;" horiz-adv-x="0" 
d="M-148 555l-43 65l-44 -65h-128l106 145h131l106 -145h-128z" />
    <glyph glyph-name="tildecomb" unicode="&#x303;" horiz-adv-x="0" 
d="M-351 560q0 46 10.5 78.5t28.5 48.5t41.5 20.5t49.5 -2.5t52 -24q29 -20 40.5 -16t11.5 40h105q0 -57 -16.5 -93.5t-43 -48t-58 -6t-64.5 26.5q-29 20 -41 16t-12 -40h-104z" />
    <glyph glyph-name="uni0304" unicode="&#x304;" horiz-adv-x="0" 
d="M-310 669h290v-105h-290v105z" />
    <glyph glyph-name="uni0306" unicode="&#x306;" horiz-adv-x="0" 
d="M-187 547q-79 0 -122.5 38t-43.5 107h115q0 -52 51 -52q52 0 52 52h115q0 -69 -43.5 -107t-123.5 -38z" />
    <glyph glyph-name="uni0307" unicode="&#x307;" horiz-adv-x="0" 
d="M-97 551q-32 0 -55 23t-23 55t23 54.5t55 22.5q31 0 54 -23t23 -54q0 -32 -23 -55t-54 -23z" />
    <glyph glyph-name="uni0308" unicode="&#x308;" horiz-adv-x="0" 
d="M-277 549q-28 0 -48 19.5t-20 47.5t20 48t48 20t47.5 -20t19.5 -48t-19.5 -47.5t-47.5 -19.5zM-87 549q-28 0 -48 19.5t-20 47.5t20 48t48 20t47.5 -20t19.5 -48t-19.5 -47.5t-47.5 -19.5z" />
    <glyph glyph-name="uni030A" unicode="&#x30a;" horiz-adv-x="0" 
d="M-150 539q-55 0 -90.5 34t-35.5 85t35.5 84.5t90.5 33.5q56 0 91 -33.5t35 -84.5q0 -52 -35 -85.5t-91 -33.5zM-150 620q40 0 40 38q0 37 -40 37q-18 0 -28.5 -10.5t-10.5 -26.5q0 -17 10.5 -27.5t28.5 -10.5z" />
    <glyph glyph-name="uni030B" unicode="&#x30b;" horiz-adv-x="0" 
d="M-287 555l84 138h-134l-78 -138h128zM-114 555l94 138h-134l-88 -138h128z" />
    <glyph glyph-name="uni030C" unicode="&#x30c;" horiz-adv-x="0" 
d="M-20 700l-106 -145h-131l-106 145h128l44 -65l43 65h128z" />
    <glyph glyph-name="uni0312" unicode="&#x312;" horiz-adv-x="0" 
d="M-152 775h122l10 200h-102z" />
    <glyph glyph-name="uni0326" unicode="&#x326;" horiz-adv-x="0" 
d="M-20 -63h-122l-10 -200h102z" />
    <glyph glyph-name="uni0327" unicode="&#x327;" horiz-adv-x="0" 
d="M-90 -46q29 -7 49.5 -26.5t20.5 -51.5q0 -105 -220 -92v91q108 -7 108 20q0 20 -63 25v80h105v-46z" />
    <glyph glyph-name="uni0328" unicode="&#x328;" horiz-adv-x="0" 
d="M-108 -214q-43 0 -69.5 22.5t-26.5 65.5q0 57 66 126h110q-52 -55 -52 -95q-2 -27 25 -27q11 -1 27 5v-81q-38 -16 -80 -16z" />
    <glyph glyph-name="uni0394" unicode="&#x394;" horiz-adv-x="653" 
d="M650 0h-647l238 700h171zM459 129l-133 418l-133 -418h266z" />
    <glyph glyph-name="uni03A9" unicode="&#x3a9;" horiz-adv-x="777" 
d="M752 365q0 -141 -107 -233h94v-132h-277v132q69 22 111 80.5t42 137.5q0 100 -65 165t-161 65t-161 -65t-65 -165q0 -79 41.5 -137.5t110.5 -80.5v-132h-276v132h93q-107 92 -107 233q0 147 106 248t258 101q151 0 257 -101t106 -248z" />
    <glyph glyph-name="pi" unicode="&#x3c0;" horiz-adv-x="665" 
d="M643 379h-80v-379h-129v379h-199v-379h-129v379h-83v121h620v-121z" />
    <glyph glyph-name="uni0401" unicode="&#x401;" horiz-adv-x="530" 
d="M184 749q-28 0 -48 19.5t-20 47.5t20 48t48 20t47.5 -20t19.5 -48t-19.5 -47.5t-47.5 -19.5zM374 749q-28 0 -48 19.5t-20 47.5t20 48t48 20t47.5 -20t19.5 -48t-19.5 -47.5t-47.5 -19.5zM498 132v-132h-433v700h428v-132h-290v-149h265v-130h-265v-157h295z" />
    <glyph glyph-name="uni0402" unicode="&#x402;" horiz-adv-x="703" 
d="M465 466q86 0 137 -50.5t51 -144.5v-77q0 -110 -53.5 -160.5t-163.5 -43.5v128q44 -3 62 14.5t18 61.5v63q0 85 -81 85q-47 0 -109 -20v-322h-137v568h-176v132h512v-132h-199v-124q72 22 139 22z" />
    <glyph glyph-name="uni0403" unicode="&#x403;" horiz-adv-x="475" 
d="M313 762h-124l80 137h155zM463 568h-260v-568h-138v700h398v-132z" />
    <glyph glyph-name="uni0404" unicode="&#x404;" horiz-adv-x="724" 
d="M396 121q59 0 107.5 26.5t73.5 72.5l119 -69q-45 -76 -125 -120.5t-175 -44.5q-158 0 -261 105t-103 259q0 155 103 259.5t261 104.5q94 0 174.5 -44.5t125.5 -120.5l-119 -69q-26 47 -74 73.5t-107 26.5q-85 0 -143 -44.5t-76 -120.5h312v-129h-312q18 -76 76 -120.5
t143 -44.5z" />
    <glyph glyph-name="uni0405" unicode="&#x405;" horiz-adv-x="583" 
d="M304 -14q-104 0 -175 46.5t-100 126.5l118 69q41 -107 161 -107q58 0 85 21t27 53q0 37 -33 57.5t-118 44.5q-47 14 -79.5 28t-65 37.5t-49.5 59.5t-17 84q0 95 67.5 151.5t162.5 56.5q85 0 149.5 -41.5t100.5 -115.5l-116 -67q-42 90 -134 90q-43 0 -67.5 -19.5
t-24.5 -50.5q0 -33 27.5 -53.5t105.5 -44.5q32 -10 48.5 -15.5t45 -17t44 -21.5t35.5 -27t30.5 -35t18 -43.5t7.5 -55.5q0 -97 -70.5 -154t-183.5 -57z" />
    <glyph glyph-name="uni0406" unicode="&#x406;" horiz-adv-x="268" 
d="M203 700v-700h-138v700h138z" />
    <glyph glyph-name="uni0407" unicode="&#x407;" horiz-adv-x="268" 
d="M39 749q-28 0 -48 19.5t-20 47.5t20 48t48 20t47.5 -20t19.5 -48t-19.5 -47.5t-47.5 -19.5zM229 749q-28 0 -48 19.5t-20 47.5t20 48t48 20t47.5 -20t19.5 -48t-19.5 -47.5t-47.5 -19.5zM203 700v-700h-138v700h138z" />
    <glyph glyph-name="uni0408" unicode="&#x408;" horiz-adv-x="569" 
d="M264 -14q-165 0 -231 133l119 68q33 -66 112 -66q55 0 82 26t27 71v482h137v-482q0 -110 -69 -171t-177 -61z" />
    <glyph glyph-name="uni0409" unicode="&#x409;" horiz-adv-x="961" 
d="M700 438q101 0 168.5 -62t67.5 -157q0 -96 -67.5 -157.5t-168.5 -61.5h-241v568h-187v-278q0 -91 -22 -153.5t-60.5 -92.5t-82 -40.5t-96.5 -5.5v128q62 -7 93 27t31 133v414h461v-262h104zM700 129q43 0 71 24t28 66t-28 66t-71 24h-104v-180h104z" />
    <glyph glyph-name="uni040A" unicode="&#x40a;" horiz-adv-x="958" 
d="M696 438q101 0 169 -62t68 -157q0 -96 -68 -157.5t-169 -61.5h-241v309h-252v-309h-138v700h138v-262h252v262h138v-262h103zM696 129q43 0 71 24t28 66t-28 66t-71 24h-103v-180h103z" />
    <glyph glyph-name="uni040B" unicode="&#x40b;" horiz-adv-x="708" 
d="M465 466q86 0 137 -50.5t51 -144.5v-271h-137v257q0 85 -81 85q-47 0 -109 -20v-322h-137v568h-176v132h512v-132h-199v-124q72 22 139 22z" />
    <glyph glyph-name="uni040C" unicode="&#x40c;" horiz-adv-x="615" 
d="M353 762h-124l80 137h155zM453 0l-250 328v-328h-138v700h138v-309l240 309h159l-259 -340l269 -360h-159z" />
    <glyph glyph-name="uni040E" unicode="&#x40e;" horiz-adv-x="600" 
d="M447 763h-290v112h290v-112zM590 700l-210 -507q-84 -204 -276 -193v129q56 -5 90.5 15.5t57.5 66.5l-229 489h138l153 -338l138 338h138z" />
    <glyph glyph-name="uni040F" unicode="&#x40f;" horiz-adv-x="653" 
d="M588 700v-700h-193v-134h-137v134h-193v700h138v-568h247v568h138z" />
    <glyph glyph-name="uni0410" unicode="&#x410;" horiz-adv-x="668" 
d="M473 126h-279l-42 -126h-149l245 700h171l246 -700h-150zM430 255l-96 286l-96 -286h192z" />
    <glyph glyph-name="uni0411" unicode="&#x411;" horiz-adv-x="585" 
d="M333 435q102 0 167 -60.5t65 -156.5q0 -97 -65 -157.5t-167 -60.5h-268v700h440v-132h-302v-133h130zM333 129q41 0 68 23.5t27 65.5t-27 65t-68 23h-130v-177h130z" />
    <glyph glyph-name="uni0412" unicode="&#x412;" horiz-adv-x="605" 
d="M488 363q92 -53 92 -160q0 -89 -63 -146t-155 -57h-297v700h276q90 0 151.5 -55.5t61.5 -141.5q0 -87 -66 -140zM203 571v-154h138q32 0 53.5 22t21.5 55t-21 55t-54 22h-138zM362 129q35 0 58 23.5t23 59.5q0 35 -23 58.5t-58 23.5h-159v-165h159z" />
    <glyph glyph-name="uni0413" unicode="&#x413;" horiz-adv-x="475" 
d="M463 568h-260v-568h-138v700h398v-132z" />
    <glyph glyph-name="uni0414" unicode="&#x414;" horiz-adv-x="705" 
d="M678 132v-266h-138v134h-387v-134h-138v266h68q58 81 58 237v331h462v-568h75zM465 132v439h-186v-204q0 -152 -48 -235h234z" />
    <glyph glyph-name="uni0415" unicode="&#x415;" horiz-adv-x="530" 
d="M498 132v-132h-433v700h428v-132h-290v-149h265v-130h-265v-157h295z" />
    <glyph glyph-name="uni0416" unicode="&#x416;" horiz-adv-x="904" 
d="M738 0l-217 319v-319h-138v319l-217 -319h-153l243 357l-233 343h153l207 -312v312h138v-312l207 312h154l-234 -343l244 -357h-154z" />
    <glyph glyph-name="uni0417" unicode="&#x417;" horiz-adv-x="561" 
d="M436 362q100 -53 100 -166q0 -94 -71 -152t-183 -58q-195 0 -261 165l119 67q32 -102 142 -102q57 0 87 24t30 65t-29.5 65t-84.5 24h-87v123h66q52 0 81 22.5t29 61.5t-25 61.5t-74 22.5q-90 0 -126 -88l-117 68q71 149 243 149q104 0 170 -56t66 -148q0 -94 -75 -148z
" />
    <glyph glyph-name="uni0418" unicode="&#x418;" horiz-adv-x="673" 
d="M470 427l-300 -427h-105v700h138v-428l300 428h105v-700h-138v427z" />
    <glyph glyph-name="uni0419" unicode="&#x419;" horiz-adv-x="673" 
d="M191 876h290v-112h-290v112zM470 427l-300 -427h-105v700h138v-428l300 428h105v-700h-138v427z" />
    <glyph glyph-name="uni041A" unicode="&#x41a;" horiz-adv-x="615" 
d="M453 0l-250 328v-328h-138v700h138v-309l240 309h159l-259 -340l269 -360h-159z" />
    <glyph glyph-name="uni041B" unicode="&#x41b;" horiz-adv-x="676" 
d="M11 128q62 -9 93 25t31 133v414h476v-700h-137v568h-202v-278q0 -91 -22 -153t-60.5 -92t-82 -40t-96.5 -5v128z" />
    <glyph glyph-name="uni041C" unicode="&#x41c;" horiz-adv-x="815" 
d="M750 0h-137v454l-197 -325h-16l-197 324v-453h-138v700h142l201 -331l200 331h142v-700z" />
    <glyph glyph-name="uni041D" unicode="&#x41d;" horiz-adv-x="665" 
d="M600 700v-700h-137v290h-260v-290h-138v700h138v-278h260v278h137z" />
    <glyph glyph-name="uni041E" unicode="&#x41e;" horiz-adv-x="792" 
d="M396 -14q-152 0 -257.5 105.5t-105.5 258.5t105.5 258.5t257.5 105.5t258 -105.5t106 -258.5t-106 -258.5t-258 -105.5zM396 121q96 0 161 64.5t65 164.5t-65 165t-161 65t-161 -65t-65 -165t65 -164.5t161 -64.5z" />
    <glyph glyph-name="uni041F" unicode="&#x41f;" horiz-adv-x="653" 
d="M588 0h-138v568h-247v-568h-138v700h523v-700z" />
    <glyph glyph-name="uni0420" unicode="&#x420;" horiz-adv-x="590" 
d="M326 700q101 0 170 -68t69 -167t-69 -167t-170 -68h-123v-230h-138v700h261zM326 359q44 0 73 30.5t29 75.5q0 46 -29 76t-73 30h-123v-212h123z" />
    <glyph glyph-name="uni0421" unicode="&#x421;" horiz-adv-x="726" 
d="M397 -14q-158 0 -261 105t-103 259q0 155 103 259.5t261 104.5q95 0 175.5 -44.5t125.5 -120.5l-119 -69q-26 47 -74 73.5t-108 26.5q-102 0 -164.5 -64t-62.5 -166q0 -101 62.5 -165t164.5 -64q60 0 108.5 26.5t73.5 72.5l119 -69q-45 -76 -125 -120.5t-176 -44.5z" />
    <glyph glyph-name="uni0422" unicode="&#x422;" horiz-adv-x="540" 
d="M528 568h-189v-568h-138v568h-188v132h515v-132z" />
    <glyph glyph-name="uni0423" unicode="&#x423;" horiz-adv-x="600" 
d="M590 700l-210 -507q-84 -204 -276 -193v129q56 -5 90.5 15.5t57.5 66.5l-229 489h138l153 -338l138 338h138z" />
    <glyph glyph-name="uni0424" unicode="&#x424;" horiz-adv-x="819" 
d="M797 350q0 -120 -87 -195t-233 -89v-81h-135v81q-147 15 -233 89.5t-86 194.5t86 194.5t233 89.5v81h135v-81q146 -14 233 -89t87 -195zM477 192q182 21 182 158q0 138 -182 159v-317zM160 350q0 -137 182 -157v315q-182 -20 -182 -158z" />
    <glyph glyph-name="uni0425" unicode="&#x425;" horiz-adv-x="610" 
d="M441 0l-136 228l-136 -228h-156l214 359l-203 341h156l125 -210l125 210h156l-203 -340l215 -360h-157z" />
    <glyph glyph-name="uni0426" unicode="&#x426;" horiz-adv-x="690" 
d="M663 132v-266h-138v134h-460v700h138v-568h247v568h138v-568h75z" />
    <glyph glyph-name="uni0427" unicode="&#x427;" horiz-adv-x="633" 
d="M568 700v-700h-138v256q-64 -27 -137 -27q-106 0 -174.5 59.5t-68.5 161.5v250h138v-232q0 -50 29.5 -78.5t78.5 -28.5q73 0 134 29v310h138z" />
    <glyph glyph-name="uni0428" unicode="&#x428;" horiz-adv-x="943" 
d="M878 700v-700h-813v700h138v-568h200v568h137v-568h200v568h138z" />
    <glyph glyph-name="uni0429" unicode="&#x429;" horiz-adv-x="980" 
d="M953 132v-266h-138v134h-750v700h138v-568h200v568h137v-568h200v568h138v-568h75z" />
    <glyph glyph-name="uni042A" unicode="&#x42a;" horiz-adv-x="693" 
d="M168 568h-168v132h305v-230h124q101 0 170 -68t69 -167t-69 -167t-170 -68h-261v568zM429 129q44 0 72.5 30t28.5 76t-28.5 76t-72.5 30h-124v-212h124z" />
    <glyph glyph-name="uni042B" unicode="&#x42b;" horiz-adv-x="831" 
d="M65 700h138v-230h123q101 0 170 -68t69 -167t-69 -167t-170 -68h-261v700zM629 700h137v-700h-137v700zM326 129q44 0 73 30t29 76t-29 76t-73 30h-123v-212h123z" />
    <glyph glyph-name="uni042C" unicode="&#x42c;" horiz-adv-x="590" 
d="M326 470q101 0 170 -68t69 -167t-69 -167t-170 -68h-261v700h138v-230h123zM326 129q44 0 73 30t29 76q0 45 -29 75.5t-73 30.5h-123v-212h123z" />
    <glyph glyph-name="uni042D" unicode="&#x42d;" horiz-adv-x="724" 
d="M328 714q158 0 261 -104.5t103 -259.5q0 -154 -103 -259t-261 -105q-95 0 -175 44.5t-125 120.5l119 69q25 -46 73.5 -72.5t107.5 -26.5q85 0 143 44.5t76 120.5h-312v129h312q-18 76 -76 120.5t-143 44.5q-59 0 -107 -26.5t-74 -73.5l-119 69q45 76 125.5 120.5
t174.5 44.5z" />
    <glyph glyph-name="uni042E" unicode="&#x42e;" horiz-adv-x="1055" 
d="M659 714q152 0 258 -105.5t106 -258.5q0 -152 -106 -258t-258 -106q-136 0 -235.5 87t-119.5 221h-101v-294h-138v700h138v-274h104q26 126 123.5 207t228.5 81zM659 121q96 0 161 64.5t65 164.5t-65 165t-161 65q-97 0 -161.5 -64t-64.5 -166q0 -100 65 -164.5
t161 -64.5z" />
    <glyph glyph-name="uni042F" unicode="&#x42f;" horiz-adv-x="624" 
d="M559 0h-138v243h-79l-161 -243h-155l171 258q-67 24 -109 82t-42 128q0 96 68 164t165 68h280v-700zM421 364v207h-142q-39 0 -67 -30t-28 -73t28 -73.5t67 -30.5h142z" />
    <glyph glyph-name="uni0430" unicode="&#x430;" 
d="M568 500v-500h-129v59q-58 -73 -163 -73q-100 0 -171.5 76.5t-71.5 187.5t71.5 187.5t171.5 76.5q105 0 163 -73v59h129zM300 109q60 0 99.5 39.5t39.5 101.5t-39.5 101.5t-99.5 39.5t-99 -39.5t-39 -101.5t39 -101.5t99 -39.5z" />
    <glyph glyph-name="uni0431" unicode="&#x431;" horiz-adv-x="567" 
d="M296 -14q-118 0 -190.5 76t-72.5 193q0 128 38 197.5t153 126.5q17 8 48 22.5t42.5 20.5t31.5 18t28.5 21.5t18.5 24.5t16 33l106 -61q-13 -61 -58.5 -94.5t-136.5 -68.5q-64 -25 -93 -50t-42 -60q56 57 150 57q83 0 148 -60.5t65 -160.5q0 -103 -69.5 -169t-182.5 -66z
M295 104q54 0 89 33t35 84t-35 84.5t-90 33.5q-49 0 -87.5 -31t-38.5 -83q0 -53 36.5 -87t90.5 -34z" />
    <glyph glyph-name="uni0432" unicode="&#x432;" horiz-adv-x="511" 
d="M419 256q70 -34 70 -114q0 -63 -43.5 -102.5t-123.5 -39.5h-263v500h243q79 0 122.5 -39t43.5 -102q0 -66 -49 -103zM180 394v-90h110q55 0 55 45t-55 45h-110zM307 109q56 0 56 48q0 21 -15 33t-41 12h-127v-93h127z" />
    <glyph glyph-name="uni0433" unicode="&#x433;" horiz-adv-x="411" 
d="M401 376h-213v-376h-129v500h342v-124z" />
    <glyph glyph-name="uni0434" unicode="&#x434;" horiz-adv-x="598" 
d="M575 121v-255h-126v134h-310v-134h-126v255h61q43 64 43 177v202h392v-379h66zM383 121v263h-140v-86q0 -106 -31 -177h171z" />
    <glyph glyph-name="uni0435" unicode="&#x435;" horiz-adv-x="581" 
d="M168 197q26 -94 141 -94q74 0 112 50l104 -60q-74 -107 -218 -107q-124 0 -199 75t-75 189q0 113 74 188.5t190 75.5q110 0 181.5 -76t71.5 -188q0 -25 -5 -53h-377zM421 297q-11 51 -45.5 76t-78.5 25q-52 0 -86 -26.5t-45 -74.5h255z" />
    <glyph glyph-name="uni0436" unicode="&#x436;" horiz-adv-x="746" 
d="M589 0l-153 224v-224h-126v224l-153 -224h-144l180 253l-170 247h144l143 -217v217h126v-217l143 217h145l-171 -247l181 -253h-145z" />
    <glyph glyph-name="uni0437" unicode="&#x437;" horiz-adv-x="450" 
d="M352 255q76 -37 76 -119q0 -64 -53 -107t-149 -43q-152 0 -207 120l105 62q24 -68 103 -68q36 0 55.5 14t19.5 38q0 46 -59 46h-71v110h54q58 0 58 46q0 22 -17 35t-45 13q-65 0 -93 -63l-104 60q57 115 195 115q86 0 136.5 -43.5t50.5 -105.5q0 -73 -55 -110z" />
    <glyph glyph-name="uni0438" unicode="&#x438;" horiz-adv-x="575" 
d="M516 500v-500h-126v284l-235 -284h-96v500h126v-284l235 284h96z" />
    <glyph glyph-name="uni0439" unicode="&#x439;" horiz-adv-x="575" 
d="M143 676h290v-112h-290v112zM516 500v-500h-126v284l-235 -284h-96v500h126v-284l235 284h96z" />
    <glyph glyph-name="uni043A" unicode="&#x43a;" horiz-adv-x="525" 
d="M370 0l-182 227v-227h-129v500h129v-220l172 220h154l-201 -247l207 -253h-150z" />
    <glyph glyph-name="uni043B" unicode="&#x43b;" horiz-adv-x="546" 
d="M488 0h-129v376h-138v-167q0 -232 -211 -209v121q40 -10 61 13.5t21 81.5v284h396v-500z" />
    <glyph glyph-name="uni043C" unicode="&#x43c;" horiz-adv-x="638" 
d="M579 0h-125v292l-127 -200h-16l-128 202v-294h-124v500h127l133 -210l133 210h127v-500z" />
    <glyph glyph-name="uni043D" unicode="&#x43d;" horiz-adv-x="575" 
d="M516 500v-500h-129v190h-199v-190h-129v500h129v-189h199v189h129z" />
    <glyph glyph-name="uni043E" unicode="&#x43e;" horiz-adv-x="594" 
d="M297 -14q-111 0 -187.5 76.5t-76.5 187.5t76.5 187.5t187.5 76.5t188 -76.5t77 -187.5t-77 -187.5t-188 -76.5zM297 112q58 0 97 39t39 99t-39 99t-97 39t-96.5 -39t-38.5 -99t38.5 -99t96.5 -39z" />
    <glyph glyph-name="uni043F" unicode="&#x43f;" horiz-adv-x="575" 
d="M516 0h-129v379h-199v-379h-129v500h457v-500z" />
    <glyph glyph-name="uni0440" unicode="&#x440;" 
d="M350 514q101 0 172.5 -76.5t71.5 -187.5t-71.5 -187.5t-172.5 -76.5q-105 0 -162 73v-259h-129v700h129v-59q57 73 162 73zM326 109q60 0 99.5 39.5t39.5 101.5t-39.5 101.5t-99.5 39.5t-99 -39.5t-39 -101.5t39 -101.5t99 -39.5z" />
    <glyph glyph-name="uni0441" unicode="&#x441;" horiz-adv-x="536" 
d="M297 -14q-113 0 -188.5 76t-75.5 188t75.5 188t188.5 76q73 0 133 -35t91 -94l-111 -65q-15 31 -45.5 49t-68.5 18q-58 0 -96 -38.5t-38 -98.5q0 -59 38 -97.5t96 -38.5q39 0 69.5 17.5t45.5 48.5l112 -64q-33 -59 -93 -94.5t-133 -35.5z" />
    <glyph glyph-name="uni0442" unicode="&#x442;" horiz-adv-x="463" 
d="M453 376h-156v-376h-129v376h-158v124h443v-124z" />
    <glyph glyph-name="uni0443" unicode="&#x443;" horiz-adv-x="525" 
d="M523 500l-182 -500q-76 -211 -264 -200v120q51 -1 80.5 19t47.5 67l-202 494h137l134 -336l111 336h138z" />
    <glyph glyph-name="uni0444" unicode="&#x444;" horiz-adv-x="685" 
d="M653 250q0 -100 -66 -171t-181 -87v-192h-126v192q-115 16 -181 87t-66 171t66 171t181 87v192h126v-192q115 -16 181 -87t66 -171zM160 250q0 -50 31 -86t89 -49v270q-58 -13 -89 -48.5t-31 -86.5zM406 116q58 13 88.5 48.5t30.5 85.5q0 51 -30.5 86.5t-88.5 48.5v-269z
" />
    <glyph glyph-name="uni0445" unicode="&#x445;" horiz-adv-x="525" 
d="M371 0l-108 152l-109 -152h-149l183 255l-175 245h149l101 -141l101 141h148l-175 -244l183 -256h-149z" />
    <glyph glyph-name="uni0446" unicode="&#x446;" horiz-adv-x="605" 
d="M583 121v-255h-126v134h-398v500h129v-379h182v379h129v-379h84z" />
    <glyph glyph-name="uni0447" unicode="&#x447;" horiz-adv-x="541" 
d="M483 500v-500h-129v159q-56 -18 -119 -18q-91 0 -145.5 46t-54.5 134v179h129v-164q0 -75 93 -75q54 0 97 19v220h129z" />
    <glyph glyph-name="uni0448" unicode="&#x448;" horiz-adv-x="833" 
d="M774 500v-500h-715v500h129v-379h164v379h129v-379h164v379h129z" />
    <glyph glyph-name="uni0449" unicode="&#x449;" horiz-adv-x="848" 
d="M825 121v-255h-126v134h-640v500h129v-379h156v379h129v-379h157v379h129v-379h66z" />
    <glyph glyph-name="uni044A" unicode="&#x44a;" horiz-adv-x="574" 
d="M363 340q85 0 136.5 -46.5t51.5 -123.5t-51.5 -123.5t-136.5 -46.5h-227v376h-136v124h265v-160h98zM363 114q27 0 44.5 15.5t17.5 40.5t-17.5 41t-44.5 16h-98v-113h98z" />
    <glyph glyph-name="uni044B" unicode="&#x44b;" horiz-adv-x="717" 
d="M285 340q85 0 137 -46.5t52 -123.5t-52 -123.5t-137 -46.5h-226v500h129v-160h97zM658 500v-500h-129v500h129zM286 114q27 0 44.5 15.5t17.5 40.5t-17.5 41t-44.5 16h-98v-113h98z" />
    <glyph glyph-name="uni044C" unicode="&#x44c;" horiz-adv-x="496" 
d="M285 340q85 0 137 -46.5t52 -123.5t-52 -123.5t-137 -46.5h-226v500h129v-160h97zM286 114q27 0 44.5 15.5t17.5 40.5t-17.5 41t-44.5 16h-98v-113h98z" />
    <glyph glyph-name="uni044D" unicode="&#x44d;" horiz-adv-x="537" 
d="M243 514q114 0 187.5 -73.5t73.5 -190.5t-73.5 -190.5t-188.5 -73.5q-77 0 -138 35.5t-91 94.5l109 63q13 -31 45 -50t77 -19q42 0 74.5 22.5t47.5 59.5h-170v116h170q-15 37 -47.5 59.5t-74.5 22.5q-88 0 -121 -68l-109 63q32 59 92.5 94t136.5 35z" />
    <glyph glyph-name="uni044E" unicode="&#x44e;" horiz-adv-x="811" 
d="M514 514q111 0 188 -76.5t77 -187.5t-77 -187.5t-188 -76.5q-94 0 -164 57t-90 147h-72v-190h-129v500h129v-189h73q20 89 90 146t163 57zM514 112q58 0 97 39t39 99t-39 99t-97 39t-96.5 -39t-38.5 -99t38.5 -99t96.5 -39z" />
    <glyph glyph-name="uni044F" unicode="&#x44f;" horiz-adv-x="519" 
d="M460 0h-126v156h-45l-115 -156h-149l125 171q-48 20 -76.5 63.5t-28.5 93.5q0 70 50 121t131 51h234v-500zM236 385q-28 0 -46.5 -16.5t-18.5 -44.5q0 -27 18.5 -43t46.5 -16h98v120h-98z" />
    <glyph glyph-name="uni0451" unicode="&#x451;" horiz-adv-x="581" 
d="M196 553q-28 0 -48 19.5t-20 47.5t20 48t48 20t47.5 -20t19.5 -48t-19.5 -47.5t-47.5 -19.5zM386 553q-28 0 -48 19.5t-20 47.5t20 48t48 20t47.5 -20t19.5 -48t-19.5 -47.5t-47.5 -19.5zM168 197q26 -94 141 -94q74 0 112 50l104 -60q-74 -107 -218 -107q-124 0 -199 75
t-75 189q0 113 74 188.5t190 75.5q110 0 181.5 -76t71.5 -188q0 -25 -5 -53h-377zM421 297q-11 51 -45.5 76t-78.5 25q-52 0 -86 -26.5t-45 -74.5h255z" />
    <glyph glyph-name="uni0452" unicode="&#x452;" horiz-adv-x="583" 
d="M343 514q83 0 136.5 -55t53.5 -152v-317q0 -110 -54 -160.5t-164 -43.5v124q46 -3 67.5 16t21.5 64v301q0 50 -27.5 76.5t-72.5 26.5q-50 0 -80 -31t-30 -93v-270h-129v554h-62v84h62v62h129v-62h141v-84h-141v-111q46 71 149 71z" />
    <glyph glyph-name="uni0453" unicode="&#x453;" horiz-adv-x="411" 
d="M258 563h-124l80 137h155zM401 376h-213v-376h-129v500h342v-124z" />
    <glyph glyph-name="uni0454" unicode="&#x454;" horiz-adv-x="537" 
d="M524 116q-30 -59 -91 -94.5t-138 -35.5q-115 0 -188.5 73.5t-73.5 190.5t73.5 190.5t187.5 73.5q76 0 136.5 -35t92.5 -94l-109 -63q-33 68 -121 68q-42 0 -74.5 -22.5t-47.5 -59.5h170v-116h-170q15 -37 47.5 -59.5t74.5 -22.5q45 0 77 19t45 50z" />
    <glyph glyph-name="uni0455" unicode="&#x455;" horiz-adv-x="465" 
d="M178 358q0 -20 26.5 -32.5t64.5 -22t76 -24t64.5 -48.5t26.5 -85q0 -77 -57.5 -118.5t-143.5 -41.5q-154 0 -210 119l112 63q22 -65 98 -65q69 0 69 43q0 20 -26.5 32.5t-64.5 22.5t-76 25t-64.5 47.5t-26.5 81.5q0 74 54.5 116.5t135.5 42.5q61 0 111 -27.5t79 -78.5
l-110 -60q-24 51 -80 51q-25 0 -41.5 -11t-16.5 -30z" />
    <glyph glyph-name="uni0456" unicode="&#x456;" horiz-adv-x="247" 
d="M123 560q-32 0 -55.5 23.5t-23.5 55.5t23.5 56t55.5 24q33 0 56.5 -24t23.5 -56t-23.5 -55.5t-56.5 -23.5zM59 500h129v-500h-129v500z" />
    <glyph glyph-name="uni0457" unicode="&#x457;" horiz-adv-x="247" 
d="M28 549q-28 0 -48 19.5t-20 47.5t20 48t48 20t47.5 -20t19.5 -48t-19.5 -47.5t-47.5 -19.5zM218 549q-28 0 -48 19.5t-20 47.5t20 48t48 20t47.5 -20t19.5 -48t-19.5 -47.5t-47.5 -19.5zM59 500h129v-500h-129v500z" />
    <glyph glyph-name="uni0458" unicode="&#x458;" horiz-adv-x="264" 
d="M141 560q-33 0 -56.5 23.5t-23.5 55.5t23.5 56t56.5 24q32 0 55.5 -24t23.5 -56t-23.5 -55.5t-55.5 -23.5zM76 500h129v-510q0 -110 -53.5 -160.5t-164.5 -43.5v124q46 -3 67.5 16t21.5 64v510z" />
    <glyph glyph-name="uni0459" unicode="&#x459;" horiz-adv-x="764" 
d="M570 328q79 0 125 -44t46 -120t-47 -120t-124 -44h-221v376h-128v-167q0 -229 -211 -215v121q82 -11 82 101v284h386v-172h92zM571 114q22 0 37 13t15 37t-15 37t-37 13h-93v-100h93z" />
    <glyph glyph-name="uni045A" unicode="&#x45a;" horiz-adv-x="790" 
d="M589 328q79 0 128.5 -44.5t49.5 -119.5t-50 -119.5t-128 -44.5h-222v207h-187v-207h-129v500h129v-172h187v172h129v-172h93zM589 114q22 0 37 13t15 37t-15 37t-37 13h-93v-100h93z" />
    <glyph glyph-name="uni045B" unicode="&#x45b;" horiz-adv-x="583" 
d="M343 514q83 0 136.5 -55t53.5 -152v-307h-129v291q0 50 -27.5 76.5t-72.5 26.5q-50 0 -80 -31t-30 -93v-270h-129v554h-62v84h62v62h129v-62h141v-84h-141v-111q46 71 149 71z" />
    <glyph glyph-name="uni045C" unicode="&#x45c;" horiz-adv-x="525" 
d="M313 563h-124l80 137h155zM370 0l-182 227v-227h-129v500h129v-220l172 220h154l-201 -247l207 -253h-150z" />
    <glyph glyph-name="uni045E" unicode="&#x45e;" horiz-adv-x="525" 
d="M408 564h-290v112h290v-112zM523 500l-182 -500q-76 -211 -264 -200v120q51 -1 80.5 19t47.5 67l-202 494h137l134 -336l111 336h138z" />
    <glyph glyph-name="uni045F" unicode="&#x45f;" horiz-adv-x="575" 
d="M516 500v-500h-165v-134h-126v134h-166v500h129v-379h199v379h129z" />
    <glyph glyph-name="uni0490" unicode="&#x490;" horiz-adv-x="475" 
d="M463 820v-252h-260v-568h-138v700h260v120h138z" />
    <glyph glyph-name="uni0491" unicode="&#x491;" horiz-adv-x="411" 
d="M401 601v-225h-213v-376h-129v500h216v101h126z" />
    <glyph glyph-name="uni10D0" unicode="&#x10d0;" horiz-adv-x="609" 
d="M297 -14q-120 0 -188.5 70.5t-68.5 171.5q0 38 17 91l130 -40q-9 -31 -9 -50q0 -51 32.5 -80t86.5 -29t86.5 29.5t32.5 84.5v108q0 35 -23.5 65t-78.5 72q-66 49 -87 85t-21 83v53h137v-53q0 -13 53 -55l-2 2q1 -1 9.5 -8.5t12.5 -10.5q33 -25 50.5 -40.5t41.5 -44.5
t35 -65.5t11 -82.5v-108q0 -106 -66.5 -177t-190.5 -71z" />
    <glyph glyph-name="uni10D1" unicode="&#x10d1;" horiz-adv-x="558" 
d="M280 -14q-107 0 -181 71t-74 181q0 96 59 161t137 83v39l-26 14q-28 14 -42.5 32.5t-14.5 56.5v76h133v-46q0 -9 8 -14l34 -17q46 -26 46 -77v-71q76 -25 125 -84.5t49 -152.5q0 -110 -74 -181t-179 -71zM280 118q48 0 82 34.5t34 84.5t-34 84.5t-82 34.5
q-49 0 -83 -34.5t-34 -84.5t34 -84.5t83 -34.5z" />
    <glyph glyph-name="uni10D2" unicode="&#x10d2;" horiz-adv-x="564" 
d="M281 -14q-106 0 -181 72t-75 175q0 101 76.5 174t179.5 73q29 0 46 14.5t17 35.5q0 23 -15.5 39t-47.5 16q-31 0 -46.5 -14.5t-15.5 -32.5v-10h-138v10q0 69 53.5 122.5t146.5 53.5q95 0 147.5 -52t52.5 -124q0 -25 -6 -46.5t-15 -33.5t-18 -21t-15 -12l-6 -3
q5 -1 13 -4.5t28 -18t35.5 -33.5t28.5 -54.5t13 -78.5q0 -101 -75.5 -174t-182.5 -73zM281 118q49 0 84.5 33.5t35.5 82.5q0 50 -34 82.5t-86 32.5q-51 0 -84.5 -34t-33.5 -81t35 -81.5t83 -34.5z" />
    <glyph glyph-name="uni10D3" unicode="&#x10d3;" horiz-adv-x="805" 
d="M557 -20q-143 62 -195 80q-76 26 -135 -4l-85 -55l-64 88q44 52 100 67q-70 43 -109 117t-39 164q0 127 60 202t168 75q45 0 79.5 -14t46.5 -28l13 -13q4 6 13 15t44.5 24.5t80.5 15.5q104 0 174.5 -73.5t70.5 -176.5q0 -105 -69 -177.5t-176 -72.5q-108 0 -176.5 72.5
t-68.5 177.5q0 56 21 102q-24 17 -53 17q-44 0 -69.5 -38.5t-25.5 -109.5q0 -70 50 -133.5t135 -96.5l262 -101zM535 345q46 0 76.5 34.5t30.5 84.5q0 49 -30.5 84t-76.5 35t-76.5 -35t-30.5 -84q0 -50 30.5 -84.5t76.5 -34.5z" />
    <glyph glyph-name="uni10D4" unicode="&#x10d4;" horiz-adv-x="610" 
d="M297 -14q-116 0 -186.5 67t-70.5 163q0 38 14 78l130 -24q-6 -30 -6 -42q0 -46 29.5 -78t87.5 -32q59 0 88 37t29 93v228q0 47 -25.5 76.5t-76.5 29.5t-74.5 -22t-23.5 -56l2 -18l-136 -19q-5 27 -5 40q0 93 62.5 150t173.5 57q112 0 176.5 -65t64.5 -173v-223
q0 -120 -68 -193.5t-185 -73.5z" />
    <glyph glyph-name="uni10D5" unicode="&#x10d5;" horiz-adv-x="588" 
d="M297 -14q-106 0 -182 70.5t-76 171.5q0 20 6 53l132 -16q-5 -27 -5 -37q0 -47 35.5 -78.5t89.5 -31.5q52 0 85 28t33 66q0 40 -25 66t-70 26h-102v133h86q46 0 69 20.5t23 54.5q0 29 -31 50t-76 21q-46 0 -75.5 -27t-29.5 -72q0 -4 2 -13l-133 -12q-3 18 -3 25
q0 104 69 167t170 63q102 0 171.5 -55.5t69.5 -146.5q0 -28 -7.5 -52t-18 -38.5t-21.5 -25t-19 -14.5l-7 -4q4 -1 10 -3.5t21.5 -14t27.5 -28t22 -48.5t10 -72q0 -90 -73 -158t-178 -68z" />
    <glyph glyph-name="uni10D6" unicode="&#x10d6;" horiz-adv-x="627" 
d="M372 -11q-94 0 -163.5 64t-69.5 164v5q0 38 12.5 81t33.5 70q-73 2 -119 43.5t-46 119.5q0 71 51.5 123t133.5 52q84 0 134 -46.5t50 -119.5q0 -32 -9.5 -58t-19.5 -36l-9 -10l21 4q95 0 164 -64.5t69 -163.5t-69.5 -163.5t-163.5 -64.5zM205 492q22 0 36 12.5t14 31.5
q0 20 -13.5 32.5t-36.5 12.5t-37.5 -13t-14.5 -32t15 -31.5t37 -12.5zM372 123q41 0 68.5 27t27.5 67t-28 67.5t-68 27.5t-67.5 -27.5t-27.5 -67.5t27.5 -67t67.5 -27z" />
    <glyph glyph-name="uni10D7" unicode="&#x10d7;" horiz-adv-x="929" 
d="M307 -14q-44 0 -86 14t-79 42t-59.5 78.5t-22.5 115.5v227q0 127 72.5 189t174.5 62q43 0 76.5 -8t51.5 -20t29.5 -24t14.5 -20l3 -8q1 3 3.5 8.5t13.5 19.5t27 24.5t46 19t68 8.5q107 0 168 -68t61 -198v-249q0 -90 -39 -199h-141q42 85 42 199l1 247q0 65 -25.5 97.5
t-66.5 32.5q-38 0 -61.5 -28.5t-23.5 -84.5v-227q0 -65 -23 -115.5t-60.5 -78.5t-79 -42t-85.5 -14zM307 120q51 0 80.5 32t29.5 84v227q0 52 -29 84.5t-81 32.5t-80.5 -32.5t-28.5 -84.5v-227q0 -52 29 -84t80 -32z" />
    <glyph glyph-name="uni10D8" unicode="&#x10d8;" horiz-adv-x="634" 
d="M103 0q-5 10 -12 28.5t-19 74.5t-12 112v251q0 106 66.5 177t190.5 71t190.5 -71t66.5 -177v-251q0 -56 -11 -109.5t-21 -79.5l-11 -26h-137q42 116 42 215v251q0 54 -32.5 84t-86.5 30t-86.5 -30t-32.5 -84v-251q0 -44 10.5 -97.5t21.5 -85.5l10 -32h-137z" />
    <glyph glyph-name="uni10D9" unicode="&#x10d9;" horiz-adv-x="579" 
d="M288 -14q-112 0 -185 69.5t-73 172.5q0 25 5 54l137 -20q-5 -20 -5 -34q0 -47 34.5 -77.5t87.5 -30.5t82.5 27t29.5 73q0 45 -23 74t-67 29h-99v132h83q46 0 67 18.5t21 56.5q0 23 -18.5 46.5t-36.5 35.5l-18 12l85 90q5 -2 13.5 -7t30.5 -22t38.5 -37t30 -52.5
t13.5 -67.5q0 -43 -16.5 -76.5t-32.5 -45.5l-16 -12q3 -2 9 -5t20 -17t25 -31.5t20 -50t9 -70.5q0 -102 -69.5 -168t-181.5 -66z" />
    <glyph glyph-name="uni10DA" unicode="&#x10da;" horiz-adv-x="1128" 
d="M682 -15q-260 85 -312 103q-76 28 -135 -4l-85 -55l-64 89q44 52 100 66q-156 96 -156 259q0 110 60.5 190.5t162.5 80.5q54 0 92.5 -15t50.5 -30l11 -15q1 2 4 6.5t15 14.5t28 18t45 14.5t63 6.5t62.5 -6t45 -15t28 -18t15.5 -15l4 -6q1 2 4 6.5t15.5 14.5t28.5 18
t45.5 14.5t64.5 6.5q99 0 161 -65.5t62 -193.5q0 -130 -124 -235l-88 99q74 67 74 138q0 58 -23.5 90.5t-61.5 32.5q-39 0 -64 -33.5t-25 -100.5v-95h-137v95q0 134 -87 134q-40 0 -63.5 -33t-23.5 -101v-95h-137v95q0 67 -22.5 100.5t-62.5 33.5t-65 -36t-25 -100
q0 -76 58.5 -128t158.5 -91l350 -128z" />
    <glyph glyph-name="uni10DB" unicode="&#x10db;" horiz-adv-x="606" 
d="M288 -14q-115 0 -186.5 72t-71.5 175t65 171.5t176 68.5q45 0 79.5 -12.5t47.5 -25.5l12 -13v39q-1 49 -31 84t-87 35q-58 0 -86.5 -28.5t-28.5 -66.5v-6h-136v6q0 100 67.5 164.5t183.5 64.5t185 -71t69 -182v-228q0 -103 -71.5 -175t-186.5 -72zM289 120q55 0 87 30.5
t32 79.5q0 48 -32 78.5t-87 30.5q-56 0 -88.5 -30.5t-32.5 -79.5t32.5 -79t88.5 -30z" />
    <glyph glyph-name="uni10DC" unicode="&#x10dc;" horiz-adv-x="605" 
d="M318 -14q-115 0 -186.5 72t-71.5 175v236q0 231 234 231h241v-134h-241q-51 0 -74.5 -23t-23.5 -74v-47q4 6 12.5 14.5t41 22.5t72.5 14q113 0 183 -69t70 -171q0 -103 -71 -175t-186 -72zM317 120q56 0 88 30t32 79t-32 79.5t-88 30.5t-88 -30.5t-32 -78.5
q0 -49 32 -79.5t88 -30.5z" />
    <glyph glyph-name="uni10DD" unicode="&#x10dd;" horiz-adv-x="895" 
d="M612 714q99 0 161 -69t62 -182v-248q0 -56 -10.5 -109.5t-21.5 -79.5l-11 -26h-137q42 116 42 215v251q0 55 -24 84t-68 29q-43 0 -67.5 -31t-22.5 -84v-244h-135v244q2 53 -22.5 84t-67.5 31q-44 0 -68 -29t-24 -84v-251q0 -44 10.5 -97.5t21.5 -85.5l10 -32h-137
q-5 10 -12 28.5t-19 74.5t-12 112v248q0 113 62 182t161 69q34 0 64 -7.5t47.5 -18t30 -20.5t17.5 -18l5 -7q2 3 5.5 7.5t17 17t30.5 22t47 17t65 7.5z" />
    <glyph glyph-name="uni10DE" unicode="&#x10de;" horiz-adv-x="587" 
d="M297 -14q-107 0 -183 70.5t-76 171.5q0 20 5 53l129 -16q-4 -28 -4 -37q0 -47 37 -78.5t92 -31.5q52 0 84.5 26.5t32.5 64.5q0 40 -25 66t-70 26h-100v133h85q92 0 92 61q0 29 -21 41.5t-75 19.5q-16 2 -43 5t-38 4.5t-29.5 5t-26.5 7t-19 9t-15.5 13.5t-9 19t-5.5 25
l-4 56h114q3 -22 22 -24l60 -6q96 -7 159.5 -48t63.5 -128q0 -36 -16.5 -66t-32.5 -42l-16 -11q3 -2 9 -5t20 -16.5t25 -30.5t20 -47.5t9 -66.5q0 -90 -73 -156.5t-177 -66.5z" />
    <glyph glyph-name="uni10DF" unicode="&#x10df;" horiz-adv-x="610" 
d="M297 -14q-116 0 -186.5 67t-70.5 163q0 38 14 78l130 -24q-6 -30 -6 -42q0 -46 29.5 -78t87.5 -32q59 0 88 37t29 93v332l-100 -15q28 -32 28 -74q0 -52 -38 -97.5t-106 -45.5q-34 0 -64.5 7t-43.5 15l-13 7l36 105l39 -9q43 -11 52 19q4 15 -10.5 29t-44.5 18l-31 4v100
l361 71h73v-461q0 -120 -68 -193.5t-185 -73.5z" />
    <glyph glyph-name="uni10E0" unicode="&#x10e0;" horiz-adv-x="890" 
d="M118 0q-6 10 -16 29t-26 79.5t-16 123.5q0 81 24 150.5t64 117t86 78.5t95 46l338 97l35 -112q-254 -75 -336 -101q-65 -20 -87 -34q9 1 29 1q35 0 62.5 -7t42.5 -16.5t24.5 -19.5t12.5 -17l3 -7l5 7.5t16.5 16t30.5 20.5t47 16t65 7q99 0 163.5 -64.5t64.5 -185.5
q0 -57 -14.5 -113.5t-28.5 -83.5l-14 -28h-142q61 138 61 222q0 60 -25.5 90.5t-64.5 30.5q-41 0 -68 -30.5t-27 -87.5v-116h-138v116q0 57 -27 87.5t-68 30.5q-39 0 -64.5 -30.5t-25.5 -90.5q0 -37 15 -92.5t30 -92.5l16 -37h-142z" />
    <glyph glyph-name="uni10E1" unicode="&#x10e1;" horiz-adv-x="597" 
d="M316 -14q-104 0 -180 70t-76 186v458h138v-465q0 -50 33.5 -83.5t84.5 -33.5t84.5 34t33.5 85q0 80 -87 127l71 115q154 -81 154 -242q0 -109 -77 -180t-179 -71z" />
    <glyph glyph-name="uni10E2" unicode="&#x10e2;" horiz-adv-x="687" 
d="M343 -14q-138 0 -223 97.5t-85 234.5q0 117 65 208.5t174 114.5v59h137v-59q109 -24 175 -115.5t66 -207.5q0 -137 -85.5 -234.5t-223.5 -97.5zM343 120q75 0 123 57t48 141q0 64 -27.5 116.5t-75.5 73.5v-203h-137v203q-45 -22 -73.5 -75.5t-28.5 -114.5q0 -84 48 -141
t123 -57z" />
    <glyph glyph-name="uni10E3" unicode="&#x10e3;" horiz-adv-x="610" 
d="M297 -14q-116 0 -186.5 67t-70.5 163q0 38 14 78l130 -24q-6 -30 -6 -42q0 -46 29.5 -78t87.5 -32q59 0 88 37t29 93v263q0 35 -13.5 52t-32.5 17t-32.5 -17t-13.5 -52v-129h-137v129q0 69 -84 69h-59v134h59q36 0 65 -6t44.5 -14.5t26 -17t13.5 -14.5l3 -6l3 6t11.5 14
t21.5 17.5t33.5 14t46.5 6.5q183 0 183 -203v-258q0 -120 -68 -193.5t-185 -73.5z" />
    <glyph glyph-name="uni10E4" unicode="&#x10e4;" horiz-adv-x="895" 
d="M519 -14q-168 0 -247 46t-96 158h131q8 -35 69.5 -52.5t142.5 -17.5q90 0 144 26t54 70q0 45 -24.5 68t-66.5 23h-78v134h63q43 0 67.5 20.5t24.5 54.5q0 30 -27 46.5t-62 16.5q-36 0 -60.5 -28t-24.5 -88q0 -99 -72 -172t-182 -73q-112 0 -181 70t-69 179
q0 110 67 178.5t183 68.5q39 0 71.5 -7.5t51 -18t32 -21t18.5 -17.5l4 -8q2 3 5 8t16.5 17t30 21.5t46 17.5t64.5 8q99 0 160.5 -57.5t61.5 -140.5q0 -40 -15 -73t-31 -47l-15 -13q3 -1 8.5 -3.5t19.5 -14.5t24.5 -28.5t19 -47t8.5 -68.5q0 -44 -18 -83.5t-56 -74.5
t-105.5 -56t-156.5 -21zM275 354q48 0 81.5 31t34.5 82q-1 51 -34.5 81.5t-81.5 30.5q-47 0 -79.5 -31t-33.5 -81q1 -51 33.5 -82t79.5 -31z" />
    <glyph glyph-name="uni10E5" unicode="&#x10e5;" horiz-adv-x="610" 
d="M297 -14q-116 0 -186.5 67t-70.5 163q0 40 15 78l130 -24q-7 -26 -7 -42q0 -46 29.5 -78t87.5 -32q59 0 88 37t29 93l1 159q-1 48 -30 77t-83 29q-53 0 -78 -29.5t-13 -72.5l-135 -14q-17 56 3.5 114t73.5 97t124 39q31 0 56.5 -5.5t40 -12.5t25 -14.5t13.5 -12.5l4 -6
v104h136v-447q0 -120 -68 -193.5t-185 -73.5z" />
    <glyph glyph-name="uni10E6" unicode="&#x10e6;" horiz-adv-x="833" 
d="M567 -14q-153 50 -205 68q-76 26 -134 -4l-86 -55l-64 88q44 52 100 67q-70 43 -109 118.5t-39 166.5q0 134 63.5 206.5t166.5 72.5q35 0 64.5 -7t46.5 -16.5t29.5 -19t17.5 -16.5l4 -7l5 7.5t16.5 15.5t30.5 20t47 16t66 7q102 0 161.5 -74t59.5 -189q0 -134 -119 -236
l-86 97q68 65 68 141q0 58 -23.5 89.5t-60.5 31.5q-41 0 -68.5 -30.5t-27.5 -86.5v-100h-138v100q0 57 -26 87t-67 30q-42 0 -69.5 -38t-27.5 -103q0 -71 50.5 -137.5t134.5 -96.5l268 -91z" />
    <glyph glyph-name="uni10E7" unicode="&#x10e7;" horiz-adv-x="609" 
d="M296 -14q-116 0 -186 67t-70 163q0 39 15 78l129 -24q-6 -22 -6 -42q0 -46 29 -77t88 -31t87.5 36t28.5 92v69q-4 -5 -12.5 -12.5t-41 -19.5t-72.5 -12q-99 0 -171 65t-72 194q0 28 7.5 70t14.5 70l8 28h131q-25 -96 -25 -168q0 -60 33 -93.5t84 -33.5q52 0 85 35.5
t33 102.5v157h136v-447q0 -120 -67 -193.5t-186 -73.5z" />
    <glyph glyph-name="uni10E8" unicode="&#x10e8;" horiz-adv-x="596" 
d="M288 -14q-115 0 -186.5 72t-71.5 175t65 171.5t176 68.5q45 0 79.5 -12.5t47.5 -25.5l12 -13v91q0 69 -45 69q-44 0 -44 -66h-134q-2 66 -82 66h-58v132h75q30 0 54 -6t37.5 -15t22.5 -17.5t12 -14.5l3 -6l3 6t11 14.5t21 18t33.5 14t47.5 6.5q84 0 131.5 -59t47.5 -166
v-256q0 -103 -71.5 -175t-186.5 -72zM289 120q55 0 87 30.5t32 79.5q0 48 -32 78.5t-87 30.5q-56 0 -88.5 -30t-32.5 -79t32.5 -79.5t88.5 -30.5z" />
    <glyph glyph-name="uni10E9" unicode="&#x10e9;" horiz-adv-x="594" 
d="M60 0v457q0 130 58.5 193.5t159.5 63.5q99 0 159 -44.5t60 -126.5q0 -36 -13.5 -65t-26.5 -40l-13 -11q5 -1 13 -4t28.5 -18t36.5 -36t29 -61.5t13 -90.5t-12 -104.5t-24 -83.5l-13 -29h-135q48 128 48 217q0 67 -36.5 98t-88.5 31q-27 0 -53.5 -3.5t-39.5 -6.5l-13 -4
v-332h-137zM196 464l58 9q60 8 83 21t23 37q0 45 -76 45q-86 0 -88 -112z" />
    <glyph glyph-name="uni10EA" unicode="&#x10ea;" horiz-adv-x="665" 
d="M354 -14q-147 0 -228 100t-81 263q0 60 9.5 118.5t23.5 98.5t28 71.5t24 46.5l9 16h133q-4 -6 -10 -18t-21 -50t-27 -77t-21.5 -95.5t-9.5 -110.5q0 -117 47 -173t124 -56q64 0 98.5 28t34.5 71q0 83 -100 83h-52v134h52q80 0 80 47q0 36 -46 58q-58 29 -76 48.5
t-18 55.5v55h134v-19q0 -14 13 -22q4 -2 17 -9t19 -10q51 -28 72.5 -66t21.5 -98q0 -31 -14.5 -57t-29.5 -37l-14 -10q3 -1 8.5 -4t19 -15.5t24 -28t19 -44t8.5 -61.5q0 -40 -14 -79t-43.5 -74.5t-85 -57.5t-128.5 -22z" />
    <glyph glyph-name="uni10EB" unicode="&#x10eb;" horiz-adv-x="605" 
d="M287 -14q-115 0 -186 72t-71 175t65 171.5t176 68.5q28 0 53 -5.5t39.5 -12.5t25.5 -14.5t15 -12.5l5 -6v278h136v-467q0 -103 -71.5 -175t-186.5 -72zM288 120q56 0 88 30.5t32 79.5q0 48 -32 78.5t-88 30.5t-88 -30.5t-32 -79.5t32 -79t88 -30z" />
    <glyph glyph-name="uni10EC" unicode="&#x10ec;" horiz-adv-x="596" 
d="M308 -14q-115 0 -186.5 72t-71.5 175v256q0 107 47.5 166t131.5 59q41 0 70 -15t37 -29l9 -15l3 6t12 14.5t23 18t37 14t54 6.5h75v-132h-58q-80 0 -82 -66h-134q0 66 -44 66q-45 0 -45 -69v-91q2 2 5 5.5t15 12.5t26.5 15.5t39.5 12t53 5.5q111 0 176 -68.5t65 -171.5
t-71.5 -175t-186.5 -72zM307 120q56 0 88.5 30.5t32.5 79.5t-32.5 79t-88.5 30q-55 0 -87 -30.5t-32 -78.5q0 -49 32 -79.5t87 -30.5z" />
    <glyph glyph-name="uni10ED" unicode="&#x10ed;" horiz-adv-x="625" 
d="M297 -14q-116 0 -186.5 67t-70.5 163q0 38 14 78l130 -24q-6 -30 -6 -42q0 -46 29.5 -78t87.5 -32q59 0 88 37t29 93v87q-4 -4 -12.5 -10.5t-39 -17t-66.5 -10.5q-77 0 -120.5 48.5t-43.5 122.5q0 75 50 123t154 48h80v61h136v-61h75v-129h-75v-257q0 -120 -68 -193.5
t-185 -73.5zM322 425q38 0 62.5 22t29.5 50v14h-74q-75 0 -75 -43t57 -43z" />
    <glyph glyph-name="uni10EE" unicode="&#x10ee;" horiz-adv-x="605" 
d="M318 -14q-115 0 -186.5 72t-71.5 175v467h136v-278q2 2 5 5.5t14.5 12.5t26 15.5t39.5 12t53 5.5q111 0 176 -68.5t65 -171.5t-71 -175t-186 -72zM317 120q56 0 88 30t32 79t-32 79.5t-88 30.5t-88 -30.5t-32 -78.5q0 -49 32 -79.5t88 -30.5z" />
    <glyph glyph-name="uni10EF" unicode="&#x10ef;" horiz-adv-x="578" 
d="M297 -14q-116 0 -186.5 67t-70.5 163q0 43 14 78l130 -24q-6 -30 -6 -42q0 -46 29.5 -78t87.5 -32q115 0 115 92q0 44 -29.5 67.5t-80.5 23.5h-89v188l-122 17l19 134l103 -16v76h135v-94q16 -4 36 -4q18 0 39 4.5t33 9.5l12 4v-131q-44 -20 -82 -20l-38 3v-39
q90 -2 146 -54t56 -156q0 -110 -70 -173.5t-181 -63.5z" />
    <glyph glyph-name="uni10F0" unicode="&#x10f0;" horiz-adv-x="584" 
d="M298 -14q-107 0 -180.5 58t-79.5 164h132q15 -88 128 -88q47 0 77.5 15t30.5 39t-27.5 39.5t-77.5 15.5h-95v122h131q60 0 60 21q0 23 -60 23h-131v122h131q35 0 47 5.5t12 17.5q0 22 -75 28q-89 6 -135 28.5t-46 66.5v51h131v-14q0 -3 1.5 -5t9.5 -4t22 -3.5t41 -3.5
q93 -8 141 -53.5t48 -96.5q0 -25 -11 -45t-21 -27l-11 -7q5 -2 12.5 -7t19.5 -26t12 -50t-11 -51t-22 -30l-11 -8q2 -1 5.5 -3.5t13 -11t16.5 -20t12.5 -31.5t5.5 -43q0 -74 -67.5 -131t-178.5 -57z" />
    <glyph glyph-name="Wgrave" unicode="&#x1e80;" horiz-adv-x="999" 
d="M531 900h-155l111 -137h124zM15 700h145l134 -519l146 519h118l147 -519l134 519h145l-196 -700h-157l-132 462l-131 -462h-157z" />
    <glyph glyph-name="wgrave" unicode="&#x1e81;" horiz-adv-x="770" 
d="M343 563l-111 137h155l80 -137h-124zM759 500l-159 -500h-123l-92 303l-92 -303h-123l-159 500h137l85 -307l91 307h122l91 -308l85 308h137z" />
    <glyph glyph-name="Wacute" unicode="&#x1e82;" horiz-adv-x="999" 
d="M573 763l111 137h-155l-80 -137h124zM15 700h145l134 -519l146 519h118l147 -519l134 519h145l-196 -700h-157l-132 462l-131 -462h-157z" />
    <glyph glyph-name="wacute" unicode="&#x1e83;" horiz-adv-x="770" 
d="M429 563h-124l80 137h155zM759 500l-159 -500h-123l-92 303l-92 -303h-123l-159 500h137l85 -307l91 307h122l91 -308l85 308h137z" />
    <glyph glyph-name="Wdieresis" unicode="&#x1e84;" horiz-adv-x="999" 
d="M434 749q-28 0 -48 19.5t-20 47.5t20 48t48 20t47.5 -20t19.5 -48t-19.5 -47.5t-47.5 -19.5zM624 749q-28 0 -48 19.5t-20 47.5t20 48t48 20t47.5 -20t19.5 -48t-19.5 -47.5t-47.5 -19.5zM15 700h145l134 -519l146 519h118l147 -519l134 519h145l-196 -700h-157l-132 462
l-131 -462h-157z" />
    <glyph glyph-name="wdieresis" unicode="&#x1e85;" horiz-adv-x="770" 
d="M290 549q-28 0 -48 19.5t-20 47.5t20 48t48 20t47.5 -20t19.5 -48t-19.5 -47.5t-47.5 -19.5zM480 549q-28 0 -48 19.5t-20 47.5t20 48t48 20t47.5 -20t19.5 -48t-19.5 -47.5t-47.5 -19.5zM759 500l-159 -500h-123l-92 303l-92 -303h-123l-159 500h137l85 -307l91 307h122
l91 -308l85 308h137z" />
    <glyph glyph-name="Ygrave" unicode="&#x1ef2;" horiz-adv-x="621" 
d="M268 763l-111 137h155l80 -137h-124zM379 273v-273h-137v273l-239 427h156l152 -292l152 292h156z" />
    <glyph glyph-name="ygrave" unicode="&#x1ef3;" horiz-adv-x="525" 
d="M221 563l-111 137h155l80 -137h-124zM523 500l-182 -500q-39 -108 -103.5 -156.5t-160.5 -43.5v120q52 -1 82.5 22t48.5 74l-205 484h141l130 -336l111 336h138z" />
    <glyph glyph-name="endash" unicode="&#x2013;" horiz-adv-x="645" 
d="M65 364h515v-124h-515v124z" />
    <glyph glyph-name="emdash" unicode="&#x2014;" horiz-adv-x="745" 
d="M65 364h615v-124h-615v124z" />
    <glyph glyph-name="quoteleft" unicode="&#x2018;" horiz-adv-x="278" 
d="M124 700h105l-40 -278h-140z" />
    <glyph glyph-name="quoteright" unicode="&#x2019;" horiz-adv-x="278" 
d="M154 423h-105l40 278h140z" />
    <glyph glyph-name="quotesinglbase" unicode="&#x201a;" horiz-adv-x="278" 
d="M154 -140h-105l40 278h140z" />
    <glyph glyph-name="quotedblleft" unicode="&#x201c;" horiz-adv-x="463" 
d="M124 700h105l-40 -278h-140zM309 700h105l-40 -278h-140z" />
    <glyph glyph-name="quotedblright" unicode="&#x201d;" horiz-adv-x="463" 
d="M154 423h-105l40 278h140zM339 423h-105l40 278h140z" />
    <glyph glyph-name="quotedblbase" unicode="&#x201e;" horiz-adv-x="463" 
d="M154 -140h-105l40 278h140zM339 -140h-105l40 278h140z" />
    <glyph glyph-name="dagger" unicode="&#x2020;" horiz-adv-x="480" 
d="M435 441h-130v-441h-129v441h-131v124h131v135h129v-135h130v-124z" />
    <glyph glyph-name="daggerdbl" unicode="&#x2021;" horiz-adv-x="480" 
d="M305 441v-182h130v-124h-130v-135h-129v135h-131v124h131v182h-131v124h131v135h129v-135h130v-124h-130z" />
    <glyph glyph-name="bullet" unicode="&#x2022;" horiz-adv-x="360" 
d="M182 213q-58 0 -98.5 40.5t-40.5 98.5q0 56 40.5 96t98.5 40q56 0 96 -40t40 -96q0 -58 -40 -98.5t-96 -40.5z" />
    <glyph glyph-name="ellipsis" unicode="&#x2026;" horiz-adv-x="723" 
d="M134 -13q-35 0 -60 25t-25 60t25 60t60 25t60 -25t25 -60t-25 -60t-60 -25zM362 -13q-35 0 -60 25t-25 60t25 60t60 25t60 -25t25 -60t-25 -60t-60 -25zM589 -13q-35 0 -60 25t-25 60t25 60t60 25t60 -25t25 -60t-25 -60t-60 -25z" />
    <glyph glyph-name="perthousand" unicode="&#x2030;" horiz-adv-x="1139" 
d="M214 384q-72 0 -120.5 48t-48.5 117t48.5 117t120.5 48t120 -47.5t48 -117.5t-48 -117.5t-120 -47.5zM572 613l61 -34l-457 -508l-60 35zM213 485q27 0 45 18.5t18 45.5t-18 45t-45 18t-44.5 -18t-17.5 -45t17.5 -45.5t44.5 -18.5zM552 -12q-72 0 -120 48t-48 117t48 117
t120 48t120 -48t48 -117t-48 -117t-120 -48zM926 -12q-72 0 -120.5 48t-48.5 117t48.5 117t120.5 48q71 0 119.5 -48t48.5 -117t-48.5 -117t-119.5 -48zM552 89q27 0 44.5 19t17.5 45q0 27 -17.5 45.5t-44.5 18.5t-44.5 -18.5t-17.5 -45.5t17.5 -45.5t44.5 -18.5zM925 89
q28 0 45.5 19t17.5 45q0 27 -17.5 45.5t-45.5 18.5q-27 0 -44.5 -18.5t-17.5 -45.5t17.5 -45.5t44.5 -18.5z" />
    <glyph glyph-name="guilsinglleft" unicode="&#x2039;" horiz-adv-x="355" 
d="M182 309l110 -187h-119l-110 187l110 188h119z" />
    <glyph glyph-name="guilsinglright" unicode="&#x203a;" horiz-adv-x="355" 
d="M292 309l-110 -187h-119l110 187l-110 188h119z" />
    <glyph glyph-name="fraction" unicode="&#x2044;" horiz-adv-x="190" 
d="M-150 0l400 700h90l-400 -700h-90z" />
    <glyph glyph-name="Euro" unicode="&#x20ac;" horiz-adv-x="611" 
d="M589 139q-68 -153 -229 -153q-111 0 -182.5 73t-91.5 198h-70v78h63v15v24h-63v77h71q21 122 92 192.5t181 70.5q155 0 226 -146l-115 -66q-37 78 -111 78q-105 0 -134 -129h205v-77h-215v-24v-15h215v-78h-207q28 -136 136 -136q76 0 115 83z" />
    <glyph glyph-name="uni20BD" unicode="&#x20bd;" horiz-adv-x="601" 
d="M225 243v-55h223v-88h-223v-100h-137v100h-75v88h75v55h-75v121h75v336h261q99 0 167.5 -68t68.5 -164t-68 -160.5t-168 -64.5h-124zM225 364h124q42 0 70.5 30t28.5 74t-28.5 73.5t-70.5 29.5h-124v-207z" />
    <glyph glyph-name="uni20BE" unicode="&#x20be;" horiz-adv-x="793" 
d="M171 357q0 -95 65.5 -158.5t159.5 -63.5h336v-135h-678v122h86q-107 82 -107 235q0 120 71 212.5t180 127.5v103h67v-89q23 3 45 3q24 0 46 -3v89h67v-103q111 -36 181 -130.5t70 -216.5h-138q0 67 -30.5 120t-82.5 82v-202h-67v226q-20 4 -46 4q-25 0 -45 -4v-226h-67
v202q-52 -29 -82.5 -79t-30.5 -116z" />
    <glyph glyph-name="uni2116" unicode="&#x2116;" horiz-adv-x="1039" 
d="M839 383q-72 0 -120 48.5t-48 116.5q0 69 48 117t120 48t120 -48t48 -117t-47.5 -117t-120.5 -48zM608 700v-700h-105l-300 428v-428h-138v700h105l300 -427v427h138zM839 488q26 0 42.5 17t16.5 43t-16.5 43t-42.5 17t-42.5 -17t-16.5 -43t16.5 -43t42.5 -17zM684 329
h312v-121h-312v121z" />
    <glyph glyph-name="trademark" unicode="&#x2122;" horiz-adv-x="473" 
d="M204 644h-55v-144h-61v144h-55v56h171v-56zM441 700v-200h-58v109l-48 -73h-5l-48 73v-109h-58v200h58l51 -77l50 77h58z" />
    <glyph glyph-name="estimated" unicode="&#x212e;" horiz-adv-x="790" 
d="M395 710q163 0 266.5 -104t103.5 -256q0 -15 -15 -15h-560q-15 0 -15 -15v-192q0 -11 7 -19q84 -89 233 -89q145 0 231 97q8 9 18 9h37q10 0 13 -6t-4 -13q-109 -117 -295 -117q-176 0 -283 103.5t-107 256.5q0 152 103.5 256t266.5 104zM615 572q0 11 -7 19
q-84 89 -213 89t-213 -89q-7 -8 -7 -19v-192q0 -15 15 -15h410q15 0 15 15v192z" />
    <glyph glyph-name="oneeighth" unicode="&#x215b;" horiz-adv-x="806" 
d="M110 300v292l-82 -23l-25 88l120 43h94v-400h-107zM607 700l-400 -700h-90l400 700h90zM727 210q58 -34 58 -101q0 -56 -40.5 -89.5t-112.5 -33.5t-113 33.5t-41 89.5q0 67 59 101q-45 31 -45 84q0 55 39.5 87.5t100.5 32.5t100.5 -32.5t39.5 -87.5q0 -53 -45 -84z
M632 323q-48 0 -48 -38q0 -39 48 -39q21 0 34.5 10.5t13.5 28.5t-13.5 28t-34.5 10zM632 78q25 0 38.5 12.5t13.5 33.5q0 20 -14 32.5t-38 12.5q-25 0 -39 -12t-14 -33t14 -33.5t39 -12.5z" />
    <glyph glyph-name="threeeighths" unicode="&#x215c;" horiz-adv-x="887" 
d="M321 421q0 -65 -41 -100t-114 -35q-116 0 -156 89l90 52q17 -47 66 -47q48 0 48 41q0 18 -14 29t-37 11h-19l-40 58l69 84h-145v97h275v-79l-72 -86q43 -12 66.5 -41.5t23.5 -72.5zM688 700l-400 -700h-90l400 700h90zM808 210q58 -34 58 -101q0 -56 -40.5 -89.5
t-112.5 -33.5t-113 33.5t-41 89.5q0 67 59 101q-45 31 -45 84q0 55 39.5 87.5t100.5 32.5t100.5 -32.5t39.5 -87.5q0 -53 -45 -84zM713 323q-48 0 -48 -38q0 -39 48 -39q21 0 34.5 10.5t13.5 28.5t-13.5 28t-34.5 10zM713 78q25 0 38.5 12.5t13.5 33.5q0 20 -14 32.5
t-38 12.5q-25 0 -39 -12t-14 -33t14 -33.5t39 -12.5z" />
    <glyph glyph-name="fiveeighths" unicode="&#x215d;" horiz-adv-x="873" 
d="M315 417q0 -63 -40.5 -97t-105.5 -34q-116 0 -156 89l88 50q18 -47 65 -47q51 0 51 41q0 19 -13 31t-38 12h-128l16 238h242v-97h-152l-4 -54h33q65 0 103.5 -33t38.5 -99zM674 700l-400 -700h-90l400 700h90zM794 210q58 -34 58 -101q0 -56 -40.5 -89.5t-112.5 -33.5
t-113 33.5t-41 89.5q0 67 59 101q-45 31 -45 84q0 55 39.5 87.5t100.5 32.5t100.5 -32.5t39.5 -87.5q0 -53 -45 -84zM699 323q-48 0 -48 -38q0 -39 48 -39q21 0 34.5 10.5t13.5 28.5t-13.5 28t-34.5 10zM699 78q25 0 38.5 12.5t13.5 33.5q0 20 -14 32.5t-38 12.5
q-25 0 -39 -12t-14 -33t14 -33.5t39 -12.5z" />
    <glyph glyph-name="seveneighths" unicode="&#x215e;" horiz-adv-x="834" 
d="M42 300l121 303h-160v97h276v-82l-126 -318h-111zM635 700l-400 -700h-90l400 700h90zM755 210q58 -34 58 -101q0 -56 -40.5 -89.5t-112.5 -33.5t-113 33.5t-41 89.5q0 67 59 101q-45 31 -45 84q0 55 39.5 87.5t100.5 32.5t100.5 -32.5t39.5 -87.5q0 -53 -45 -84z
M660 323q-48 0 -48 -38q0 -39 48 -39q21 0 34.5 10.5t13.5 28.5t-13.5 28t-34.5 10zM660 78q25 0 38.5 12.5t13.5 33.5q0 20 -14 32.5t-38 12.5q-25 0 -39 -12t-14 -33t14 -33.5t39 -12.5z" />
    <glyph glyph-name="arrowleft" unicode="&#x2190;" horiz-adv-x="798" 
d="M753 288h-475l238 -238h-171l-300 300l300 300h171l-238 -238h475v-124z" />
    <glyph glyph-name="arrowup" unicode="&#x2191;" horiz-adv-x="690" 
d="M645 229l-235 235v-464h-129v465l-236 -236v171l300 300l300 -300v-171z" />
    <glyph glyph-name="arrowright" unicode="&#x2192;" horiz-adv-x="798" 
d="M753 350l-300 -300h-171l238 238h-475v124h475l-238 238h171z" />
    <glyph glyph-name="arrowdown" unicode="&#x2193;" horiz-adv-x="690" 
d="M645 471v-171l-300 -300l-300 300v171l236 -236v465h129v-464z" />
    <glyph glyph-name="arrowboth" unicode="&#x2194;" horiz-adv-x="1085" 
d="M1040 350l-272 -272h-168l208 210h-533l210 -210h-168l-272 272l272 273h168l-210 -211h535l-210 211h168z" />
    <glyph glyph-name="arrowupdn" unicode="&#x2195;" horiz-adv-x="635" 
d="M382 616v-531l208 208v-168l-272 -273l-273 273v168l208 -207v529l-208 -208v168l273 273l272 -273v-168z" />
    <glyph glyph-name="uni2196" unicode="&#x2196;" horiz-adv-x="643" 
d="M511 60l-345 344v-335l-121 120v424h424l121 -120h-337l345 -345z" />
    <glyph glyph-name="uni2197" unicode="&#x2197;" horiz-adv-x="643" 
d="M598 613v-424l-120 -120v336l-345 -345l-88 88l345 345h-336l120 120h424z" />
    <glyph glyph-name="uni2198" unicode="&#x2198;" horiz-adv-x="643" 
d="M598 497v-424h-424l-120 120h336l-345 345l88 88l345 -345v336z" />
    <glyph glyph-name="uni2199" unicode="&#x2199;" horiz-adv-x="643" 
d="M253 193h337l-121 -120h-424v424l121 120v-335l345 344l87 -88z" />
    <glyph glyph-name="partialdiff" unicode="&#x2202;" horiz-adv-x="584" 
d="M240 714q122 0 210.5 -101.5t88.5 -262.5q0 -174 -79 -269t-200 -95q-101 0 -159 61t-58 153q0 103 61 168.5t165 65.5q76 0 138 -40q-10 92 -57 144.5t-126 53.5q-57 1 -115 -32v118q56 36 131 36zM265 108q59 0 95.5 47t46.5 129q-51 36 -120 36q-50 0 -82.5 -30.5
t-32.5 -85.5q0 -44 25.5 -70t67.5 -26z" />
    <glyph glyph-name="emptyset" unicode="&#x2205;" horiz-adv-x="804" 
d="M660 604q104 -106 104 -254q0 -150 -106 -256t-256 -106q-104 0 -192 55l-50 -63h-107l92 115q-105 107 -105 255q0 150 106 256t256 106q104 0 192 -55l50 63h108zM130 350q0 -106 71 -185l337 423q-61 36 -136 36q-113 0 -192.5 -79.5t-79.5 -194.5zM402 76
q114 0 193 80t79 194q0 107 -70 185l-338 -423q63 -36 136 -36z" />
    <glyph glyph-name="product" unicode="&#x220f;" horiz-adv-x="640" 
d="M65 700h510v-900h-129v776h-252v-776h-129v900z" />
    <glyph glyph-name="summation" unicode="&#x2211;" horiz-adv-x="563" 
d="M35 -90l213 350l-198 329v111h460v-124h-308l191 -316l-205 -336h337v-124h-490v110z" />
    <glyph glyph-name="minus" unicode="&#x2212;" horiz-adv-x="555" 
d="M53 411h450v-121h-450v121z" />
    <glyph glyph-name="radical" unicode="&#x221a;" horiz-adv-x="676" 
d="M147 199h-102v124h176l100 -173l218 650h132l-277 -800h-125z" />
    <glyph glyph-name="infinity" unicode="&#x221e;" horiz-adv-x="808" 
d="M575 525q78 0 129.5 -48.5t51.5 -126.5t-51.5 -126.5t-129.5 -48.5q-86 0 -171 87q-85 -87 -171 -87q-79 0 -130.5 48.5t-51.5 126.5t51.5 126.5t130.5 48.5q86 0 171 -87q85 87 171 87zM239 291q43 0 89 59q-46 59 -89 59q-26 0 -42.5 -17t-16.5 -42t16.5 -42t42.5 -17z
M569 291q26 0 42.5 17t16.5 42t-16.5 42t-42.5 17q-43 0 -89 -59q46 -59 89 -59z" />
    <glyph glyph-name="integral" unicode="&#x222b;" horiz-adv-x="441" 
d="M0 -75q33 -18 66 -3t41 59l95 561q18 106 82 145t157 15v-128q-34 17 -68 2.5t-41 -58.5l-96 -562q-18 -106 -81.5 -145t-154.5 -15v129z" />
    <glyph glyph-name="approxequal" unicode="&#x2248;" horiz-adv-x="569" 
d="M289 379q-49 23 -80 27.5t-47 -3t-34 -26.5l-83 28q53 198 235 114q64 -31 95.5 -27t43.5 51l105 -51q-22 -94 -85.5 -124.5t-149.5 11.5zM45 208q22 95 85.5 125t149.5 -12q48 -23 79.5 -27t47 3t34.5 26l83 -28q-53 -197 -235 -114q-64 31 -95.5 27t-43.5 -51z" />
    <glyph glyph-name="notequal" unicode="&#x2260;" horiz-adv-x="525" 
d="M322 393l-39 -86h197v-121h-251l-59 -131h-80l59 131h-104v121h158l39 86h-197v121h251l59 131h80l-59 -131h104v-121h-158z" />
    <glyph glyph-name="lessequal" unicode="&#x2264;" horiz-adv-x="528" 
d="M483 519l-289 -90l289 -89v-134l-438 166v114l438 167v-134zM45 176h438v-121h-438v121z" />
    <glyph glyph-name="greaterequal" unicode="&#x2265;" horiz-adv-x="528" 
d="M483 486v-114l-438 -166v134l289 89l-289 90v134zM45 176h438v-121h-438v121z" />
    <glyph glyph-name="lozenge" unicode="&#x25ca;" horiz-adv-x="555" 
d="M43 350l186 350h98l186 -350l-186 -350h-98zM373 350l-95 180l-96 -180l96 -180z" />
    <glyph glyph-name="i.loclTRK" horiz-adv-x="247" 
d="M123 551q-32 0 -55 23t-23 55t23 54.5t55 22.5q31 0 54 -23t23 -54q0 -32 -23 -55t-54 -23zM59 500h129v-500h-129v500z" />
    <glyph glyph-name="f_f_j" horiz-adv-x="834" 
d="M775 -10q0 -110 -53.5 -160.5t-163.5 -43.5v124q45 -3 66.5 16t21.5 64v386h-147v-376h-129v376h-148v-376h-129v376h-72v124h72v5q0 106 59 161t176 48v-124q-106 8 -106 -85v-5h148v15q0 209 235 209q54 0 118 -14v-118q-69 8 -118 8q-53 0 -79.5 -18.5t-26.5 -66.5
v-15h276v-510z" />
    <glyph glyph-name="f_j" horiz-adv-x="557" 
d="M498 -10q0 -110 -53.5 -160.5t-164.5 -43.5v124q46 -3 67.5 16t21.5 64v386h-147v-376h-129v376h-72v124h72v5q0 209 235 209q53 0 117 -14v-118q-67 8 -117 8q-54 0 -80 -18.5t-26 -66.5v-5h276v-510z" />
    <glyph glyph-name="uni0414.loclBGR" horiz-adv-x="730" 
d="M713 132v-266h-138v134h-420v-134h-137v266h79l183 568h171l183 -568h79zM489 132l-124 412l-124 -412h248z" />
    <glyph glyph-name="uni041B.loclBGR" horiz-adv-x="647" 
d="M409 700l236 -700h-151l-170 538l-171 -538h-150l235 700h171z" />
    <glyph glyph-name="uni0424.loclBGR" horiz-adv-x="859" 
d="M827 350q0 -148 -90 -244.5t-242 -113.5v-92h-130v92q-152 17 -242 113.5t-90 244.5t90 244.5t242 113.5v92h130v-92q152 -17 242 -113.5t90 -244.5zM170 350q0 -98 49.5 -157.5t145.5 -73.5v463q-96 -15 -145.5 -74.5t-49.5 -157.5zM495 119q96 15 145 74t49 157
t-49 157.5t-145 74.5v-463z" />
    <glyph glyph-name="uni0414.ss01" horiz-adv-x="705" 
d="M678 132v-132h-663v132h68q58 81 58 237v331h462v-568h75zM465 132v439h-186v-204q0 -152 -48 -235h234z" />
    <glyph glyph-name="uni0426.ss01" horiz-adv-x="690" 
d="M663 132v-132h-598v700h138v-568h247v568h138v-568h75z" />
    <glyph glyph-name="uni0429.ss01" horiz-adv-x="980" 
d="M953 132v-132h-888v700h138v-568h200v568h137v-568h200v568h138v-568h75z" />
    <glyph glyph-name="uni0414.loclBGR.ss01" horiz-adv-x="730" 
d="M713 132v-132h-695v132h79l183 568h171l183 -568h79zM489 132l-124 412l-124 -412h248z" />
    <glyph glyph-name="uni0432.loclBGR" horiz-adv-x="566" 
d="M419 409q115 -47 115 -195q0 -107 -63 -167.5t-175 -60.5q-108 0 -172.5 66.5t-64.5 176.5v238q0 111 62 179t165 68q87 0 141 -47.5t54 -126.5q0 -68 -62 -131zM286 593q-45 0 -71.5 -34.5t-26.5 -91.5v-58l47 10q35 7 61 8q59 47 59 98q0 31 -18.5 49.5t-50.5 18.5z
M296 111q52 0 80.5 27t28.5 76q0 58 -46 81t-124 7l-47 -10v-63q0 -55 29 -86.5t79 -31.5z" />
    <glyph glyph-name="uni0433.loclBGR" horiz-adv-x="465" 
d="M445 106q-56 -120 -210 -120q-86 0 -143.5 41.5t-57.5 118.5q0 51 26 85t63 48.5t74 24t63 22t26 32.5t-16 30.5t-40 10.5q-56 0 -82 -52l-109 60q28 51 78.5 79t112.5 28q80 0 134 -42.5t54 -116.5q0 -42 -18.5 -72t-46.5 -44.5t-61 -25.5t-61 -17t-46.5 -18t-18.5 -29
q0 -46 69 -46q76 0 98 67z" />
    <glyph glyph-name="uni0434.loclBGR" 
d="M568 500v-476q0 -116 -76.5 -177t-184.5 -61q-81 0 -142.5 31t-94.5 91l110 63q38 -70 131 -70q61 0 96 32t35 91v54q-57 -76 -160 -76q-106 0 -177.5 74.5t-71.5 181.5q0 106 72 181t177 75q103 0 160 -76v62h126zM302 121q61 0 100.5 38.5t39.5 98.5q0 59 -39.5 97.5
t-100.5 38.5t-100.5 -38.5t-39.5 -97.5q0 -60 39.5 -98.5t100.5 -38.5z" />
    <glyph glyph-name="uni0436.loclBGR" horiz-adv-x="746" 
d="M589 0l-153 223v-223h-126v223l-153 -223h-144l180 253l-170 247h144l143 -216v416h126v-416l143 216h145l-171 -247l181 -253h-145z" />
    <glyph glyph-name="uni0438.loclBGR" horiz-adv-x="577" 
d="M518 500v-500h-129v56q-47 -70 -149 -70q-82 0 -135.5 55t-53.5 152v307h129v-291q0 -50 27 -76.5t72 -26.5q50 0 80 31t30 93v270h129z" />
    <glyph glyph-name="uni0439.loclBGR" horiz-adv-x="577" 
d="M429 564h-290v112h290v-112zM518 500v-500h-129v56q-47 -70 -149 -70q-82 0 -135.5 55t-53.5 152v307h129v-291q0 -50 27 -76.5t72 -26.5q50 0 80 31t30 93v270h129z" />
    <glyph glyph-name="uni043A.loclBGR" horiz-adv-x="525" 
d="M370 0l-182 227v-227h-129v700h129v-420l172 220h154l-201 -247l207 -253h-150z" />
    <glyph glyph-name="uni043B.loclBGR" horiz-adv-x="533" 
d="M388 0l-122 350l-121 -350h-142l190 500h147l190 -500h-142z" />
    <glyph glyph-name="uni043F.loclBGR" horiz-adv-x="577" 
d="M337 514q82 0 135.5 -55t53.5 -152v-307h-129v291q0 50 -27 76.5t-72 26.5q-50 0 -80 -31t-30 -93v-270h-129v500h129v-56q47 70 149 70z" />
    <glyph glyph-name="uni0442.loclBGR" horiz-adv-x="852" 
d="M612 514q86 0 137.5 -56t51.5 -150v-308h-129v299q0 45 -22 70t-62 25q-44 0 -68.5 -29t-24.5 -84v-281h-129v299q0 45 -22 70t-62 25q-43 0 -68.5 -29t-25.5 -84v-281h-129v500h129v-53q45 67 139 67q92 0 136 -72q50 72 149 72z" />
    <glyph glyph-name="uni0446.loclBGR" horiz-adv-x="616" 
d="M593 121v-255h-126v144q-41 17 -62 55q-51 -79 -165 -79q-82 0 -135.5 55.5t-53.5 151.5v307h129v-290q0 -50 27 -77t72 -27q50 0 80 31t30 93v270h129v-347q0 -32 32 -32h43z" />
    <glyph glyph-name="uni0448.loclBGR" horiz-adv-x="852" 
d="M793 500v-500h-129v53q-45 -67 -139 -67q-92 0 -136 72q-50 -72 -149 -72q-86 0 -137.5 56t-51.5 150v308h129v-299q0 -45 22 -70t62 -25q44 0 68.5 29t24.5 84v281h129v-299q0 -45 22 -70t62 -25q43 0 68.5 29t25.5 84v281h129z" />
    <glyph glyph-name="uni0449.loclBGR" horiz-adv-x="891" 
d="M868 121v-255h-126v144q-39 15 -59 50q-50 -74 -150 -74q-98 0 -144 73q-49 -73 -149 -73q-86 0 -137.5 56t-51.5 150v308h129v-298q0 -45 22 -70.5t62 -25.5q44 0 68.5 29t24.5 84v281h129v-298q0 -45 22 -70.5t62 -25.5q43 0 68.5 29t25.5 84v281h129v-347
q0 -32 32 -32h43z" />
    <glyph glyph-name="uni044C.loclBGR" horiz-adv-x="493" 
d="M268 361q98 0 150.5 -48t52.5 -134q0 -82 -58.5 -137.5t-151.5 -55.5q-98 0 -154 54.5t-56 145.5v314h126v-139h91zM261 108q36 0 60 22t24 50q0 30 -20 48.5t-57 18.5h-91v-61q0 -34 22.5 -56t61.5 -22z" />
    <glyph glyph-name="uni044A.loclBGR" horiz-adv-x="579" 
d="M354 361q98 0 150 -48t52 -134q0 -82 -58.5 -137.5t-151.5 -55.5q-98 0 -154 54.5t-56 145.5v193h-136v121h262v-139h92zM346 108q36 0 60 22t24 50q0 30 -20 48.5t-56 18.5h-92v-61q0 -34 23 -56t61 -22z" />
    <glyph glyph-name="uni044E.loclBGR" horiz-adv-x="811" 
d="M514 514q111 0 188 -76.5t77 -187.5t-77 -187.5t-188 -76.5q-94 0 -164 57t-90 147h-72v-190h-129v700h129v-389h73q20 89 90 146t163 57zM514 112q58 0 97 39t39 99t-39 99t-97 39t-96.5 -39t-38.5 -99t38.5 -99t96.5 -39z" />
    <glyph glyph-name="zero.sinf" horiz-adv-x="409" 
d="M204 -174q-83 0 -132 58t-49 156t49 156t132 58t132.5 -58t49.5 -156t-49.5 -156t-132.5 -58zM204 -67q35 0 53.5 27.5t18.5 79.5t-18.5 79.5t-53.5 27.5q-34 0 -52.5 -27.5t-18.5 -79.5t18.5 -79.5t52.5 -27.5z" />
    <glyph glyph-name="one.sinf" horiz-adv-x="265" 
d="M217 240v-400h-107v292l-82 -23l-25 88l120 43h94z" />
    <glyph glyph-name="two.sinf" horiz-adv-x="349" 
d="M24 -90l150 149q35 33 35 61q0 16 -11 26t-30 10q-41 0 -62 -51l-87 50q42 99 150 99q64 0 106 -35.5t42 -90.5q0 -61 -68 -129l-65 -62h139v-97h-299v70z" />
    <glyph glyph-name="three.sinf" horiz-adv-x="345" 
d="M231 75q43 -12 66.5 -41.5t23.5 -72.5q0 -65 -41 -100t-114 -35q-116 0 -156 89l90 52q17 -47 66 -47q48 0 48 41q0 18 -14 29t-37 11h-19l-40 58l69 84h-145v97h275v-79z" />
    <glyph glyph-name="four.sinf" horiz-adv-x="357" 
d="M341 -96h-41v-64h-102v64h-187v98l129 238h114l-123 -238h67v69h102v-69h41v-98z" />
    <glyph glyph-name="five.sinf" horiz-adv-x="336" 
d="M174 89q65 0 103.5 -33t38.5 -99q0 -63 -40.5 -97t-105.5 -34q-116 0 -156 89l88 50q18 -47 65 -47q51 0 51 41q0 19 -13 31t-38 12h-128l16 238h242v-97h-152l-4 -54h33z" />
    <glyph glyph-name="six.sinf" horiz-adv-x="340" 
d="M185 110q63 -4 101 -43t38 -98q0 -63 -42.5 -103t-111.5 -40t-111.5 40t-42.5 103q0 40 19 73l125 198h110zM170 -84q25 0 40 14t15 39q0 24 -15 37.5t-40 13.5t-39.5 -13.5t-14.5 -37.5q0 -25 15 -39t39 -14z" />
    <glyph glyph-name="seven.sinf" horiz-adv-x="295" 
d="M279 240v-82l-126 -318h-111l121 303h-160v97h276z" />
    <glyph glyph-name="eight.sinf" horiz-adv-x="349" 
d="M270 50q58 -34 58 -101q0 -56 -40.5 -89.5t-112.5 -33.5t-113 33.5t-41 89.5q0 67 59 101q-45 31 -45 84q0 55 39.5 87.5t100.5 32.5t100.5 -32.5t39.5 -87.5q0 -53 -45 -84zM175 163q-48 0 -48 -38q0 -39 48 -39q21 0 34.5 10.5t13.5 28.5t-13.5 28t-34.5 10zM175 -82
q25 0 38.5 12.5t13.5 33.5q0 20 -14 32.5t-38 12.5q-25 0 -39 -12t-14 -33t14 -33.5t39 -12.5z" />
    <glyph glyph-name="nine.sinf" horiz-adv-x="340" 
d="M324 111q0 -40 -19 -73l-124 -198h-111l85 130q-63 4 -101 43.5t-38 97.5q0 63 42.5 103t111.5 40t111.5 -40t42.5 -103zM116 111q0 -24 14.5 -37.5t39.5 -13.5t40 13.5t15 37.5q0 25 -15 39t-40 14q-24 0 -39 -14t-15 -39z" />
    <glyph glyph-name="zero.tf" horiz-adv-x="578" 
d="M289 -14q-132 0 -206 99.5t-74 264.5t74 264.5t206 99.5q131 0 205.5 -99.5t74.5 -264.5t-74.5 -264.5t-205.5 -99.5zM289 121q70 0 106 58.5t36 170.5t-36 171t-106 59t-106.5 -59t-36.5 -171q0 -111 36.5 -170t106.5 -59z" />
    <glyph glyph-name="one.tf" horiz-adv-x="578" 
d="M559 132v-132h-530v132h202v422l-132 -37l-34 118l184 65h120v-568h190z" />
    <glyph glyph-name="two.tf" horiz-adv-x="578" 
d="M34 103l255 231q49 44 74.5 78t25.5 70q0 41 -27.5 69.5t-79.5 28.5q-83 0 -130 -91l-116 68q37 77 102 117t145 40q107 0 175 -63.5t68 -160.5q0 -66 -36 -122t-107 -119l-132 -116h287v-133h-504v103z" />
    <glyph glyph-name="three.tf" horiz-adv-x="578" 
d="M380 424q77 -21 123 -73t46 -131q0 -110 -73 -172t-186 -62q-97 0 -166 41.5t-102 122.5l118 68q33 -97 143 -97q62 0 95 26.5t33 72.5t-33 72.5t-95 26.5h-28l-55 81l144 171h-300v129h473v-114z" />
    <glyph glyph-name="four.tf" horiz-adv-x="578" 
d="M561 119h-75v-119h-139v119h-338v128l232 453h148l-232 -453h190v161h139v-161h75v-128z" />
    <glyph glyph-name="five.tf" horiz-adv-x="578" 
d="M296 445q111 0 182 -60t71 -169q0 -108 -73.5 -169t-182.5 -61q-97 0 -166.5 41.5t-102.5 122.5l118 68q33 -97 147 -97q60 0 91 25.5t31 69.5q0 43 -31 69t-91 26h-225l28 389h424v-129h-298l-10 -126h88z" />
    <glyph glyph-name="six.tf" horiz-adv-x="578" 
d="M291 480q121 -1 193 -69t72 -178q0 -111 -73.5 -179t-196.5 -68t-196.5 68t-73.5 179q0 93 53 158l222 309h159zM286 116q61 0 97 31t36 86t-36 86.5t-97 31.5t-96.5 -31t-35.5 -87q0 -55 35.5 -86t96.5 -31z" />
    <glyph glyph-name="seven.tf" horiz-adv-x="578" 
d="M545 700v-117l-265 -583h-145l256 568h-366v132h520z" />
    <glyph glyph-name="eight.tf" horiz-adv-x="578" 
d="M456 364q103 -58 103 -169q0 -96 -72 -152.5t-198 -56.5t-198 56.5t-72 152.5q0 111 103 169q-79 52 -79 145q0 97 69.5 151t176.5 54q106 0 176 -54t70 -151q0 -92 -79 -145zM289 584q-51 0 -80 -22t-29 -60t29 -60.5t80 -22.5t80 22.5t29 60.5t-29 60t-80 22zM289 116
q64 0 98.5 25.5t34.5 71.5t-34.5 71t-98.5 25t-98.5 -25t-34.5 -71t34.5 -71.5t98.5 -25.5z" />
    <glyph glyph-name="nine.tf" horiz-adv-x="578" 
d="M561 467q0 -86 -45 -148l-229 -319h-159l159 220q-122 1 -194 69t-72 178q0 111 73.5 179t196.5 68q124 0 197 -68t73 -179zM159 467q0 -55 35.5 -86t96.5 -31q62 0 97.5 30.5t35.5 86.5t-35.5 86.5t-97.5 30.5q-61 0 -96.5 -31t-35.5 -86z" />
    <glyph glyph-name="zero.dnom" horiz-adv-x="409" 
d="M204 -14q-83 0 -132 58t-49 156t49 156t132 58t132.5 -58t49.5 -156t-49.5 -156t-132.5 -58zM204 93q35 0 53.5 27.5t18.5 79.5t-18.5 79.5t-53.5 27.5q-34 0 -52.5 -27.5t-18.5 -79.5t18.5 -79.5t52.5 -27.5z" />
    <glyph glyph-name="one.dnom" horiz-adv-x="267" 
d="M217 400v-400h-107v292l-82 -23l-25 88l120 43h94z" />
    <glyph glyph-name="two.dnom" horiz-adv-x="356" 
d="M24 70l150 149q35 33 35 61q0 16 -11 26t-30 10q-41 0 -62 -51l-87 50q42 99 150 99q64 0 106 -35.5t42 -90.5q0 -61 -68 -129l-65 -62h139v-97h-299v70z" />
    <glyph glyph-name="three.dnom" horiz-adv-x="348" 
d="M231 235q43 -12 66.5 -41.5t23.5 -72.5q0 -65 -41 -100t-114 -35q-116 0 -156 89l90 52q17 -47 66 -47q48 0 48 41q0 18 -14 29t-37 11h-19l-40 58l69 84h-145v97h275v-79z" />
    <glyph glyph-name="four.dnom" horiz-adv-x="357" 
d="M341 64h-41v-64h-102v64h-187v98l129 238h114l-123 -238h67v69h102v-69h41v-98z" />
    <glyph glyph-name="five.dnom" horiz-adv-x="334" 
d="M173 249q65 0 103.5 -33t38.5 -99q0 -63 -40.5 -97t-105.5 -34q-116 0 -156 89l88 50q18 -47 65 -47q51 0 51 41q0 19 -13 31t-38 12h-128l16 238h242v-97h-152l-4 -54h33z" />
    <glyph glyph-name="six.dnom" horiz-adv-x="340" 
d="M185 270q63 -4 101 -43t38 -98q0 -63 -42.5 -103t-111.5 -40t-111.5 40t-42.5 103q0 40 19 73l125 198h110zM170 76q25 0 40 14t15 39q0 24 -15 37.5t-40 13.5t-39.5 -13.5t-14.5 -37.5q0 -25 15 -39t39 -14z" />
    <glyph glyph-name="seven.dnom" horiz-adv-x="295" 
d="M279 400v-82l-126 -318h-111l121 303h-160v97h276z" />
    <glyph glyph-name="eight.dnom" horiz-adv-x="349" 
d="M270 210q58 -34 58 -101q0 -56 -40.5 -89.5t-112.5 -33.5t-113 33.5t-41 89.5q0 67 59 101q-45 31 -45 84q0 55 39.5 87.5t100.5 32.5t100.5 -32.5t39.5 -87.5q0 -53 -45 -84zM175 323q-48 0 -48 -38q0 -39 48 -39q21 0 34.5 10.5t13.5 28.5t-13.5 28t-34.5 10zM175 78
q25 0 38.5 12.5t13.5 33.5q0 20 -14 32.5t-38 12.5q-25 0 -39 -12t-14 -33t14 -33.5t39 -12.5z" />
    <glyph glyph-name="nine.dnom" horiz-adv-x="340" 
d="M324 271q0 -40 -19 -73l-124 -198h-111l85 130q-63 4 -101 43.5t-38 97.5q0 63 42.5 103t111.5 40t111.5 -40t42.5 -103zM116 271q0 -24 14.5 -37.5t39.5 -13.5t40 13.5t15 37.5q0 25 -15 39t-40 14q-24 0 -39 -14t-15 -39z" />
    <glyph glyph-name="zero.numr" horiz-adv-x="409" 
d="M204 286q-83 0 -132 58t-49 156t49 156t132 58t132.5 -58t49.5 -156t-49.5 -156t-132.5 -58zM204 393q35 0 53.5 27.5t18.5 79.5t-18.5 79.5t-53.5 27.5q-34 0 -52.5 -27.5t-18.5 -79.5t18.5 -79.5t52.5 -27.5z" />
    <glyph glyph-name="one.numr" horiz-adv-x="267" 
d="M217 700v-400h-107v292l-82 -23l-25 88l120 43h94z" />
    <glyph glyph-name="two.numr" horiz-adv-x="356" 
d="M24 370l150 149q35 33 35 61q0 16 -11 26t-30 10q-41 0 -62 -51l-87 50q42 99 150 99q64 0 106 -35.5t42 -90.5q0 -61 -68 -129l-65 -62h139v-97h-299v70z" />
    <glyph glyph-name="three.numr" horiz-adv-x="348" 
d="M231 535q43 -12 66.5 -41.5t23.5 -72.5q0 -65 -41 -100t-114 -35q-116 0 -156 89l90 52q17 -47 66 -47q48 0 48 41q0 18 -14 29t-37 11h-19l-40 58l69 84h-145v97h275v-79z" />
    <glyph glyph-name="four.numr" horiz-adv-x="357" 
d="M341 364h-41v-64h-102v64h-187v98l129 238h114l-123 -238h67v69h102v-69h41v-98z" />
    <glyph glyph-name="five.numr" horiz-adv-x="334" 
d="M173 549q65 0 103.5 -33t38.5 -99q0 -63 -40.5 -97t-105.5 -34q-116 0 -156 89l88 50q18 -47 65 -47q51 0 51 41q0 19 -13 31t-38 12h-128l16 238h242v-97h-152l-4 -54h33z" />
    <glyph glyph-name="six.numr" horiz-adv-x="340" 
d="M185 570q63 -4 101 -43t38 -98q0 -63 -42.5 -103t-111.5 -40t-111.5 40t-42.5 103q0 40 19 73l125 198h110zM170 376q25 0 40 14t15 39q0 24 -15 37.5t-40 13.5t-39.5 -13.5t-14.5 -37.5q0 -25 15 -39t39 -14z" />
    <glyph glyph-name="seven.numr" horiz-adv-x="295" 
d="M279 700v-82l-126 -318h-111l121 303h-160v97h276z" />
    <glyph glyph-name="eight.numr" horiz-adv-x="349" 
d="M270 510q58 -34 58 -101q0 -56 -40.5 -89.5t-112.5 -33.5t-113 33.5t-41 89.5q0 67 59 101q-45 31 -45 84q0 55 39.5 87.5t100.5 32.5t100.5 -32.5t39.5 -87.5q0 -53 -45 -84zM175 623q-48 0 -48 -38q0 -39 48 -39q21 0 34.5 10.5t13.5 28.5t-13.5 28t-34.5 10zM175 378
q25 0 38.5 12.5t13.5 33.5q0 20 -14 32.5t-38 12.5q-25 0 -39 -12t-14 -33t14 -33.5t39 -12.5z" />
    <glyph glyph-name="nine.numr" horiz-adv-x="340" 
d="M324 571q0 -40 -19 -73l-124 -198h-111l85 130q-63 4 -101 43.5t-38 97.5q0 63 42.5 103t111.5 40t111.5 -40t42.5 -103zM116 571q0 -24 14.5 -37.5t39.5 -13.5t40 13.5t15 37.5q0 25 -15 39t-40 14q-24 0 -39 -14t-15 -39z" />
    <glyph glyph-name="zero.sups" horiz-adv-x="409" 
d="M204 446q-83 0 -132 58t-49 156t49 156t132 58t132.5 -58t49.5 -156t-49.5 -156t-132.5 -58zM204 553q35 0 53.5 27.5t18.5 79.5t-18.5 79.5t-53.5 27.5q-34 0 -52.5 -27.5t-18.5 -79.5t18.5 -79.5t52.5 -27.5z" />
    <glyph glyph-name="one.sups" horiz-adv-x="267" 
d="M217 860v-400h-107v292l-82 -23l-25 88l120 43h94z" />
    <glyph glyph-name="two.sups" horiz-adv-x="356" 
d="M24 530l150 149q35 33 35 61q0 16 -11 26t-30 10q-41 0 -62 -51l-87 50q42 99 150 99q64 0 106 -35.5t42 -90.5q0 -61 -68 -129l-65 -62h139v-97h-299v70z" />
    <glyph glyph-name="three.sups" horiz-adv-x="348" 
d="M231 695q43 -12 66.5 -41.5t23.5 -72.5q0 -65 -41 -100t-114 -35q-116 0 -156 89l90 52q17 -47 66 -47q48 0 48 41q0 18 -14 29t-37 11h-19l-40 58l69 84h-145v97h275v-79z" />
    <glyph glyph-name="four.sups" horiz-adv-x="357" 
d="M341 524h-41v-64h-102v64h-187v98l129 238h114l-123 -238h67v69h102v-69h41v-98z" />
    <glyph glyph-name="five.sups" horiz-adv-x="334" 
d="M173 709q65 0 103.5 -33t38.5 -99q0 -63 -40.5 -97t-105.5 -34q-116 0 -156 89l88 50q18 -47 65 -47q51 0 51 41q0 19 -13 31t-38 12h-128l16 238h242v-97h-152l-4 -54h33z" />
    <glyph glyph-name="six.sups" horiz-adv-x="340" 
d="M185 730q63 -4 101 -43t38 -98q0 -63 -42.5 -103t-111.5 -40t-111.5 40t-42.5 103q0 40 19 73l125 198h110zM170 536q25 0 40 14t15 39q0 24 -15 37.5t-40 13.5t-39.5 -13.5t-14.5 -37.5q0 -25 15 -39t39 -14z" />
    <glyph glyph-name="seven.sups" horiz-adv-x="295" 
d="M279 860v-82l-126 -318h-111l121 303h-160v97h276z" />
    <glyph glyph-name="eight.sups" horiz-adv-x="349" 
d="M270 670q58 -34 58 -101q0 -56 -40.5 -89.5t-112.5 -33.5t-113 33.5t-41 89.5q0 67 59 101q-45 31 -45 84q0 55 39.5 87.5t100.5 32.5t100.5 -32.5t39.5 -87.5q0 -53 -45 -84zM175 783q-48 0 -48 -38q0 -39 48 -39q21 0 34.5 10.5t13.5 28.5t-13.5 28t-34.5 10zM175 538
q25 0 38.5 12.5t13.5 33.5q0 20 -14 32.5t-38 12.5q-25 0 -39 -12t-14 -33t14 -33.5t39 -12.5z" />
    <glyph glyph-name="nine.sups" horiz-adv-x="340" 
d="M324 731q0 -40 -19 -73l-124 -198h-111l85 130q-63 4 -101 43.5t-38 97.5q0 63 42.5 103t111.5 40t111.5 -40t42.5 -103zM116 731q0 -24 14.5 -37.5t39.5 -13.5t40 13.5t15 37.5q0 25 -15 39t-40 14q-24 0 -39 -14t-15 -39z" />
    <glyph glyph-name="cent.tf" horiz-adv-x="578" 
d="M543 216q-33 -59 -93 -94.5t-133 -35.5q-34 0 -61 7l-30 -93h-58l35 110q-69 31 -109.5 95t-40.5 145q0 112 75.5 188t188.5 76q27 0 48 -4l29 90h58l-34 -106q83 -33 123 -109l-111 -65q-17 35 -52 52l-82 -257q6 -1 20 -1q39 0 69.5 17.5t45.5 48.5zM182 350
q0 -78 61 -116l82 253h-9q-58 0 -96 -38.5t-38 -98.5z" />
    <glyph glyph-name="dollar.tf" horiz-adv-x="578" 
d="M553 195q0 -88 -58 -142.5t-156 -64.5v-88h-67v87q-92 6 -155.5 50t-91.5 118l119 69q36 -93 128 -105v174q-2 0 -6 2q-48 17 -78 31.5t-64 39.5t-51 61.5t-17 85.5q0 90 61.5 142t154.5 58v87h67v-89q143 -19 199 -147l-116 -68q-25 66 -83 81v-169q32 -12 47 -17.5
t42.5 -18t41.5 -22.5t33 -26.5t27.5 -34t15.5 -42t7 -52.5zM193 514q0 -25 17.5 -43t61.5 -37v148q-79 -7 -79 -68zM339 119q76 11 76 70q0 26 -17 42.5t-59 35.5v-148z" />
    <glyph glyph-name="Euro.tf" horiz-adv-x="578" 
d="M559 142q-28 -72 -84.5 -114t-130.5 -42q-105 0 -172 72.5t-85 198.5h-66v78h60v15v24h-60v77h68q19 122 85 192.5t170 70.5q72 0 127.5 -39.5t83.5 -107.5l-115 -66q-13 36 -38.5 57.5t-57.5 21.5q-92 0 -117 -129h174v-77h-182v-24v-15h182v-78h-175q23 -136 118 -136
q34 0 61 23.5t41 62.5z" />
    <glyph glyph-name="florin.tf" horiz-adv-x="578" 
d="M555 576q-46 17 -79.5 2.5t-45.5 -58.5l-29 -106h122v-124h-156l-90 -331q-29 -106 -96 -144.5t-158 -15.5v128q100 -33 124 56l84 307h-119v124h152l36 131q29 105 96.5 144t158.5 16v-129z" />
    <glyph glyph-name="uni20BD.tf" horiz-adv-x="578" 
d="M223 243v-55h195v-88h-195v-100h-138v100h-75v88h75v55h-75v121h75v336h234q99 0 167.5 -68t68.5 -164t-68 -160.5t-168 -64.5h-96zM223 364h96q42 0 70.5 30t28.5 74t-28.5 73.5t-70.5 29.5h-96v-207z" />
    <glyph glyph-name="sterling.tf" horiz-adv-x="578" 
d="M568 133v-133h-538v133h73v141h-60v121h60v100q0 106 65.5 162.5t154.5 56.5q76 0 133 -38.5t84 -107.5l-118 -68q-26 80 -95 80q-37 0 -61.5 -23t-24.5 -67v-95h210v-121h-210v-141h327z" />
    <glyph glyph-name="yen.tf" horiz-adv-x="578" 
d="M385 362h134v-80h-161v-45h161v-81h-161v-156h-138v156h-161v81h161v45h-161v80h134l-191 338h156l131 -252l131 252h156z" />
    <glyph glyph-name="brevecy" horiz-adv-x="360" 
d="M35 676h290v-112h-290v112z" />
    </font>
</defs>
</svg>
